%FSLAX46Y46*%
G04 Gerber Fmt 4.6, Leading zero omitted, Abs format (unit mm)*
G04 Created by KiCad (PCBNEW (2014-08-01 BZR 5042)-product) date 02/08/2014 20:04:44*
%MOMM*%
G01*
G04 APERTURE LIST*
%ADD10C,0.100000*%
%ADD11R,1.399540X0.599440*%
%ADD12R,1.397000X0.889000*%
%ADD13R,0.889000X1.397000*%
%ADD14R,1.524000X1.524000*%
%ADD15C,1.524000*%
%ADD16R,1.600200X2.999740*%
%ADD17R,2.999740X1.600200*%
%ADD18C,0.889000*%
%ADD19C,0.381000*%
%ADD20C,0.254000*%
G04 APERTURE END LIST*
D10*
D11*
X119253000Y-92329000D03*
X113919000Y-92329000D03*
X119253000Y-93599000D03*
X119253000Y-94869000D03*
X119253000Y-96139000D03*
X113919000Y-93599000D03*
X113919000Y-94869000D03*
X113919000Y-96139000D03*
D12*
X110998000Y-91249500D03*
X110998000Y-93154500D03*
D13*
X119824500Y-100838000D03*
X117919500Y-100838000D03*
X117919500Y-98552000D03*
X119824500Y-98552000D03*
X117919500Y-103378000D03*
X119824500Y-103378000D03*
X113601500Y-98552000D03*
X115506500Y-98552000D03*
X113601500Y-89916000D03*
X115506500Y-89916000D03*
X119824500Y-87376000D03*
X117919500Y-87376000D03*
X109029500Y-103378000D03*
X110934500Y-103378000D03*
X119824500Y-89916000D03*
X117919500Y-89916000D03*
X115506500Y-103378000D03*
X113601500Y-103378000D03*
D12*
X122428000Y-95059500D03*
X122428000Y-96964500D03*
D13*
X115506500Y-87376000D03*
X113601500Y-87376000D03*
X109029500Y-95504000D03*
X110934500Y-95504000D03*
X113601500Y-100838000D03*
X115506500Y-100838000D03*
D12*
X110998000Y-89090500D03*
X110998000Y-87185500D03*
D13*
X109029500Y-98298000D03*
X110934500Y-98298000D03*
X109029500Y-100838000D03*
X110934500Y-100838000D03*
D12*
X132080000Y-96837500D03*
X132080000Y-98742500D03*
X132080000Y-92519500D03*
X132080000Y-94424500D03*
D14*
X104902000Y-107188000D03*
D15*
X104902000Y-104648000D03*
X104902000Y-102108000D03*
D14*
X115316000Y-107188000D03*
D15*
X112776000Y-107188000D03*
X110236000Y-107188000D03*
D14*
X122682000Y-92202000D03*
D15*
X122682000Y-89662000D03*
X122682000Y-87122000D03*
D14*
X122682000Y-107188000D03*
D15*
X122682000Y-104648000D03*
X122682000Y-102108000D03*
D14*
X137922000Y-107188000D03*
D15*
X135382000Y-107188000D03*
D14*
X137668000Y-96266000D03*
D15*
X137668000Y-93726000D03*
D14*
X104902000Y-98552000D03*
D15*
X104902000Y-96012000D03*
D16*
X134874000Y-91099640D03*
X134874000Y-86700360D03*
D17*
X133944360Y-101346000D03*
X138343640Y-101346000D03*
D16*
X127762000Y-99989640D03*
X127762000Y-95590360D03*
D17*
X126578360Y-104902000D03*
X130977640Y-104902000D03*
D16*
X127762000Y-91099640D03*
X127762000Y-86700360D03*
D15*
X106172000Y-92202000D03*
X103632000Y-89662000D03*
X106172000Y-87122000D03*
D18*
X115371900Y-95625700D03*
X112426800Y-87427300D03*
X107842600Y-101588000D03*
X109575800Y-89090500D03*
X116840000Y-103124000D03*
X109220000Y-92202000D03*
X115865000Y-96776800D03*
X121011200Y-103595600D03*
X120674900Y-94965700D03*
X116681100Y-100838000D03*
D19*
X126373400Y-90955900D02*
X121770700Y-90955900D01*
X121770700Y-90955900D02*
X120397600Y-92329000D01*
X126517100Y-91099600D02*
X126373400Y-90955900D01*
X126373400Y-90955900D02*
X126373400Y-85124300D01*
X126373400Y-85124300D02*
X126742100Y-84755600D01*
X126742100Y-84755600D02*
X135914900Y-84755600D01*
X135914900Y-84755600D02*
X137668000Y-86508700D01*
X137668000Y-86508700D02*
X137668000Y-93726000D01*
X133223300Y-96837500D02*
X133858700Y-97472900D01*
X133858700Y-97472900D02*
X138621500Y-97472900D01*
X138621500Y-97472900D02*
X138874900Y-97219500D01*
X138874900Y-97219500D02*
X138874900Y-94932900D01*
X138874900Y-94932900D02*
X137668000Y-93726000D01*
X119253000Y-92329000D02*
X120397600Y-92329000D01*
X127762000Y-91099600D02*
X126517100Y-91099600D01*
X115506500Y-87376000D02*
X116395800Y-87376000D01*
X116395800Y-87376000D02*
X116395800Y-87626100D01*
X116395800Y-87626100D02*
X117289100Y-88519400D01*
X117289100Y-88519400D02*
X118404100Y-88519400D01*
X118404100Y-88519400D02*
X118808900Y-88924200D01*
X118808900Y-88924200D02*
X118808900Y-91884900D01*
X118808900Y-91884900D02*
X119253000Y-92329000D01*
X132080000Y-96837500D02*
X133223300Y-96837500D01*
X115063600Y-96139000D02*
X115063600Y-95934000D01*
X115063600Y-95934000D02*
X115371900Y-95625700D01*
X113919000Y-96139000D02*
X115063600Y-96139000D01*
X134562800Y-86700400D02*
X136158700Y-88296300D01*
X136158700Y-88296300D02*
X136158700Y-93254600D01*
X136158700Y-93254600D02*
X135878100Y-93535200D01*
X134562800Y-86700400D02*
X127762000Y-86700400D01*
X134874000Y-86700400D02*
X134562800Y-86700400D01*
X127762000Y-95590400D02*
X129006900Y-95590400D01*
X110934500Y-98298000D02*
X110045200Y-98298000D01*
X104902000Y-98552000D02*
X106108800Y-98552000D01*
X106108800Y-98552000D02*
X107506200Y-97154600D01*
X107506200Y-97154600D02*
X109679900Y-97154600D01*
X109679900Y-97154600D02*
X110045200Y-97519900D01*
X110045200Y-97519900D02*
X110045200Y-98298000D01*
X132080000Y-93535200D02*
X131062100Y-93535200D01*
X131062100Y-93535200D02*
X129006900Y-95590400D01*
X135878100Y-93535200D02*
X132080000Y-93535200D01*
X112712200Y-87376000D02*
X112660900Y-87427300D01*
X112660900Y-87427300D02*
X112426800Y-87427300D01*
X113601500Y-87376000D02*
X112712200Y-87376000D01*
X135878100Y-93535200D02*
X135878100Y-93646400D01*
X135878100Y-93646400D02*
X137290900Y-95059200D01*
X137290900Y-95059200D02*
X137668000Y-95059200D01*
X132080000Y-94424500D02*
X132080000Y-93535200D01*
X137668000Y-96266000D02*
X137668000Y-95059200D01*
X130977600Y-104902000D02*
X133096000Y-104902000D01*
X133096000Y-104902000D02*
X135382000Y-107188000D01*
X133944400Y-101346000D02*
X134837958Y-99148632D01*
X134837958Y-99148632D02*
X138176000Y-98806000D01*
X138176000Y-98806000D02*
X139515300Y-97553300D01*
X139515300Y-97553300D02*
X139515300Y-87447500D01*
X139515300Y-87447500D02*
X136164700Y-84096900D01*
X136164700Y-84096900D02*
X125707100Y-84096900D01*
X125707100Y-84096900D02*
X122682000Y-87122000D01*
X122682000Y-87122000D02*
X122682000Y-87947800D01*
X122682000Y-87947800D02*
X120713800Y-89916000D01*
X119824500Y-89916000D02*
X120713800Y-89916000D01*
X104902000Y-102108000D02*
X106870200Y-102108000D01*
X106870200Y-102108000D02*
X108140200Y-103378000D01*
X109029500Y-103378000D02*
X108140200Y-103378000D01*
X109029500Y-98298000D02*
X108140200Y-98298000D01*
X107842600Y-101588000D02*
X107842600Y-98595600D01*
X107842600Y-98595600D02*
X108140200Y-98298000D01*
X104902000Y-96012000D02*
X104312400Y-96012000D01*
X104312400Y-96012000D02*
X102408571Y-97108835D01*
X102408571Y-97108835D02*
X102362000Y-103886000D01*
X102362000Y-103886000D02*
X104522200Y-105981100D01*
X104522200Y-105981100D02*
X105850300Y-105981100D01*
X105850300Y-105981100D02*
X110223200Y-110354000D01*
X110223200Y-110354000D02*
X133993800Y-110354000D01*
X133993800Y-110354000D02*
X136715100Y-107632700D01*
X136715100Y-107632700D02*
X136715100Y-104219400D01*
X136715100Y-104219400D02*
X138343600Y-102590900D01*
X138343600Y-101346000D02*
X138343600Y-102590900D01*
X110998000Y-89090500D02*
X109575800Y-89090500D01*
X106172000Y-87122000D02*
X106172000Y-88228000D01*
X109556000Y-91612000D02*
X110653800Y-92709800D01*
X106172000Y-88228000D02*
X109556000Y-91612000D01*
X110653800Y-92709800D02*
X110998000Y-92709800D01*
X113919000Y-92329000D02*
X112774400Y-92329000D01*
X110998000Y-92709800D02*
X112393600Y-92709800D01*
X112393600Y-92709800D02*
X112774400Y-92329000D01*
X110998000Y-93154500D02*
X110998000Y-92709800D01*
D20*
X116586000Y-103378000D02*
X116840000Y-103124000D01*
X109220000Y-92202000D02*
X109220000Y-91948000D01*
X109220000Y-91948000D02*
X109556000Y-91612000D01*
X115506500Y-103378000D02*
X116586000Y-103378000D01*
X117094000Y-103378000D02*
X117919500Y-103378000D01*
X116840000Y-103124000D02*
X117094000Y-103378000D01*
D19*
X110934500Y-100838000D02*
X110045200Y-100838000D01*
X127762000Y-99989600D02*
X127762000Y-101934300D01*
X127762000Y-101934300D02*
X128523200Y-102695500D01*
X128523200Y-102695500D02*
X128523200Y-105942800D01*
X128523200Y-105942800D02*
X124747300Y-109718700D01*
X124747300Y-109718700D02*
X113591800Y-109718700D01*
X113591800Y-109718700D02*
X111506000Y-107632900D01*
X111506000Y-107632900D02*
X111506000Y-106698600D01*
X111506000Y-106698600D02*
X110045200Y-105237800D01*
X110045200Y-105237800D02*
X110045200Y-100838000D01*
X122682000Y-107188000D02*
X122682000Y-105981200D01*
X121475200Y-107188000D02*
X118843000Y-104555800D01*
X118843000Y-104555800D02*
X112992300Y-104555800D01*
X112992300Y-104555800D02*
X112712200Y-104275700D01*
X112712200Y-104275700D02*
X112712200Y-100838000D01*
X117919500Y-98552000D02*
X118808800Y-98552000D01*
X118808800Y-98552000D02*
X118808800Y-97773900D01*
X118808800Y-97773900D02*
X119174100Y-97408600D01*
X119174100Y-97408600D02*
X120458300Y-97408600D01*
X120458300Y-97408600D02*
X123888800Y-100839100D01*
X123888800Y-100839100D02*
X123888800Y-105151600D01*
X123888800Y-105151600D02*
X123059200Y-105981200D01*
X123059200Y-105981200D02*
X122682000Y-105981200D01*
X109029500Y-100838000D02*
X110176400Y-99691100D01*
X110176400Y-99691100D02*
X111565300Y-99691100D01*
X111565300Y-99691100D02*
X112712200Y-100838000D01*
X113601500Y-100838000D02*
X112712200Y-100838000D01*
X122682000Y-107188000D02*
X121475200Y-107188000D01*
X115865000Y-96776800D02*
X115495700Y-97146100D01*
X115495700Y-97146100D02*
X114617200Y-97146100D01*
X110934500Y-95504000D02*
X111823800Y-95504000D01*
X114617200Y-97146100D02*
X113243600Y-97146100D01*
X113243600Y-97146100D02*
X111823800Y-95726300D01*
X111823800Y-95726300D02*
X111823800Y-95504000D01*
X114617200Y-97146100D02*
X114617200Y-100838000D01*
X122428000Y-93599000D02*
X122428000Y-95059500D01*
X122682000Y-93408800D02*
X122491800Y-93599000D01*
X122491800Y-93599000D02*
X122428000Y-93599000D01*
X119253000Y-93599000D02*
X122428000Y-93599000D01*
X122682000Y-92202000D02*
X122682000Y-93408800D01*
X115506500Y-100838000D02*
X114617200Y-100838000D01*
X120713800Y-103378000D02*
X120713800Y-99441300D01*
X120713800Y-99441300D02*
X119824500Y-98552000D01*
X121011200Y-103595600D02*
X120931400Y-103595600D01*
X120931400Y-103595600D02*
X120713800Y-103378000D01*
X105699800Y-97345100D02*
X107540900Y-95504000D01*
X103877900Y-97345100D02*
X105699800Y-97345100D01*
X103338574Y-98012121D02*
X103877900Y-97345100D01*
X103317684Y-103119929D02*
X103338574Y-98012121D01*
X104902000Y-104648000D02*
X103317684Y-103119929D01*
X107540900Y-95504000D02*
X109029500Y-95504000D01*
X119824500Y-103378000D02*
X120713800Y-103378000D01*
X120397600Y-94869000D02*
X120494300Y-94965700D01*
X120494300Y-94965700D02*
X120674900Y-94965700D01*
X119253000Y-94869000D02*
X120397600Y-94869000D01*
X116522800Y-107188000D02*
X118389700Y-109054900D01*
X118389700Y-109054900D02*
X123923100Y-109054900D01*
X123923100Y-109054900D02*
X126578400Y-106399600D01*
X126578400Y-104902000D02*
X126578400Y-106399600D01*
X115316000Y-107188000D02*
X116522800Y-107188000D01*
X112776000Y-107188000D02*
X115316000Y-107188000D01*
X113601500Y-98552000D02*
X112712200Y-98552000D01*
X110045300Y-94346400D02*
X110045100Y-94346600D01*
X110045100Y-94346600D02*
X110045100Y-96461800D01*
X110045100Y-96461800D02*
X110442200Y-96858900D01*
X110442200Y-96858900D02*
X111269200Y-96858900D01*
X111269200Y-96858900D02*
X112712200Y-98301900D01*
X112712200Y-98301900D02*
X112712200Y-98552000D01*
X110045300Y-94346400D02*
X104965100Y-89266200D01*
X104965100Y-89266200D02*
X104965100Y-86581200D01*
X104965100Y-86581200D02*
X105672100Y-85874200D01*
X105672100Y-85874200D02*
X110576000Y-85874200D01*
X110576000Y-85874200D02*
X110998000Y-86296200D01*
X112774400Y-94869000D02*
X112251800Y-94346400D01*
X112251800Y-94346400D02*
X110045300Y-94346400D01*
X113919000Y-94869000D02*
X112774400Y-94869000D01*
X110998000Y-87185500D02*
X110998000Y-86296200D01*
X117919500Y-87376000D02*
X116776100Y-86232600D01*
X116776100Y-86232600D02*
X114863200Y-86232600D01*
X114863200Y-86232600D02*
X114617100Y-86478700D01*
X114617100Y-86478700D02*
X114617100Y-89345100D01*
X114617100Y-89345100D02*
X114046200Y-89916000D01*
X114046200Y-91059800D02*
X114278700Y-91059800D01*
X114278700Y-91059800D02*
X115063600Y-91844700D01*
X115063600Y-91844700D02*
X115063600Y-93599000D01*
X110998000Y-91249500D02*
X113856500Y-91249500D01*
X113856500Y-91249500D02*
X114046200Y-91059800D01*
X114046200Y-89916000D02*
X114046200Y-91059800D01*
X113919000Y-93599000D02*
X115063600Y-93599000D01*
X113601500Y-89916000D02*
X114046200Y-89916000D01*
X117919500Y-100838000D02*
X116681100Y-100838000D01*
X119824500Y-87376000D02*
X118935200Y-87376000D01*
X103632000Y-89662000D02*
X103632000Y-86995200D01*
X103632000Y-86995200D02*
X105410700Y-85216500D01*
X105410700Y-85216500D02*
X117553800Y-85216500D01*
X117553800Y-85216500D02*
X118935200Y-86597900D01*
X118935200Y-86597900D02*
X118935200Y-87376000D01*
X113601500Y-103378000D02*
X114490800Y-103378000D01*
X119824500Y-100838000D02*
X118935200Y-100838000D01*
X118935200Y-100838000D02*
X118935200Y-101616100D01*
X118935200Y-101616100D02*
X118316600Y-102234700D01*
X118316600Y-102234700D02*
X114856000Y-102234700D01*
X114856000Y-102234700D02*
X114490800Y-102599900D01*
X114490800Y-102599900D02*
X114490800Y-103378000D01*
X110934500Y-104521300D02*
X112357000Y-105943800D01*
X112357000Y-105943800D02*
X118171100Y-105943800D01*
X118171100Y-105943800D02*
X120622100Y-108394800D01*
X120622100Y-108394800D02*
X123636900Y-108394800D01*
X123636900Y-108394800D02*
X124559800Y-107471900D01*
X124559800Y-107471900D02*
X124559800Y-99985600D01*
X124559800Y-99985600D02*
X122428000Y-97853800D01*
X110934500Y-103378000D02*
X110934500Y-104521300D01*
X122428000Y-96964500D02*
X122428000Y-97853800D01*
X124785100Y-95615000D02*
X124436200Y-95963900D01*
X124436200Y-95963900D02*
X120572700Y-95963900D01*
X120572700Y-95963900D02*
X120397600Y-96139000D01*
X132080000Y-92519500D02*
X129387300Y-92519500D01*
X129387300Y-92519500D02*
X128371400Y-93535400D01*
X128371400Y-93535400D02*
X126864700Y-93535400D01*
X126864700Y-93535400D02*
X124785100Y-95615000D01*
X130936700Y-98742500D02*
X130239000Y-98044800D01*
X130239000Y-98044800D02*
X127214900Y-98044800D01*
X127214900Y-98044800D02*
X124785100Y-95615000D01*
X132080000Y-98742500D02*
X130936700Y-98742500D01*
X119253000Y-96139000D02*
X120397600Y-96139000D01*
X132651700Y-92519500D02*
X132080000Y-92519500D01*
X132651700Y-92519500D02*
X133223300Y-92519500D01*
X117919500Y-89916000D02*
X117919500Y-95950100D01*
X117919500Y-95950100D02*
X118108400Y-96139000D01*
X115506500Y-89916000D02*
X117919500Y-89916000D01*
X134874000Y-91099600D02*
X133629100Y-91099600D01*
X133629100Y-91099600D02*
X133223300Y-91505400D01*
X133223300Y-91505400D02*
X133223300Y-92519500D01*
X119253000Y-96139000D02*
X118108400Y-96139000D01*
X115506500Y-98552000D02*
X116395800Y-98552000D01*
X118108400Y-96139000D02*
X116395800Y-97851600D01*
X116395800Y-97851600D02*
X116395800Y-98552000D01*
M02*
