M48
;DRILL file {kicad (2014-08-01 BZR 5042)-product} date 02/08/2014 19:59:06
;FORMAT={-:-/ absolute / inch / decimal}
FMAT,2
INCH,TZ
T1C0.025
T2C0.032
T3C0.040
%
G90
G05
M72
T1
X4.2458Y-3.9995
X4.3Y-3.63
X4.314Y-3.5075
X4.4263Y-3.442
X4.5422Y-3.7648
X4.5616Y-3.8101
X4.5937Y-3.97
X4.6Y-4.06
X4.751Y-3.7388
X4.7642Y-4.0786
T2
X4.08Y-3.53
X4.18Y-3.43
X4.18Y-3.63
T3
X4.13Y-3.78
X4.13Y-3.88
X4.13Y-4.02
X4.13Y-4.12
X4.13Y-4.22
X4.34Y-4.22
X4.44Y-4.22
X4.54Y-4.22
X4.83Y-3.43
X4.83Y-3.53
X4.83Y-3.63
X4.83Y-4.02
X4.83Y-4.12
X4.83Y-4.22
X5.33Y-4.22
X5.42Y-3.69
X5.42Y-3.79
X5.43Y-4.22
T0
M30
