G04 #@! TF.FileFunction,Legend,Bot*
%FSLAX46Y46*%
G04 Gerber Fmt 4.6, Leading zero omitted, Abs format (unit mm)*
G04 Created by KiCad (PCBNEW (2014-10-31 BZR 5247)-product) date dim. 09 nov. 2014 20:49:24 CET*
%MOMM*%
G01*
G04 APERTURE LIST*
%ADD10C,0.150000*%
%ADD11C,0.250000*%
%ADD12C,1.924000*%
%ADD13C,2.178000*%
%ADD14R,2.178000X2.178000*%
%ADD15R,2.400000X2.400000*%
%ADD16C,2.400000*%
%ADD17R,2.686000X2.178000*%
%ADD18O,2.686000X2.178000*%
G04 APERTURE END LIST*
D10*
D11*
X167948906Y-118070381D02*
X167758429Y-118070381D01*
X167663191Y-118118000D01*
X167567953Y-118213238D01*
X167520334Y-118403714D01*
X167520334Y-118737048D01*
X167567953Y-118927524D01*
X167663191Y-119022762D01*
X167758429Y-119070381D01*
X167948906Y-119070381D01*
X168044144Y-119022762D01*
X168139382Y-118927524D01*
X168187001Y-118737048D01*
X168187001Y-118403714D01*
X168139382Y-118213238D01*
X168044144Y-118118000D01*
X167948906Y-118070381D01*
X167091763Y-118403714D02*
X167091763Y-119403714D01*
X167091763Y-118451333D02*
X166996525Y-118403714D01*
X166806048Y-118403714D01*
X166710810Y-118451333D01*
X166663191Y-118498952D01*
X166615572Y-118594190D01*
X166615572Y-118879905D01*
X166663191Y-118975143D01*
X166710810Y-119022762D01*
X166806048Y-119070381D01*
X166996525Y-119070381D01*
X167091763Y-119022762D01*
X165806048Y-119022762D02*
X165901286Y-119070381D01*
X166091763Y-119070381D01*
X166187001Y-119022762D01*
X166234620Y-118927524D01*
X166234620Y-118546571D01*
X166187001Y-118451333D01*
X166091763Y-118403714D01*
X165901286Y-118403714D01*
X165806048Y-118451333D01*
X165758429Y-118546571D01*
X165758429Y-118641810D01*
X166234620Y-118737048D01*
X165329858Y-118403714D02*
X165329858Y-119070381D01*
X165329858Y-118498952D02*
X165282239Y-118451333D01*
X165187001Y-118403714D01*
X165044143Y-118403714D01*
X164948905Y-118451333D01*
X164901286Y-118546571D01*
X164901286Y-119070381D01*
X163663191Y-119070381D02*
X163663191Y-118070381D01*
X163663191Y-118546571D02*
X163091762Y-118546571D01*
X163091762Y-119070381D02*
X163091762Y-118070381D01*
X162187000Y-119070381D02*
X162187000Y-118546571D01*
X162234619Y-118451333D01*
X162329857Y-118403714D01*
X162520334Y-118403714D01*
X162615572Y-118451333D01*
X162187000Y-119022762D02*
X162282238Y-119070381D01*
X162520334Y-119070381D01*
X162615572Y-119022762D01*
X162663191Y-118927524D01*
X162663191Y-118832286D01*
X162615572Y-118737048D01*
X162520334Y-118689429D01*
X162282238Y-118689429D01*
X162187000Y-118641810D01*
X161710810Y-119070381D02*
X161710810Y-118403714D01*
X161710810Y-118594190D02*
X161663191Y-118498952D01*
X161615572Y-118451333D01*
X161520334Y-118403714D01*
X161425095Y-118403714D01*
X160663190Y-119070381D02*
X160663190Y-118070381D01*
X160663190Y-119022762D02*
X160758428Y-119070381D01*
X160948905Y-119070381D01*
X161044143Y-119022762D01*
X161091762Y-118975143D01*
X161139381Y-118879905D01*
X161139381Y-118594190D01*
X161091762Y-118498952D01*
X161044143Y-118451333D01*
X160948905Y-118403714D01*
X160758428Y-118403714D01*
X160663190Y-118451333D01*
X160282238Y-118403714D02*
X160091762Y-119070381D01*
X159901285Y-118594190D01*
X159710809Y-119070381D01*
X159520333Y-118403714D01*
X158710809Y-119070381D02*
X158710809Y-118546571D01*
X158758428Y-118451333D01*
X158853666Y-118403714D01*
X159044143Y-118403714D01*
X159139381Y-118451333D01*
X158710809Y-119022762D02*
X158806047Y-119070381D01*
X159044143Y-119070381D01*
X159139381Y-119022762D01*
X159187000Y-118927524D01*
X159187000Y-118832286D01*
X159139381Y-118737048D01*
X159044143Y-118689429D01*
X158806047Y-118689429D01*
X158710809Y-118641810D01*
X158234619Y-119070381D02*
X158234619Y-118403714D01*
X158234619Y-118594190D02*
X158187000Y-118498952D01*
X158139381Y-118451333D01*
X158044143Y-118403714D01*
X157948904Y-118403714D01*
X157234618Y-119022762D02*
X157329856Y-119070381D01*
X157520333Y-119070381D01*
X157615571Y-119022762D01*
X157663190Y-118927524D01*
X157663190Y-118546571D01*
X157615571Y-118451333D01*
X157520333Y-118403714D01*
X157329856Y-118403714D01*
X157234618Y-118451333D01*
X157186999Y-118546571D01*
X157186999Y-118641810D01*
X157663190Y-118737048D01*
X173345667Y-132659381D02*
X173821858Y-132659381D01*
X173821858Y-131659381D01*
X173012334Y-132659381D02*
X173012334Y-131992714D01*
X173012334Y-131659381D02*
X173059953Y-131707000D01*
X173012334Y-131754619D01*
X172964715Y-131707000D01*
X173012334Y-131659381D01*
X173012334Y-131754619D01*
X172107572Y-132611762D02*
X172202810Y-132659381D01*
X172393287Y-132659381D01*
X172488525Y-132611762D01*
X172536144Y-132564143D01*
X172583763Y-132468905D01*
X172583763Y-132183190D01*
X172536144Y-132087952D01*
X172488525Y-132040333D01*
X172393287Y-131992714D01*
X172202810Y-131992714D01*
X172107572Y-132040333D01*
X171298048Y-132611762D02*
X171393286Y-132659381D01*
X171583763Y-132659381D01*
X171679001Y-132611762D01*
X171726620Y-132516524D01*
X171726620Y-132135571D01*
X171679001Y-132040333D01*
X171583763Y-131992714D01*
X171393286Y-131992714D01*
X171298048Y-132040333D01*
X171250429Y-132135571D01*
X171250429Y-132230810D01*
X171726620Y-132326048D01*
X170821858Y-131992714D02*
X170821858Y-132659381D01*
X170821858Y-132087952D02*
X170774239Y-132040333D01*
X170679001Y-131992714D01*
X170536143Y-131992714D01*
X170440905Y-132040333D01*
X170393286Y-132135571D01*
X170393286Y-132659381D01*
X169488524Y-132611762D02*
X169583762Y-132659381D01*
X169774239Y-132659381D01*
X169869477Y-132611762D01*
X169917096Y-132564143D01*
X169964715Y-132468905D01*
X169964715Y-132183190D01*
X169917096Y-132087952D01*
X169869477Y-132040333D01*
X169774239Y-131992714D01*
X169583762Y-131992714D01*
X169488524Y-132040333D01*
X168679000Y-132611762D02*
X168774238Y-132659381D01*
X168964715Y-132659381D01*
X169059953Y-132611762D01*
X169107572Y-132516524D01*
X169107572Y-132135571D01*
X169059953Y-132040333D01*
X168964715Y-131992714D01*
X168774238Y-131992714D01*
X168679000Y-132040333D01*
X168631381Y-132135571D01*
X168631381Y-132230810D01*
X169107572Y-132326048D01*
X167774238Y-132659381D02*
X167774238Y-131659381D01*
X167774238Y-132611762D02*
X167869476Y-132659381D01*
X168059953Y-132659381D01*
X168155191Y-132611762D01*
X168202810Y-132564143D01*
X168250429Y-132468905D01*
X168250429Y-132183190D01*
X168202810Y-132087952D01*
X168155191Y-132040333D01*
X168059953Y-131992714D01*
X167869476Y-131992714D01*
X167774238Y-132040333D01*
X166107571Y-131992714D02*
X166107571Y-132659381D01*
X166536143Y-131992714D02*
X166536143Y-132516524D01*
X166488524Y-132611762D01*
X166393286Y-132659381D01*
X166250428Y-132659381D01*
X166155190Y-132611762D01*
X166107571Y-132564143D01*
X165631381Y-131992714D02*
X165631381Y-132659381D01*
X165631381Y-132087952D02*
X165583762Y-132040333D01*
X165488524Y-131992714D01*
X165345666Y-131992714D01*
X165250428Y-132040333D01*
X165202809Y-132135571D01*
X165202809Y-132659381D01*
X164298047Y-132659381D02*
X164298047Y-131659381D01*
X164298047Y-132611762D02*
X164393285Y-132659381D01*
X164583762Y-132659381D01*
X164679000Y-132611762D01*
X164726619Y-132564143D01*
X164774238Y-132468905D01*
X164774238Y-132183190D01*
X164726619Y-132087952D01*
X164679000Y-132040333D01*
X164583762Y-131992714D01*
X164393285Y-131992714D01*
X164298047Y-132040333D01*
X163440904Y-132611762D02*
X163536142Y-132659381D01*
X163726619Y-132659381D01*
X163821857Y-132611762D01*
X163869476Y-132516524D01*
X163869476Y-132135571D01*
X163821857Y-132040333D01*
X163726619Y-131992714D01*
X163536142Y-131992714D01*
X163440904Y-132040333D01*
X163393285Y-132135571D01*
X163393285Y-132230810D01*
X163869476Y-132326048D01*
X162964714Y-132659381D02*
X162964714Y-131992714D01*
X162964714Y-132183190D02*
X162917095Y-132087952D01*
X162869476Y-132040333D01*
X162774238Y-131992714D01*
X162678999Y-131992714D01*
X161012332Y-132564143D02*
X161059951Y-132611762D01*
X161202808Y-132659381D01*
X161298046Y-132659381D01*
X161440904Y-132611762D01*
X161536142Y-132516524D01*
X161583761Y-132421286D01*
X161631380Y-132230810D01*
X161631380Y-132087952D01*
X161583761Y-131897476D01*
X161536142Y-131802238D01*
X161440904Y-131707000D01*
X161298046Y-131659381D01*
X161202808Y-131659381D01*
X161059951Y-131707000D01*
X161012332Y-131754619D01*
X160583761Y-132135571D02*
X160250427Y-132135571D01*
X160107570Y-132659381D02*
X160583761Y-132659381D01*
X160583761Y-131659381D01*
X160107570Y-131659381D01*
X159107570Y-132659381D02*
X159440904Y-132183190D01*
X159678999Y-132659381D02*
X159678999Y-131659381D01*
X159298046Y-131659381D01*
X159202808Y-131707000D01*
X159155189Y-131754619D01*
X159107570Y-131849857D01*
X159107570Y-131992714D01*
X159155189Y-132087952D01*
X159202808Y-132135571D01*
X159298046Y-132183190D01*
X159678999Y-132183190D01*
X158678999Y-132659381D02*
X158678999Y-131659381D01*
X158107570Y-132659381D01*
X158107570Y-131659381D01*
X156678999Y-131659381D02*
X156488522Y-131659381D01*
X156393284Y-131707000D01*
X156298046Y-131802238D01*
X156250427Y-131992714D01*
X156250427Y-132326048D01*
X156298046Y-132516524D01*
X156393284Y-132611762D01*
X156488522Y-132659381D01*
X156678999Y-132659381D01*
X156774237Y-132611762D01*
X156869475Y-132516524D01*
X156917094Y-132326048D01*
X156917094Y-131992714D01*
X156869475Y-131802238D01*
X156774237Y-131707000D01*
X156678999Y-131659381D01*
X155821856Y-132659381D02*
X155821856Y-131659381D01*
X155821856Y-132135571D02*
X155250427Y-132135571D01*
X155250427Y-132659381D02*
X155250427Y-131659381D01*
X154298046Y-132659381D02*
X154774237Y-132659381D01*
X154774237Y-131659381D01*
X153298046Y-131992714D02*
X153059951Y-132659381D01*
X152821855Y-131992714D01*
X151917093Y-132659381D02*
X152488522Y-132659381D01*
X152202808Y-132659381D02*
X152202808Y-131659381D01*
X152298046Y-131802238D01*
X152393284Y-131897476D01*
X152488522Y-131945095D01*
X151488522Y-132564143D02*
X151440903Y-132611762D01*
X151488522Y-132659381D01*
X151536141Y-132611762D01*
X151488522Y-132564143D01*
X151488522Y-132659381D01*
X151059951Y-131754619D02*
X151012332Y-131707000D01*
X150917094Y-131659381D01*
X150678998Y-131659381D01*
X150583760Y-131707000D01*
X150536141Y-131754619D01*
X150488522Y-131849857D01*
X150488522Y-131945095D01*
X150536141Y-132087952D01*
X151107570Y-132659381D01*
X150488522Y-132659381D01*
X180258335Y-106084714D02*
X179877383Y-106084714D01*
X180115478Y-106751381D02*
X180115478Y-105894238D01*
X180067859Y-105799000D01*
X179972621Y-105751381D01*
X179877383Y-105751381D01*
X179115477Y-106084714D02*
X179115477Y-106751381D01*
X179544049Y-106084714D02*
X179544049Y-106608524D01*
X179496430Y-106703762D01*
X179401192Y-106751381D01*
X179258334Y-106751381D01*
X179163096Y-106703762D01*
X179115477Y-106656143D01*
X178639287Y-106084714D02*
X178639287Y-106751381D01*
X178639287Y-106179952D02*
X178591668Y-106132333D01*
X178496430Y-106084714D01*
X178353572Y-106084714D01*
X178258334Y-106132333D01*
X178210715Y-106227571D01*
X178210715Y-106751381D01*
X177734525Y-106751381D02*
X177734525Y-105751381D01*
X177639287Y-106370429D02*
X177353572Y-106751381D01*
X177353572Y-106084714D02*
X177734525Y-106465667D01*
X177020239Y-106084714D02*
X176782144Y-106751381D01*
X176544048Y-106084714D02*
X176782144Y-106751381D01*
X176877382Y-106989476D01*
X176925001Y-107037095D01*
X177020239Y-107084714D01*
X174972619Y-106751381D02*
X174972619Y-105751381D01*
X174972619Y-106703762D02*
X175067857Y-106751381D01*
X175258334Y-106751381D01*
X175353572Y-106703762D01*
X175401191Y-106656143D01*
X175448810Y-106560905D01*
X175448810Y-106275190D01*
X175401191Y-106179952D01*
X175353572Y-106132333D01*
X175258334Y-106084714D01*
X175067857Y-106084714D01*
X174972619Y-106132333D01*
X174067857Y-106084714D02*
X174067857Y-106751381D01*
X174496429Y-106084714D02*
X174496429Y-106608524D01*
X174448810Y-106703762D01*
X174353572Y-106751381D01*
X174210714Y-106751381D01*
X174115476Y-106703762D01*
X174067857Y-106656143D01*
X173163095Y-106751381D02*
X173163095Y-105751381D01*
X173163095Y-106703762D02*
X173258333Y-106751381D01*
X173448810Y-106751381D01*
X173544048Y-106703762D01*
X173591667Y-106656143D01*
X173639286Y-106560905D01*
X173639286Y-106275190D01*
X173591667Y-106179952D01*
X173544048Y-106132333D01*
X173448810Y-106084714D01*
X173258333Y-106084714D01*
X173163095Y-106132333D01*
X172305952Y-106703762D02*
X172401190Y-106751381D01*
X172591667Y-106751381D01*
X172686905Y-106703762D01*
X172734524Y-106608524D01*
X172734524Y-106227571D01*
X172686905Y-106132333D01*
X172591667Y-106084714D01*
X172401190Y-106084714D01*
X172305952Y-106132333D01*
X172258333Y-106227571D01*
X172258333Y-106322810D01*
X172734524Y-106418048D01*
X171067857Y-106084714D02*
X171067857Y-107084714D01*
X171067857Y-106132333D02*
X170972619Y-106084714D01*
X170782142Y-106084714D01*
X170686904Y-106132333D01*
X170639285Y-106179952D01*
X170591666Y-106275190D01*
X170591666Y-106560905D01*
X170639285Y-106656143D01*
X170686904Y-106703762D01*
X170782142Y-106751381D01*
X170972619Y-106751381D01*
X171067857Y-106703762D01*
X170163095Y-106751381D02*
X170163095Y-106084714D01*
X170163095Y-106275190D02*
X170115476Y-106179952D01*
X170067857Y-106132333D01*
X169972619Y-106084714D01*
X169877380Y-106084714D01*
X169163094Y-106703762D02*
X169258332Y-106751381D01*
X169448809Y-106751381D01*
X169544047Y-106703762D01*
X169591666Y-106608524D01*
X169591666Y-106227571D01*
X169544047Y-106132333D01*
X169448809Y-106084714D01*
X169258332Y-106084714D01*
X169163094Y-106132333D01*
X169115475Y-106227571D01*
X169115475Y-106322810D01*
X169591666Y-106418048D01*
X168258332Y-106751381D02*
X168258332Y-106227571D01*
X168305951Y-106132333D01*
X168401189Y-106084714D01*
X168591666Y-106084714D01*
X168686904Y-106132333D01*
X168258332Y-106703762D02*
X168353570Y-106751381D01*
X168591666Y-106751381D01*
X168686904Y-106703762D01*
X168734523Y-106608524D01*
X168734523Y-106513286D01*
X168686904Y-106418048D01*
X168591666Y-106370429D01*
X168353570Y-106370429D01*
X168258332Y-106322810D01*
X167782142Y-106751381D02*
X167782142Y-106084714D01*
X167782142Y-106179952D02*
X167734523Y-106132333D01*
X167639285Y-106084714D01*
X167496427Y-106084714D01*
X167401189Y-106132333D01*
X167353570Y-106227571D01*
X167353570Y-106751381D01*
X167353570Y-106227571D02*
X167305951Y-106132333D01*
X167210713Y-106084714D01*
X167067856Y-106084714D01*
X166972618Y-106132333D01*
X166924999Y-106227571D01*
X166924999Y-106751381D01*
X166448809Y-106084714D02*
X166448809Y-107084714D01*
X166448809Y-106132333D02*
X166353571Y-106084714D01*
X166163094Y-106084714D01*
X166067856Y-106132333D01*
X166020237Y-106179952D01*
X165972618Y-106275190D01*
X165972618Y-106560905D01*
X166020237Y-106656143D01*
X166067856Y-106703762D01*
X166163094Y-106751381D01*
X166353571Y-106751381D01*
X166448809Y-106703762D01*
X164877380Y-106084714D02*
X164639285Y-106751381D01*
X164401189Y-106084714D01*
X164067856Y-105846619D02*
X164020237Y-105799000D01*
X163924999Y-105751381D01*
X163686903Y-105751381D01*
X163591665Y-105799000D01*
X163544046Y-105846619D01*
X163496427Y-105941857D01*
X163496427Y-106037095D01*
X163544046Y-106179952D01*
X164115475Y-106751381D01*
X163496427Y-106751381D01*
X163067856Y-106656143D02*
X163020237Y-106703762D01*
X163067856Y-106751381D01*
X163115475Y-106703762D01*
X163067856Y-106656143D01*
X163067856Y-106751381D01*
X162401190Y-105751381D02*
X162305951Y-105751381D01*
X162210713Y-105799000D01*
X162163094Y-105846619D01*
X162115475Y-105941857D01*
X162067856Y-106132333D01*
X162067856Y-106370429D01*
X162115475Y-106560905D01*
X162163094Y-106656143D01*
X162210713Y-106703762D01*
X162305951Y-106751381D01*
X162401190Y-106751381D01*
X162496428Y-106703762D01*
X162544047Y-106656143D01*
X162591666Y-106560905D01*
X162639285Y-106370429D01*
X162639285Y-106132333D01*
X162591666Y-105941857D01*
X162544047Y-105846619D01*
X162496428Y-105799000D01*
X162401190Y-105751381D01*
X161639285Y-106370429D02*
X160877380Y-106370429D01*
X160544047Y-106084714D02*
X160163095Y-106084714D01*
X160401190Y-105751381D02*
X160401190Y-106608524D01*
X160353571Y-106703762D01*
X160258333Y-106751381D01*
X160163095Y-106751381D01*
X157639284Y-106084714D02*
X157448808Y-106751381D01*
X157258331Y-106275190D01*
X157067855Y-106751381D01*
X156877379Y-106084714D01*
X156591665Y-106084714D02*
X156401189Y-106751381D01*
X156210712Y-106275190D01*
X156020236Y-106751381D01*
X155829760Y-106084714D01*
X155544046Y-106084714D02*
X155353570Y-106751381D01*
X155163093Y-106275190D01*
X154972617Y-106751381D01*
X154782141Y-106084714D01*
X154401189Y-106656143D02*
X154353570Y-106703762D01*
X154401189Y-106751381D01*
X154448808Y-106703762D01*
X154401189Y-106656143D01*
X154401189Y-106751381D01*
X153496427Y-106751381D02*
X153496427Y-105751381D01*
X153496427Y-106703762D02*
X153591665Y-106751381D01*
X153782142Y-106751381D01*
X153877380Y-106703762D01*
X153924999Y-106656143D01*
X153972618Y-106560905D01*
X153972618Y-106275190D01*
X153924999Y-106179952D01*
X153877380Y-106132333D01*
X153782142Y-106084714D01*
X153591665Y-106084714D01*
X153496427Y-106132333D01*
X152877380Y-106751381D02*
X152972618Y-106703762D01*
X153020237Y-106656143D01*
X153067856Y-106560905D01*
X153067856Y-106275190D01*
X153020237Y-106179952D01*
X152972618Y-106132333D01*
X152877380Y-106084714D01*
X152734522Y-106084714D01*
X152639284Y-106132333D01*
X152591665Y-106179952D01*
X152544046Y-106275190D01*
X152544046Y-106560905D01*
X152591665Y-106656143D01*
X152639284Y-106703762D01*
X152734522Y-106751381D01*
X152877380Y-106751381D01*
X151972618Y-106751381D02*
X152067856Y-106703762D01*
X152115475Y-106608524D01*
X152115475Y-105751381D01*
X151163093Y-106084714D02*
X151163093Y-106894238D01*
X151210712Y-106989476D01*
X151258331Y-107037095D01*
X151353570Y-107084714D01*
X151496427Y-107084714D01*
X151591665Y-107037095D01*
X151163093Y-106703762D02*
X151258331Y-106751381D01*
X151448808Y-106751381D01*
X151544046Y-106703762D01*
X151591665Y-106656143D01*
X151639284Y-106560905D01*
X151639284Y-106275190D01*
X151591665Y-106179952D01*
X151544046Y-106132333D01*
X151448808Y-106084714D01*
X151258331Y-106084714D01*
X151163093Y-106132333D01*
X150258331Y-106751381D02*
X150258331Y-106227571D01*
X150305950Y-106132333D01*
X150401188Y-106084714D01*
X150591665Y-106084714D01*
X150686903Y-106132333D01*
X150258331Y-106703762D02*
X150353569Y-106751381D01*
X150591665Y-106751381D01*
X150686903Y-106703762D01*
X150734522Y-106608524D01*
X150734522Y-106513286D01*
X150686903Y-106418048D01*
X150591665Y-106370429D01*
X150353569Y-106370429D01*
X150258331Y-106322810D01*
X149782141Y-106084714D02*
X149782141Y-106751381D01*
X149782141Y-106179952D02*
X149734522Y-106132333D01*
X149639284Y-106084714D01*
X149496426Y-106084714D01*
X149401188Y-106132333D01*
X149353569Y-106227571D01*
X149353569Y-106751381D01*
X148734522Y-106751381D02*
X148829760Y-106703762D01*
X148877379Y-106656143D01*
X148924998Y-106560905D01*
X148924998Y-106275190D01*
X148877379Y-106179952D01*
X148829760Y-106132333D01*
X148734522Y-106084714D01*
X148591664Y-106084714D01*
X148496426Y-106132333D01*
X148448807Y-106179952D01*
X148401188Y-106275190D01*
X148401188Y-106560905D01*
X148448807Y-106656143D01*
X148496426Y-106703762D01*
X148591664Y-106751381D01*
X148734522Y-106751381D01*
X148115474Y-106084714D02*
X147734522Y-106084714D01*
X147972617Y-106751381D02*
X147972617Y-105894238D01*
X147924998Y-105799000D01*
X147829760Y-105751381D01*
X147734522Y-105751381D01*
X147544045Y-106084714D02*
X147163093Y-106084714D01*
X147401188Y-106751381D02*
X147401188Y-105894238D01*
X147353569Y-105799000D01*
X147258331Y-105751381D01*
X147163093Y-105751381D01*
X146829759Y-106656143D02*
X146782140Y-106703762D01*
X146829759Y-106751381D01*
X146877378Y-106703762D01*
X146829759Y-106656143D01*
X146829759Y-106751381D01*
X145924997Y-106703762D02*
X146020235Y-106751381D01*
X146210712Y-106751381D01*
X146305950Y-106703762D01*
X146353569Y-106656143D01*
X146401188Y-106560905D01*
X146401188Y-106275190D01*
X146353569Y-106179952D01*
X146305950Y-106132333D01*
X146210712Y-106084714D01*
X146020235Y-106084714D01*
X145924997Y-106132333D01*
X145353569Y-106751381D02*
X145448807Y-106703762D01*
X145496426Y-106656143D01*
X145544045Y-106560905D01*
X145544045Y-106275190D01*
X145496426Y-106179952D01*
X145448807Y-106132333D01*
X145353569Y-106084714D01*
X145210711Y-106084714D01*
X145115473Y-106132333D01*
X145067854Y-106179952D01*
X145020235Y-106275190D01*
X145020235Y-106560905D01*
X145067854Y-106656143D01*
X145115473Y-106703762D01*
X145210711Y-106751381D01*
X145353569Y-106751381D01*
X144591664Y-106751381D02*
X144591664Y-106084714D01*
X144591664Y-106179952D02*
X144544045Y-106132333D01*
X144448807Y-106084714D01*
X144305949Y-106084714D01*
X144210711Y-106132333D01*
X144163092Y-106227571D01*
X144163092Y-106751381D01*
X144163092Y-106227571D02*
X144115473Y-106132333D01*
X144020235Y-106084714D01*
X143877378Y-106084714D01*
X143782140Y-106132333D01*
X143734521Y-106227571D01*
X143734521Y-106751381D01*
%LPC*%
D12*
X144907000Y-110617000D03*
X147447000Y-108077000D03*
X149987000Y-110617000D03*
D13*
X142367000Y-121031000D03*
X142367000Y-115951000D03*
X164719000Y-109347000D03*
X169799000Y-109347000D03*
X145923000Y-130429000D03*
X151003000Y-130429000D03*
X165989000Y-123825000D03*
X171069000Y-123825000D03*
X154305000Y-126365000D03*
X159385000Y-126365000D03*
X165989000Y-120269000D03*
X171069000Y-120269000D03*
D14*
X149733000Y-125095000D03*
D13*
X149733000Y-127635000D03*
D14*
X174625000Y-130429000D03*
D13*
X172085000Y-130429000D03*
D14*
X179959000Y-116205000D03*
D13*
X182499000Y-116205000D03*
D14*
X179959000Y-130429000D03*
D13*
X177419000Y-130429000D03*
D14*
X175895000Y-111379000D03*
D13*
X175895000Y-108839000D03*
X180721000Y-126111000D03*
X175641000Y-126111000D03*
X153543000Y-120396000D03*
X161163000Y-120396000D03*
X144907000Y-114935000D03*
X144907000Y-122555000D03*
X149987000Y-114681000D03*
X149987000Y-122301000D03*
X172339000Y-111887000D03*
X164719000Y-111887000D03*
X164719000Y-116967000D03*
X172339000Y-116967000D03*
X153543000Y-123317000D03*
X161163000Y-123317000D03*
X177165000Y-123063000D03*
X177165000Y-115443000D03*
X174625000Y-115443000D03*
X174625000Y-123063000D03*
X171831000Y-126619000D03*
X164211000Y-126619000D03*
X164719000Y-114427000D03*
X172339000Y-114427000D03*
X147447000Y-115189000D03*
X147447000Y-122809000D03*
D15*
X168275000Y-129921000D03*
D16*
X165735000Y-129921000D03*
X163195000Y-129921000D03*
D15*
X159385000Y-129921000D03*
D16*
X156845000Y-129921000D03*
X154305000Y-129921000D03*
D15*
X142621000Y-127889000D03*
D16*
X142621000Y-125349000D03*
D15*
X182245000Y-123063000D03*
D16*
X182245000Y-120523000D03*
D15*
X182499000Y-111125000D03*
D16*
X179959000Y-111125000D03*
D17*
X153543000Y-109347000D03*
D18*
X153543000Y-111887000D03*
X153543000Y-114427000D03*
X153543000Y-116967000D03*
X161163000Y-116967000D03*
X161163000Y-114427000D03*
X161163000Y-111887000D03*
X161163000Y-109347000D03*
M02*
