M48
;DRILL file {kicad (2014-10-18 BZR 5203)-product} date 10/11/2014 14:08:37
;FORMAT={-:-/ absolute / inch / decimal}
FMAT,2
INCH,TZ
T1C0.032
T2C0.039
%
G90
G05
M72
T1
X5.815Y-4.275
X5.815Y-4.475
X5.815Y-4.815
X5.815Y-5.015
X5.925Y-4.305
X5.925Y-4.605
X5.925Y-4.815
X5.925Y-5.015
X6.045Y-4.305
X6.045Y-4.405
X6.045Y-4.505
X6.045Y-4.605
X6.045Y-4.725
X6.045Y-4.845
X6.345Y-4.305
X6.345Y-4.405
X6.345Y-4.505
X6.345Y-4.605
X6.345Y-4.725
X6.345Y-4.845
X6.455Y-4.405
X6.455Y-4.505
X6.455Y-4.605
X6.465Y-4.725
X6.465Y-4.845
X6.485Y-4.305
X6.665Y-4.725
X6.665Y-4.845
X6.685Y-4.305
X6.755Y-4.405
X6.755Y-4.505
X6.755Y-4.605
X6.775Y-4.995
X6.855Y-4.535
X6.855Y-4.835
X6.875Y-4.995
X6.905Y-4.305
X6.905Y-4.405
X6.955Y-4.535
X6.955Y-4.835
X6.985Y-4.995
X7.055Y-4.365
X7.055Y-4.665
X7.085Y-4.995
X7.185Y-4.635
X7.285Y-4.635
T2
X5.775Y-4.595
X5.775Y-4.695
X6.085Y-5.005
X6.185Y-5.005
X6.285Y-5.005
X6.445Y-5.005
X6.545Y-5.005
X6.645Y-5.005
X7.235Y-4.365
X7.235Y-4.465
X7.235Y-4.805
X7.235Y-4.905
T0
M30
