G04 #@! TF.FileFunction,Soldermask,Top*
%FSLAX46Y46*%
G04 Gerber Fmt 4.6, Leading zero omitted, Abs format (unit mm)*
G04 Created by KiCad (PCBNEW (2014-10-31 BZR 5247)-product) date dim. 09 nov. 2014 20:49:24 CET*
%MOMM*%
G01*
G04 APERTURE LIST*
%ADD10C,0.150000*%
%ADD11C,1.924000*%
%ADD12C,2.178000*%
%ADD13R,2.178000X2.178000*%
%ADD14R,2.400000X2.400000*%
%ADD15C,2.400000*%
%ADD16R,2.686000X2.178000*%
%ADD17O,2.686000X2.178000*%
G04 APERTURE END LIST*
D10*
D11*
X144907000Y-110617000D03*
X147447000Y-108077000D03*
X149987000Y-110617000D03*
D12*
X142367000Y-121031000D03*
X142367000Y-115951000D03*
X164719000Y-109347000D03*
X169799000Y-109347000D03*
X145923000Y-130429000D03*
X151003000Y-130429000D03*
X165989000Y-123825000D03*
X171069000Y-123825000D03*
X154305000Y-126365000D03*
X159385000Y-126365000D03*
X165989000Y-120269000D03*
X171069000Y-120269000D03*
D13*
X149733000Y-125095000D03*
D12*
X149733000Y-127635000D03*
D13*
X174625000Y-130429000D03*
D12*
X172085000Y-130429000D03*
D13*
X179959000Y-116205000D03*
D12*
X182499000Y-116205000D03*
D13*
X179959000Y-130429000D03*
D12*
X177419000Y-130429000D03*
D13*
X175895000Y-111379000D03*
D12*
X175895000Y-108839000D03*
X180721000Y-126111000D03*
X175641000Y-126111000D03*
X153543000Y-120396000D03*
X161163000Y-120396000D03*
X144907000Y-114935000D03*
X144907000Y-122555000D03*
X149987000Y-114681000D03*
X149987000Y-122301000D03*
X172339000Y-111887000D03*
X164719000Y-111887000D03*
X164719000Y-116967000D03*
X172339000Y-116967000D03*
X153543000Y-123317000D03*
X161163000Y-123317000D03*
X177165000Y-123063000D03*
X177165000Y-115443000D03*
X174625000Y-115443000D03*
X174625000Y-123063000D03*
X171831000Y-126619000D03*
X164211000Y-126619000D03*
X164719000Y-114427000D03*
X172339000Y-114427000D03*
X147447000Y-115189000D03*
X147447000Y-122809000D03*
D14*
X168275000Y-129921000D03*
D15*
X165735000Y-129921000D03*
X163195000Y-129921000D03*
D14*
X159385000Y-129921000D03*
D15*
X156845000Y-129921000D03*
X154305000Y-129921000D03*
D14*
X142621000Y-127889000D03*
D15*
X142621000Y-125349000D03*
D14*
X182245000Y-123063000D03*
D15*
X182245000Y-120523000D03*
D14*
X182499000Y-111125000D03*
D15*
X179959000Y-111125000D03*
D16*
X153543000Y-109347000D03*
D17*
X153543000Y-111887000D03*
X153543000Y-114427000D03*
X153543000Y-116967000D03*
X161163000Y-116967000D03*
X161163000Y-114427000D03*
X161163000Y-111887000D03*
X161163000Y-109347000D03*
M02*
