G04 #@! TF.FileFunction,Legend,Top*
%FSLAX46Y46*%
G04 Gerber Fmt 4.6, Leading zero omitted, Abs format (unit mm)*
G04 Created by KiCad (PCBNEW (2014-10-31 BZR 5247)-product) date dim. 09 nov. 2014 20:49:24 CET*
%MOMM*%
G01*
G04 APERTURE LIST*
%ADD10C,0.150000*%
%ADD11C,0.300000*%
%ADD12C,0.250000*%
%ADD13C,0.203200*%
%ADD14C,0.304800*%
%ADD15C,0.127000*%
%ADD16C,0.381000*%
%ADD17C,0.177800*%
%ADD18C,0.254000*%
%ADD19C,0.285750*%
%ADD20C,1.924000*%
%ADD21C,2.178000*%
%ADD22R,2.178000X2.178000*%
%ADD23R,2.400000X2.400000*%
%ADD24C,2.400000*%
%ADD25R,2.686000X2.178000*%
%ADD26O,2.686000X2.178000*%
G04 APERTURE END LIST*
D10*
D11*
X179387572Y-108184143D02*
X180530429Y-108184143D01*
X179959000Y-108755571D02*
X179959000Y-107612714D01*
D12*
X180157381Y-120824524D02*
X180109762Y-120919762D01*
X180062143Y-120967381D01*
X179966905Y-121015000D01*
X179681190Y-121015000D01*
X179585952Y-120967381D01*
X179538333Y-120919762D01*
X179490714Y-120824524D01*
X179490714Y-120681666D01*
X179538333Y-120586428D01*
X179585952Y-120538809D01*
X179681190Y-120491190D01*
X179966905Y-120491190D01*
X180062143Y-120538809D01*
X180109762Y-120586428D01*
X180157381Y-120681666D01*
X180157381Y-120824524D01*
X179490714Y-119634047D02*
X180157381Y-119634047D01*
X179490714Y-120062619D02*
X180014524Y-120062619D01*
X180109762Y-120015000D01*
X180157381Y-119919762D01*
X180157381Y-119776904D01*
X180109762Y-119681666D01*
X180062143Y-119634047D01*
X179490714Y-119300714D02*
X179490714Y-118919762D01*
X179157381Y-119157857D02*
X180014524Y-119157857D01*
X180109762Y-119110238D01*
X180157381Y-119015000D01*
X180157381Y-118919762D01*
X141041381Y-126944381D02*
X140374714Y-126944381D01*
X140041381Y-126944381D02*
X140089000Y-126992000D01*
X140136619Y-126944381D01*
X140089000Y-126896762D01*
X140041381Y-126944381D01*
X140136619Y-126944381D01*
X140374714Y-126468191D02*
X141041381Y-126468191D01*
X140469952Y-126468191D02*
X140422333Y-126420572D01*
X140374714Y-126325334D01*
X140374714Y-126182476D01*
X140422333Y-126087238D01*
X140517571Y-126039619D01*
X141041381Y-126039619D01*
X164512809Y-132659381D02*
X164512809Y-131659381D01*
X164512809Y-132040333D02*
X164608047Y-131992714D01*
X164798524Y-131992714D01*
X164893762Y-132040333D01*
X164941381Y-132087952D01*
X164989000Y-132183190D01*
X164989000Y-132468905D01*
X164941381Y-132564143D01*
X164893762Y-132611762D01*
X164798524Y-132659381D01*
X164608047Y-132659381D01*
X164512809Y-132611762D01*
X165846143Y-132659381D02*
X165846143Y-132135571D01*
X165798524Y-132040333D01*
X165703286Y-131992714D01*
X165512809Y-131992714D01*
X165417571Y-132040333D01*
X165846143Y-132611762D02*
X165750905Y-132659381D01*
X165512809Y-132659381D01*
X165417571Y-132611762D01*
X165369952Y-132516524D01*
X165369952Y-132421286D01*
X165417571Y-132326048D01*
X165512809Y-132278429D01*
X165750905Y-132278429D01*
X165846143Y-132230810D01*
X166274714Y-132611762D02*
X166369952Y-132659381D01*
X166560428Y-132659381D01*
X166655667Y-132611762D01*
X166703286Y-132516524D01*
X166703286Y-132468905D01*
X166655667Y-132373667D01*
X166560428Y-132326048D01*
X166417571Y-132326048D01*
X166322333Y-132278429D01*
X166274714Y-132183190D01*
X166274714Y-132135571D01*
X166322333Y-132040333D01*
X166417571Y-131992714D01*
X166560428Y-131992714D01*
X166655667Y-132040333D01*
X167084238Y-132611762D02*
X167179476Y-132659381D01*
X167369952Y-132659381D01*
X167465191Y-132611762D01*
X167512810Y-132516524D01*
X167512810Y-132468905D01*
X167465191Y-132373667D01*
X167369952Y-132326048D01*
X167227095Y-132326048D01*
X167131857Y-132278429D01*
X167084238Y-132183190D01*
X167084238Y-132135571D01*
X167131857Y-132040333D01*
X167227095Y-131992714D01*
X167369952Y-131992714D01*
X167465191Y-132040333D01*
X155281571Y-131992714D02*
X155662523Y-131992714D01*
X155424428Y-131659381D02*
X155424428Y-132516524D01*
X155472047Y-132611762D01*
X155567285Y-132659381D01*
X155662523Y-132659381D01*
X155995857Y-132659381D02*
X155995857Y-131992714D01*
X155995857Y-132183190D02*
X156043476Y-132087952D01*
X156091095Y-132040333D01*
X156186333Y-131992714D01*
X156281572Y-131992714D01*
X156995858Y-132611762D02*
X156900620Y-132659381D01*
X156710143Y-132659381D01*
X156614905Y-132611762D01*
X156567286Y-132516524D01*
X156567286Y-132135571D01*
X156614905Y-132040333D01*
X156710143Y-131992714D01*
X156900620Y-131992714D01*
X156995858Y-132040333D01*
X157043477Y-132135571D01*
X157043477Y-132230810D01*
X156567286Y-132326048D01*
X157472048Y-132659381D02*
X157472048Y-131659381D01*
X157472048Y-132040333D02*
X157567286Y-131992714D01*
X157757763Y-131992714D01*
X157853001Y-132040333D01*
X157900620Y-132087952D01*
X157948239Y-132183190D01*
X157948239Y-132468905D01*
X157900620Y-132564143D01*
X157853001Y-132611762D01*
X157757763Y-132659381D01*
X157567286Y-132659381D01*
X157472048Y-132611762D01*
X158519667Y-132659381D02*
X158424429Y-132611762D01*
X158376810Y-132516524D01*
X158376810Y-131659381D01*
X159281573Y-132611762D02*
X159186335Y-132659381D01*
X158995858Y-132659381D01*
X158900620Y-132611762D01*
X158853001Y-132516524D01*
X158853001Y-132135571D01*
X158900620Y-132040333D01*
X158995858Y-131992714D01*
X159186335Y-131992714D01*
X159281573Y-132040333D01*
X159329192Y-132135571D01*
X159329192Y-132230810D01*
X158853001Y-132326048D01*
D13*
X151003000Y-109728000D02*
G75*
G03X151003000Y-109728000I-3556000J0D01*
G01*
D14*
X141351000Y-122047000D02*
X141351000Y-114935000D01*
X141351000Y-114935000D02*
X143383000Y-114935000D01*
X143383000Y-114935000D02*
X143383000Y-122047000D01*
X143383000Y-122047000D02*
X141351000Y-122047000D01*
X141859000Y-122047000D02*
X141351000Y-121539000D01*
X163703000Y-108331000D02*
X170815000Y-108331000D01*
X170815000Y-108331000D02*
X170815000Y-110363000D01*
X170815000Y-110363000D02*
X163703000Y-110363000D01*
X163703000Y-110363000D02*
X163703000Y-108331000D01*
X163703000Y-108839000D02*
X164211000Y-108331000D01*
X144907000Y-129413000D02*
X152019000Y-129413000D01*
X152019000Y-129413000D02*
X152019000Y-131445000D01*
X152019000Y-131445000D02*
X144907000Y-131445000D01*
X144907000Y-131445000D02*
X144907000Y-129413000D01*
X144907000Y-129921000D02*
X145415000Y-129413000D01*
X164973000Y-122809000D02*
X172085000Y-122809000D01*
X172085000Y-122809000D02*
X172085000Y-124841000D01*
X172085000Y-124841000D02*
X164973000Y-124841000D01*
X164973000Y-124841000D02*
X164973000Y-122809000D01*
X164973000Y-123317000D02*
X165481000Y-122809000D01*
X153289000Y-125349000D02*
X160401000Y-125349000D01*
X160401000Y-125349000D02*
X160401000Y-127381000D01*
X160401000Y-127381000D02*
X153289000Y-127381000D01*
X153289000Y-127381000D02*
X153289000Y-125349000D01*
X153289000Y-125857000D02*
X153797000Y-125349000D01*
X164973000Y-119253000D02*
X172085000Y-119253000D01*
X172085000Y-119253000D02*
X172085000Y-121285000D01*
X172085000Y-121285000D02*
X164973000Y-121285000D01*
X164973000Y-121285000D02*
X164973000Y-119253000D01*
X164973000Y-119761000D02*
X165481000Y-119253000D01*
D15*
X152276173Y-126365000D02*
G75*
G03X152276173Y-126365000I-2543173J0D01*
G01*
X175898173Y-130429000D02*
G75*
G03X175898173Y-130429000I-2543173J0D01*
G01*
X183772173Y-116205000D02*
G75*
G03X183772173Y-116205000I-2543173J0D01*
G01*
X181232173Y-130429000D02*
G75*
G03X181232173Y-130429000I-2543173J0D01*
G01*
X178438173Y-110109000D02*
G75*
G03X178438173Y-110109000I-2543173J0D01*
G01*
D14*
X181737000Y-127127000D02*
X174625000Y-127127000D01*
X174625000Y-127127000D02*
X174625000Y-125095000D01*
X174625000Y-125095000D02*
X181737000Y-125095000D01*
X181737000Y-125095000D02*
X181737000Y-127127000D01*
X181737000Y-126619000D02*
X181229000Y-127127000D01*
X153543000Y-120396000D02*
X154051000Y-120396000D01*
X161163000Y-120396000D02*
X160655000Y-120396000D01*
X160655000Y-120396000D02*
X160655000Y-119380000D01*
X160655000Y-119380000D02*
X154051000Y-119380000D01*
X154051000Y-119380000D02*
X154051000Y-121412000D01*
X154051000Y-121412000D02*
X160655000Y-121412000D01*
X160655000Y-121412000D02*
X160655000Y-120396000D01*
X154051000Y-119888000D02*
X154559000Y-119380000D01*
X144907000Y-114935000D02*
X144907000Y-115443000D01*
X144907000Y-122555000D02*
X144907000Y-122047000D01*
X144907000Y-122047000D02*
X145923000Y-122047000D01*
X145923000Y-122047000D02*
X145923000Y-115443000D01*
X145923000Y-115443000D02*
X143891000Y-115443000D01*
X143891000Y-115443000D02*
X143891000Y-122047000D01*
X143891000Y-122047000D02*
X144907000Y-122047000D01*
X145415000Y-115443000D02*
X145923000Y-115951000D01*
X149987000Y-114681000D02*
X149987000Y-115189000D01*
X149987000Y-122301000D02*
X149987000Y-121793000D01*
X149987000Y-121793000D02*
X151003000Y-121793000D01*
X151003000Y-121793000D02*
X151003000Y-115189000D01*
X151003000Y-115189000D02*
X148971000Y-115189000D01*
X148971000Y-115189000D02*
X148971000Y-121793000D01*
X148971000Y-121793000D02*
X149987000Y-121793000D01*
X150495000Y-115189000D02*
X151003000Y-115697000D01*
X172339000Y-111887000D02*
X171831000Y-111887000D01*
X164719000Y-111887000D02*
X165227000Y-111887000D01*
X165227000Y-111887000D02*
X165227000Y-112903000D01*
X165227000Y-112903000D02*
X171831000Y-112903000D01*
X171831000Y-112903000D02*
X171831000Y-110871000D01*
X171831000Y-110871000D02*
X165227000Y-110871000D01*
X165227000Y-110871000D02*
X165227000Y-111887000D01*
X171831000Y-112395000D02*
X171323000Y-112903000D01*
X164719000Y-116967000D02*
X165227000Y-116967000D01*
X172339000Y-116967000D02*
X171831000Y-116967000D01*
X171831000Y-116967000D02*
X171831000Y-115951000D01*
X171831000Y-115951000D02*
X165227000Y-115951000D01*
X165227000Y-115951000D02*
X165227000Y-117983000D01*
X165227000Y-117983000D02*
X171831000Y-117983000D01*
X171831000Y-117983000D02*
X171831000Y-116967000D01*
X165227000Y-116459000D02*
X165735000Y-115951000D01*
X153543000Y-123317000D02*
X154051000Y-123317000D01*
X161163000Y-123317000D02*
X160655000Y-123317000D01*
X160655000Y-123317000D02*
X160655000Y-122301000D01*
X160655000Y-122301000D02*
X154051000Y-122301000D01*
X154051000Y-122301000D02*
X154051000Y-124333000D01*
X154051000Y-124333000D02*
X160655000Y-124333000D01*
X160655000Y-124333000D02*
X160655000Y-123317000D01*
X154051000Y-122809000D02*
X154559000Y-122301000D01*
X177165000Y-123063000D02*
X177165000Y-122555000D01*
X177165000Y-115443000D02*
X177165000Y-115951000D01*
X177165000Y-115951000D02*
X176149000Y-115951000D01*
X176149000Y-115951000D02*
X176149000Y-122555000D01*
X176149000Y-122555000D02*
X178181000Y-122555000D01*
X178181000Y-122555000D02*
X178181000Y-115951000D01*
X178181000Y-115951000D02*
X177165000Y-115951000D01*
X176657000Y-122555000D02*
X176149000Y-122047000D01*
X174625000Y-115443000D02*
X174625000Y-115951000D01*
X174625000Y-123063000D02*
X174625000Y-122555000D01*
X174625000Y-122555000D02*
X175641000Y-122555000D01*
X175641000Y-122555000D02*
X175641000Y-115951000D01*
X175641000Y-115951000D02*
X173609000Y-115951000D01*
X173609000Y-115951000D02*
X173609000Y-122555000D01*
X173609000Y-122555000D02*
X174625000Y-122555000D01*
X175133000Y-115951000D02*
X175641000Y-116459000D01*
X171831000Y-126619000D02*
X171323000Y-126619000D01*
X164211000Y-126619000D02*
X164719000Y-126619000D01*
X164719000Y-126619000D02*
X164719000Y-127635000D01*
X164719000Y-127635000D02*
X171323000Y-127635000D01*
X171323000Y-127635000D02*
X171323000Y-125603000D01*
X171323000Y-125603000D02*
X164719000Y-125603000D01*
X164719000Y-125603000D02*
X164719000Y-126619000D01*
X171323000Y-127127000D02*
X170815000Y-127635000D01*
X164719000Y-114427000D02*
X165227000Y-114427000D01*
X172339000Y-114427000D02*
X171831000Y-114427000D01*
X171831000Y-114427000D02*
X171831000Y-113411000D01*
X171831000Y-113411000D02*
X165227000Y-113411000D01*
X165227000Y-113411000D02*
X165227000Y-115443000D01*
X165227000Y-115443000D02*
X171831000Y-115443000D01*
X171831000Y-115443000D02*
X171831000Y-114427000D01*
X165227000Y-113919000D02*
X165735000Y-113411000D01*
X147447000Y-115189000D02*
X147447000Y-115697000D01*
X147447000Y-122809000D02*
X147447000Y-122301000D01*
X147447000Y-122301000D02*
X148463000Y-122301000D01*
X148463000Y-122301000D02*
X148463000Y-115697000D01*
X148463000Y-115697000D02*
X146431000Y-115697000D01*
X146431000Y-115697000D02*
X146431000Y-122301000D01*
X146431000Y-122301000D02*
X147447000Y-122301000D01*
X147955000Y-115697000D02*
X148463000Y-116205000D01*
X169545000Y-128651000D02*
X169545000Y-131191000D01*
X169545000Y-131191000D02*
X161925000Y-131191000D01*
X161925000Y-131191000D02*
X161925000Y-128651000D01*
X161925000Y-128651000D02*
X169545000Y-128651000D01*
X167005000Y-131191000D02*
X167005000Y-128651000D01*
X160655000Y-128651000D02*
X160655000Y-131191000D01*
X160655000Y-131191000D02*
X153035000Y-131191000D01*
X153035000Y-131191000D02*
X153035000Y-128651000D01*
X153035000Y-128651000D02*
X160655000Y-128651000D01*
X158115000Y-131191000D02*
X158115000Y-128651000D01*
X143891000Y-129159000D02*
X141351000Y-129159000D01*
X141351000Y-129159000D02*
X141351000Y-124079000D01*
X141351000Y-124079000D02*
X143891000Y-124079000D01*
X143891000Y-124079000D02*
X143891000Y-129159000D01*
X183515000Y-124333000D02*
X180975000Y-124333000D01*
X180975000Y-124333000D02*
X180975000Y-119253000D01*
X180975000Y-119253000D02*
X183515000Y-119253000D01*
X183515000Y-119253000D02*
X183515000Y-124333000D01*
X183769000Y-109855000D02*
X183769000Y-112395000D01*
X183769000Y-112395000D02*
X178689000Y-112395000D01*
X178689000Y-112395000D02*
X178689000Y-109855000D01*
X178689000Y-109855000D02*
X183769000Y-109855000D01*
D16*
X158623000Y-108077000D02*
X158623000Y-109347000D01*
X158623000Y-109347000D02*
X156083000Y-109347000D01*
X156083000Y-109347000D02*
X156083000Y-108077000D01*
X159893000Y-108077000D02*
X159893000Y-118237000D01*
X159893000Y-118237000D02*
X154813000Y-118237000D01*
X154813000Y-118237000D02*
X154813000Y-108077000D01*
X154813000Y-108077000D02*
X159893000Y-108077000D01*
D13*
X142724143Y-118657666D02*
X142771762Y-118705285D01*
X142819381Y-118848142D01*
X142819381Y-118943380D01*
X142771762Y-119086238D01*
X142676524Y-119181476D01*
X142581286Y-119229095D01*
X142390810Y-119276714D01*
X142247952Y-119276714D01*
X142057476Y-119229095D01*
X141962238Y-119181476D01*
X141867000Y-119086238D01*
X141819381Y-118943380D01*
X141819381Y-118848142D01*
X141867000Y-118705285D01*
X141914619Y-118657666D01*
X142819381Y-117705285D02*
X142819381Y-118276714D01*
X142819381Y-117991000D02*
X141819381Y-117991000D01*
X141962238Y-118086238D01*
X142057476Y-118181476D01*
X142105095Y-118276714D01*
X167092334Y-109704143D02*
X167044715Y-109751762D01*
X166901858Y-109799381D01*
X166806620Y-109799381D01*
X166663762Y-109751762D01*
X166568524Y-109656524D01*
X166520905Y-109561286D01*
X166473286Y-109370810D01*
X166473286Y-109227952D01*
X166520905Y-109037476D01*
X166568524Y-108942238D01*
X166663762Y-108847000D01*
X166806620Y-108799381D01*
X166901858Y-108799381D01*
X167044715Y-108847000D01*
X167092334Y-108894619D01*
X167473286Y-108894619D02*
X167520905Y-108847000D01*
X167616143Y-108799381D01*
X167854239Y-108799381D01*
X167949477Y-108847000D01*
X167997096Y-108894619D01*
X168044715Y-108989857D01*
X168044715Y-109085095D01*
X167997096Y-109227952D01*
X167425667Y-109799381D01*
X168044715Y-109799381D01*
X148296334Y-130786143D02*
X148248715Y-130833762D01*
X148105858Y-130881381D01*
X148010620Y-130881381D01*
X147867762Y-130833762D01*
X147772524Y-130738524D01*
X147724905Y-130643286D01*
X147677286Y-130452810D01*
X147677286Y-130309952D01*
X147724905Y-130119476D01*
X147772524Y-130024238D01*
X147867762Y-129929000D01*
X148010620Y-129881381D01*
X148105858Y-129881381D01*
X148248715Y-129929000D01*
X148296334Y-129976619D01*
X148629667Y-129881381D02*
X149248715Y-129881381D01*
X148915381Y-130262333D01*
X149058239Y-130262333D01*
X149153477Y-130309952D01*
X149201096Y-130357571D01*
X149248715Y-130452810D01*
X149248715Y-130690905D01*
X149201096Y-130786143D01*
X149153477Y-130833762D01*
X149058239Y-130881381D01*
X148772524Y-130881381D01*
X148677286Y-130833762D01*
X148629667Y-130786143D01*
X168362334Y-124182143D02*
X168314715Y-124229762D01*
X168171858Y-124277381D01*
X168076620Y-124277381D01*
X167933762Y-124229762D01*
X167838524Y-124134524D01*
X167790905Y-124039286D01*
X167743286Y-123848810D01*
X167743286Y-123705952D01*
X167790905Y-123515476D01*
X167838524Y-123420238D01*
X167933762Y-123325000D01*
X168076620Y-123277381D01*
X168171858Y-123277381D01*
X168314715Y-123325000D01*
X168362334Y-123372619D01*
X169219477Y-123610714D02*
X169219477Y-124277381D01*
X168981381Y-123229762D02*
X168743286Y-123944048D01*
X169362334Y-123944048D01*
X156678334Y-126722143D02*
X156630715Y-126769762D01*
X156487858Y-126817381D01*
X156392620Y-126817381D01*
X156249762Y-126769762D01*
X156154524Y-126674524D01*
X156106905Y-126579286D01*
X156059286Y-126388810D01*
X156059286Y-126245952D01*
X156106905Y-126055476D01*
X156154524Y-125960238D01*
X156249762Y-125865000D01*
X156392620Y-125817381D01*
X156487858Y-125817381D01*
X156630715Y-125865000D01*
X156678334Y-125912619D01*
X157583096Y-125817381D02*
X157106905Y-125817381D01*
X157059286Y-126293571D01*
X157106905Y-126245952D01*
X157202143Y-126198333D01*
X157440239Y-126198333D01*
X157535477Y-126245952D01*
X157583096Y-126293571D01*
X157630715Y-126388810D01*
X157630715Y-126626905D01*
X157583096Y-126722143D01*
X157535477Y-126769762D01*
X157440239Y-126817381D01*
X157202143Y-126817381D01*
X157106905Y-126769762D01*
X157059286Y-126722143D01*
X168362334Y-120626143D02*
X168314715Y-120673762D01*
X168171858Y-120721381D01*
X168076620Y-120721381D01*
X167933762Y-120673762D01*
X167838524Y-120578524D01*
X167790905Y-120483286D01*
X167743286Y-120292810D01*
X167743286Y-120149952D01*
X167790905Y-119959476D01*
X167838524Y-119864238D01*
X167933762Y-119769000D01*
X168076620Y-119721381D01*
X168171858Y-119721381D01*
X168314715Y-119769000D01*
X168362334Y-119816619D01*
X169219477Y-119721381D02*
X169029000Y-119721381D01*
X168933762Y-119769000D01*
X168886143Y-119816619D01*
X168790905Y-119959476D01*
X168743286Y-120149952D01*
X168743286Y-120530905D01*
X168790905Y-120626143D01*
X168838524Y-120673762D01*
X168933762Y-120721381D01*
X169124239Y-120721381D01*
X169219477Y-120673762D01*
X169267096Y-120626143D01*
X169314715Y-120530905D01*
X169314715Y-120292810D01*
X169267096Y-120197571D01*
X169219477Y-120149952D01*
X169124239Y-120102333D01*
X168933762Y-120102333D01*
X168838524Y-120149952D01*
X168790905Y-120197571D01*
X168743286Y-120292810D01*
D15*
X151783143Y-126492000D02*
X151819429Y-126528286D01*
X151855714Y-126637143D01*
X151855714Y-126709714D01*
X151819429Y-126818571D01*
X151746857Y-126891143D01*
X151674286Y-126927428D01*
X151529143Y-126963714D01*
X151420286Y-126963714D01*
X151275143Y-126927428D01*
X151202571Y-126891143D01*
X151130000Y-126818571D01*
X151093714Y-126709714D01*
X151093714Y-126637143D01*
X151130000Y-126528286D01*
X151166286Y-126492000D01*
X151093714Y-126238000D02*
X151093714Y-125730000D01*
X151855714Y-126056571D01*
D17*
X151692429Y-125385285D02*
X151692429Y-124804714D01*
X151982714Y-125095000D02*
X151402143Y-125095000D01*
D15*
X173228000Y-132479143D02*
X173191714Y-132515429D01*
X173082857Y-132551714D01*
X173010286Y-132551714D01*
X172901429Y-132515429D01*
X172828857Y-132442857D01*
X172792572Y-132370286D01*
X172756286Y-132225143D01*
X172756286Y-132116286D01*
X172792572Y-131971143D01*
X172828857Y-131898571D01*
X172901429Y-131826000D01*
X173010286Y-131789714D01*
X173082857Y-131789714D01*
X173191714Y-131826000D01*
X173228000Y-131862286D01*
X173663429Y-132116286D02*
X173590857Y-132080000D01*
X173554572Y-132043714D01*
X173518286Y-131971143D01*
X173518286Y-131934857D01*
X173554572Y-131862286D01*
X173590857Y-131826000D01*
X173663429Y-131789714D01*
X173808572Y-131789714D01*
X173881143Y-131826000D01*
X173917429Y-131862286D01*
X173953714Y-131934857D01*
X173953714Y-131971143D01*
X173917429Y-132043714D01*
X173881143Y-132080000D01*
X173808572Y-132116286D01*
X173663429Y-132116286D01*
X173590857Y-132152571D01*
X173554572Y-132188857D01*
X173518286Y-132261429D01*
X173518286Y-132406571D01*
X173554572Y-132479143D01*
X173590857Y-132515429D01*
X173663429Y-132551714D01*
X173808572Y-132551714D01*
X173881143Y-132515429D01*
X173917429Y-132479143D01*
X173953714Y-132406571D01*
X173953714Y-132261429D01*
X173917429Y-132188857D01*
X173881143Y-132152571D01*
X173808572Y-132116286D01*
D17*
X174334715Y-132388429D02*
X174915286Y-132388429D01*
X174625000Y-132678714D02*
X174625000Y-132098143D01*
D15*
X181102000Y-114699143D02*
X181065714Y-114735429D01*
X180956857Y-114771714D01*
X180884286Y-114771714D01*
X180775429Y-114735429D01*
X180702857Y-114662857D01*
X180666572Y-114590286D01*
X180630286Y-114445143D01*
X180630286Y-114336286D01*
X180666572Y-114191143D01*
X180702857Y-114118571D01*
X180775429Y-114046000D01*
X180884286Y-114009714D01*
X180956857Y-114009714D01*
X181065714Y-114046000D01*
X181102000Y-114082286D01*
X181464857Y-114771714D02*
X181610000Y-114771714D01*
X181682572Y-114735429D01*
X181718857Y-114699143D01*
X181791429Y-114590286D01*
X181827714Y-114445143D01*
X181827714Y-114154857D01*
X181791429Y-114082286D01*
X181755143Y-114046000D01*
X181682572Y-114009714D01*
X181537429Y-114009714D01*
X181464857Y-114046000D01*
X181428572Y-114082286D01*
X181392286Y-114154857D01*
X181392286Y-114336286D01*
X181428572Y-114408857D01*
X181464857Y-114445143D01*
X181537429Y-114481429D01*
X181682572Y-114481429D01*
X181755143Y-114445143D01*
X181791429Y-114408857D01*
X181827714Y-114336286D01*
D17*
X179668715Y-114354429D02*
X180249286Y-114354429D01*
X179959000Y-114644714D02*
X179959000Y-114064143D01*
D15*
X178199143Y-132479143D02*
X178162857Y-132515429D01*
X178054000Y-132551714D01*
X177981429Y-132551714D01*
X177872572Y-132515429D01*
X177800000Y-132442857D01*
X177763715Y-132370286D01*
X177727429Y-132225143D01*
X177727429Y-132116286D01*
X177763715Y-131971143D01*
X177800000Y-131898571D01*
X177872572Y-131826000D01*
X177981429Y-131789714D01*
X178054000Y-131789714D01*
X178162857Y-131826000D01*
X178199143Y-131862286D01*
X178924857Y-132551714D02*
X178489429Y-132551714D01*
X178707143Y-132551714D02*
X178707143Y-131789714D01*
X178634572Y-131898571D01*
X178562000Y-131971143D01*
X178489429Y-132007429D01*
X179396571Y-131789714D02*
X179469143Y-131789714D01*
X179541714Y-131826000D01*
X179578000Y-131862286D01*
X179614286Y-131934857D01*
X179650571Y-132080000D01*
X179650571Y-132261429D01*
X179614286Y-132406571D01*
X179578000Y-132479143D01*
X179541714Y-132515429D01*
X179469143Y-132551714D01*
X179396571Y-132551714D01*
X179324000Y-132515429D01*
X179287714Y-132479143D01*
X179251429Y-132406571D01*
X179215143Y-132261429D01*
X179215143Y-132080000D01*
X179251429Y-131934857D01*
X179287714Y-131862286D01*
X179324000Y-131826000D01*
X179396571Y-131789714D01*
D17*
X179668715Y-132388429D02*
X180249286Y-132388429D01*
X179959000Y-132678714D02*
X179959000Y-132098143D01*
D15*
X174389143Y-110598857D02*
X174425429Y-110635143D01*
X174461714Y-110744000D01*
X174461714Y-110816571D01*
X174425429Y-110925428D01*
X174352857Y-110998000D01*
X174280286Y-111034285D01*
X174135143Y-111070571D01*
X174026286Y-111070571D01*
X173881143Y-111034285D01*
X173808571Y-110998000D01*
X173736000Y-110925428D01*
X173699714Y-110816571D01*
X173699714Y-110744000D01*
X173736000Y-110635143D01*
X173772286Y-110598857D01*
X174461714Y-109873143D02*
X174461714Y-110308571D01*
X174461714Y-110090857D02*
X173699714Y-110090857D01*
X173808571Y-110163428D01*
X173881143Y-110236000D01*
X173917429Y-110308571D01*
X173772286Y-109582857D02*
X173736000Y-109546571D01*
X173699714Y-109474000D01*
X173699714Y-109292571D01*
X173736000Y-109220000D01*
X173772286Y-109183714D01*
X173844857Y-109147429D01*
X173917429Y-109147429D01*
X174026286Y-109183714D01*
X174461714Y-109619143D01*
X174461714Y-109147429D01*
D17*
X174044429Y-111669285D02*
X174044429Y-111088714D01*
X174334714Y-111379000D02*
X173754143Y-111379000D01*
D13*
X177538143Y-126468143D02*
X177490524Y-126515762D01*
X177347667Y-126563381D01*
X177252429Y-126563381D01*
X177109571Y-126515762D01*
X177014333Y-126420524D01*
X176966714Y-126325286D01*
X176919095Y-126134810D01*
X176919095Y-125991952D01*
X176966714Y-125801476D01*
X177014333Y-125706238D01*
X177109571Y-125611000D01*
X177252429Y-125563381D01*
X177347667Y-125563381D01*
X177490524Y-125611000D01*
X177538143Y-125658619D01*
X178490524Y-126563381D02*
X177919095Y-126563381D01*
X178204809Y-126563381D02*
X178204809Y-125563381D01*
X178109571Y-125706238D01*
X178014333Y-125801476D01*
X177919095Y-125849095D01*
X178823857Y-125563381D02*
X179442905Y-125563381D01*
X179109571Y-125944333D01*
X179252429Y-125944333D01*
X179347667Y-125991952D01*
X179395286Y-126039571D01*
X179442905Y-126134810D01*
X179442905Y-126372905D01*
X179395286Y-126468143D01*
X179347667Y-126515762D01*
X179252429Y-126563381D01*
X178966714Y-126563381D01*
X178871476Y-126515762D01*
X178823857Y-126468143D01*
X157186334Y-120848381D02*
X156853000Y-120372190D01*
X156614905Y-120848381D02*
X156614905Y-119848381D01*
X156995858Y-119848381D01*
X157091096Y-119896000D01*
X157138715Y-119943619D01*
X157186334Y-120038857D01*
X157186334Y-120181714D01*
X157138715Y-120276952D01*
X157091096Y-120324571D01*
X156995858Y-120372190D01*
X156614905Y-120372190D01*
X158138715Y-120848381D02*
X157567286Y-120848381D01*
X157853000Y-120848381D02*
X157853000Y-119848381D01*
X157757762Y-119991238D01*
X157662524Y-120086476D01*
X157567286Y-120134095D01*
X145359381Y-118911666D02*
X144883190Y-119245000D01*
X145359381Y-119483095D02*
X144359381Y-119483095D01*
X144359381Y-119102142D01*
X144407000Y-119006904D01*
X144454619Y-118959285D01*
X144549857Y-118911666D01*
X144692714Y-118911666D01*
X144787952Y-118959285D01*
X144835571Y-119006904D01*
X144883190Y-119102142D01*
X144883190Y-119483095D01*
X144454619Y-118530714D02*
X144407000Y-118483095D01*
X144359381Y-118387857D01*
X144359381Y-118149761D01*
X144407000Y-118054523D01*
X144454619Y-118006904D01*
X144549857Y-117959285D01*
X144645095Y-117959285D01*
X144787952Y-118006904D01*
X145359381Y-118578333D01*
X145359381Y-117959285D01*
X150439381Y-118657666D02*
X149963190Y-118991000D01*
X150439381Y-119229095D02*
X149439381Y-119229095D01*
X149439381Y-118848142D01*
X149487000Y-118752904D01*
X149534619Y-118705285D01*
X149629857Y-118657666D01*
X149772714Y-118657666D01*
X149867952Y-118705285D01*
X149915571Y-118752904D01*
X149963190Y-118848142D01*
X149963190Y-119229095D01*
X149439381Y-118324333D02*
X149439381Y-117705285D01*
X149820333Y-118038619D01*
X149820333Y-117895761D01*
X149867952Y-117800523D01*
X149915571Y-117752904D01*
X150010810Y-117705285D01*
X150248905Y-117705285D01*
X150344143Y-117752904D01*
X150391762Y-117800523D01*
X150439381Y-117895761D01*
X150439381Y-118181476D01*
X150391762Y-118276714D01*
X150344143Y-118324333D01*
X168362334Y-112339381D02*
X168029000Y-111863190D01*
X167790905Y-112339381D02*
X167790905Y-111339381D01*
X168171858Y-111339381D01*
X168267096Y-111387000D01*
X168314715Y-111434619D01*
X168362334Y-111529857D01*
X168362334Y-111672714D01*
X168314715Y-111767952D01*
X168267096Y-111815571D01*
X168171858Y-111863190D01*
X167790905Y-111863190D01*
X169267096Y-111339381D02*
X168790905Y-111339381D01*
X168743286Y-111815571D01*
X168790905Y-111767952D01*
X168886143Y-111720333D01*
X169124239Y-111720333D01*
X169219477Y-111767952D01*
X169267096Y-111815571D01*
X169314715Y-111910810D01*
X169314715Y-112148905D01*
X169267096Y-112244143D01*
X169219477Y-112291762D01*
X169124239Y-112339381D01*
X168886143Y-112339381D01*
X168790905Y-112291762D01*
X168743286Y-112244143D01*
X168362334Y-117419381D02*
X168029000Y-116943190D01*
X167790905Y-117419381D02*
X167790905Y-116419381D01*
X168171858Y-116419381D01*
X168267096Y-116467000D01*
X168314715Y-116514619D01*
X168362334Y-116609857D01*
X168362334Y-116752714D01*
X168314715Y-116847952D01*
X168267096Y-116895571D01*
X168171858Y-116943190D01*
X167790905Y-116943190D01*
X169219477Y-116419381D02*
X169029000Y-116419381D01*
X168933762Y-116467000D01*
X168886143Y-116514619D01*
X168790905Y-116657476D01*
X168743286Y-116847952D01*
X168743286Y-117228905D01*
X168790905Y-117324143D01*
X168838524Y-117371762D01*
X168933762Y-117419381D01*
X169124239Y-117419381D01*
X169219477Y-117371762D01*
X169267096Y-117324143D01*
X169314715Y-117228905D01*
X169314715Y-116990810D01*
X169267096Y-116895571D01*
X169219477Y-116847952D01*
X169124239Y-116800333D01*
X168933762Y-116800333D01*
X168838524Y-116847952D01*
X168790905Y-116895571D01*
X168743286Y-116990810D01*
X157186334Y-123769381D02*
X156853000Y-123293190D01*
X156614905Y-123769381D02*
X156614905Y-122769381D01*
X156995858Y-122769381D01*
X157091096Y-122817000D01*
X157138715Y-122864619D01*
X157186334Y-122959857D01*
X157186334Y-123102714D01*
X157138715Y-123197952D01*
X157091096Y-123245571D01*
X156995858Y-123293190D01*
X156614905Y-123293190D01*
X157519667Y-122769381D02*
X158186334Y-122769381D01*
X157757762Y-123769381D01*
X177617381Y-119419666D02*
X177141190Y-119753000D01*
X177617381Y-119991095D02*
X176617381Y-119991095D01*
X176617381Y-119610142D01*
X176665000Y-119514904D01*
X176712619Y-119467285D01*
X176807857Y-119419666D01*
X176950714Y-119419666D01*
X177045952Y-119467285D01*
X177093571Y-119514904D01*
X177141190Y-119610142D01*
X177141190Y-119991095D01*
X177045952Y-118848238D02*
X176998333Y-118943476D01*
X176950714Y-118991095D01*
X176855476Y-119038714D01*
X176807857Y-119038714D01*
X176712619Y-118991095D01*
X176665000Y-118943476D01*
X176617381Y-118848238D01*
X176617381Y-118657761D01*
X176665000Y-118562523D01*
X176712619Y-118514904D01*
X176807857Y-118467285D01*
X176855476Y-118467285D01*
X176950714Y-118514904D01*
X176998333Y-118562523D01*
X177045952Y-118657761D01*
X177045952Y-118848238D01*
X177093571Y-118943476D01*
X177141190Y-118991095D01*
X177236429Y-119038714D01*
X177426905Y-119038714D01*
X177522143Y-118991095D01*
X177569762Y-118943476D01*
X177617381Y-118848238D01*
X177617381Y-118657761D01*
X177569762Y-118562523D01*
X177522143Y-118514904D01*
X177426905Y-118467285D01*
X177236429Y-118467285D01*
X177141190Y-118514904D01*
X177093571Y-118562523D01*
X177045952Y-118657761D01*
X175077381Y-119419666D02*
X174601190Y-119753000D01*
X175077381Y-119991095D02*
X174077381Y-119991095D01*
X174077381Y-119610142D01*
X174125000Y-119514904D01*
X174172619Y-119467285D01*
X174267857Y-119419666D01*
X174410714Y-119419666D01*
X174505952Y-119467285D01*
X174553571Y-119514904D01*
X174601190Y-119610142D01*
X174601190Y-119991095D01*
X175077381Y-118943476D02*
X175077381Y-118753000D01*
X175029762Y-118657761D01*
X174982143Y-118610142D01*
X174839286Y-118514904D01*
X174648810Y-118467285D01*
X174267857Y-118467285D01*
X174172619Y-118514904D01*
X174125000Y-118562523D01*
X174077381Y-118657761D01*
X174077381Y-118848238D01*
X174125000Y-118943476D01*
X174172619Y-118991095D01*
X174267857Y-119038714D01*
X174505952Y-119038714D01*
X174601190Y-118991095D01*
X174648810Y-118943476D01*
X174696429Y-118848238D01*
X174696429Y-118657761D01*
X174648810Y-118562523D01*
X174601190Y-118514904D01*
X174505952Y-118467285D01*
X167378143Y-127071381D02*
X167044809Y-126595190D01*
X166806714Y-127071381D02*
X166806714Y-126071381D01*
X167187667Y-126071381D01*
X167282905Y-126119000D01*
X167330524Y-126166619D01*
X167378143Y-126261857D01*
X167378143Y-126404714D01*
X167330524Y-126499952D01*
X167282905Y-126547571D01*
X167187667Y-126595190D01*
X166806714Y-126595190D01*
X168330524Y-127071381D02*
X167759095Y-127071381D01*
X168044809Y-127071381D02*
X168044809Y-126071381D01*
X167949571Y-126214238D01*
X167854333Y-126309476D01*
X167759095Y-126357095D01*
X168949571Y-126071381D02*
X169044810Y-126071381D01*
X169140048Y-126119000D01*
X169187667Y-126166619D01*
X169235286Y-126261857D01*
X169282905Y-126452333D01*
X169282905Y-126690429D01*
X169235286Y-126880905D01*
X169187667Y-126976143D01*
X169140048Y-127023762D01*
X169044810Y-127071381D01*
X168949571Y-127071381D01*
X168854333Y-127023762D01*
X168806714Y-126976143D01*
X168759095Y-126880905D01*
X168711476Y-126690429D01*
X168711476Y-126452333D01*
X168759095Y-126261857D01*
X168806714Y-126166619D01*
X168854333Y-126119000D01*
X168949571Y-126071381D01*
X167886143Y-114879381D02*
X167552809Y-114403190D01*
X167314714Y-114879381D02*
X167314714Y-113879381D01*
X167695667Y-113879381D01*
X167790905Y-113927000D01*
X167838524Y-113974619D01*
X167886143Y-114069857D01*
X167886143Y-114212714D01*
X167838524Y-114307952D01*
X167790905Y-114355571D01*
X167695667Y-114403190D01*
X167314714Y-114403190D01*
X168838524Y-114879381D02*
X168267095Y-114879381D01*
X168552809Y-114879381D02*
X168552809Y-113879381D01*
X168457571Y-114022238D01*
X168362333Y-114117476D01*
X168267095Y-114165095D01*
X169790905Y-114879381D02*
X169219476Y-114879381D01*
X169505190Y-114879381D02*
X169505190Y-113879381D01*
X169409952Y-114022238D01*
X169314714Y-114117476D01*
X169219476Y-114165095D01*
X147899381Y-119165666D02*
X147423190Y-119499000D01*
X147899381Y-119737095D02*
X146899381Y-119737095D01*
X146899381Y-119356142D01*
X146947000Y-119260904D01*
X146994619Y-119213285D01*
X147089857Y-119165666D01*
X147232714Y-119165666D01*
X147327952Y-119213285D01*
X147375571Y-119260904D01*
X147423190Y-119356142D01*
X147423190Y-119737095D01*
X147232714Y-118308523D02*
X147899381Y-118308523D01*
X146851762Y-118546619D02*
X147566048Y-118784714D01*
X147566048Y-118165666D01*
D18*
X163654619Y-132920619D02*
X163315953Y-132436810D01*
X163074048Y-132920619D02*
X163074048Y-131904619D01*
X163461095Y-131904619D01*
X163557857Y-131953000D01*
X163606238Y-132001381D01*
X163654619Y-132098143D01*
X163654619Y-132243286D01*
X163606238Y-132340048D01*
X163557857Y-132388429D01*
X163461095Y-132436810D01*
X163074048Y-132436810D01*
X164428714Y-132388429D02*
X164573857Y-132436810D01*
X164622238Y-132485190D01*
X164670619Y-132581952D01*
X164670619Y-132727095D01*
X164622238Y-132823857D01*
X164573857Y-132872238D01*
X164477095Y-132920619D01*
X164090048Y-132920619D01*
X164090048Y-131904619D01*
X164428714Y-131904619D01*
X164525476Y-131953000D01*
X164573857Y-132001381D01*
X164622238Y-132098143D01*
X164622238Y-132194905D01*
X164573857Y-132291667D01*
X164525476Y-132340048D01*
X164428714Y-132388429D01*
X164090048Y-132388429D01*
X165057667Y-132630333D02*
X165541476Y-132630333D01*
X164960905Y-132920619D02*
X165299572Y-131904619D01*
X165638238Y-132920619D01*
X165928524Y-132872238D02*
X166073667Y-132920619D01*
X166315571Y-132920619D01*
X166412333Y-132872238D01*
X166460714Y-132823857D01*
X166509095Y-132727095D01*
X166509095Y-132630333D01*
X166460714Y-132533571D01*
X166412333Y-132485190D01*
X166315571Y-132436810D01*
X166122048Y-132388429D01*
X166025286Y-132340048D01*
X165976905Y-132291667D01*
X165928524Y-132194905D01*
X165928524Y-132098143D01*
X165976905Y-132001381D01*
X166025286Y-131953000D01*
X166122048Y-131904619D01*
X166363952Y-131904619D01*
X166509095Y-131953000D01*
X166896143Y-132872238D02*
X167041286Y-132920619D01*
X167283190Y-132920619D01*
X167379952Y-132872238D01*
X167428333Y-132823857D01*
X167476714Y-132727095D01*
X167476714Y-132630333D01*
X167428333Y-132533571D01*
X167379952Y-132485190D01*
X167283190Y-132436810D01*
X167089667Y-132388429D01*
X166992905Y-132340048D01*
X166944524Y-132291667D01*
X166896143Y-132194905D01*
X166896143Y-132098143D01*
X166944524Y-132001381D01*
X166992905Y-131953000D01*
X167089667Y-131904619D01*
X167331571Y-131904619D01*
X167476714Y-131953000D01*
X168444333Y-132920619D02*
X167863762Y-132920619D01*
X168154048Y-132920619D02*
X168154048Y-131904619D01*
X168057286Y-132049762D01*
X167960524Y-132146524D01*
X167863762Y-132194905D01*
X153942143Y-132920619D02*
X153603477Y-132436810D01*
X153361572Y-132920619D02*
X153361572Y-131904619D01*
X153748619Y-131904619D01*
X153845381Y-131953000D01*
X153893762Y-132001381D01*
X153942143Y-132098143D01*
X153942143Y-132243286D01*
X153893762Y-132340048D01*
X153845381Y-132388429D01*
X153748619Y-132436810D01*
X153361572Y-132436810D01*
X154232429Y-131904619D02*
X154813000Y-131904619D01*
X154522715Y-132920619D02*
X154522715Y-131904619D01*
X155732238Y-132920619D02*
X155393572Y-132436810D01*
X155151667Y-132920619D02*
X155151667Y-131904619D01*
X155538714Y-131904619D01*
X155635476Y-131953000D01*
X155683857Y-132001381D01*
X155732238Y-132098143D01*
X155732238Y-132243286D01*
X155683857Y-132340048D01*
X155635476Y-132388429D01*
X155538714Y-132436810D01*
X155151667Y-132436810D01*
X156167667Y-132388429D02*
X156506333Y-132388429D01*
X156651476Y-132920619D02*
X156167667Y-132920619D01*
X156167667Y-131904619D01*
X156651476Y-131904619D01*
X157425571Y-132388429D02*
X157570714Y-132436810D01*
X157619095Y-132485190D01*
X157667476Y-132581952D01*
X157667476Y-132727095D01*
X157619095Y-132823857D01*
X157570714Y-132872238D01*
X157473952Y-132920619D01*
X157086905Y-132920619D01*
X157086905Y-131904619D01*
X157425571Y-131904619D01*
X157522333Y-131953000D01*
X157570714Y-132001381D01*
X157619095Y-132098143D01*
X157619095Y-132194905D01*
X157570714Y-132291667D01*
X157522333Y-132340048D01*
X157425571Y-132388429D01*
X157086905Y-132388429D01*
X158586714Y-132920619D02*
X158102905Y-132920619D01*
X158102905Y-131904619D01*
X158925381Y-132388429D02*
X159264047Y-132388429D01*
X159409190Y-132920619D02*
X158925381Y-132920619D01*
X158925381Y-131904619D01*
X159409190Y-131904619D01*
X160376809Y-132920619D02*
X159796238Y-132920619D01*
X160086524Y-132920619D02*
X160086524Y-131904619D01*
X159989762Y-132049762D01*
X159893000Y-132146524D01*
X159796238Y-132194905D01*
X146128619Y-127114904D02*
X145112619Y-127114904D01*
X145112619Y-126727857D01*
X145161000Y-126631095D01*
X145209381Y-126582714D01*
X145306143Y-126534333D01*
X145451286Y-126534333D01*
X145548048Y-126582714D01*
X145596429Y-126631095D01*
X145644810Y-126727857D01*
X145644810Y-127114904D01*
X146128619Y-125566714D02*
X146128619Y-126147285D01*
X146128619Y-125856999D02*
X145112619Y-125856999D01*
X145257762Y-125953761D01*
X145354524Y-126050523D01*
X145402905Y-126147285D01*
X180164619Y-123558904D02*
X179148619Y-123558904D01*
X179148619Y-123171857D01*
X179197000Y-123075095D01*
X179245381Y-123026714D01*
X179342143Y-122978333D01*
X179487286Y-122978333D01*
X179584048Y-123026714D01*
X179632429Y-123075095D01*
X179680810Y-123171857D01*
X179680810Y-123558904D01*
X179245381Y-122591285D02*
X179197000Y-122542904D01*
X179148619Y-122446142D01*
X179148619Y-122204238D01*
X179197000Y-122107476D01*
X179245381Y-122059095D01*
X179342143Y-122010714D01*
X179438905Y-122010714D01*
X179584048Y-122059095D01*
X180164619Y-122639666D01*
X180164619Y-122010714D01*
X177685096Y-113870619D02*
X177685096Y-112854619D01*
X178072143Y-112854619D01*
X178168905Y-112903000D01*
X178217286Y-112951381D01*
X178265667Y-113048143D01*
X178265667Y-113193286D01*
X178217286Y-113290048D01*
X178168905Y-113338429D01*
X178072143Y-113386810D01*
X177685096Y-113386810D01*
X178604334Y-112854619D02*
X179233286Y-112854619D01*
X178894620Y-113241667D01*
X179039762Y-113241667D01*
X179136524Y-113290048D01*
X179184905Y-113338429D01*
X179233286Y-113435190D01*
X179233286Y-113677095D01*
X179184905Y-113773857D01*
X179136524Y-113822238D01*
X179039762Y-113870619D01*
X178749477Y-113870619D01*
X178652715Y-113822238D01*
X178604334Y-113773857D01*
D19*
X156482143Y-105833333D02*
X156482143Y-107272667D01*
X156536571Y-107442000D01*
X156591000Y-107526667D01*
X156699857Y-107611333D01*
X156917571Y-107611333D01*
X157026429Y-107526667D01*
X157080857Y-107442000D01*
X157135286Y-107272667D01*
X157135286Y-105833333D01*
X158278286Y-107611333D02*
X157625143Y-107611333D01*
X157951715Y-107611333D02*
X157951715Y-105833333D01*
X157842858Y-106087333D01*
X157734000Y-106256667D01*
X157625143Y-106341333D01*
D14*
%LPC*%
D20*
X144907000Y-110617000D03*
X147447000Y-108077000D03*
X149987000Y-110617000D03*
D21*
X142367000Y-121031000D03*
X142367000Y-115951000D03*
X164719000Y-109347000D03*
X169799000Y-109347000D03*
X145923000Y-130429000D03*
X151003000Y-130429000D03*
X165989000Y-123825000D03*
X171069000Y-123825000D03*
X154305000Y-126365000D03*
X159385000Y-126365000D03*
X165989000Y-120269000D03*
X171069000Y-120269000D03*
D22*
X149733000Y-125095000D03*
D21*
X149733000Y-127635000D03*
D22*
X174625000Y-130429000D03*
D21*
X172085000Y-130429000D03*
D22*
X179959000Y-116205000D03*
D21*
X182499000Y-116205000D03*
D22*
X179959000Y-130429000D03*
D21*
X177419000Y-130429000D03*
D22*
X175895000Y-111379000D03*
D21*
X175895000Y-108839000D03*
X180721000Y-126111000D03*
X175641000Y-126111000D03*
X153543000Y-120396000D03*
X161163000Y-120396000D03*
X144907000Y-114935000D03*
X144907000Y-122555000D03*
X149987000Y-114681000D03*
X149987000Y-122301000D03*
X172339000Y-111887000D03*
X164719000Y-111887000D03*
X164719000Y-116967000D03*
X172339000Y-116967000D03*
X153543000Y-123317000D03*
X161163000Y-123317000D03*
X177165000Y-123063000D03*
X177165000Y-115443000D03*
X174625000Y-115443000D03*
X174625000Y-123063000D03*
X171831000Y-126619000D03*
X164211000Y-126619000D03*
X164719000Y-114427000D03*
X172339000Y-114427000D03*
X147447000Y-115189000D03*
X147447000Y-122809000D03*
D23*
X168275000Y-129921000D03*
D24*
X165735000Y-129921000D03*
X163195000Y-129921000D03*
D23*
X159385000Y-129921000D03*
D24*
X156845000Y-129921000D03*
X154305000Y-129921000D03*
D23*
X142621000Y-127889000D03*
D24*
X142621000Y-125349000D03*
D23*
X182245000Y-123063000D03*
D24*
X182245000Y-120523000D03*
D23*
X182499000Y-111125000D03*
D24*
X179959000Y-111125000D03*
D25*
X153543000Y-109347000D03*
D26*
X153543000Y-111887000D03*
X153543000Y-114427000D03*
X153543000Y-116967000D03*
X161163000Y-116967000D03*
X161163000Y-114427000D03*
X161163000Y-111887000D03*
X161163000Y-109347000D03*
M02*
