%FSLAX46Y46*%
G04 Gerber Fmt 4.6, Leading zero omitted, Abs format (unit mm)*
G04 Created by KiCad (PCBNEW (2014-10-18 BZR 5203)-product) date 23/10/2014 11:22:48*
%MOMM*%
G01*
G04 APERTURE LIST*
%ADD10C,0.150000*%
%ADD11C,1.524000*%
%ADD12C,1.778000*%
%ADD13R,1.778000X1.778000*%
%ADD14R,2.000000X2.000000*%
%ADD15C,2.000000*%
%ADD16R,2.286000X1.778000*%
%ADD17O,2.286000X1.778000*%
%ADD18C,0.508000*%
%ADD19C,0.254000*%
G04 APERTURE END LIST*
D10*
D11*
X144907000Y-110617000D03*
X147447000Y-108077000D03*
X149987000Y-110617000D03*
D12*
X142367000Y-121031000D03*
X142367000Y-115951000D03*
X164719000Y-109347000D03*
X169799000Y-109347000D03*
X145923000Y-130429000D03*
X151003000Y-130429000D03*
X165989000Y-124079000D03*
X171069000Y-124079000D03*
X154305000Y-126365000D03*
X159385000Y-126365000D03*
X165989000Y-120269000D03*
X171069000Y-120269000D03*
X149733000Y-125095000D03*
D13*
X149733000Y-127635000D03*
D12*
X174625000Y-130429000D03*
D13*
X172085000Y-130429000D03*
D12*
X179959000Y-116205000D03*
D13*
X182499000Y-116205000D03*
D12*
X179959000Y-130429000D03*
D13*
X177419000Y-130429000D03*
D12*
X175895000Y-111379000D03*
D13*
X175895000Y-108839000D03*
D12*
X180721000Y-125857000D03*
X175641000Y-125857000D03*
X153543000Y-120396000D03*
X161163000Y-120396000D03*
X144907000Y-114935000D03*
X144907000Y-122555000D03*
X149987000Y-114681000D03*
X149987000Y-122301000D03*
X172339000Y-111887000D03*
X164719000Y-111887000D03*
X164719000Y-116967000D03*
X172339000Y-116967000D03*
X153543000Y-123317000D03*
X161163000Y-123317000D03*
X177165000Y-123063000D03*
X177165000Y-115443000D03*
X174625000Y-115443000D03*
X174625000Y-123063000D03*
X171831000Y-126619000D03*
X164211000Y-126619000D03*
X164719000Y-114427000D03*
X172339000Y-114427000D03*
X147447000Y-115189000D03*
X147447000Y-122809000D03*
D14*
X168275000Y-130429000D03*
D15*
X165735000Y-130429000D03*
X163195000Y-130429000D03*
D14*
X159385000Y-130429000D03*
D15*
X156845000Y-130429000D03*
X154305000Y-130429000D03*
D14*
X142621000Y-127889000D03*
D15*
X142621000Y-125349000D03*
D14*
X182245000Y-123063000D03*
D15*
X182245000Y-120523000D03*
D14*
X182499000Y-111125000D03*
D15*
X179959000Y-111125000D03*
D16*
X153543000Y-109347000D03*
D17*
X153543000Y-111887000D03*
X153543000Y-114427000D03*
X153543000Y-116967000D03*
X161163000Y-116967000D03*
X161163000Y-114427000D03*
X161163000Y-111887000D03*
X161163000Y-109347000D03*
D18*
X161163000Y-109347000D02*
X161163000Y-107823000D01*
X161163000Y-107823000D02*
X162687000Y-106299000D01*
X162687000Y-106299000D02*
X176657000Y-106299000D01*
X176657000Y-106299000D02*
X179959000Y-109601000D01*
X179959000Y-109601000D02*
X179959000Y-111125000D01*
X174625000Y-123063000D02*
X174625000Y-123825000D01*
X174625000Y-123825000D02*
X171831000Y-126619000D01*
X171831000Y-126619000D02*
X171069000Y-126619000D01*
X171069000Y-126619000D02*
X166562395Y-122112395D01*
X166562395Y-122112395D02*
X162879395Y-122112395D01*
X162879395Y-122112395D02*
X161163000Y-120396000D01*
X149987000Y-117475000D02*
X143891000Y-117475000D01*
X153035000Y-114427000D02*
X149987000Y-117475000D01*
X143891000Y-117475000D02*
X142367000Y-115951000D01*
X153035000Y-114427000D02*
X153543000Y-114427000D01*
X171069000Y-120269000D02*
X169037000Y-120269000D01*
X169037000Y-120269000D02*
X167386000Y-118618000D01*
X167386000Y-118618000D02*
X159766000Y-118618000D01*
X159766000Y-118618000D02*
X158877000Y-117729000D01*
X158877000Y-117729000D02*
X158877000Y-112903000D01*
X158877000Y-112903000D02*
X159893000Y-111887000D01*
X159893000Y-111887000D02*
X161163000Y-111887000D01*
D19*
G36*
X184329000Y-129439148D02*
X184134000Y-129308853D01*
X184134000Y-112251310D01*
X184134000Y-111998691D01*
X184134000Y-111410750D01*
X183975250Y-111252000D01*
X182626000Y-111252000D01*
X182626000Y-112601250D01*
X182784750Y-112760000D01*
X183625309Y-112760000D01*
X183858698Y-112663327D01*
X184037327Y-112484699D01*
X184134000Y-112251310D01*
X184134000Y-129308853D01*
X184023000Y-129234686D01*
X184023000Y-117220310D01*
X184023000Y-116967691D01*
X184023000Y-115189691D01*
X183926327Y-114956302D01*
X183747699Y-114777673D01*
X183514310Y-114681000D01*
X183261691Y-114681000D01*
X181483691Y-114681000D01*
X181250302Y-114777673D01*
X181071673Y-114956301D01*
X181011317Y-115102011D01*
X180823404Y-114913769D01*
X180263472Y-114681265D01*
X179657188Y-114680736D01*
X179096851Y-114912262D01*
X178689108Y-115319293D01*
X178689264Y-115141188D01*
X178457738Y-114580851D01*
X178029404Y-114151769D01*
X177469472Y-113919265D01*
X177419264Y-113919221D01*
X177419264Y-111077188D01*
X177187738Y-110516851D01*
X176997926Y-110326708D01*
X177143699Y-110266327D01*
X177322327Y-110087698D01*
X177419000Y-109854309D01*
X177419000Y-109124750D01*
X177260250Y-108966000D01*
X176022000Y-108966000D01*
X176022000Y-108986000D01*
X175768000Y-108986000D01*
X175768000Y-108966000D01*
X175768000Y-108712000D01*
X175768000Y-107473750D01*
X175609250Y-107315000D01*
X175132309Y-107315000D01*
X174879690Y-107315000D01*
X174646301Y-107411673D01*
X174467673Y-107590302D01*
X174371000Y-107823691D01*
X174371000Y-108553250D01*
X174529750Y-108712000D01*
X175768000Y-108712000D01*
X175768000Y-108966000D01*
X174529750Y-108966000D01*
X174371000Y-109124750D01*
X174371000Y-109854309D01*
X174467673Y-110087698D01*
X174646301Y-110266327D01*
X174792011Y-110326682D01*
X174603769Y-110514596D01*
X174371265Y-111074528D01*
X174370736Y-111680812D01*
X174602262Y-112241149D01*
X175030596Y-112670231D01*
X175590528Y-112902735D01*
X176196812Y-112903264D01*
X176757149Y-112671738D01*
X177186231Y-112243404D01*
X177418735Y-111683472D01*
X177419264Y-111077188D01*
X177419264Y-113919221D01*
X176863188Y-113918736D01*
X176302851Y-114150262D01*
X175894664Y-114557737D01*
X175489404Y-114151769D01*
X174929472Y-113919265D01*
X174323188Y-113918736D01*
X173857470Y-114111166D01*
X173631738Y-113564851D01*
X173224262Y-113156664D01*
X173630231Y-112751404D01*
X173862735Y-112191472D01*
X173863264Y-111585188D01*
X173631738Y-111024851D01*
X173203404Y-110595769D01*
X172643472Y-110363265D01*
X172037188Y-110362736D01*
X171476851Y-110594262D01*
X171323264Y-110747581D01*
X171323264Y-109045188D01*
X171091738Y-108484851D01*
X170663404Y-108055769D01*
X170103472Y-107823265D01*
X169497188Y-107822736D01*
X168936851Y-108054262D01*
X168507769Y-108482596D01*
X168275265Y-109042528D01*
X168274736Y-109648812D01*
X168506262Y-110209149D01*
X168934596Y-110638231D01*
X169494528Y-110870735D01*
X170100812Y-110871264D01*
X170661149Y-110639738D01*
X171090231Y-110211404D01*
X171322735Y-109651472D01*
X171323264Y-109045188D01*
X171323264Y-110747581D01*
X171047769Y-111022596D01*
X170815265Y-111582528D01*
X170814736Y-112188812D01*
X171046262Y-112749149D01*
X171453737Y-113157335D01*
X171047769Y-113562596D01*
X170815265Y-114122528D01*
X170814736Y-114728812D01*
X171046262Y-115289149D01*
X171453737Y-115697335D01*
X171047769Y-116102596D01*
X170815265Y-116662528D01*
X170814736Y-117268812D01*
X171046262Y-117829149D01*
X171474596Y-118258231D01*
X172034528Y-118490735D01*
X172640812Y-118491264D01*
X173201149Y-118259738D01*
X173630231Y-117831404D01*
X173862735Y-117271472D01*
X173863166Y-116776822D01*
X174320528Y-116966735D01*
X174926812Y-116967264D01*
X175487149Y-116735738D01*
X175895335Y-116328262D01*
X176300596Y-116734231D01*
X176860528Y-116966735D01*
X177466812Y-116967264D01*
X178027149Y-116735738D01*
X178434891Y-116328706D01*
X178434736Y-116506812D01*
X178666262Y-117067149D01*
X179094596Y-117496231D01*
X179654528Y-117728735D01*
X180260812Y-117729264D01*
X180821149Y-117497738D01*
X181011292Y-117307926D01*
X181071673Y-117453698D01*
X181250301Y-117632327D01*
X181483690Y-117729000D01*
X181736309Y-117729000D01*
X183514309Y-117729000D01*
X183747698Y-117632327D01*
X183926327Y-117453699D01*
X184023000Y-117220310D01*
X184023000Y-129234686D01*
X183880284Y-129139326D01*
X183880284Y-120199205D01*
X183631894Y-119598057D01*
X183172363Y-119137722D01*
X182571648Y-118888284D01*
X181921205Y-118887716D01*
X181320057Y-119136106D01*
X180859722Y-119595637D01*
X180610284Y-120196352D01*
X180609716Y-120846795D01*
X180858106Y-121447943D01*
X180920250Y-121510196D01*
X180885301Y-121524673D01*
X180706673Y-121703302D01*
X180610000Y-121936691D01*
X180610000Y-122777250D01*
X180768750Y-122936000D01*
X182118000Y-122936000D01*
X182118000Y-122916000D01*
X182372000Y-122916000D01*
X182372000Y-122936000D01*
X183721250Y-122936000D01*
X183880000Y-122777250D01*
X183880000Y-121936691D01*
X183783327Y-121703302D01*
X183604699Y-121524673D01*
X183570166Y-121510369D01*
X183630278Y-121450363D01*
X183879716Y-120849648D01*
X183880284Y-120199205D01*
X183880284Y-129139326D01*
X183880000Y-129139136D01*
X183880000Y-124189309D01*
X183880000Y-123348750D01*
X183721250Y-123190000D01*
X182372000Y-123190000D01*
X182372000Y-124539250D01*
X182530750Y-124698000D01*
X183118691Y-124698000D01*
X183371310Y-124698000D01*
X183604699Y-124601327D01*
X183783327Y-124422698D01*
X183880000Y-124189309D01*
X183880000Y-129139136D01*
X183861915Y-129127053D01*
X183007000Y-128957000D01*
X182245264Y-129108518D01*
X182245264Y-125555188D01*
X182013738Y-124994851D01*
X181717404Y-124698000D01*
X181959250Y-124698000D01*
X182118000Y-124539250D01*
X182118000Y-123190000D01*
X180768750Y-123190000D01*
X180610000Y-123348750D01*
X180610000Y-124189309D01*
X180669499Y-124332954D01*
X180419188Y-124332736D01*
X179858851Y-124564262D01*
X179429769Y-124992596D01*
X179197265Y-125552528D01*
X179196736Y-126158812D01*
X179428262Y-126719149D01*
X179856596Y-127148231D01*
X180416528Y-127380735D01*
X181022812Y-127381264D01*
X181583149Y-127149738D01*
X182012231Y-126721404D01*
X182244735Y-126161472D01*
X182245264Y-125555188D01*
X182245264Y-129108518D01*
X182152085Y-129127053D01*
X181427323Y-129611323D01*
X181330183Y-129756703D01*
X181251738Y-129566851D01*
X180823404Y-129137769D01*
X180263472Y-128905265D01*
X179657188Y-128904736D01*
X179096851Y-129136262D01*
X178906708Y-129326073D01*
X178846327Y-129180301D01*
X178667698Y-129001673D01*
X178434309Y-128905000D01*
X177704750Y-128905000D01*
X177546000Y-129063750D01*
X177546000Y-130302000D01*
X177566000Y-130302000D01*
X177566000Y-130556000D01*
X177546000Y-130556000D01*
X177546000Y-131794250D01*
X177704750Y-131953000D01*
X178434309Y-131953000D01*
X178667698Y-131856327D01*
X178846327Y-131677699D01*
X178906682Y-131531988D01*
X179094596Y-131720231D01*
X179654528Y-131952735D01*
X180260812Y-131953264D01*
X180821149Y-131721738D01*
X180869057Y-131673913D01*
X180943053Y-132045915D01*
X181255148Y-132513000D01*
X177292000Y-132513000D01*
X177292000Y-131794250D01*
X177292000Y-130556000D01*
X177272000Y-130556000D01*
X177272000Y-130302000D01*
X177292000Y-130302000D01*
X177292000Y-129063750D01*
X177176516Y-128948266D01*
X177176516Y-126095035D01*
X177150723Y-125489300D01*
X176968539Y-125049467D01*
X176713196Y-124964409D01*
X175820605Y-125857000D01*
X176713196Y-126749591D01*
X176968539Y-126664533D01*
X177176516Y-126095035D01*
X177176516Y-128948266D01*
X177133250Y-128905000D01*
X176533591Y-128905000D01*
X176533591Y-126929196D01*
X175641000Y-126036605D01*
X174748409Y-126929196D01*
X174833467Y-127184539D01*
X175402965Y-127392516D01*
X176008700Y-127366723D01*
X176448533Y-127184539D01*
X176533591Y-126929196D01*
X176533591Y-128905000D01*
X176403691Y-128905000D01*
X176170302Y-129001673D01*
X175991673Y-129180301D01*
X175895000Y-129413690D01*
X175895000Y-129544073D01*
X175489404Y-129137769D01*
X174929472Y-128905265D01*
X174323188Y-128904736D01*
X173762851Y-129136262D01*
X173572708Y-129326073D01*
X173512327Y-129180301D01*
X173333698Y-129001673D01*
X173100309Y-128905000D01*
X172370750Y-128905000D01*
X172212000Y-129063750D01*
X172212000Y-130302000D01*
X172232000Y-130302000D01*
X172232000Y-130556000D01*
X172212000Y-130556000D01*
X172212000Y-131794250D01*
X172370750Y-131953000D01*
X173100309Y-131953000D01*
X173333698Y-131856327D01*
X173512327Y-131677699D01*
X173572682Y-131531988D01*
X173760596Y-131720231D01*
X174320528Y-131952735D01*
X174926812Y-131953264D01*
X175487149Y-131721738D01*
X175895000Y-131314597D01*
X175895000Y-131444310D01*
X175991673Y-131677699D01*
X176170302Y-131856327D01*
X176403691Y-131953000D01*
X177133250Y-131953000D01*
X177292000Y-131794250D01*
X177292000Y-132513000D01*
X171958000Y-132513000D01*
X171958000Y-131794250D01*
X171958000Y-130556000D01*
X171958000Y-130302000D01*
X171958000Y-129063750D01*
X171799250Y-128905000D01*
X171069691Y-128905000D01*
X170836302Y-129001673D01*
X170657673Y-129180301D01*
X170561000Y-129413690D01*
X170561000Y-129666309D01*
X170561000Y-130143250D01*
X170719750Y-130302000D01*
X171958000Y-130302000D01*
X171958000Y-130556000D01*
X170719750Y-130556000D01*
X170561000Y-130714750D01*
X170561000Y-131191691D01*
X170561000Y-131444310D01*
X170657673Y-131677699D01*
X170836302Y-131856327D01*
X171069691Y-131953000D01*
X171799250Y-131953000D01*
X171958000Y-131794250D01*
X171958000Y-132513000D01*
X169910000Y-132513000D01*
X169910000Y-131555310D01*
X169910000Y-131302691D01*
X169910000Y-129302691D01*
X169813327Y-129069302D01*
X169634699Y-128890673D01*
X169401310Y-128794000D01*
X169148691Y-128794000D01*
X167148691Y-128794000D01*
X166915302Y-128890673D01*
X166736673Y-129069301D01*
X166722369Y-129103833D01*
X166662363Y-129043722D01*
X166061648Y-128794284D01*
X165746516Y-128794008D01*
X165746516Y-126857035D01*
X165720723Y-126251300D01*
X165538539Y-125811467D01*
X165283196Y-125726409D01*
X165103591Y-125906014D01*
X165103591Y-125546804D01*
X165018533Y-125291461D01*
X164449035Y-125083484D01*
X163843300Y-125109277D01*
X163403467Y-125291461D01*
X163318409Y-125546804D01*
X164211000Y-126439395D01*
X165103591Y-125546804D01*
X165103591Y-125906014D01*
X164390605Y-126619000D01*
X165283196Y-127511591D01*
X165538539Y-127426533D01*
X165746516Y-126857035D01*
X165746516Y-128794008D01*
X165411205Y-128793716D01*
X165103591Y-128920819D01*
X165103591Y-127691196D01*
X164211000Y-126798605D01*
X164031395Y-126978210D01*
X164031395Y-126619000D01*
X163138804Y-125726409D01*
X162883461Y-125811467D01*
X162675484Y-126380965D01*
X162701277Y-126986700D01*
X162883461Y-127426533D01*
X163138804Y-127511591D01*
X164031395Y-126619000D01*
X164031395Y-126978210D01*
X163318409Y-127691196D01*
X163403467Y-127946539D01*
X163972965Y-128154516D01*
X164578700Y-128128723D01*
X165018533Y-127946539D01*
X165103591Y-127691196D01*
X165103591Y-128920819D01*
X164810057Y-129042106D01*
X164464800Y-129386759D01*
X164122363Y-129043722D01*
X163521648Y-128794284D01*
X162871205Y-128793716D01*
X162270057Y-129042106D01*
X161809722Y-129501637D01*
X161560284Y-130102352D01*
X161559716Y-130752795D01*
X161808106Y-131353943D01*
X162267637Y-131814278D01*
X162868352Y-132063716D01*
X163518795Y-132064284D01*
X164119943Y-131815894D01*
X164465199Y-131471240D01*
X164807637Y-131814278D01*
X165408352Y-132063716D01*
X166058795Y-132064284D01*
X166659943Y-131815894D01*
X166722196Y-131753749D01*
X166736673Y-131788698D01*
X166915301Y-131967327D01*
X167148690Y-132064000D01*
X167401309Y-132064000D01*
X169401309Y-132064000D01*
X169634698Y-131967327D01*
X169813327Y-131788699D01*
X169910000Y-131555310D01*
X169910000Y-132513000D01*
X161020000Y-132513000D01*
X161020000Y-131555310D01*
X161020000Y-131302691D01*
X161020000Y-129302691D01*
X160923327Y-129069302D01*
X160909264Y-129055238D01*
X160909264Y-126063188D01*
X160677738Y-125502851D01*
X160249404Y-125073769D01*
X159689472Y-124841265D01*
X159083188Y-124840736D01*
X158522851Y-125072262D01*
X158093769Y-125500596D01*
X157861265Y-126060528D01*
X157860736Y-126666812D01*
X158092262Y-127227149D01*
X158520596Y-127656231D01*
X159080528Y-127888735D01*
X159686812Y-127889264D01*
X160247149Y-127657738D01*
X160676231Y-127229404D01*
X160908735Y-126669472D01*
X160909264Y-126063188D01*
X160909264Y-129055238D01*
X160744699Y-128890673D01*
X160511310Y-128794000D01*
X160258691Y-128794000D01*
X158258691Y-128794000D01*
X158025302Y-128890673D01*
X157846673Y-129069301D01*
X157832369Y-129103833D01*
X157772363Y-129043722D01*
X157171648Y-128794284D01*
X156521205Y-128793716D01*
X155920057Y-129042106D01*
X155829264Y-129132740D01*
X155829264Y-126063188D01*
X155597738Y-125502851D01*
X155355833Y-125260523D01*
X155355833Y-114427000D01*
X155239825Y-113843790D01*
X154909464Y-113349369D01*
X154621562Y-113157000D01*
X154909464Y-112964631D01*
X155239825Y-112470210D01*
X155355833Y-111887000D01*
X155239825Y-111303790D01*
X154920657Y-110826120D01*
X155045698Y-110774327D01*
X155224327Y-110595699D01*
X155321000Y-110362310D01*
X155321000Y-110109691D01*
X155321000Y-108331691D01*
X155224327Y-108098302D01*
X155045699Y-107919673D01*
X154812310Y-107823000D01*
X154559691Y-107823000D01*
X152273691Y-107823000D01*
X152040302Y-107919673D01*
X151861673Y-108098301D01*
X151765000Y-108331690D01*
X151765000Y-108584309D01*
X151765000Y-110362309D01*
X151861673Y-110595698D01*
X152040301Y-110774327D01*
X152165342Y-110826121D01*
X151846175Y-111303790D01*
X151730167Y-111887000D01*
X151846175Y-112470210D01*
X152176536Y-112964631D01*
X152464437Y-113157000D01*
X152176536Y-113349369D01*
X151846175Y-113843790D01*
X151730167Y-114427000D01*
X151738063Y-114466700D01*
X151510989Y-114693774D01*
X151511264Y-114379188D01*
X151384242Y-114071770D01*
X151384242Y-110340339D01*
X151172010Y-109826697D01*
X150779370Y-109433371D01*
X150266100Y-109220243D01*
X149710339Y-109219758D01*
X149196697Y-109431990D01*
X148844242Y-109783830D01*
X148844242Y-107800339D01*
X148632010Y-107286697D01*
X148239370Y-106893371D01*
X147726100Y-106680243D01*
X147170339Y-106679758D01*
X146656697Y-106891990D01*
X146263371Y-107284630D01*
X146050243Y-107797900D01*
X146049758Y-108353661D01*
X146261990Y-108867303D01*
X146654630Y-109260629D01*
X147167900Y-109473757D01*
X147723661Y-109474242D01*
X148237303Y-109262010D01*
X148630629Y-108869370D01*
X148843757Y-108356100D01*
X148844242Y-107800339D01*
X148844242Y-109783830D01*
X148803371Y-109824630D01*
X148590243Y-110337900D01*
X148589758Y-110893661D01*
X148801990Y-111407303D01*
X149194630Y-111800629D01*
X149707900Y-112013757D01*
X150263661Y-112014242D01*
X150777303Y-111802010D01*
X151170629Y-111409370D01*
X151383757Y-110896100D01*
X151384242Y-110340339D01*
X151384242Y-114071770D01*
X151279738Y-113818851D01*
X150851404Y-113389769D01*
X150291472Y-113157265D01*
X149685188Y-113156736D01*
X149124851Y-113388262D01*
X148695769Y-113816596D01*
X148559051Y-114145848D01*
X148311404Y-113897769D01*
X147751472Y-113665265D01*
X147145188Y-113664736D01*
X146584851Y-113896262D01*
X146304242Y-114176381D01*
X146304242Y-110340339D01*
X146092010Y-109826697D01*
X145699370Y-109433371D01*
X145186100Y-109220243D01*
X144630339Y-109219758D01*
X144116697Y-109431990D01*
X143723371Y-109824630D01*
X143510243Y-110337900D01*
X143509758Y-110893661D01*
X143721990Y-111407303D01*
X144114630Y-111800629D01*
X144627900Y-112013757D01*
X145183661Y-112014242D01*
X145697303Y-111802010D01*
X146090629Y-111409370D01*
X146303757Y-110896100D01*
X146304242Y-110340339D01*
X146304242Y-114176381D01*
X146260541Y-114220006D01*
X146199738Y-114072851D01*
X145771404Y-113643769D01*
X145211472Y-113411265D01*
X144605188Y-113410736D01*
X144044851Y-113642262D01*
X143615769Y-114070596D01*
X143383265Y-114630528D01*
X143383106Y-114811736D01*
X143231404Y-114659769D01*
X142671472Y-114427265D01*
X142065188Y-114426736D01*
X141504851Y-114658262D01*
X141075769Y-115086596D01*
X140843265Y-115646528D01*
X140842736Y-116252812D01*
X141074262Y-116813149D01*
X141502596Y-117242231D01*
X142062528Y-117474735D01*
X142633997Y-117475233D01*
X143262382Y-118103618D01*
X143550794Y-118296329D01*
X143891000Y-118364000D01*
X149987000Y-118364000D01*
X150327205Y-118296329D01*
X150327206Y-118296329D01*
X150615618Y-118103618D01*
X151912595Y-116806640D01*
X151929670Y-116840000D01*
X153416000Y-116840000D01*
X153416000Y-116820000D01*
X153670000Y-116820000D01*
X153670000Y-116840000D01*
X155156330Y-116840000D01*
X155277134Y-116603987D01*
X155253593Y-116501122D01*
X154964433Y-115979171D01*
X154615205Y-115701247D01*
X154909464Y-115504631D01*
X155239825Y-115010210D01*
X155355833Y-114427000D01*
X155355833Y-125260523D01*
X155277134Y-125181687D01*
X155277134Y-117330013D01*
X155156330Y-117094000D01*
X153670000Y-117094000D01*
X153670000Y-118491000D01*
X153924000Y-118491000D01*
X154497542Y-118326392D01*
X154964433Y-117954829D01*
X155253593Y-117432878D01*
X155277134Y-117330013D01*
X155277134Y-125181687D01*
X155169404Y-125073769D01*
X155067264Y-125031356D01*
X155067264Y-123015188D01*
X154835738Y-122454851D01*
X154407404Y-122025769D01*
X153999446Y-121856370D01*
X154405149Y-121688738D01*
X154834231Y-121260404D01*
X155066735Y-120700472D01*
X155067264Y-120094188D01*
X154835738Y-119533851D01*
X154407404Y-119104769D01*
X153847472Y-118872265D01*
X153416000Y-118871888D01*
X153416000Y-118491000D01*
X153416000Y-117094000D01*
X151929670Y-117094000D01*
X151808866Y-117330013D01*
X151832407Y-117432878D01*
X152121567Y-117954829D01*
X152588458Y-118326392D01*
X153162000Y-118491000D01*
X153416000Y-118491000D01*
X153416000Y-118871888D01*
X153241188Y-118871736D01*
X152680851Y-119103262D01*
X152251769Y-119531596D01*
X152019265Y-120091528D01*
X152018736Y-120697812D01*
X152250262Y-121258149D01*
X152678596Y-121687231D01*
X153086553Y-121856629D01*
X152680851Y-122024262D01*
X152251769Y-122452596D01*
X152019265Y-123012528D01*
X152018736Y-123618812D01*
X152250262Y-124179149D01*
X152678596Y-124608231D01*
X153238528Y-124840735D01*
X153844812Y-124841264D01*
X154405149Y-124609738D01*
X154834231Y-124181404D01*
X155066735Y-123621472D01*
X155067264Y-123015188D01*
X155067264Y-125031356D01*
X154609472Y-124841265D01*
X154003188Y-124840736D01*
X153442851Y-125072262D01*
X153013769Y-125500596D01*
X152781265Y-126060528D01*
X152780736Y-126666812D01*
X153012262Y-127227149D01*
X153440596Y-127656231D01*
X154000528Y-127888735D01*
X154606812Y-127889264D01*
X155167149Y-127657738D01*
X155596231Y-127229404D01*
X155828735Y-126669472D01*
X155829264Y-126063188D01*
X155829264Y-129132740D01*
X155574800Y-129386759D01*
X155232363Y-129043722D01*
X154631648Y-128794284D01*
X153981205Y-128793716D01*
X153380057Y-129042106D01*
X152919722Y-129501637D01*
X152670284Y-130102352D01*
X152669716Y-130752795D01*
X152918106Y-131353943D01*
X153377637Y-131814278D01*
X153978352Y-132063716D01*
X154628795Y-132064284D01*
X155229943Y-131815894D01*
X155575199Y-131471240D01*
X155917637Y-131814278D01*
X156518352Y-132063716D01*
X157168795Y-132064284D01*
X157769943Y-131815894D01*
X157832196Y-131753749D01*
X157846673Y-131788698D01*
X158025301Y-131967327D01*
X158258690Y-132064000D01*
X158511309Y-132064000D01*
X160511309Y-132064000D01*
X160744698Y-131967327D01*
X160923327Y-131788699D01*
X161020000Y-131555310D01*
X161020000Y-132513000D01*
X152527264Y-132513000D01*
X152527264Y-130127188D01*
X152295738Y-129566851D01*
X151867404Y-129137769D01*
X151511264Y-128989886D01*
X151511264Y-121999188D01*
X151279738Y-121438851D01*
X150851404Y-121009769D01*
X150291472Y-120777265D01*
X149685188Y-120776736D01*
X149124851Y-121008262D01*
X148695769Y-121436596D01*
X148559051Y-121765848D01*
X148311404Y-121517769D01*
X147751472Y-121285265D01*
X147145188Y-121284736D01*
X146584851Y-121516262D01*
X146260541Y-121840006D01*
X146199738Y-121692851D01*
X145771404Y-121263769D01*
X145211472Y-121031265D01*
X144605188Y-121030736D01*
X144044851Y-121262262D01*
X143833545Y-121473198D01*
X143890735Y-121335472D01*
X143891264Y-120729188D01*
X143659738Y-120168851D01*
X143231404Y-119739769D01*
X142671472Y-119507265D01*
X142065188Y-119506736D01*
X141504851Y-119738262D01*
X141075769Y-120166596D01*
X140843265Y-120726528D01*
X140842736Y-121332812D01*
X141074262Y-121893149D01*
X141502596Y-122322231D01*
X142062528Y-122554735D01*
X142668812Y-122555264D01*
X143229149Y-122323738D01*
X143440454Y-122112801D01*
X143383265Y-122250528D01*
X143382736Y-122856812D01*
X143614262Y-123417149D01*
X144042596Y-123846231D01*
X144602528Y-124078735D01*
X145208812Y-124079264D01*
X145769149Y-123847738D01*
X146093458Y-123523993D01*
X146154262Y-123671149D01*
X146582596Y-124100231D01*
X147142528Y-124332735D01*
X147748812Y-124333264D01*
X148309149Y-124101738D01*
X148738231Y-123673404D01*
X148874948Y-123344151D01*
X149122596Y-123592231D01*
X149250564Y-123645368D01*
X148870851Y-123802262D01*
X148441769Y-124230596D01*
X148209265Y-124790528D01*
X148208736Y-125396812D01*
X148440262Y-125957149D01*
X148630073Y-126147291D01*
X148484301Y-126207673D01*
X148305673Y-126386302D01*
X148209000Y-126619691D01*
X148209000Y-127349250D01*
X148367750Y-127508000D01*
X149606000Y-127508000D01*
X149606000Y-127488000D01*
X149860000Y-127488000D01*
X149860000Y-127508000D01*
X151098250Y-127508000D01*
X151257000Y-127349250D01*
X151257000Y-126619691D01*
X151160327Y-126386302D01*
X150981699Y-126207673D01*
X150835988Y-126147317D01*
X151024231Y-125959404D01*
X151256735Y-125399472D01*
X151257264Y-124793188D01*
X151025738Y-124232851D01*
X150597404Y-123803769D01*
X150469435Y-123750631D01*
X150849149Y-123593738D01*
X151278231Y-123165404D01*
X151510735Y-122605472D01*
X151511264Y-121999188D01*
X151511264Y-128989886D01*
X151307472Y-128905265D01*
X151138907Y-128905117D01*
X151160327Y-128883698D01*
X151257000Y-128650309D01*
X151257000Y-127920750D01*
X151098250Y-127762000D01*
X149860000Y-127762000D01*
X149860000Y-129000250D01*
X150018750Y-129159000D01*
X150118073Y-129159000D01*
X149711769Y-129564596D01*
X149606000Y-129819316D01*
X149606000Y-129000250D01*
X149606000Y-127762000D01*
X148367750Y-127762000D01*
X148209000Y-127920750D01*
X148209000Y-128650309D01*
X148305673Y-128883698D01*
X148484301Y-129062327D01*
X148717690Y-129159000D01*
X148970309Y-129159000D01*
X149447250Y-129159000D01*
X149606000Y-129000250D01*
X149606000Y-129819316D01*
X149479265Y-130124528D01*
X149478736Y-130730812D01*
X149710262Y-131291149D01*
X150138596Y-131720231D01*
X150698528Y-131952735D01*
X151304812Y-131953264D01*
X151865149Y-131721738D01*
X152294231Y-131293404D01*
X152526735Y-130733472D01*
X152527264Y-130127188D01*
X152527264Y-132513000D01*
X147447264Y-132513000D01*
X147447264Y-130127188D01*
X147215738Y-129566851D01*
X146787404Y-129137769D01*
X146227472Y-128905265D01*
X145621188Y-128904736D01*
X145060851Y-129136262D01*
X144631769Y-129564596D01*
X144399265Y-130124528D01*
X144398736Y-130730812D01*
X144630262Y-131291149D01*
X145058596Y-131720231D01*
X145618528Y-131952735D01*
X146224812Y-131953264D01*
X146785149Y-131721738D01*
X147214231Y-131293404D01*
X147446735Y-130733472D01*
X147447264Y-130127188D01*
X147447264Y-132513000D01*
X144256284Y-132513000D01*
X144256284Y-125025205D01*
X144007894Y-124424057D01*
X143548363Y-123963722D01*
X142947648Y-123714284D01*
X142297205Y-123713716D01*
X141696057Y-123962106D01*
X141235722Y-124421637D01*
X140986284Y-125022352D01*
X140985716Y-125672795D01*
X141234106Y-126273943D01*
X141296250Y-126336196D01*
X141261301Y-126350673D01*
X141082673Y-126529302D01*
X140986000Y-126762691D01*
X140986000Y-127603250D01*
X141144750Y-127762000D01*
X142494000Y-127762000D01*
X142494000Y-127742000D01*
X142748000Y-127742000D01*
X142748000Y-127762000D01*
X144097250Y-127762000D01*
X144256000Y-127603250D01*
X144256000Y-126762691D01*
X144159327Y-126529302D01*
X143980699Y-126350673D01*
X143946166Y-126336369D01*
X144006278Y-126276363D01*
X144255716Y-125675648D01*
X144256284Y-125025205D01*
X144256284Y-132513000D01*
X143610851Y-132513000D01*
X143922947Y-132045915D01*
X144093000Y-131191000D01*
X143922947Y-130336085D01*
X143438677Y-129611323D01*
X143307988Y-129524000D01*
X143494691Y-129524000D01*
X143747310Y-129524000D01*
X143980699Y-129427327D01*
X144159327Y-129248698D01*
X144256000Y-129015309D01*
X144256000Y-128174750D01*
X144097250Y-128016000D01*
X142748000Y-128016000D01*
X142748000Y-128036000D01*
X142494000Y-128036000D01*
X142494000Y-128016000D01*
X141144750Y-128016000D01*
X140986000Y-128174750D01*
X140986000Y-129015309D01*
X141030139Y-129121870D01*
X141004085Y-129127053D01*
X140537000Y-129439148D01*
X140537000Y-109066851D01*
X141004085Y-109378947D01*
X141859000Y-109549000D01*
X142713915Y-109378947D01*
X143438677Y-108894677D01*
X143922947Y-108169915D01*
X144093000Y-107315000D01*
X143922947Y-106460085D01*
X143610851Y-105993000D01*
X161735764Y-105993000D01*
X160534382Y-107194382D01*
X160341671Y-107482794D01*
X160274000Y-107823000D01*
X160274000Y-107950338D01*
X159796536Y-108269369D01*
X159466175Y-108763790D01*
X159350167Y-109347000D01*
X159466175Y-109930210D01*
X159796536Y-110424631D01*
X160084437Y-110617000D01*
X159796536Y-110809369D01*
X159636391Y-111049042D01*
X159552794Y-111065671D01*
X159264382Y-111258382D01*
X158248382Y-112274382D01*
X158055671Y-112562794D01*
X157988000Y-112903000D01*
X157988000Y-117729000D01*
X158055671Y-118069206D01*
X158248382Y-118357618D01*
X159137382Y-119246618D01*
X159425794Y-119439329D01*
X159425795Y-119439329D01*
X159766000Y-119507000D01*
X159896407Y-119507000D01*
X159871769Y-119531596D01*
X159639265Y-120091528D01*
X159638736Y-120697812D01*
X159870262Y-121258149D01*
X160298596Y-121687231D01*
X160706553Y-121856629D01*
X160300851Y-122024262D01*
X159871769Y-122452596D01*
X159639265Y-123012528D01*
X159638736Y-123618812D01*
X159870262Y-124179149D01*
X160298596Y-124608231D01*
X160858528Y-124840735D01*
X161464812Y-124841264D01*
X162025149Y-124609738D01*
X162454231Y-124181404D01*
X162686735Y-123621472D01*
X162687264Y-123015188D01*
X162663849Y-122958520D01*
X162879395Y-123001395D01*
X164911342Y-123001395D01*
X164697769Y-123214596D01*
X164465265Y-123774528D01*
X164464736Y-124380812D01*
X164696262Y-124941149D01*
X165124596Y-125370231D01*
X165684528Y-125602735D01*
X166290812Y-125603264D01*
X166851149Y-125371738D01*
X167280231Y-124943404D01*
X167512735Y-124383472D01*
X167512790Y-124320026D01*
X170440382Y-127247618D01*
X170442298Y-127248898D01*
X170538262Y-127481149D01*
X170966596Y-127910231D01*
X171526528Y-128142735D01*
X172132812Y-128143264D01*
X172693149Y-127911738D01*
X173122231Y-127483404D01*
X173354735Y-126923472D01*
X173355233Y-126352002D01*
X174115386Y-125591849D01*
X174105484Y-125618965D01*
X174131277Y-126224700D01*
X174313461Y-126664533D01*
X174568804Y-126749591D01*
X175461395Y-125857000D01*
X175447252Y-125842857D01*
X175626857Y-125663252D01*
X175641000Y-125677395D01*
X176533591Y-124784804D01*
X176448533Y-124529461D01*
X175879035Y-124321484D01*
X175505530Y-124337388D01*
X175895335Y-123948262D01*
X176300596Y-124354231D01*
X176860528Y-124586735D01*
X177466812Y-124587264D01*
X178027149Y-124355738D01*
X178456231Y-123927404D01*
X178688735Y-123367472D01*
X178689264Y-122761188D01*
X178457738Y-122200851D01*
X178029404Y-121771769D01*
X177469472Y-121539265D01*
X176863188Y-121538736D01*
X176302851Y-121770262D01*
X175894664Y-122177737D01*
X175489404Y-121771769D01*
X174929472Y-121539265D01*
X174323188Y-121538736D01*
X173762851Y-121770262D01*
X173333769Y-122198596D01*
X173101265Y-122758528D01*
X173100736Y-123364812D01*
X173313360Y-123879403D01*
X172438959Y-124753804D01*
X172592735Y-124383472D01*
X172593264Y-123777188D01*
X172361738Y-123216851D01*
X171933404Y-122787769D01*
X171373472Y-122555265D01*
X170767188Y-122554736D01*
X170206851Y-122786262D01*
X169777769Y-123214596D01*
X169545265Y-123774528D01*
X169545209Y-123837973D01*
X167191013Y-121483777D01*
X167034205Y-121379001D01*
X167280231Y-121133404D01*
X167512735Y-120573472D01*
X167513233Y-120002469D01*
X168408382Y-120897618D01*
X168696794Y-121090329D01*
X168696795Y-121090330D01*
X169037000Y-121158000D01*
X169803066Y-121158000D01*
X170204596Y-121560231D01*
X170764528Y-121792735D01*
X171370812Y-121793264D01*
X171931149Y-121561738D01*
X172360231Y-121133404D01*
X172592735Y-120573472D01*
X172593264Y-119967188D01*
X172361738Y-119406851D01*
X171933404Y-118977769D01*
X171373472Y-118745265D01*
X170767188Y-118744736D01*
X170206851Y-118976262D01*
X169802407Y-119380000D01*
X169405236Y-119380000D01*
X168014618Y-117989382D01*
X167726206Y-117796671D01*
X167386000Y-117729000D01*
X166052752Y-117729000D01*
X166242735Y-117271472D01*
X166243264Y-116665188D01*
X166011738Y-116104851D01*
X165604262Y-115696664D01*
X166010231Y-115291404D01*
X166242735Y-114731472D01*
X166243264Y-114125188D01*
X166011738Y-113564851D01*
X165604262Y-113156664D01*
X166010231Y-112751404D01*
X166242735Y-112191472D01*
X166243264Y-111585188D01*
X166011738Y-111024851D01*
X165604262Y-110616664D01*
X166010231Y-110211404D01*
X166242735Y-109651472D01*
X166243264Y-109045188D01*
X166011738Y-108484851D01*
X165583404Y-108055769D01*
X165023472Y-107823265D01*
X164417188Y-107822736D01*
X163856851Y-108054262D01*
X163427769Y-108482596D01*
X163195265Y-109042528D01*
X163194736Y-109648812D01*
X163426262Y-110209149D01*
X163833737Y-110617335D01*
X163427769Y-111022596D01*
X163195265Y-111582528D01*
X163194736Y-112188812D01*
X163426262Y-112749149D01*
X163833737Y-113157335D01*
X163427769Y-113562596D01*
X163195265Y-114122528D01*
X163194736Y-114728812D01*
X163426262Y-115289149D01*
X163833737Y-115697335D01*
X163427769Y-116102596D01*
X163195265Y-116662528D01*
X163194736Y-117268812D01*
X163384881Y-117729000D01*
X162740361Y-117729000D01*
X162859825Y-117550210D01*
X162975833Y-116967000D01*
X162859825Y-116383790D01*
X162529464Y-115889369D01*
X162241562Y-115697000D01*
X162529464Y-115504631D01*
X162859825Y-115010210D01*
X162975833Y-114427000D01*
X162859825Y-113843790D01*
X162529464Y-113349369D01*
X162241562Y-113157000D01*
X162529464Y-112964631D01*
X162859825Y-112470210D01*
X162975833Y-111887000D01*
X162859825Y-111303790D01*
X162529464Y-110809369D01*
X162241562Y-110617000D01*
X162529464Y-110424631D01*
X162859825Y-109930210D01*
X162975833Y-109347000D01*
X162859825Y-108763790D01*
X162529464Y-108269369D01*
X162196407Y-108046828D01*
X163055236Y-107188000D01*
X176288764Y-107188000D01*
X176415764Y-107315000D01*
X176180750Y-107315000D01*
X176022000Y-107473750D01*
X176022000Y-108712000D01*
X177260250Y-108712000D01*
X177419000Y-108553250D01*
X177419000Y-108318236D01*
X178936378Y-109835614D01*
X178573722Y-110197637D01*
X178324284Y-110798352D01*
X178323716Y-111448795D01*
X178572106Y-112049943D01*
X179031637Y-112510278D01*
X179632352Y-112759716D01*
X180282795Y-112760284D01*
X180883943Y-112511894D01*
X180946196Y-112449749D01*
X180960673Y-112484699D01*
X181139302Y-112663327D01*
X181372691Y-112760000D01*
X182213250Y-112760000D01*
X182372000Y-112601250D01*
X182372000Y-111252000D01*
X182352000Y-111252000D01*
X182352000Y-110998000D01*
X182372000Y-110998000D01*
X182372000Y-109648750D01*
X182213250Y-109490000D01*
X181372691Y-109490000D01*
X181139302Y-109586673D01*
X180960673Y-109765301D01*
X180946369Y-109799833D01*
X180886363Y-109739722D01*
X180848000Y-109723792D01*
X180848000Y-109601000D01*
X180780329Y-109260795D01*
X180780329Y-109260794D01*
X180587618Y-108972382D01*
X177608235Y-105993000D01*
X181255148Y-105993000D01*
X180943053Y-106460085D01*
X180773000Y-107315000D01*
X180943053Y-108169915D01*
X181427323Y-108894677D01*
X182152085Y-109378947D01*
X182772412Y-109502337D01*
X182626000Y-109648750D01*
X182626000Y-110998000D01*
X183975250Y-110998000D01*
X184134000Y-110839250D01*
X184134000Y-110251309D01*
X184134000Y-109998690D01*
X184037327Y-109765301D01*
X183858698Y-109586673D01*
X183625309Y-109490000D01*
X183303613Y-109490000D01*
X183861915Y-109378947D01*
X184329000Y-109066851D01*
X184329000Y-129439148D01*
X184329000Y-129439148D01*
G37*
X184329000Y-129439148D02*
X184134000Y-129308853D01*
X184134000Y-112251310D01*
X184134000Y-111998691D01*
X184134000Y-111410750D01*
X183975250Y-111252000D01*
X182626000Y-111252000D01*
X182626000Y-112601250D01*
X182784750Y-112760000D01*
X183625309Y-112760000D01*
X183858698Y-112663327D01*
X184037327Y-112484699D01*
X184134000Y-112251310D01*
X184134000Y-129308853D01*
X184023000Y-129234686D01*
X184023000Y-117220310D01*
X184023000Y-116967691D01*
X184023000Y-115189691D01*
X183926327Y-114956302D01*
X183747699Y-114777673D01*
X183514310Y-114681000D01*
X183261691Y-114681000D01*
X181483691Y-114681000D01*
X181250302Y-114777673D01*
X181071673Y-114956301D01*
X181011317Y-115102011D01*
X180823404Y-114913769D01*
X180263472Y-114681265D01*
X179657188Y-114680736D01*
X179096851Y-114912262D01*
X178689108Y-115319293D01*
X178689264Y-115141188D01*
X178457738Y-114580851D01*
X178029404Y-114151769D01*
X177469472Y-113919265D01*
X177419264Y-113919221D01*
X177419264Y-111077188D01*
X177187738Y-110516851D01*
X176997926Y-110326708D01*
X177143699Y-110266327D01*
X177322327Y-110087698D01*
X177419000Y-109854309D01*
X177419000Y-109124750D01*
X177260250Y-108966000D01*
X176022000Y-108966000D01*
X176022000Y-108986000D01*
X175768000Y-108986000D01*
X175768000Y-108966000D01*
X175768000Y-108712000D01*
X175768000Y-107473750D01*
X175609250Y-107315000D01*
X175132309Y-107315000D01*
X174879690Y-107315000D01*
X174646301Y-107411673D01*
X174467673Y-107590302D01*
X174371000Y-107823691D01*
X174371000Y-108553250D01*
X174529750Y-108712000D01*
X175768000Y-108712000D01*
X175768000Y-108966000D01*
X174529750Y-108966000D01*
X174371000Y-109124750D01*
X174371000Y-109854309D01*
X174467673Y-110087698D01*
X174646301Y-110266327D01*
X174792011Y-110326682D01*
X174603769Y-110514596D01*
X174371265Y-111074528D01*
X174370736Y-111680812D01*
X174602262Y-112241149D01*
X175030596Y-112670231D01*
X175590528Y-112902735D01*
X176196812Y-112903264D01*
X176757149Y-112671738D01*
X177186231Y-112243404D01*
X177418735Y-111683472D01*
X177419264Y-111077188D01*
X177419264Y-113919221D01*
X176863188Y-113918736D01*
X176302851Y-114150262D01*
X175894664Y-114557737D01*
X175489404Y-114151769D01*
X174929472Y-113919265D01*
X174323188Y-113918736D01*
X173857470Y-114111166D01*
X173631738Y-113564851D01*
X173224262Y-113156664D01*
X173630231Y-112751404D01*
X173862735Y-112191472D01*
X173863264Y-111585188D01*
X173631738Y-111024851D01*
X173203404Y-110595769D01*
X172643472Y-110363265D01*
X172037188Y-110362736D01*
X171476851Y-110594262D01*
X171323264Y-110747581D01*
X171323264Y-109045188D01*
X171091738Y-108484851D01*
X170663404Y-108055769D01*
X170103472Y-107823265D01*
X169497188Y-107822736D01*
X168936851Y-108054262D01*
X168507769Y-108482596D01*
X168275265Y-109042528D01*
X168274736Y-109648812D01*
X168506262Y-110209149D01*
X168934596Y-110638231D01*
X169494528Y-110870735D01*
X170100812Y-110871264D01*
X170661149Y-110639738D01*
X171090231Y-110211404D01*
X171322735Y-109651472D01*
X171323264Y-109045188D01*
X171323264Y-110747581D01*
X171047769Y-111022596D01*
X170815265Y-111582528D01*
X170814736Y-112188812D01*
X171046262Y-112749149D01*
X171453737Y-113157335D01*
X171047769Y-113562596D01*
X170815265Y-114122528D01*
X170814736Y-114728812D01*
X171046262Y-115289149D01*
X171453737Y-115697335D01*
X171047769Y-116102596D01*
X170815265Y-116662528D01*
X170814736Y-117268812D01*
X171046262Y-117829149D01*
X171474596Y-118258231D01*
X172034528Y-118490735D01*
X172640812Y-118491264D01*
X173201149Y-118259738D01*
X173630231Y-117831404D01*
X173862735Y-117271472D01*
X173863166Y-116776822D01*
X174320528Y-116966735D01*
X174926812Y-116967264D01*
X175487149Y-116735738D01*
X175895335Y-116328262D01*
X176300596Y-116734231D01*
X176860528Y-116966735D01*
X177466812Y-116967264D01*
X178027149Y-116735738D01*
X178434891Y-116328706D01*
X178434736Y-116506812D01*
X178666262Y-117067149D01*
X179094596Y-117496231D01*
X179654528Y-117728735D01*
X180260812Y-117729264D01*
X180821149Y-117497738D01*
X181011292Y-117307926D01*
X181071673Y-117453698D01*
X181250301Y-117632327D01*
X181483690Y-117729000D01*
X181736309Y-117729000D01*
X183514309Y-117729000D01*
X183747698Y-117632327D01*
X183926327Y-117453699D01*
X184023000Y-117220310D01*
X184023000Y-129234686D01*
X183880284Y-129139326D01*
X183880284Y-120199205D01*
X183631894Y-119598057D01*
X183172363Y-119137722D01*
X182571648Y-118888284D01*
X181921205Y-118887716D01*
X181320057Y-119136106D01*
X180859722Y-119595637D01*
X180610284Y-120196352D01*
X180609716Y-120846795D01*
X180858106Y-121447943D01*
X180920250Y-121510196D01*
X180885301Y-121524673D01*
X180706673Y-121703302D01*
X180610000Y-121936691D01*
X180610000Y-122777250D01*
X180768750Y-122936000D01*
X182118000Y-122936000D01*
X182118000Y-122916000D01*
X182372000Y-122916000D01*
X182372000Y-122936000D01*
X183721250Y-122936000D01*
X183880000Y-122777250D01*
X183880000Y-121936691D01*
X183783327Y-121703302D01*
X183604699Y-121524673D01*
X183570166Y-121510369D01*
X183630278Y-121450363D01*
X183879716Y-120849648D01*
X183880284Y-120199205D01*
X183880284Y-129139326D01*
X183880000Y-129139136D01*
X183880000Y-124189309D01*
X183880000Y-123348750D01*
X183721250Y-123190000D01*
X182372000Y-123190000D01*
X182372000Y-124539250D01*
X182530750Y-124698000D01*
X183118691Y-124698000D01*
X183371310Y-124698000D01*
X183604699Y-124601327D01*
X183783327Y-124422698D01*
X183880000Y-124189309D01*
X183880000Y-129139136D01*
X183861915Y-129127053D01*
X183007000Y-128957000D01*
X182245264Y-129108518D01*
X182245264Y-125555188D01*
X182013738Y-124994851D01*
X181717404Y-124698000D01*
X181959250Y-124698000D01*
X182118000Y-124539250D01*
X182118000Y-123190000D01*
X180768750Y-123190000D01*
X180610000Y-123348750D01*
X180610000Y-124189309D01*
X180669499Y-124332954D01*
X180419188Y-124332736D01*
X179858851Y-124564262D01*
X179429769Y-124992596D01*
X179197265Y-125552528D01*
X179196736Y-126158812D01*
X179428262Y-126719149D01*
X179856596Y-127148231D01*
X180416528Y-127380735D01*
X181022812Y-127381264D01*
X181583149Y-127149738D01*
X182012231Y-126721404D01*
X182244735Y-126161472D01*
X182245264Y-125555188D01*
X182245264Y-129108518D01*
X182152085Y-129127053D01*
X181427323Y-129611323D01*
X181330183Y-129756703D01*
X181251738Y-129566851D01*
X180823404Y-129137769D01*
X180263472Y-128905265D01*
X179657188Y-128904736D01*
X179096851Y-129136262D01*
X178906708Y-129326073D01*
X178846327Y-129180301D01*
X178667698Y-129001673D01*
X178434309Y-128905000D01*
X177704750Y-128905000D01*
X177546000Y-129063750D01*
X177546000Y-130302000D01*
X177566000Y-130302000D01*
X177566000Y-130556000D01*
X177546000Y-130556000D01*
X177546000Y-131794250D01*
X177704750Y-131953000D01*
X178434309Y-131953000D01*
X178667698Y-131856327D01*
X178846327Y-131677699D01*
X178906682Y-131531988D01*
X179094596Y-131720231D01*
X179654528Y-131952735D01*
X180260812Y-131953264D01*
X180821149Y-131721738D01*
X180869057Y-131673913D01*
X180943053Y-132045915D01*
X181255148Y-132513000D01*
X177292000Y-132513000D01*
X177292000Y-131794250D01*
X177292000Y-130556000D01*
X177272000Y-130556000D01*
X177272000Y-130302000D01*
X177292000Y-130302000D01*
X177292000Y-129063750D01*
X177176516Y-128948266D01*
X177176516Y-126095035D01*
X177150723Y-125489300D01*
X176968539Y-125049467D01*
X176713196Y-124964409D01*
X175820605Y-125857000D01*
X176713196Y-126749591D01*
X176968539Y-126664533D01*
X177176516Y-126095035D01*
X177176516Y-128948266D01*
X177133250Y-128905000D01*
X176533591Y-128905000D01*
X176533591Y-126929196D01*
X175641000Y-126036605D01*
X174748409Y-126929196D01*
X174833467Y-127184539D01*
X175402965Y-127392516D01*
X176008700Y-127366723D01*
X176448533Y-127184539D01*
X176533591Y-126929196D01*
X176533591Y-128905000D01*
X176403691Y-128905000D01*
X176170302Y-129001673D01*
X175991673Y-129180301D01*
X175895000Y-129413690D01*
X175895000Y-129544073D01*
X175489404Y-129137769D01*
X174929472Y-128905265D01*
X174323188Y-128904736D01*
X173762851Y-129136262D01*
X173572708Y-129326073D01*
X173512327Y-129180301D01*
X173333698Y-129001673D01*
X173100309Y-128905000D01*
X172370750Y-128905000D01*
X172212000Y-129063750D01*
X172212000Y-130302000D01*
X172232000Y-130302000D01*
X172232000Y-130556000D01*
X172212000Y-130556000D01*
X172212000Y-131794250D01*
X172370750Y-131953000D01*
X173100309Y-131953000D01*
X173333698Y-131856327D01*
X173512327Y-131677699D01*
X173572682Y-131531988D01*
X173760596Y-131720231D01*
X174320528Y-131952735D01*
X174926812Y-131953264D01*
X175487149Y-131721738D01*
X175895000Y-131314597D01*
X175895000Y-131444310D01*
X175991673Y-131677699D01*
X176170302Y-131856327D01*
X176403691Y-131953000D01*
X177133250Y-131953000D01*
X177292000Y-131794250D01*
X177292000Y-132513000D01*
X171958000Y-132513000D01*
X171958000Y-131794250D01*
X171958000Y-130556000D01*
X171958000Y-130302000D01*
X171958000Y-129063750D01*
X171799250Y-128905000D01*
X171069691Y-128905000D01*
X170836302Y-129001673D01*
X170657673Y-129180301D01*
X170561000Y-129413690D01*
X170561000Y-129666309D01*
X170561000Y-130143250D01*
X170719750Y-130302000D01*
X171958000Y-130302000D01*
X171958000Y-130556000D01*
X170719750Y-130556000D01*
X170561000Y-130714750D01*
X170561000Y-131191691D01*
X170561000Y-131444310D01*
X170657673Y-131677699D01*
X170836302Y-131856327D01*
X171069691Y-131953000D01*
X171799250Y-131953000D01*
X171958000Y-131794250D01*
X171958000Y-132513000D01*
X169910000Y-132513000D01*
X169910000Y-131555310D01*
X169910000Y-131302691D01*
X169910000Y-129302691D01*
X169813327Y-129069302D01*
X169634699Y-128890673D01*
X169401310Y-128794000D01*
X169148691Y-128794000D01*
X167148691Y-128794000D01*
X166915302Y-128890673D01*
X166736673Y-129069301D01*
X166722369Y-129103833D01*
X166662363Y-129043722D01*
X166061648Y-128794284D01*
X165746516Y-128794008D01*
X165746516Y-126857035D01*
X165720723Y-126251300D01*
X165538539Y-125811467D01*
X165283196Y-125726409D01*
X165103591Y-125906014D01*
X165103591Y-125546804D01*
X165018533Y-125291461D01*
X164449035Y-125083484D01*
X163843300Y-125109277D01*
X163403467Y-125291461D01*
X163318409Y-125546804D01*
X164211000Y-126439395D01*
X165103591Y-125546804D01*
X165103591Y-125906014D01*
X164390605Y-126619000D01*
X165283196Y-127511591D01*
X165538539Y-127426533D01*
X165746516Y-126857035D01*
X165746516Y-128794008D01*
X165411205Y-128793716D01*
X165103591Y-128920819D01*
X165103591Y-127691196D01*
X164211000Y-126798605D01*
X164031395Y-126978210D01*
X164031395Y-126619000D01*
X163138804Y-125726409D01*
X162883461Y-125811467D01*
X162675484Y-126380965D01*
X162701277Y-126986700D01*
X162883461Y-127426533D01*
X163138804Y-127511591D01*
X164031395Y-126619000D01*
X164031395Y-126978210D01*
X163318409Y-127691196D01*
X163403467Y-127946539D01*
X163972965Y-128154516D01*
X164578700Y-128128723D01*
X165018533Y-127946539D01*
X165103591Y-127691196D01*
X165103591Y-128920819D01*
X164810057Y-129042106D01*
X164464800Y-129386759D01*
X164122363Y-129043722D01*
X163521648Y-128794284D01*
X162871205Y-128793716D01*
X162270057Y-129042106D01*
X161809722Y-129501637D01*
X161560284Y-130102352D01*
X161559716Y-130752795D01*
X161808106Y-131353943D01*
X162267637Y-131814278D01*
X162868352Y-132063716D01*
X163518795Y-132064284D01*
X164119943Y-131815894D01*
X164465199Y-131471240D01*
X164807637Y-131814278D01*
X165408352Y-132063716D01*
X166058795Y-132064284D01*
X166659943Y-131815894D01*
X166722196Y-131753749D01*
X166736673Y-131788698D01*
X166915301Y-131967327D01*
X167148690Y-132064000D01*
X167401309Y-132064000D01*
X169401309Y-132064000D01*
X169634698Y-131967327D01*
X169813327Y-131788699D01*
X169910000Y-131555310D01*
X169910000Y-132513000D01*
X161020000Y-132513000D01*
X161020000Y-131555310D01*
X161020000Y-131302691D01*
X161020000Y-129302691D01*
X160923327Y-129069302D01*
X160909264Y-129055238D01*
X160909264Y-126063188D01*
X160677738Y-125502851D01*
X160249404Y-125073769D01*
X159689472Y-124841265D01*
X159083188Y-124840736D01*
X158522851Y-125072262D01*
X158093769Y-125500596D01*
X157861265Y-126060528D01*
X157860736Y-126666812D01*
X158092262Y-127227149D01*
X158520596Y-127656231D01*
X159080528Y-127888735D01*
X159686812Y-127889264D01*
X160247149Y-127657738D01*
X160676231Y-127229404D01*
X160908735Y-126669472D01*
X160909264Y-126063188D01*
X160909264Y-129055238D01*
X160744699Y-128890673D01*
X160511310Y-128794000D01*
X160258691Y-128794000D01*
X158258691Y-128794000D01*
X158025302Y-128890673D01*
X157846673Y-129069301D01*
X157832369Y-129103833D01*
X157772363Y-129043722D01*
X157171648Y-128794284D01*
X156521205Y-128793716D01*
X155920057Y-129042106D01*
X155829264Y-129132740D01*
X155829264Y-126063188D01*
X155597738Y-125502851D01*
X155355833Y-125260523D01*
X155355833Y-114427000D01*
X155239825Y-113843790D01*
X154909464Y-113349369D01*
X154621562Y-113157000D01*
X154909464Y-112964631D01*
X155239825Y-112470210D01*
X155355833Y-111887000D01*
X155239825Y-111303790D01*
X154920657Y-110826120D01*
X155045698Y-110774327D01*
X155224327Y-110595699D01*
X155321000Y-110362310D01*
X155321000Y-110109691D01*
X155321000Y-108331691D01*
X155224327Y-108098302D01*
X155045699Y-107919673D01*
X154812310Y-107823000D01*
X154559691Y-107823000D01*
X152273691Y-107823000D01*
X152040302Y-107919673D01*
X151861673Y-108098301D01*
X151765000Y-108331690D01*
X151765000Y-108584309D01*
X151765000Y-110362309D01*
X151861673Y-110595698D01*
X152040301Y-110774327D01*
X152165342Y-110826121D01*
X151846175Y-111303790D01*
X151730167Y-111887000D01*
X151846175Y-112470210D01*
X152176536Y-112964631D01*
X152464437Y-113157000D01*
X152176536Y-113349369D01*
X151846175Y-113843790D01*
X151730167Y-114427000D01*
X151738063Y-114466700D01*
X151510989Y-114693774D01*
X151511264Y-114379188D01*
X151384242Y-114071770D01*
X151384242Y-110340339D01*
X151172010Y-109826697D01*
X150779370Y-109433371D01*
X150266100Y-109220243D01*
X149710339Y-109219758D01*
X149196697Y-109431990D01*
X148844242Y-109783830D01*
X148844242Y-107800339D01*
X148632010Y-107286697D01*
X148239370Y-106893371D01*
X147726100Y-106680243D01*
X147170339Y-106679758D01*
X146656697Y-106891990D01*
X146263371Y-107284630D01*
X146050243Y-107797900D01*
X146049758Y-108353661D01*
X146261990Y-108867303D01*
X146654630Y-109260629D01*
X147167900Y-109473757D01*
X147723661Y-109474242D01*
X148237303Y-109262010D01*
X148630629Y-108869370D01*
X148843757Y-108356100D01*
X148844242Y-107800339D01*
X148844242Y-109783830D01*
X148803371Y-109824630D01*
X148590243Y-110337900D01*
X148589758Y-110893661D01*
X148801990Y-111407303D01*
X149194630Y-111800629D01*
X149707900Y-112013757D01*
X150263661Y-112014242D01*
X150777303Y-111802010D01*
X151170629Y-111409370D01*
X151383757Y-110896100D01*
X151384242Y-110340339D01*
X151384242Y-114071770D01*
X151279738Y-113818851D01*
X150851404Y-113389769D01*
X150291472Y-113157265D01*
X149685188Y-113156736D01*
X149124851Y-113388262D01*
X148695769Y-113816596D01*
X148559051Y-114145848D01*
X148311404Y-113897769D01*
X147751472Y-113665265D01*
X147145188Y-113664736D01*
X146584851Y-113896262D01*
X146304242Y-114176381D01*
X146304242Y-110340339D01*
X146092010Y-109826697D01*
X145699370Y-109433371D01*
X145186100Y-109220243D01*
X144630339Y-109219758D01*
X144116697Y-109431990D01*
X143723371Y-109824630D01*
X143510243Y-110337900D01*
X143509758Y-110893661D01*
X143721990Y-111407303D01*
X144114630Y-111800629D01*
X144627900Y-112013757D01*
X145183661Y-112014242D01*
X145697303Y-111802010D01*
X146090629Y-111409370D01*
X146303757Y-110896100D01*
X146304242Y-110340339D01*
X146304242Y-114176381D01*
X146260541Y-114220006D01*
X146199738Y-114072851D01*
X145771404Y-113643769D01*
X145211472Y-113411265D01*
X144605188Y-113410736D01*
X144044851Y-113642262D01*
X143615769Y-114070596D01*
X143383265Y-114630528D01*
X143383106Y-114811736D01*
X143231404Y-114659769D01*
X142671472Y-114427265D01*
X142065188Y-114426736D01*
X141504851Y-114658262D01*
X141075769Y-115086596D01*
X140843265Y-115646528D01*
X140842736Y-116252812D01*
X141074262Y-116813149D01*
X141502596Y-117242231D01*
X142062528Y-117474735D01*
X142633997Y-117475233D01*
X143262382Y-118103618D01*
X143550794Y-118296329D01*
X143891000Y-118364000D01*
X149987000Y-118364000D01*
X150327205Y-118296329D01*
X150327206Y-118296329D01*
X150615618Y-118103618D01*
X151912595Y-116806640D01*
X151929670Y-116840000D01*
X153416000Y-116840000D01*
X153416000Y-116820000D01*
X153670000Y-116820000D01*
X153670000Y-116840000D01*
X155156330Y-116840000D01*
X155277134Y-116603987D01*
X155253593Y-116501122D01*
X154964433Y-115979171D01*
X154615205Y-115701247D01*
X154909464Y-115504631D01*
X155239825Y-115010210D01*
X155355833Y-114427000D01*
X155355833Y-125260523D01*
X155277134Y-125181687D01*
X155277134Y-117330013D01*
X155156330Y-117094000D01*
X153670000Y-117094000D01*
X153670000Y-118491000D01*
X153924000Y-118491000D01*
X154497542Y-118326392D01*
X154964433Y-117954829D01*
X155253593Y-117432878D01*
X155277134Y-117330013D01*
X155277134Y-125181687D01*
X155169404Y-125073769D01*
X155067264Y-125031356D01*
X155067264Y-123015188D01*
X154835738Y-122454851D01*
X154407404Y-122025769D01*
X153999446Y-121856370D01*
X154405149Y-121688738D01*
X154834231Y-121260404D01*
X155066735Y-120700472D01*
X155067264Y-120094188D01*
X154835738Y-119533851D01*
X154407404Y-119104769D01*
X153847472Y-118872265D01*
X153416000Y-118871888D01*
X153416000Y-118491000D01*
X153416000Y-117094000D01*
X151929670Y-117094000D01*
X151808866Y-117330013D01*
X151832407Y-117432878D01*
X152121567Y-117954829D01*
X152588458Y-118326392D01*
X153162000Y-118491000D01*
X153416000Y-118491000D01*
X153416000Y-118871888D01*
X153241188Y-118871736D01*
X152680851Y-119103262D01*
X152251769Y-119531596D01*
X152019265Y-120091528D01*
X152018736Y-120697812D01*
X152250262Y-121258149D01*
X152678596Y-121687231D01*
X153086553Y-121856629D01*
X152680851Y-122024262D01*
X152251769Y-122452596D01*
X152019265Y-123012528D01*
X152018736Y-123618812D01*
X152250262Y-124179149D01*
X152678596Y-124608231D01*
X153238528Y-124840735D01*
X153844812Y-124841264D01*
X154405149Y-124609738D01*
X154834231Y-124181404D01*
X155066735Y-123621472D01*
X155067264Y-123015188D01*
X155067264Y-125031356D01*
X154609472Y-124841265D01*
X154003188Y-124840736D01*
X153442851Y-125072262D01*
X153013769Y-125500596D01*
X152781265Y-126060528D01*
X152780736Y-126666812D01*
X153012262Y-127227149D01*
X153440596Y-127656231D01*
X154000528Y-127888735D01*
X154606812Y-127889264D01*
X155167149Y-127657738D01*
X155596231Y-127229404D01*
X155828735Y-126669472D01*
X155829264Y-126063188D01*
X155829264Y-129132740D01*
X155574800Y-129386759D01*
X155232363Y-129043722D01*
X154631648Y-128794284D01*
X153981205Y-128793716D01*
X153380057Y-129042106D01*
X152919722Y-129501637D01*
X152670284Y-130102352D01*
X152669716Y-130752795D01*
X152918106Y-131353943D01*
X153377637Y-131814278D01*
X153978352Y-132063716D01*
X154628795Y-132064284D01*
X155229943Y-131815894D01*
X155575199Y-131471240D01*
X155917637Y-131814278D01*
X156518352Y-132063716D01*
X157168795Y-132064284D01*
X157769943Y-131815894D01*
X157832196Y-131753749D01*
X157846673Y-131788698D01*
X158025301Y-131967327D01*
X158258690Y-132064000D01*
X158511309Y-132064000D01*
X160511309Y-132064000D01*
X160744698Y-131967327D01*
X160923327Y-131788699D01*
X161020000Y-131555310D01*
X161020000Y-132513000D01*
X152527264Y-132513000D01*
X152527264Y-130127188D01*
X152295738Y-129566851D01*
X151867404Y-129137769D01*
X151511264Y-128989886D01*
X151511264Y-121999188D01*
X151279738Y-121438851D01*
X150851404Y-121009769D01*
X150291472Y-120777265D01*
X149685188Y-120776736D01*
X149124851Y-121008262D01*
X148695769Y-121436596D01*
X148559051Y-121765848D01*
X148311404Y-121517769D01*
X147751472Y-121285265D01*
X147145188Y-121284736D01*
X146584851Y-121516262D01*
X146260541Y-121840006D01*
X146199738Y-121692851D01*
X145771404Y-121263769D01*
X145211472Y-121031265D01*
X144605188Y-121030736D01*
X144044851Y-121262262D01*
X143833545Y-121473198D01*
X143890735Y-121335472D01*
X143891264Y-120729188D01*
X143659738Y-120168851D01*
X143231404Y-119739769D01*
X142671472Y-119507265D01*
X142065188Y-119506736D01*
X141504851Y-119738262D01*
X141075769Y-120166596D01*
X140843265Y-120726528D01*
X140842736Y-121332812D01*
X141074262Y-121893149D01*
X141502596Y-122322231D01*
X142062528Y-122554735D01*
X142668812Y-122555264D01*
X143229149Y-122323738D01*
X143440454Y-122112801D01*
X143383265Y-122250528D01*
X143382736Y-122856812D01*
X143614262Y-123417149D01*
X144042596Y-123846231D01*
X144602528Y-124078735D01*
X145208812Y-124079264D01*
X145769149Y-123847738D01*
X146093458Y-123523993D01*
X146154262Y-123671149D01*
X146582596Y-124100231D01*
X147142528Y-124332735D01*
X147748812Y-124333264D01*
X148309149Y-124101738D01*
X148738231Y-123673404D01*
X148874948Y-123344151D01*
X149122596Y-123592231D01*
X149250564Y-123645368D01*
X148870851Y-123802262D01*
X148441769Y-124230596D01*
X148209265Y-124790528D01*
X148208736Y-125396812D01*
X148440262Y-125957149D01*
X148630073Y-126147291D01*
X148484301Y-126207673D01*
X148305673Y-126386302D01*
X148209000Y-126619691D01*
X148209000Y-127349250D01*
X148367750Y-127508000D01*
X149606000Y-127508000D01*
X149606000Y-127488000D01*
X149860000Y-127488000D01*
X149860000Y-127508000D01*
X151098250Y-127508000D01*
X151257000Y-127349250D01*
X151257000Y-126619691D01*
X151160327Y-126386302D01*
X150981699Y-126207673D01*
X150835988Y-126147317D01*
X151024231Y-125959404D01*
X151256735Y-125399472D01*
X151257264Y-124793188D01*
X151025738Y-124232851D01*
X150597404Y-123803769D01*
X150469435Y-123750631D01*
X150849149Y-123593738D01*
X151278231Y-123165404D01*
X151510735Y-122605472D01*
X151511264Y-121999188D01*
X151511264Y-128989886D01*
X151307472Y-128905265D01*
X151138907Y-128905117D01*
X151160327Y-128883698D01*
X151257000Y-128650309D01*
X151257000Y-127920750D01*
X151098250Y-127762000D01*
X149860000Y-127762000D01*
X149860000Y-129000250D01*
X150018750Y-129159000D01*
X150118073Y-129159000D01*
X149711769Y-129564596D01*
X149606000Y-129819316D01*
X149606000Y-129000250D01*
X149606000Y-127762000D01*
X148367750Y-127762000D01*
X148209000Y-127920750D01*
X148209000Y-128650309D01*
X148305673Y-128883698D01*
X148484301Y-129062327D01*
X148717690Y-129159000D01*
X148970309Y-129159000D01*
X149447250Y-129159000D01*
X149606000Y-129000250D01*
X149606000Y-129819316D01*
X149479265Y-130124528D01*
X149478736Y-130730812D01*
X149710262Y-131291149D01*
X150138596Y-131720231D01*
X150698528Y-131952735D01*
X151304812Y-131953264D01*
X151865149Y-131721738D01*
X152294231Y-131293404D01*
X152526735Y-130733472D01*
X152527264Y-130127188D01*
X152527264Y-132513000D01*
X147447264Y-132513000D01*
X147447264Y-130127188D01*
X147215738Y-129566851D01*
X146787404Y-129137769D01*
X146227472Y-128905265D01*
X145621188Y-128904736D01*
X145060851Y-129136262D01*
X144631769Y-129564596D01*
X144399265Y-130124528D01*
X144398736Y-130730812D01*
X144630262Y-131291149D01*
X145058596Y-131720231D01*
X145618528Y-131952735D01*
X146224812Y-131953264D01*
X146785149Y-131721738D01*
X147214231Y-131293404D01*
X147446735Y-130733472D01*
X147447264Y-130127188D01*
X147447264Y-132513000D01*
X144256284Y-132513000D01*
X144256284Y-125025205D01*
X144007894Y-124424057D01*
X143548363Y-123963722D01*
X142947648Y-123714284D01*
X142297205Y-123713716D01*
X141696057Y-123962106D01*
X141235722Y-124421637D01*
X140986284Y-125022352D01*
X140985716Y-125672795D01*
X141234106Y-126273943D01*
X141296250Y-126336196D01*
X141261301Y-126350673D01*
X141082673Y-126529302D01*
X140986000Y-126762691D01*
X140986000Y-127603250D01*
X141144750Y-127762000D01*
X142494000Y-127762000D01*
X142494000Y-127742000D01*
X142748000Y-127742000D01*
X142748000Y-127762000D01*
X144097250Y-127762000D01*
X144256000Y-127603250D01*
X144256000Y-126762691D01*
X144159327Y-126529302D01*
X143980699Y-126350673D01*
X143946166Y-126336369D01*
X144006278Y-126276363D01*
X144255716Y-125675648D01*
X144256284Y-125025205D01*
X144256284Y-132513000D01*
X143610851Y-132513000D01*
X143922947Y-132045915D01*
X144093000Y-131191000D01*
X143922947Y-130336085D01*
X143438677Y-129611323D01*
X143307988Y-129524000D01*
X143494691Y-129524000D01*
X143747310Y-129524000D01*
X143980699Y-129427327D01*
X144159327Y-129248698D01*
X144256000Y-129015309D01*
X144256000Y-128174750D01*
X144097250Y-128016000D01*
X142748000Y-128016000D01*
X142748000Y-128036000D01*
X142494000Y-128036000D01*
X142494000Y-128016000D01*
X141144750Y-128016000D01*
X140986000Y-128174750D01*
X140986000Y-129015309D01*
X141030139Y-129121870D01*
X141004085Y-129127053D01*
X140537000Y-129439148D01*
X140537000Y-109066851D01*
X141004085Y-109378947D01*
X141859000Y-109549000D01*
X142713915Y-109378947D01*
X143438677Y-108894677D01*
X143922947Y-108169915D01*
X144093000Y-107315000D01*
X143922947Y-106460085D01*
X143610851Y-105993000D01*
X161735764Y-105993000D01*
X160534382Y-107194382D01*
X160341671Y-107482794D01*
X160274000Y-107823000D01*
X160274000Y-107950338D01*
X159796536Y-108269369D01*
X159466175Y-108763790D01*
X159350167Y-109347000D01*
X159466175Y-109930210D01*
X159796536Y-110424631D01*
X160084437Y-110617000D01*
X159796536Y-110809369D01*
X159636391Y-111049042D01*
X159552794Y-111065671D01*
X159264382Y-111258382D01*
X158248382Y-112274382D01*
X158055671Y-112562794D01*
X157988000Y-112903000D01*
X157988000Y-117729000D01*
X158055671Y-118069206D01*
X158248382Y-118357618D01*
X159137382Y-119246618D01*
X159425794Y-119439329D01*
X159425795Y-119439329D01*
X159766000Y-119507000D01*
X159896407Y-119507000D01*
X159871769Y-119531596D01*
X159639265Y-120091528D01*
X159638736Y-120697812D01*
X159870262Y-121258149D01*
X160298596Y-121687231D01*
X160706553Y-121856629D01*
X160300851Y-122024262D01*
X159871769Y-122452596D01*
X159639265Y-123012528D01*
X159638736Y-123618812D01*
X159870262Y-124179149D01*
X160298596Y-124608231D01*
X160858528Y-124840735D01*
X161464812Y-124841264D01*
X162025149Y-124609738D01*
X162454231Y-124181404D01*
X162686735Y-123621472D01*
X162687264Y-123015188D01*
X162663849Y-122958520D01*
X162879395Y-123001395D01*
X164911342Y-123001395D01*
X164697769Y-123214596D01*
X164465265Y-123774528D01*
X164464736Y-124380812D01*
X164696262Y-124941149D01*
X165124596Y-125370231D01*
X165684528Y-125602735D01*
X166290812Y-125603264D01*
X166851149Y-125371738D01*
X167280231Y-124943404D01*
X167512735Y-124383472D01*
X167512790Y-124320026D01*
X170440382Y-127247618D01*
X170442298Y-127248898D01*
X170538262Y-127481149D01*
X170966596Y-127910231D01*
X171526528Y-128142735D01*
X172132812Y-128143264D01*
X172693149Y-127911738D01*
X173122231Y-127483404D01*
X173354735Y-126923472D01*
X173355233Y-126352002D01*
X174115386Y-125591849D01*
X174105484Y-125618965D01*
X174131277Y-126224700D01*
X174313461Y-126664533D01*
X174568804Y-126749591D01*
X175461395Y-125857000D01*
X175447252Y-125842857D01*
X175626857Y-125663252D01*
X175641000Y-125677395D01*
X176533591Y-124784804D01*
X176448533Y-124529461D01*
X175879035Y-124321484D01*
X175505530Y-124337388D01*
X175895335Y-123948262D01*
X176300596Y-124354231D01*
X176860528Y-124586735D01*
X177466812Y-124587264D01*
X178027149Y-124355738D01*
X178456231Y-123927404D01*
X178688735Y-123367472D01*
X178689264Y-122761188D01*
X178457738Y-122200851D01*
X178029404Y-121771769D01*
X177469472Y-121539265D01*
X176863188Y-121538736D01*
X176302851Y-121770262D01*
X175894664Y-122177737D01*
X175489404Y-121771769D01*
X174929472Y-121539265D01*
X174323188Y-121538736D01*
X173762851Y-121770262D01*
X173333769Y-122198596D01*
X173101265Y-122758528D01*
X173100736Y-123364812D01*
X173313360Y-123879403D01*
X172438959Y-124753804D01*
X172592735Y-124383472D01*
X172593264Y-123777188D01*
X172361738Y-123216851D01*
X171933404Y-122787769D01*
X171373472Y-122555265D01*
X170767188Y-122554736D01*
X170206851Y-122786262D01*
X169777769Y-123214596D01*
X169545265Y-123774528D01*
X169545209Y-123837973D01*
X167191013Y-121483777D01*
X167034205Y-121379001D01*
X167280231Y-121133404D01*
X167512735Y-120573472D01*
X167513233Y-120002469D01*
X168408382Y-120897618D01*
X168696794Y-121090329D01*
X168696795Y-121090330D01*
X169037000Y-121158000D01*
X169803066Y-121158000D01*
X170204596Y-121560231D01*
X170764528Y-121792735D01*
X171370812Y-121793264D01*
X171931149Y-121561738D01*
X172360231Y-121133404D01*
X172592735Y-120573472D01*
X172593264Y-119967188D01*
X172361738Y-119406851D01*
X171933404Y-118977769D01*
X171373472Y-118745265D01*
X170767188Y-118744736D01*
X170206851Y-118976262D01*
X169802407Y-119380000D01*
X169405236Y-119380000D01*
X168014618Y-117989382D01*
X167726206Y-117796671D01*
X167386000Y-117729000D01*
X166052752Y-117729000D01*
X166242735Y-117271472D01*
X166243264Y-116665188D01*
X166011738Y-116104851D01*
X165604262Y-115696664D01*
X166010231Y-115291404D01*
X166242735Y-114731472D01*
X166243264Y-114125188D01*
X166011738Y-113564851D01*
X165604262Y-113156664D01*
X166010231Y-112751404D01*
X166242735Y-112191472D01*
X166243264Y-111585188D01*
X166011738Y-111024851D01*
X165604262Y-110616664D01*
X166010231Y-110211404D01*
X166242735Y-109651472D01*
X166243264Y-109045188D01*
X166011738Y-108484851D01*
X165583404Y-108055769D01*
X165023472Y-107823265D01*
X164417188Y-107822736D01*
X163856851Y-108054262D01*
X163427769Y-108482596D01*
X163195265Y-109042528D01*
X163194736Y-109648812D01*
X163426262Y-110209149D01*
X163833737Y-110617335D01*
X163427769Y-111022596D01*
X163195265Y-111582528D01*
X163194736Y-112188812D01*
X163426262Y-112749149D01*
X163833737Y-113157335D01*
X163427769Y-113562596D01*
X163195265Y-114122528D01*
X163194736Y-114728812D01*
X163426262Y-115289149D01*
X163833737Y-115697335D01*
X163427769Y-116102596D01*
X163195265Y-116662528D01*
X163194736Y-117268812D01*
X163384881Y-117729000D01*
X162740361Y-117729000D01*
X162859825Y-117550210D01*
X162975833Y-116967000D01*
X162859825Y-116383790D01*
X162529464Y-115889369D01*
X162241562Y-115697000D01*
X162529464Y-115504631D01*
X162859825Y-115010210D01*
X162975833Y-114427000D01*
X162859825Y-113843790D01*
X162529464Y-113349369D01*
X162241562Y-113157000D01*
X162529464Y-112964631D01*
X162859825Y-112470210D01*
X162975833Y-111887000D01*
X162859825Y-111303790D01*
X162529464Y-110809369D01*
X162241562Y-110617000D01*
X162529464Y-110424631D01*
X162859825Y-109930210D01*
X162975833Y-109347000D01*
X162859825Y-108763790D01*
X162529464Y-108269369D01*
X162196407Y-108046828D01*
X163055236Y-107188000D01*
X176288764Y-107188000D01*
X176415764Y-107315000D01*
X176180750Y-107315000D01*
X176022000Y-107473750D01*
X176022000Y-108712000D01*
X177260250Y-108712000D01*
X177419000Y-108553250D01*
X177419000Y-108318236D01*
X178936378Y-109835614D01*
X178573722Y-110197637D01*
X178324284Y-110798352D01*
X178323716Y-111448795D01*
X178572106Y-112049943D01*
X179031637Y-112510278D01*
X179632352Y-112759716D01*
X180282795Y-112760284D01*
X180883943Y-112511894D01*
X180946196Y-112449749D01*
X180960673Y-112484699D01*
X181139302Y-112663327D01*
X181372691Y-112760000D01*
X182213250Y-112760000D01*
X182372000Y-112601250D01*
X182372000Y-111252000D01*
X182352000Y-111252000D01*
X182352000Y-110998000D01*
X182372000Y-110998000D01*
X182372000Y-109648750D01*
X182213250Y-109490000D01*
X181372691Y-109490000D01*
X181139302Y-109586673D01*
X180960673Y-109765301D01*
X180946369Y-109799833D01*
X180886363Y-109739722D01*
X180848000Y-109723792D01*
X180848000Y-109601000D01*
X180780329Y-109260795D01*
X180780329Y-109260794D01*
X180587618Y-108972382D01*
X177608235Y-105993000D01*
X181255148Y-105993000D01*
X180943053Y-106460085D01*
X180773000Y-107315000D01*
X180943053Y-108169915D01*
X181427323Y-108894677D01*
X182152085Y-109378947D01*
X182772412Y-109502337D01*
X182626000Y-109648750D01*
X182626000Y-110998000D01*
X183975250Y-110998000D01*
X184134000Y-110839250D01*
X184134000Y-110251309D01*
X184134000Y-109998690D01*
X184037327Y-109765301D01*
X183858698Y-109586673D01*
X183625309Y-109490000D01*
X183303613Y-109490000D01*
X183861915Y-109378947D01*
X184329000Y-109066851D01*
X184329000Y-129439148D01*
M02*
