%FSLAX46Y46*%
G04 Gerber Fmt 4.6, Leading zero omitted, Abs format (unit mm)*
G04 Created by KiCad (PCBNEW (2014-10-18 BZR 5203)-product) date 23/10/2014 11:22:48*
%MOMM*%
G01*
G04 APERTURE LIST*
%ADD10C,0.150000*%
%ADD11C,0.250000*%
%ADD12C,1.924000*%
%ADD13C,2.178000*%
%ADD14R,2.178000X2.178000*%
%ADD15R,2.400000X2.400000*%
%ADD16C,2.400000*%
%ADD17R,2.686000X2.178000*%
%ADD18O,2.686000X2.178000*%
G04 APERTURE END LIST*
D10*
D11*
X167948906Y-118070381D02*
X167758429Y-118070381D01*
X167663191Y-118118000D01*
X167567953Y-118213238D01*
X167520334Y-118403714D01*
X167520334Y-118737048D01*
X167567953Y-118927524D01*
X167663191Y-119022762D01*
X167758429Y-119070381D01*
X167948906Y-119070381D01*
X168044144Y-119022762D01*
X168139382Y-118927524D01*
X168187001Y-118737048D01*
X168187001Y-118403714D01*
X168139382Y-118213238D01*
X168044144Y-118118000D01*
X167948906Y-118070381D01*
X167091763Y-118403714D02*
X167091763Y-119403714D01*
X167091763Y-118451333D02*
X166996525Y-118403714D01*
X166806048Y-118403714D01*
X166710810Y-118451333D01*
X166663191Y-118498952D01*
X166615572Y-118594190D01*
X166615572Y-118879905D01*
X166663191Y-118975143D01*
X166710810Y-119022762D01*
X166806048Y-119070381D01*
X166996525Y-119070381D01*
X167091763Y-119022762D01*
X165806048Y-119022762D02*
X165901286Y-119070381D01*
X166091763Y-119070381D01*
X166187001Y-119022762D01*
X166234620Y-118927524D01*
X166234620Y-118546571D01*
X166187001Y-118451333D01*
X166091763Y-118403714D01*
X165901286Y-118403714D01*
X165806048Y-118451333D01*
X165758429Y-118546571D01*
X165758429Y-118641810D01*
X166234620Y-118737048D01*
X165329858Y-118403714D02*
X165329858Y-119070381D01*
X165329858Y-118498952D02*
X165282239Y-118451333D01*
X165187001Y-118403714D01*
X165044143Y-118403714D01*
X164948905Y-118451333D01*
X164901286Y-118546571D01*
X164901286Y-119070381D01*
X163663191Y-119070381D02*
X163663191Y-118070381D01*
X163663191Y-118546571D02*
X163091762Y-118546571D01*
X163091762Y-119070381D02*
X163091762Y-118070381D01*
X162187000Y-119070381D02*
X162187000Y-118546571D01*
X162234619Y-118451333D01*
X162329857Y-118403714D01*
X162520334Y-118403714D01*
X162615572Y-118451333D01*
X162187000Y-119022762D02*
X162282238Y-119070381D01*
X162520334Y-119070381D01*
X162615572Y-119022762D01*
X162663191Y-118927524D01*
X162663191Y-118832286D01*
X162615572Y-118737048D01*
X162520334Y-118689429D01*
X162282238Y-118689429D01*
X162187000Y-118641810D01*
X161710810Y-119070381D02*
X161710810Y-118403714D01*
X161710810Y-118594190D02*
X161663191Y-118498952D01*
X161615572Y-118451333D01*
X161520334Y-118403714D01*
X161425095Y-118403714D01*
X160663190Y-119070381D02*
X160663190Y-118070381D01*
X160663190Y-119022762D02*
X160758428Y-119070381D01*
X160948905Y-119070381D01*
X161044143Y-119022762D01*
X161091762Y-118975143D01*
X161139381Y-118879905D01*
X161139381Y-118594190D01*
X161091762Y-118498952D01*
X161044143Y-118451333D01*
X160948905Y-118403714D01*
X160758428Y-118403714D01*
X160663190Y-118451333D01*
X160282238Y-118403714D02*
X160091762Y-119070381D01*
X159901285Y-118594190D01*
X159710809Y-119070381D01*
X159520333Y-118403714D01*
X158710809Y-119070381D02*
X158710809Y-118546571D01*
X158758428Y-118451333D01*
X158853666Y-118403714D01*
X159044143Y-118403714D01*
X159139381Y-118451333D01*
X158710809Y-119022762D02*
X158806047Y-119070381D01*
X159044143Y-119070381D01*
X159139381Y-119022762D01*
X159187000Y-118927524D01*
X159187000Y-118832286D01*
X159139381Y-118737048D01*
X159044143Y-118689429D01*
X158806047Y-118689429D01*
X158710809Y-118641810D01*
X158234619Y-119070381D02*
X158234619Y-118403714D01*
X158234619Y-118594190D02*
X158187000Y-118498952D01*
X158139381Y-118451333D01*
X158044143Y-118403714D01*
X157948904Y-118403714D01*
X157234618Y-119022762D02*
X157329856Y-119070381D01*
X157520333Y-119070381D01*
X157615571Y-119022762D01*
X157663190Y-118927524D01*
X157663190Y-118546571D01*
X157615571Y-118451333D01*
X157520333Y-118403714D01*
X157329856Y-118403714D01*
X157234618Y-118451333D01*
X157186999Y-118546571D01*
X157186999Y-118641810D01*
X157663190Y-118737048D01*
X173345667Y-132913381D02*
X173821858Y-132913381D01*
X173821858Y-131913381D01*
X173012334Y-132913381D02*
X173012334Y-132246714D01*
X173012334Y-131913381D02*
X173059953Y-131961000D01*
X173012334Y-132008619D01*
X172964715Y-131961000D01*
X173012334Y-131913381D01*
X173012334Y-132008619D01*
X172107572Y-132865762D02*
X172202810Y-132913381D01*
X172393287Y-132913381D01*
X172488525Y-132865762D01*
X172536144Y-132818143D01*
X172583763Y-132722905D01*
X172583763Y-132437190D01*
X172536144Y-132341952D01*
X172488525Y-132294333D01*
X172393287Y-132246714D01*
X172202810Y-132246714D01*
X172107572Y-132294333D01*
X171298048Y-132865762D02*
X171393286Y-132913381D01*
X171583763Y-132913381D01*
X171679001Y-132865762D01*
X171726620Y-132770524D01*
X171726620Y-132389571D01*
X171679001Y-132294333D01*
X171583763Y-132246714D01*
X171393286Y-132246714D01*
X171298048Y-132294333D01*
X171250429Y-132389571D01*
X171250429Y-132484810D01*
X171726620Y-132580048D01*
X170821858Y-132246714D02*
X170821858Y-132913381D01*
X170821858Y-132341952D02*
X170774239Y-132294333D01*
X170679001Y-132246714D01*
X170536143Y-132246714D01*
X170440905Y-132294333D01*
X170393286Y-132389571D01*
X170393286Y-132913381D01*
X169488524Y-132865762D02*
X169583762Y-132913381D01*
X169774239Y-132913381D01*
X169869477Y-132865762D01*
X169917096Y-132818143D01*
X169964715Y-132722905D01*
X169964715Y-132437190D01*
X169917096Y-132341952D01*
X169869477Y-132294333D01*
X169774239Y-132246714D01*
X169583762Y-132246714D01*
X169488524Y-132294333D01*
X168679000Y-132865762D02*
X168774238Y-132913381D01*
X168964715Y-132913381D01*
X169059953Y-132865762D01*
X169107572Y-132770524D01*
X169107572Y-132389571D01*
X169059953Y-132294333D01*
X168964715Y-132246714D01*
X168774238Y-132246714D01*
X168679000Y-132294333D01*
X168631381Y-132389571D01*
X168631381Y-132484810D01*
X169107572Y-132580048D01*
X167774238Y-132913381D02*
X167774238Y-131913381D01*
X167774238Y-132865762D02*
X167869476Y-132913381D01*
X168059953Y-132913381D01*
X168155191Y-132865762D01*
X168202810Y-132818143D01*
X168250429Y-132722905D01*
X168250429Y-132437190D01*
X168202810Y-132341952D01*
X168155191Y-132294333D01*
X168059953Y-132246714D01*
X167869476Y-132246714D01*
X167774238Y-132294333D01*
X166107571Y-132246714D02*
X166107571Y-132913381D01*
X166536143Y-132246714D02*
X166536143Y-132770524D01*
X166488524Y-132865762D01*
X166393286Y-132913381D01*
X166250428Y-132913381D01*
X166155190Y-132865762D01*
X166107571Y-132818143D01*
X165631381Y-132246714D02*
X165631381Y-132913381D01*
X165631381Y-132341952D02*
X165583762Y-132294333D01*
X165488524Y-132246714D01*
X165345666Y-132246714D01*
X165250428Y-132294333D01*
X165202809Y-132389571D01*
X165202809Y-132913381D01*
X164298047Y-132913381D02*
X164298047Y-131913381D01*
X164298047Y-132865762D02*
X164393285Y-132913381D01*
X164583762Y-132913381D01*
X164679000Y-132865762D01*
X164726619Y-132818143D01*
X164774238Y-132722905D01*
X164774238Y-132437190D01*
X164726619Y-132341952D01*
X164679000Y-132294333D01*
X164583762Y-132246714D01*
X164393285Y-132246714D01*
X164298047Y-132294333D01*
X163440904Y-132865762D02*
X163536142Y-132913381D01*
X163726619Y-132913381D01*
X163821857Y-132865762D01*
X163869476Y-132770524D01*
X163869476Y-132389571D01*
X163821857Y-132294333D01*
X163726619Y-132246714D01*
X163536142Y-132246714D01*
X163440904Y-132294333D01*
X163393285Y-132389571D01*
X163393285Y-132484810D01*
X163869476Y-132580048D01*
X162964714Y-132913381D02*
X162964714Y-132246714D01*
X162964714Y-132437190D02*
X162917095Y-132341952D01*
X162869476Y-132294333D01*
X162774238Y-132246714D01*
X162678999Y-132246714D01*
X161012332Y-132818143D02*
X161059951Y-132865762D01*
X161202808Y-132913381D01*
X161298046Y-132913381D01*
X161440904Y-132865762D01*
X161536142Y-132770524D01*
X161583761Y-132675286D01*
X161631380Y-132484810D01*
X161631380Y-132341952D01*
X161583761Y-132151476D01*
X161536142Y-132056238D01*
X161440904Y-131961000D01*
X161298046Y-131913381D01*
X161202808Y-131913381D01*
X161059951Y-131961000D01*
X161012332Y-132008619D01*
X160583761Y-132389571D02*
X160250427Y-132389571D01*
X160107570Y-132913381D02*
X160583761Y-132913381D01*
X160583761Y-131913381D01*
X160107570Y-131913381D01*
X159107570Y-132913381D02*
X159440904Y-132437190D01*
X159678999Y-132913381D02*
X159678999Y-131913381D01*
X159298046Y-131913381D01*
X159202808Y-131961000D01*
X159155189Y-132008619D01*
X159107570Y-132103857D01*
X159107570Y-132246714D01*
X159155189Y-132341952D01*
X159202808Y-132389571D01*
X159298046Y-132437190D01*
X159678999Y-132437190D01*
X158678999Y-132913381D02*
X158678999Y-131913381D01*
X158107570Y-132913381D01*
X158107570Y-131913381D01*
X156678999Y-131913381D02*
X156488522Y-131913381D01*
X156393284Y-131961000D01*
X156298046Y-132056238D01*
X156250427Y-132246714D01*
X156250427Y-132580048D01*
X156298046Y-132770524D01*
X156393284Y-132865762D01*
X156488522Y-132913381D01*
X156678999Y-132913381D01*
X156774237Y-132865762D01*
X156869475Y-132770524D01*
X156917094Y-132580048D01*
X156917094Y-132246714D01*
X156869475Y-132056238D01*
X156774237Y-131961000D01*
X156678999Y-131913381D01*
X155821856Y-132913381D02*
X155821856Y-131913381D01*
X155821856Y-132389571D02*
X155250427Y-132389571D01*
X155250427Y-132913381D02*
X155250427Y-131913381D01*
X154298046Y-132913381D02*
X154774237Y-132913381D01*
X154774237Y-131913381D01*
X153298046Y-132246714D02*
X153059951Y-132913381D01*
X152821855Y-132246714D01*
X151917093Y-132913381D02*
X152488522Y-132913381D01*
X152202808Y-132913381D02*
X152202808Y-131913381D01*
X152298046Y-132056238D01*
X152393284Y-132151476D01*
X152488522Y-132199095D01*
X151488522Y-132818143D02*
X151440903Y-132865762D01*
X151488522Y-132913381D01*
X151536141Y-132865762D01*
X151488522Y-132818143D01*
X151488522Y-132913381D01*
X151059951Y-132008619D02*
X151012332Y-131961000D01*
X150917094Y-131913381D01*
X150678998Y-131913381D01*
X150583760Y-131961000D01*
X150536141Y-132008619D01*
X150488522Y-132103857D01*
X150488522Y-132199095D01*
X150536141Y-132341952D01*
X151107570Y-132913381D01*
X150488522Y-132913381D01*
X180766335Y-106211714D02*
X180385383Y-106211714D01*
X180623478Y-106878381D02*
X180623478Y-106021238D01*
X180575859Y-105926000D01*
X180480621Y-105878381D01*
X180385383Y-105878381D01*
X179623477Y-106211714D02*
X179623477Y-106878381D01*
X180052049Y-106211714D02*
X180052049Y-106735524D01*
X180004430Y-106830762D01*
X179909192Y-106878381D01*
X179766334Y-106878381D01*
X179671096Y-106830762D01*
X179623477Y-106783143D01*
X179147287Y-106211714D02*
X179147287Y-106878381D01*
X179147287Y-106306952D02*
X179099668Y-106259333D01*
X179004430Y-106211714D01*
X178861572Y-106211714D01*
X178766334Y-106259333D01*
X178718715Y-106354571D01*
X178718715Y-106878381D01*
X178242525Y-106878381D02*
X178242525Y-105878381D01*
X178147287Y-106497429D02*
X177861572Y-106878381D01*
X177861572Y-106211714D02*
X178242525Y-106592667D01*
X177528239Y-106211714D02*
X177290144Y-106878381D01*
X177052048Y-106211714D02*
X177290144Y-106878381D01*
X177385382Y-107116476D01*
X177433001Y-107164095D01*
X177528239Y-107211714D01*
X175480619Y-106878381D02*
X175480619Y-105878381D01*
X175480619Y-106830762D02*
X175575857Y-106878381D01*
X175766334Y-106878381D01*
X175861572Y-106830762D01*
X175909191Y-106783143D01*
X175956810Y-106687905D01*
X175956810Y-106402190D01*
X175909191Y-106306952D01*
X175861572Y-106259333D01*
X175766334Y-106211714D01*
X175575857Y-106211714D01*
X175480619Y-106259333D01*
X174575857Y-106211714D02*
X174575857Y-106878381D01*
X175004429Y-106211714D02*
X175004429Y-106735524D01*
X174956810Y-106830762D01*
X174861572Y-106878381D01*
X174718714Y-106878381D01*
X174623476Y-106830762D01*
X174575857Y-106783143D01*
X173671095Y-106878381D02*
X173671095Y-105878381D01*
X173671095Y-106830762D02*
X173766333Y-106878381D01*
X173956810Y-106878381D01*
X174052048Y-106830762D01*
X174099667Y-106783143D01*
X174147286Y-106687905D01*
X174147286Y-106402190D01*
X174099667Y-106306952D01*
X174052048Y-106259333D01*
X173956810Y-106211714D01*
X173766333Y-106211714D01*
X173671095Y-106259333D01*
X172813952Y-106830762D02*
X172909190Y-106878381D01*
X173099667Y-106878381D01*
X173194905Y-106830762D01*
X173242524Y-106735524D01*
X173242524Y-106354571D01*
X173194905Y-106259333D01*
X173099667Y-106211714D01*
X172909190Y-106211714D01*
X172813952Y-106259333D01*
X172766333Y-106354571D01*
X172766333Y-106449810D01*
X173242524Y-106545048D01*
X171575857Y-106211714D02*
X171575857Y-107211714D01*
X171575857Y-106259333D02*
X171480619Y-106211714D01*
X171290142Y-106211714D01*
X171194904Y-106259333D01*
X171147285Y-106306952D01*
X171099666Y-106402190D01*
X171099666Y-106687905D01*
X171147285Y-106783143D01*
X171194904Y-106830762D01*
X171290142Y-106878381D01*
X171480619Y-106878381D01*
X171575857Y-106830762D01*
X170671095Y-106878381D02*
X170671095Y-106211714D01*
X170671095Y-106402190D02*
X170623476Y-106306952D01*
X170575857Y-106259333D01*
X170480619Y-106211714D01*
X170385380Y-106211714D01*
X169671094Y-106830762D02*
X169766332Y-106878381D01*
X169956809Y-106878381D01*
X170052047Y-106830762D01*
X170099666Y-106735524D01*
X170099666Y-106354571D01*
X170052047Y-106259333D01*
X169956809Y-106211714D01*
X169766332Y-106211714D01*
X169671094Y-106259333D01*
X169623475Y-106354571D01*
X169623475Y-106449810D01*
X170099666Y-106545048D01*
X168766332Y-106878381D02*
X168766332Y-106354571D01*
X168813951Y-106259333D01*
X168909189Y-106211714D01*
X169099666Y-106211714D01*
X169194904Y-106259333D01*
X168766332Y-106830762D02*
X168861570Y-106878381D01*
X169099666Y-106878381D01*
X169194904Y-106830762D01*
X169242523Y-106735524D01*
X169242523Y-106640286D01*
X169194904Y-106545048D01*
X169099666Y-106497429D01*
X168861570Y-106497429D01*
X168766332Y-106449810D01*
X168290142Y-106878381D02*
X168290142Y-106211714D01*
X168290142Y-106306952D02*
X168242523Y-106259333D01*
X168147285Y-106211714D01*
X168004427Y-106211714D01*
X167909189Y-106259333D01*
X167861570Y-106354571D01*
X167861570Y-106878381D01*
X167861570Y-106354571D02*
X167813951Y-106259333D01*
X167718713Y-106211714D01*
X167575856Y-106211714D01*
X167480618Y-106259333D01*
X167432999Y-106354571D01*
X167432999Y-106878381D01*
X166956809Y-106211714D02*
X166956809Y-107211714D01*
X166956809Y-106259333D02*
X166861571Y-106211714D01*
X166671094Y-106211714D01*
X166575856Y-106259333D01*
X166528237Y-106306952D01*
X166480618Y-106402190D01*
X166480618Y-106687905D01*
X166528237Y-106783143D01*
X166575856Y-106830762D01*
X166671094Y-106878381D01*
X166861571Y-106878381D01*
X166956809Y-106830762D01*
X165385380Y-106211714D02*
X165147285Y-106878381D01*
X164909189Y-106211714D01*
X164575856Y-105973619D02*
X164528237Y-105926000D01*
X164432999Y-105878381D01*
X164194903Y-105878381D01*
X164099665Y-105926000D01*
X164052046Y-105973619D01*
X164004427Y-106068857D01*
X164004427Y-106164095D01*
X164052046Y-106306952D01*
X164623475Y-106878381D01*
X164004427Y-106878381D01*
X163575856Y-106783143D02*
X163528237Y-106830762D01*
X163575856Y-106878381D01*
X163623475Y-106830762D01*
X163575856Y-106783143D01*
X163575856Y-106878381D01*
X162909190Y-105878381D02*
X162813951Y-105878381D01*
X162718713Y-105926000D01*
X162671094Y-105973619D01*
X162623475Y-106068857D01*
X162575856Y-106259333D01*
X162575856Y-106497429D01*
X162623475Y-106687905D01*
X162671094Y-106783143D01*
X162718713Y-106830762D01*
X162813951Y-106878381D01*
X162909190Y-106878381D01*
X163004428Y-106830762D01*
X163052047Y-106783143D01*
X163099666Y-106687905D01*
X163147285Y-106497429D01*
X163147285Y-106259333D01*
X163099666Y-106068857D01*
X163052047Y-105973619D01*
X163004428Y-105926000D01*
X162909190Y-105878381D01*
X162147285Y-106497429D02*
X161385380Y-106497429D01*
X161052047Y-106211714D02*
X160671095Y-106211714D01*
X160909190Y-105878381D02*
X160909190Y-106735524D01*
X160861571Y-106830762D01*
X160766333Y-106878381D01*
X160671095Y-106878381D01*
X158147284Y-106211714D02*
X157956808Y-106878381D01*
X157766331Y-106402190D01*
X157575855Y-106878381D01*
X157385379Y-106211714D01*
X157099665Y-106211714D02*
X156909189Y-106878381D01*
X156718712Y-106402190D01*
X156528236Y-106878381D01*
X156337760Y-106211714D01*
X156052046Y-106211714D02*
X155861570Y-106878381D01*
X155671093Y-106402190D01*
X155480617Y-106878381D01*
X155290141Y-106211714D01*
X154909189Y-106783143D02*
X154861570Y-106830762D01*
X154909189Y-106878381D01*
X154956808Y-106830762D01*
X154909189Y-106783143D01*
X154909189Y-106878381D01*
X154004427Y-106878381D02*
X154004427Y-105878381D01*
X154004427Y-106830762D02*
X154099665Y-106878381D01*
X154290142Y-106878381D01*
X154385380Y-106830762D01*
X154432999Y-106783143D01*
X154480618Y-106687905D01*
X154480618Y-106402190D01*
X154432999Y-106306952D01*
X154385380Y-106259333D01*
X154290142Y-106211714D01*
X154099665Y-106211714D01*
X154004427Y-106259333D01*
X153385380Y-106878381D02*
X153480618Y-106830762D01*
X153528237Y-106783143D01*
X153575856Y-106687905D01*
X153575856Y-106402190D01*
X153528237Y-106306952D01*
X153480618Y-106259333D01*
X153385380Y-106211714D01*
X153242522Y-106211714D01*
X153147284Y-106259333D01*
X153099665Y-106306952D01*
X153052046Y-106402190D01*
X153052046Y-106687905D01*
X153099665Y-106783143D01*
X153147284Y-106830762D01*
X153242522Y-106878381D01*
X153385380Y-106878381D01*
X152480618Y-106878381D02*
X152575856Y-106830762D01*
X152623475Y-106735524D01*
X152623475Y-105878381D01*
X151671093Y-106211714D02*
X151671093Y-107021238D01*
X151718712Y-107116476D01*
X151766331Y-107164095D01*
X151861570Y-107211714D01*
X152004427Y-107211714D01*
X152099665Y-107164095D01*
X151671093Y-106830762D02*
X151766331Y-106878381D01*
X151956808Y-106878381D01*
X152052046Y-106830762D01*
X152099665Y-106783143D01*
X152147284Y-106687905D01*
X152147284Y-106402190D01*
X152099665Y-106306952D01*
X152052046Y-106259333D01*
X151956808Y-106211714D01*
X151766331Y-106211714D01*
X151671093Y-106259333D01*
X150766331Y-106878381D02*
X150766331Y-106354571D01*
X150813950Y-106259333D01*
X150909188Y-106211714D01*
X151099665Y-106211714D01*
X151194903Y-106259333D01*
X150766331Y-106830762D02*
X150861569Y-106878381D01*
X151099665Y-106878381D01*
X151194903Y-106830762D01*
X151242522Y-106735524D01*
X151242522Y-106640286D01*
X151194903Y-106545048D01*
X151099665Y-106497429D01*
X150861569Y-106497429D01*
X150766331Y-106449810D01*
X150290141Y-106211714D02*
X150290141Y-106878381D01*
X150290141Y-106306952D02*
X150242522Y-106259333D01*
X150147284Y-106211714D01*
X150004426Y-106211714D01*
X149909188Y-106259333D01*
X149861569Y-106354571D01*
X149861569Y-106878381D01*
X149242522Y-106878381D02*
X149337760Y-106830762D01*
X149385379Y-106783143D01*
X149432998Y-106687905D01*
X149432998Y-106402190D01*
X149385379Y-106306952D01*
X149337760Y-106259333D01*
X149242522Y-106211714D01*
X149099664Y-106211714D01*
X149004426Y-106259333D01*
X148956807Y-106306952D01*
X148909188Y-106402190D01*
X148909188Y-106687905D01*
X148956807Y-106783143D01*
X149004426Y-106830762D01*
X149099664Y-106878381D01*
X149242522Y-106878381D01*
X148623474Y-106211714D02*
X148242522Y-106211714D01*
X148480617Y-106878381D02*
X148480617Y-106021238D01*
X148432998Y-105926000D01*
X148337760Y-105878381D01*
X148242522Y-105878381D01*
X148052045Y-106211714D02*
X147671093Y-106211714D01*
X147909188Y-106878381D02*
X147909188Y-106021238D01*
X147861569Y-105926000D01*
X147766331Y-105878381D01*
X147671093Y-105878381D01*
X147337759Y-106783143D02*
X147290140Y-106830762D01*
X147337759Y-106878381D01*
X147385378Y-106830762D01*
X147337759Y-106783143D01*
X147337759Y-106878381D01*
X146432997Y-106830762D02*
X146528235Y-106878381D01*
X146718712Y-106878381D01*
X146813950Y-106830762D01*
X146861569Y-106783143D01*
X146909188Y-106687905D01*
X146909188Y-106402190D01*
X146861569Y-106306952D01*
X146813950Y-106259333D01*
X146718712Y-106211714D01*
X146528235Y-106211714D01*
X146432997Y-106259333D01*
X145861569Y-106878381D02*
X145956807Y-106830762D01*
X146004426Y-106783143D01*
X146052045Y-106687905D01*
X146052045Y-106402190D01*
X146004426Y-106306952D01*
X145956807Y-106259333D01*
X145861569Y-106211714D01*
X145718711Y-106211714D01*
X145623473Y-106259333D01*
X145575854Y-106306952D01*
X145528235Y-106402190D01*
X145528235Y-106687905D01*
X145575854Y-106783143D01*
X145623473Y-106830762D01*
X145718711Y-106878381D01*
X145861569Y-106878381D01*
X145099664Y-106878381D02*
X145099664Y-106211714D01*
X145099664Y-106306952D02*
X145052045Y-106259333D01*
X144956807Y-106211714D01*
X144813949Y-106211714D01*
X144718711Y-106259333D01*
X144671092Y-106354571D01*
X144671092Y-106878381D01*
X144671092Y-106354571D02*
X144623473Y-106259333D01*
X144528235Y-106211714D01*
X144385378Y-106211714D01*
X144290140Y-106259333D01*
X144242521Y-106354571D01*
X144242521Y-106878381D01*
%LPC*%
D12*
X144907000Y-110617000D03*
X147447000Y-108077000D03*
X149987000Y-110617000D03*
D13*
X142367000Y-121031000D03*
X142367000Y-115951000D03*
X164719000Y-109347000D03*
X169799000Y-109347000D03*
X145923000Y-130429000D03*
X151003000Y-130429000D03*
X165989000Y-124079000D03*
X171069000Y-124079000D03*
X154305000Y-126365000D03*
X159385000Y-126365000D03*
X165989000Y-120269000D03*
X171069000Y-120269000D03*
X149733000Y-125095000D03*
D14*
X149733000Y-127635000D03*
D13*
X174625000Y-130429000D03*
D14*
X172085000Y-130429000D03*
D13*
X179959000Y-116205000D03*
D14*
X182499000Y-116205000D03*
D13*
X179959000Y-130429000D03*
D14*
X177419000Y-130429000D03*
D13*
X175895000Y-111379000D03*
D14*
X175895000Y-108839000D03*
D13*
X180721000Y-125857000D03*
X175641000Y-125857000D03*
X153543000Y-120396000D03*
X161163000Y-120396000D03*
X144907000Y-114935000D03*
X144907000Y-122555000D03*
X149987000Y-114681000D03*
X149987000Y-122301000D03*
X172339000Y-111887000D03*
X164719000Y-111887000D03*
X164719000Y-116967000D03*
X172339000Y-116967000D03*
X153543000Y-123317000D03*
X161163000Y-123317000D03*
X177165000Y-123063000D03*
X177165000Y-115443000D03*
X174625000Y-115443000D03*
X174625000Y-123063000D03*
X171831000Y-126619000D03*
X164211000Y-126619000D03*
X164719000Y-114427000D03*
X172339000Y-114427000D03*
X147447000Y-115189000D03*
X147447000Y-122809000D03*
D15*
X168275000Y-130429000D03*
D16*
X165735000Y-130429000D03*
X163195000Y-130429000D03*
D15*
X159385000Y-130429000D03*
D16*
X156845000Y-130429000D03*
X154305000Y-130429000D03*
D15*
X142621000Y-127889000D03*
D16*
X142621000Y-125349000D03*
D15*
X182245000Y-123063000D03*
D16*
X182245000Y-120523000D03*
D15*
X182499000Y-111125000D03*
D16*
X179959000Y-111125000D03*
D17*
X153543000Y-109347000D03*
D18*
X153543000Y-111887000D03*
X153543000Y-114427000D03*
X153543000Y-116967000D03*
X161163000Y-116967000D03*
X161163000Y-114427000D03*
X161163000Y-111887000D03*
X161163000Y-109347000D03*
M02*
