%FSLAX46Y46*%
G04 Gerber Fmt 4.6, Leading zero omitted, Abs format (unit mm)*
G04 Created by KiCad (PCBNEW (2014-10-18 BZR 5203)-product) date 10/11/2014 14:08:33*
%MOMM*%
G01*
G04 APERTURE LIST*
%ADD10C,0.150000*%
%ADD11C,1.778000*%
%ADD12R,1.778000X1.778000*%
%ADD13R,2.000000X2.000000*%
%ADD14C,2.000000*%
%ADD15R,2.286000X1.778000*%
%ADD16O,2.286000X1.778000*%
%ADD17C,0.381000*%
%ADD18C,0.254000*%
G04 APERTURE END LIST*
D10*
D11*
X147701000Y-113665000D03*
X147701000Y-108585000D03*
X147701000Y-122301000D03*
X147701000Y-127381000D03*
X164211000Y-123063000D03*
X169291000Y-123063000D03*
X150495000Y-127381000D03*
X150495000Y-122301000D03*
X164211000Y-120015000D03*
X169291000Y-120015000D03*
D12*
X174625000Y-126873000D03*
D11*
X172085000Y-126873000D03*
D12*
X182499000Y-117729000D03*
D11*
X185039000Y-117729000D03*
D12*
X179959000Y-126873000D03*
D11*
X177419000Y-126873000D03*
D12*
X175387000Y-111887000D03*
D11*
X175387000Y-109347000D03*
X164719000Y-109347000D03*
X169799000Y-109347000D03*
X153543000Y-120015000D03*
X161163000Y-120015000D03*
X171577000Y-111887000D03*
X163957000Y-111887000D03*
X163957000Y-116967000D03*
X171577000Y-116967000D03*
X161163000Y-123063000D03*
X153543000Y-123063000D03*
X179197000Y-118491000D03*
X179197000Y-110871000D03*
X174117000Y-115189000D03*
X174117000Y-122809000D03*
X176657000Y-122809000D03*
X176657000Y-115189000D03*
X163957000Y-114427000D03*
X171577000Y-114427000D03*
X150495000Y-109347000D03*
X150495000Y-116967000D03*
D13*
X168783000Y-127127000D03*
D14*
X166243000Y-127127000D03*
X163703000Y-127127000D03*
D13*
X159639000Y-127127000D03*
D14*
X157099000Y-127127000D03*
X154559000Y-127127000D03*
D13*
X146685000Y-119253000D03*
D14*
X146685000Y-116713000D03*
D13*
X183769000Y-124587000D03*
D14*
X183769000Y-122047000D03*
D13*
X183769000Y-113411000D03*
D14*
X183769000Y-110871000D03*
D15*
X153543000Y-109347000D03*
D16*
X153543000Y-111887000D03*
X153543000Y-114427000D03*
X153543000Y-116967000D03*
X161163000Y-116967000D03*
X161163000Y-114427000D03*
X161163000Y-111887000D03*
X161163000Y-109347000D03*
D17*
X179959000Y-126873000D02*
X179959000Y-122809000D01*
X174117000Y-116967000D02*
X174117000Y-115189000D01*
X179959000Y-122809000D02*
X174117000Y-116967000D01*
X161163000Y-109347000D02*
X161163000Y-107823000D01*
X161163000Y-107823000D02*
X161671000Y-107315000D01*
X161671000Y-107315000D02*
X178943000Y-107315000D01*
X178943000Y-107315000D02*
X182499000Y-110871000D01*
X182499000Y-110871000D02*
X183769000Y-110871000D01*
X174117000Y-122809000D02*
X174117000Y-121539000D01*
X174117000Y-121539000D02*
X162814000Y-121539000D01*
X162814000Y-121539000D02*
X161163000Y-120015000D01*
X157099000Y-127127000D02*
X157099000Y-125349000D01*
X162687000Y-124587000D02*
X164211000Y-123063000D01*
X157861000Y-124587000D02*
X162687000Y-124587000D01*
X157099000Y-125349000D02*
X157861000Y-124587000D01*
X158877000Y-118491000D02*
X159893000Y-118491000D01*
X160398460Y-118491000D02*
X159893000Y-118491000D01*
X160461959Y-118554499D02*
X160398460Y-118491000D01*
X167068499Y-118554499D02*
X160461959Y-118554499D01*
X167068499Y-118554499D02*
X168529000Y-120015000D01*
X158877000Y-117475000D02*
X158877000Y-118491000D01*
X158877000Y-118491000D02*
X158877000Y-120777000D01*
X158877000Y-120777000D02*
X161163000Y-123063000D01*
X169291000Y-120015000D02*
X168529000Y-120015000D01*
X158877000Y-117475000D02*
X158877000Y-112903000D01*
X158877000Y-112903000D02*
X159893000Y-111887000D01*
X159893000Y-111887000D02*
X161163000Y-111887000D01*
D18*
G36*
X185853000Y-127198763D02*
X185404284Y-126898940D01*
X185404284Y-121723205D01*
X185155894Y-121122057D01*
X184696363Y-120661722D01*
X184095648Y-120412284D01*
X183445205Y-120411716D01*
X182844057Y-120660106D01*
X182383722Y-121119637D01*
X182134284Y-121720352D01*
X182133716Y-122370795D01*
X182382106Y-122971943D01*
X182444250Y-123034196D01*
X182409301Y-123048673D01*
X182230673Y-123227302D01*
X182134000Y-123460691D01*
X182134000Y-124301250D01*
X182292750Y-124460000D01*
X183642000Y-124460000D01*
X183642000Y-124440000D01*
X183896000Y-124440000D01*
X183896000Y-124460000D01*
X185245250Y-124460000D01*
X185404000Y-124301250D01*
X185404000Y-123460691D01*
X185307327Y-123227302D01*
X185128699Y-123048673D01*
X185094166Y-123034369D01*
X185154278Y-122974363D01*
X185403716Y-122373648D01*
X185404284Y-121723205D01*
X185404284Y-126898940D01*
X185404000Y-126898751D01*
X185404000Y-125713309D01*
X185404000Y-124872750D01*
X185245250Y-124714000D01*
X183896000Y-124714000D01*
X183896000Y-126063250D01*
X184054750Y-126222000D01*
X184642691Y-126222000D01*
X184895310Y-126222000D01*
X185128699Y-126125327D01*
X185307327Y-125946698D01*
X185404000Y-125713309D01*
X185404000Y-126898751D01*
X185288713Y-126821719D01*
X184531000Y-126671000D01*
X183773287Y-126821719D01*
X183642000Y-126909442D01*
X183642000Y-126063250D01*
X183642000Y-124714000D01*
X182292750Y-124714000D01*
X182134000Y-124872750D01*
X182134000Y-125713309D01*
X182230673Y-125946698D01*
X182409301Y-126125327D01*
X182642690Y-126222000D01*
X182895309Y-126222000D01*
X183483250Y-126222000D01*
X183642000Y-126063250D01*
X183642000Y-126909442D01*
X183130929Y-127250929D01*
X182701719Y-127893287D01*
X182551000Y-128651000D01*
X182701719Y-129408713D01*
X183078763Y-129973000D01*
X178311591Y-129973000D01*
X172977591Y-129973000D01*
X170418000Y-129973000D01*
X170418000Y-128253310D01*
X170418000Y-128000691D01*
X170418000Y-126000691D01*
X170321327Y-125767302D01*
X170142699Y-125588673D01*
X169909310Y-125492000D01*
X169656691Y-125492000D01*
X167656691Y-125492000D01*
X167423302Y-125588673D01*
X167244673Y-125767301D01*
X167230369Y-125801833D01*
X167170363Y-125741722D01*
X166569648Y-125492284D01*
X165919205Y-125491716D01*
X165318057Y-125740106D01*
X164972800Y-126084759D01*
X164630363Y-125741722D01*
X164029648Y-125492284D01*
X163379205Y-125491716D01*
X162778057Y-125740106D01*
X162317722Y-126199637D01*
X162068284Y-126800352D01*
X162067716Y-127450795D01*
X162316106Y-128051943D01*
X162775637Y-128512278D01*
X163376352Y-128761716D01*
X164026795Y-128762284D01*
X164627943Y-128513894D01*
X164973199Y-128169240D01*
X165315637Y-128512278D01*
X165916352Y-128761716D01*
X166566795Y-128762284D01*
X167167943Y-128513894D01*
X167230196Y-128451749D01*
X167244673Y-128486698D01*
X167423301Y-128665327D01*
X167656690Y-128762000D01*
X167909309Y-128762000D01*
X169909309Y-128762000D01*
X170142698Y-128665327D01*
X170321327Y-128486699D01*
X170418000Y-128253310D01*
X170418000Y-129973000D01*
X152019264Y-129973000D01*
X152019264Y-127079188D01*
X151787738Y-126518851D01*
X151359404Y-126089769D01*
X150799472Y-125857265D01*
X150193188Y-125856736D01*
X149632851Y-126088262D01*
X149203769Y-126516596D01*
X149098027Y-126771250D01*
X148993738Y-126518851D01*
X148565404Y-126089769D01*
X148005472Y-125857265D01*
X147399188Y-125856736D01*
X146838851Y-126088262D01*
X146409769Y-126516596D01*
X146177265Y-127076528D01*
X146176736Y-127682812D01*
X146408262Y-128243149D01*
X146836596Y-128672231D01*
X147396528Y-128904735D01*
X148002812Y-128905264D01*
X148563149Y-128673738D01*
X148992231Y-128245404D01*
X149097972Y-127990749D01*
X149202262Y-128243149D01*
X149630596Y-128672231D01*
X150190528Y-128904735D01*
X150796812Y-128905264D01*
X151357149Y-128673738D01*
X151786231Y-128245404D01*
X152018735Y-127685472D01*
X152019264Y-127079188D01*
X152019264Y-129973000D01*
X145851236Y-129973000D01*
X146228281Y-129408713D01*
X146379000Y-128651000D01*
X146228281Y-127893287D01*
X145799071Y-127250929D01*
X145156713Y-126821719D01*
X144399000Y-126671000D01*
X143641287Y-126821719D01*
X143077000Y-127198763D01*
X143077000Y-109021236D01*
X143641287Y-109398281D01*
X144399000Y-109549000D01*
X145156713Y-109398281D01*
X145799071Y-108969071D01*
X146177157Y-108403224D01*
X146176736Y-108886812D01*
X146408262Y-109447149D01*
X146836596Y-109876231D01*
X147396528Y-110108735D01*
X148002812Y-110109264D01*
X148563149Y-109877738D01*
X148970891Y-109470706D01*
X148970736Y-109648812D01*
X149202262Y-110209149D01*
X149630596Y-110638231D01*
X150190528Y-110870735D01*
X150796812Y-110871264D01*
X151357149Y-110639738D01*
X151765000Y-110232597D01*
X151765000Y-110362309D01*
X151861673Y-110595698D01*
X152040301Y-110774327D01*
X152165342Y-110826121D01*
X151846175Y-111303790D01*
X151730167Y-111887000D01*
X151846175Y-112470210D01*
X152176536Y-112964631D01*
X152464437Y-113157000D01*
X152176536Y-113349369D01*
X151846175Y-113843790D01*
X151730167Y-114427000D01*
X151846175Y-115010210D01*
X152176536Y-115504631D01*
X152470794Y-115701247D01*
X152121567Y-115979171D01*
X151900607Y-116378016D01*
X151787738Y-116104851D01*
X151359404Y-115675769D01*
X150799472Y-115443265D01*
X150193188Y-115442736D01*
X149632851Y-115674262D01*
X149225264Y-116081138D01*
X149225264Y-113363188D01*
X148993738Y-112802851D01*
X148565404Y-112373769D01*
X148005472Y-112141265D01*
X147399188Y-112140736D01*
X146838851Y-112372262D01*
X146409769Y-112800596D01*
X146177265Y-113360528D01*
X146176736Y-113966812D01*
X146408262Y-114527149D01*
X146836596Y-114956231D01*
X147396528Y-115188735D01*
X148002812Y-115189264D01*
X148563149Y-114957738D01*
X148992231Y-114529404D01*
X149224735Y-113969472D01*
X149225264Y-113363188D01*
X149225264Y-116081138D01*
X149203769Y-116102596D01*
X148971265Y-116662528D01*
X148970736Y-117268812D01*
X149202262Y-117829149D01*
X149630596Y-118258231D01*
X150190528Y-118490735D01*
X150796812Y-118491264D01*
X151357149Y-118259738D01*
X151786231Y-117831404D01*
X151900600Y-117555971D01*
X152121567Y-117954829D01*
X152588458Y-118326392D01*
X153162000Y-118491000D01*
X153240549Y-118491000D01*
X152680851Y-118722262D01*
X152251769Y-119150596D01*
X152019265Y-119710528D01*
X152018736Y-120316812D01*
X152250262Y-120877149D01*
X152678596Y-121306231D01*
X153238528Y-121538735D01*
X153241184Y-121538737D01*
X152680851Y-121770262D01*
X152251769Y-122198596D01*
X152019265Y-122758528D01*
X152019264Y-122759674D01*
X152019264Y-121999188D01*
X151787738Y-121438851D01*
X151359404Y-121009769D01*
X150799472Y-120777265D01*
X150193188Y-120776736D01*
X149632851Y-121008262D01*
X149203769Y-121436596D01*
X149098027Y-121691250D01*
X148993738Y-121438851D01*
X148565404Y-121009769D01*
X148320284Y-120907986D01*
X148320284Y-116389205D01*
X148071894Y-115788057D01*
X147612363Y-115327722D01*
X147011648Y-115078284D01*
X146361205Y-115077716D01*
X145760057Y-115326106D01*
X145299722Y-115785637D01*
X145050284Y-116386352D01*
X145049716Y-117036795D01*
X145298106Y-117637943D01*
X145360250Y-117700196D01*
X145325301Y-117714673D01*
X145146673Y-117893302D01*
X145050000Y-118126691D01*
X145050000Y-118967250D01*
X145208750Y-119126000D01*
X146558000Y-119126000D01*
X146558000Y-119106000D01*
X146812000Y-119106000D01*
X146812000Y-119126000D01*
X148161250Y-119126000D01*
X148320000Y-118967250D01*
X148320000Y-118126691D01*
X148223327Y-117893302D01*
X148044699Y-117714673D01*
X148010166Y-117700369D01*
X148070278Y-117640363D01*
X148319716Y-117039648D01*
X148320284Y-116389205D01*
X148320284Y-120907986D01*
X148042014Y-120792438D01*
X148044699Y-120791327D01*
X148223327Y-120612698D01*
X148320000Y-120379309D01*
X148320000Y-119538750D01*
X148161250Y-119380000D01*
X146812000Y-119380000D01*
X146812000Y-120729250D01*
X146970750Y-120888000D01*
X147129907Y-120888000D01*
X146838851Y-121008262D01*
X146558000Y-121288623D01*
X146558000Y-120729250D01*
X146558000Y-119380000D01*
X145208750Y-119380000D01*
X145050000Y-119538750D01*
X145050000Y-120379309D01*
X145146673Y-120612698D01*
X145325301Y-120791327D01*
X145558690Y-120888000D01*
X145811309Y-120888000D01*
X146399250Y-120888000D01*
X146558000Y-120729250D01*
X146558000Y-121288623D01*
X146409769Y-121436596D01*
X146177265Y-121996528D01*
X146176736Y-122602812D01*
X146408262Y-123163149D01*
X146836596Y-123592231D01*
X147396528Y-123824735D01*
X148002812Y-123825264D01*
X148563149Y-123593738D01*
X148992231Y-123165404D01*
X149097972Y-122910749D01*
X149202262Y-123163149D01*
X149630596Y-123592231D01*
X150190528Y-123824735D01*
X150796812Y-123825264D01*
X151357149Y-123593738D01*
X151786231Y-123165404D01*
X152018735Y-122605472D01*
X152019264Y-121999188D01*
X152019264Y-122759674D01*
X152018736Y-123364812D01*
X152250262Y-123925149D01*
X152678596Y-124354231D01*
X153238528Y-124586735D01*
X153844812Y-124587264D01*
X154405149Y-124355738D01*
X154834231Y-123927404D01*
X155066735Y-123367472D01*
X155067264Y-122761188D01*
X154835738Y-122200851D01*
X154407404Y-121771769D01*
X153847472Y-121539265D01*
X153844815Y-121539262D01*
X154405149Y-121307738D01*
X154834231Y-120879404D01*
X155066735Y-120319472D01*
X155067264Y-119713188D01*
X154835738Y-119152851D01*
X154407404Y-118723769D01*
X153847472Y-118491265D01*
X153544182Y-118491000D01*
X153670000Y-118491000D01*
X153670002Y-118491000D01*
X153924000Y-118491000D01*
X154497542Y-118326392D01*
X154964433Y-117954829D01*
X155253593Y-117432878D01*
X155277134Y-117330013D01*
X155156330Y-117094000D01*
X153670000Y-117094000D01*
X153670000Y-117114000D01*
X153416000Y-117114000D01*
X153416000Y-117094000D01*
X153396000Y-117094000D01*
X153396000Y-116840000D01*
X153416000Y-116840000D01*
X153416000Y-116820000D01*
X153670000Y-116820000D01*
X153670000Y-116840000D01*
X155156330Y-116840000D01*
X155277134Y-116603987D01*
X155253593Y-116501122D01*
X154964433Y-115979171D01*
X154615205Y-115701247D01*
X154909464Y-115504631D01*
X155239825Y-115010210D01*
X155355833Y-114427000D01*
X155239825Y-113843790D01*
X154909464Y-113349369D01*
X154621562Y-113157000D01*
X154909464Y-112964631D01*
X155239825Y-112470210D01*
X155355833Y-111887000D01*
X155239825Y-111303790D01*
X154920657Y-110826120D01*
X155045698Y-110774327D01*
X155224327Y-110595699D01*
X155321000Y-110362310D01*
X155321000Y-110109691D01*
X155321000Y-108331691D01*
X155224327Y-108098302D01*
X155045699Y-107919673D01*
X154812310Y-107823000D01*
X154559691Y-107823000D01*
X152273691Y-107823000D01*
X152040302Y-107919673D01*
X151861673Y-108098301D01*
X151765000Y-108331690D01*
X151765000Y-108462073D01*
X151359404Y-108055769D01*
X150799472Y-107823265D01*
X150193188Y-107822736D01*
X149632851Y-108054262D01*
X149225108Y-108461293D01*
X149225264Y-108283188D01*
X148993738Y-107722851D01*
X148565404Y-107293769D01*
X148005472Y-107061265D01*
X147399188Y-107060736D01*
X146838851Y-107292262D01*
X146409769Y-107720596D01*
X146292825Y-108002227D01*
X146379000Y-107569000D01*
X146228281Y-106811287D01*
X145851236Y-106247000D01*
X183078763Y-106247000D01*
X182701719Y-106811287D01*
X182551000Y-107569000D01*
X182701719Y-108326713D01*
X183130929Y-108969071D01*
X183530102Y-109235790D01*
X183445205Y-109235716D01*
X182844057Y-109484106D01*
X182561551Y-109766118D01*
X179526717Y-106731283D01*
X179258906Y-106552337D01*
X178943000Y-106489500D01*
X161671000Y-106489500D01*
X161355095Y-106552337D01*
X161087283Y-106731283D01*
X161087280Y-106731286D01*
X160579283Y-107239283D01*
X160400337Y-107507094D01*
X160337500Y-107823000D01*
X160337500Y-107929749D01*
X160290957Y-107939008D01*
X159796536Y-108269369D01*
X159466175Y-108763790D01*
X159350167Y-109347000D01*
X159466175Y-109930210D01*
X159796536Y-110424631D01*
X160084437Y-110617000D01*
X159796536Y-110809369D01*
X159587459Y-111122275D01*
X159587458Y-111122275D01*
X159577094Y-111124337D01*
X159309283Y-111303283D01*
X158293283Y-112319283D01*
X158114337Y-112587094D01*
X158051500Y-112903000D01*
X158051500Y-117475000D01*
X158051500Y-118491000D01*
X158051500Y-120777000D01*
X158114337Y-121092906D01*
X158293283Y-121360717D01*
X159654471Y-122721905D01*
X159639265Y-122758528D01*
X159638736Y-123364812D01*
X159802643Y-123761500D01*
X157861005Y-123761500D01*
X157861000Y-123761499D01*
X157545095Y-123824337D01*
X157277283Y-124003283D01*
X157277280Y-124003286D01*
X156515283Y-124765283D01*
X156336337Y-125033094D01*
X156273500Y-125349000D01*
X156273500Y-125699016D01*
X156174057Y-125740106D01*
X155828800Y-126084759D01*
X155486363Y-125741722D01*
X155277134Y-125654842D01*
X154885648Y-125492284D01*
X154235205Y-125491716D01*
X153634057Y-125740106D01*
X153173722Y-126199637D01*
X152924284Y-126800352D01*
X152923716Y-127450795D01*
X153172106Y-128051943D01*
X153631637Y-128512278D01*
X154232352Y-128761716D01*
X154882795Y-128762284D01*
X155483943Y-128513894D01*
X155829199Y-128169240D01*
X156171637Y-128512278D01*
X156772352Y-128761716D01*
X157422795Y-128762284D01*
X158023943Y-128513894D01*
X158086196Y-128451749D01*
X158100673Y-128486698D01*
X158279301Y-128665327D01*
X158512690Y-128762000D01*
X158765309Y-128762000D01*
X160765309Y-128762000D01*
X160998698Y-128665327D01*
X161177327Y-128486699D01*
X161274000Y-128253310D01*
X161274000Y-128000691D01*
X161274000Y-126000691D01*
X161177327Y-125767302D01*
X160998699Y-125588673D01*
X160765310Y-125492000D01*
X160512691Y-125492000D01*
X158512691Y-125492000D01*
X158279302Y-125588673D01*
X158100673Y-125767301D01*
X158086369Y-125801833D01*
X158026363Y-125741722D01*
X157924500Y-125699424D01*
X157924500Y-125690933D01*
X158202933Y-125412500D01*
X162687000Y-125412500D01*
X163002905Y-125349663D01*
X163002906Y-125349663D01*
X163270717Y-125170717D01*
X163869905Y-124571528D01*
X163906528Y-124586735D01*
X164512812Y-124587264D01*
X165073149Y-124355738D01*
X165502231Y-123927404D01*
X165734735Y-123367472D01*
X165735264Y-122761188D01*
X165571356Y-122364500D01*
X167930879Y-122364500D01*
X167767265Y-122758528D01*
X167766736Y-123364812D01*
X167998262Y-123925149D01*
X168426596Y-124354231D01*
X168986528Y-124586735D01*
X169592812Y-124587264D01*
X170153149Y-124355738D01*
X170582231Y-123927404D01*
X170814735Y-123367472D01*
X170815264Y-122761188D01*
X170651356Y-122364500D01*
X172651409Y-122364500D01*
X172593265Y-122504528D01*
X172592736Y-123110812D01*
X172824262Y-123671149D01*
X173252596Y-124100231D01*
X173812528Y-124332735D01*
X174418812Y-124333264D01*
X174979149Y-124101738D01*
X175387335Y-123694262D01*
X175792596Y-124100231D01*
X176352528Y-124332735D01*
X176958812Y-124333264D01*
X177519149Y-124101738D01*
X177948231Y-123673404D01*
X178180735Y-123113472D01*
X178181264Y-122507188D01*
X177964046Y-121981479D01*
X179133500Y-123150933D01*
X179133500Y-125349000D01*
X178943691Y-125349000D01*
X178710302Y-125445673D01*
X178531673Y-125624301D01*
X178482641Y-125742673D01*
X178426180Y-125686212D01*
X178311590Y-125800801D01*
X178226533Y-125545461D01*
X177657035Y-125337484D01*
X177051300Y-125363277D01*
X176611467Y-125545461D01*
X176526409Y-125800804D01*
X177419000Y-126693395D01*
X177433142Y-126679252D01*
X177612747Y-126858857D01*
X177598605Y-126873000D01*
X177612747Y-126887142D01*
X177433142Y-127066747D01*
X177419000Y-127052605D01*
X177239395Y-127232210D01*
X177239395Y-126873000D01*
X176346804Y-125980409D01*
X176149000Y-126046300D01*
X176149000Y-125857691D01*
X176052327Y-125624302D01*
X175873699Y-125445673D01*
X175640310Y-125349000D01*
X175387691Y-125349000D01*
X173609691Y-125349000D01*
X173376302Y-125445673D01*
X173197673Y-125624301D01*
X173148641Y-125742673D01*
X173092180Y-125686212D01*
X172977590Y-125800801D01*
X172892533Y-125545461D01*
X172323035Y-125337484D01*
X171717300Y-125363277D01*
X171277467Y-125545461D01*
X171192409Y-125800804D01*
X172085000Y-126693395D01*
X172099142Y-126679252D01*
X172278747Y-126858857D01*
X172264605Y-126873000D01*
X172278747Y-126887142D01*
X172099142Y-127066747D01*
X172085000Y-127052605D01*
X171905395Y-127232210D01*
X171905395Y-126873000D01*
X171012804Y-125980409D01*
X170757461Y-126065467D01*
X170549484Y-126634965D01*
X170575277Y-127240700D01*
X170757461Y-127680533D01*
X171012804Y-127765591D01*
X171905395Y-126873000D01*
X171905395Y-127232210D01*
X171192409Y-127945196D01*
X171277467Y-128200539D01*
X171846965Y-128408516D01*
X172452700Y-128382723D01*
X172892533Y-128200539D01*
X172977590Y-127945198D01*
X172977591Y-127945199D01*
X173092180Y-128059788D01*
X173148641Y-128003326D01*
X173197673Y-128121698D01*
X173376301Y-128300327D01*
X173609690Y-128397000D01*
X173862309Y-128397000D01*
X175640309Y-128397000D01*
X175873698Y-128300327D01*
X176052327Y-128121699D01*
X176149000Y-127888310D01*
X176149000Y-127699699D01*
X176346804Y-127765591D01*
X177239395Y-126873000D01*
X177239395Y-127232210D01*
X176526409Y-127945196D01*
X176611467Y-128200539D01*
X177180965Y-128408516D01*
X177786700Y-128382723D01*
X178226533Y-128200539D01*
X178311590Y-127945198D01*
X178311591Y-127945199D01*
X178426180Y-128059788D01*
X178482641Y-128003326D01*
X178531673Y-128121698D01*
X178710301Y-128300327D01*
X178943690Y-128397000D01*
X179196309Y-128397000D01*
X180974309Y-128397000D01*
X181207698Y-128300327D01*
X181386327Y-128121699D01*
X181483000Y-127888310D01*
X181483000Y-127635691D01*
X181483000Y-125857691D01*
X181386327Y-125624302D01*
X181207699Y-125445673D01*
X180974310Y-125349000D01*
X180784500Y-125349000D01*
X180784500Y-122809005D01*
X180784500Y-122809000D01*
X180784501Y-122809000D01*
X180721663Y-122493095D01*
X180721264Y-122492497D01*
X180721264Y-118189188D01*
X180489738Y-117628851D01*
X180061404Y-117199769D01*
X179501472Y-116967265D01*
X178895188Y-116966736D01*
X178334851Y-117198262D01*
X178192516Y-117340348D01*
X178192516Y-115427035D01*
X178166723Y-114821300D01*
X177984539Y-114381467D01*
X177729196Y-114296409D01*
X177549591Y-114476014D01*
X177549591Y-114116804D01*
X177464533Y-113861461D01*
X176922516Y-113663519D01*
X176922516Y-109585035D01*
X176896723Y-108979300D01*
X176714539Y-108539467D01*
X176459196Y-108454409D01*
X175566605Y-109347000D01*
X175580747Y-109361142D01*
X175401142Y-109540747D01*
X175387000Y-109526605D01*
X175372857Y-109540747D01*
X175207395Y-109375285D01*
X175193252Y-109361142D01*
X175207395Y-109347000D01*
X174314804Y-108454409D01*
X174059461Y-108539467D01*
X173851484Y-109108965D01*
X173877277Y-109714700D01*
X174059461Y-110154533D01*
X174314801Y-110239590D01*
X174200212Y-110354180D01*
X174256673Y-110410641D01*
X174138302Y-110459673D01*
X173959673Y-110638301D01*
X173863000Y-110871690D01*
X173863000Y-111124309D01*
X173863000Y-112902309D01*
X173959673Y-113135698D01*
X174138301Y-113314327D01*
X174371690Y-113411000D01*
X174624309Y-113411000D01*
X176402309Y-113411000D01*
X176635698Y-113314327D01*
X176814327Y-113135699D01*
X176911000Y-112902310D01*
X176911000Y-112649691D01*
X176911000Y-110871691D01*
X176814327Y-110638302D01*
X176635699Y-110459673D01*
X176517326Y-110410641D01*
X176573788Y-110354180D01*
X176459198Y-110239590D01*
X176714539Y-110154533D01*
X176922516Y-109585035D01*
X176922516Y-113663519D01*
X176911000Y-113659314D01*
X176895035Y-113653484D01*
X176289300Y-113679277D01*
X175849467Y-113861461D01*
X175764409Y-114116804D01*
X176657000Y-115009395D01*
X177549591Y-114116804D01*
X177549591Y-114476014D01*
X176836605Y-115189000D01*
X177729196Y-116081591D01*
X177984539Y-115996533D01*
X178192516Y-115427035D01*
X178192516Y-117340348D01*
X177905769Y-117626596D01*
X177673265Y-118186528D01*
X177672736Y-118792812D01*
X177904262Y-119353149D01*
X178332596Y-119782231D01*
X178892528Y-120014735D01*
X179498812Y-120015264D01*
X180059149Y-119783738D01*
X180488231Y-119355404D01*
X180720735Y-118795472D01*
X180721264Y-118189188D01*
X180721264Y-122492497D01*
X180542717Y-122225284D01*
X180542717Y-122225283D01*
X180542713Y-122225280D01*
X177549591Y-119232157D01*
X177549591Y-116261196D01*
X176657000Y-115368605D01*
X175764409Y-116261196D01*
X175849467Y-116516539D01*
X176418965Y-116724516D01*
X177024700Y-116698723D01*
X177464533Y-116516539D01*
X177549591Y-116261196D01*
X177549591Y-119232157D01*
X174942500Y-116625066D01*
X174942500Y-116496881D01*
X174979149Y-116481738D01*
X175408231Y-116053404D01*
X175419404Y-116026494D01*
X175584804Y-116081591D01*
X176477395Y-115189000D01*
X175584804Y-114296409D01*
X175419862Y-114351353D01*
X175409738Y-114326851D01*
X174981404Y-113897769D01*
X174421472Y-113665265D01*
X173815188Y-113664736D01*
X173254851Y-113896262D01*
X173079146Y-114071659D01*
X172869738Y-113564851D01*
X172462262Y-113156664D01*
X172868231Y-112751404D01*
X173100735Y-112191472D01*
X173101264Y-111585188D01*
X172869738Y-111024851D01*
X172441404Y-110595769D01*
X171881472Y-110363265D01*
X171334516Y-110362787D01*
X171334516Y-109585035D01*
X171308723Y-108979300D01*
X171126539Y-108539467D01*
X170871196Y-108454409D01*
X169978605Y-109347000D01*
X170871196Y-110239591D01*
X171126539Y-110154533D01*
X171334516Y-109585035D01*
X171334516Y-110362787D01*
X171275188Y-110362736D01*
X170714851Y-110594262D01*
X170691591Y-110617481D01*
X170691591Y-110419196D01*
X169799000Y-109526605D01*
X169619395Y-109706210D01*
X169619395Y-109347000D01*
X168726804Y-108454409D01*
X168471461Y-108539467D01*
X168263484Y-109108965D01*
X168289277Y-109714700D01*
X168471461Y-110154533D01*
X168726804Y-110239591D01*
X169619395Y-109347000D01*
X169619395Y-109706210D01*
X168906409Y-110419196D01*
X168991467Y-110674539D01*
X169560965Y-110882516D01*
X170166700Y-110856723D01*
X170606533Y-110674539D01*
X170691591Y-110419196D01*
X170691591Y-110617481D01*
X170285769Y-111022596D01*
X170053265Y-111582528D01*
X170052736Y-112188812D01*
X170284262Y-112749149D01*
X170691737Y-113157335D01*
X170285769Y-113562596D01*
X170053265Y-114122528D01*
X170052736Y-114728812D01*
X170284262Y-115289149D01*
X170691737Y-115697335D01*
X170285769Y-116102596D01*
X170053265Y-116662528D01*
X170052736Y-117268812D01*
X170284262Y-117829149D01*
X170712596Y-118258231D01*
X171272528Y-118490735D01*
X171878812Y-118491264D01*
X172439149Y-118259738D01*
X172868231Y-117831404D01*
X173100735Y-117271472D01*
X173101264Y-116665188D01*
X172869738Y-116104851D01*
X172462262Y-115696664D01*
X172614853Y-115544340D01*
X172824262Y-116051149D01*
X173252596Y-116480231D01*
X173291500Y-116496385D01*
X173291500Y-116967000D01*
X173354337Y-117282906D01*
X173533283Y-117550717D01*
X177485375Y-121502808D01*
X176961472Y-121285265D01*
X176355188Y-121284736D01*
X175794851Y-121516262D01*
X175386664Y-121923737D01*
X174981404Y-121517769D01*
X174934394Y-121498248D01*
X174879663Y-121223095D01*
X174700717Y-120955283D01*
X174432905Y-120776337D01*
X174117000Y-120713500D01*
X170651120Y-120713500D01*
X170814735Y-120319472D01*
X170815264Y-119713188D01*
X170583738Y-119152851D01*
X170155404Y-118723769D01*
X169595472Y-118491265D01*
X168989188Y-118490736D01*
X168428851Y-118722262D01*
X168416262Y-118734828D01*
X167652216Y-117970782D01*
X167384405Y-117791836D01*
X167068499Y-117728999D01*
X165290753Y-117728999D01*
X165480735Y-117271472D01*
X165481264Y-116665188D01*
X165249738Y-116104851D01*
X164842262Y-115696664D01*
X165248231Y-115291404D01*
X165480735Y-114731472D01*
X165481264Y-114125188D01*
X165249738Y-113564851D01*
X164842262Y-113156664D01*
X165248231Y-112751404D01*
X165480735Y-112191472D01*
X165481264Y-111585188D01*
X165249738Y-111024851D01*
X165074340Y-110849146D01*
X165581149Y-110639738D01*
X166010231Y-110211404D01*
X166242735Y-109651472D01*
X166243264Y-109045188D01*
X166011738Y-108484851D01*
X165667987Y-108140500D01*
X168951147Y-108140500D01*
X168906409Y-108274804D01*
X169799000Y-109167395D01*
X170691591Y-108274804D01*
X170646852Y-108140500D01*
X174539147Y-108140500D01*
X174494409Y-108274804D01*
X175387000Y-109167395D01*
X176279591Y-108274804D01*
X176234852Y-108140500D01*
X178601066Y-108140500D01*
X180025374Y-109564808D01*
X179501472Y-109347265D01*
X178895188Y-109346736D01*
X178334851Y-109578262D01*
X177905769Y-110006596D01*
X177673265Y-110566528D01*
X177672736Y-111172812D01*
X177904262Y-111733149D01*
X178332596Y-112162231D01*
X178892528Y-112394735D01*
X179498812Y-112395264D01*
X180059149Y-112163738D01*
X180488231Y-111735404D01*
X180720735Y-111175472D01*
X180721264Y-110569188D01*
X180504046Y-110043479D01*
X181915280Y-111454713D01*
X181915283Y-111454717D01*
X182183094Y-111633662D01*
X182183095Y-111633663D01*
X182326869Y-111662261D01*
X182382106Y-111795943D01*
X182444250Y-111858196D01*
X182409301Y-111872673D01*
X182230673Y-112051302D01*
X182134000Y-112284691D01*
X182134000Y-113125250D01*
X182292750Y-113284000D01*
X183642000Y-113284000D01*
X183642000Y-113264000D01*
X183896000Y-113264000D01*
X183896000Y-113284000D01*
X185245250Y-113284000D01*
X185404000Y-113125250D01*
X185404000Y-112284691D01*
X185307327Y-112051302D01*
X185128699Y-111872673D01*
X185094166Y-111858369D01*
X185154278Y-111798363D01*
X185403716Y-111197648D01*
X185404284Y-110547205D01*
X185155894Y-109946057D01*
X184721669Y-109511073D01*
X185288713Y-109398281D01*
X185853000Y-109021236D01*
X185853000Y-116416839D01*
X185404000Y-116230398D01*
X185404000Y-114537309D01*
X185404000Y-113696750D01*
X185245250Y-113538000D01*
X183896000Y-113538000D01*
X183896000Y-114887250D01*
X184054750Y-115046000D01*
X184642691Y-115046000D01*
X184895310Y-115046000D01*
X185128699Y-114949327D01*
X185307327Y-114770698D01*
X185404000Y-114537309D01*
X185404000Y-116230398D01*
X185343472Y-116205265D01*
X184737188Y-116204736D01*
X184176851Y-116436262D01*
X183986707Y-116626073D01*
X183926327Y-116480302D01*
X183747699Y-116301673D01*
X183642000Y-116257890D01*
X183642000Y-114887250D01*
X183642000Y-113538000D01*
X182292750Y-113538000D01*
X182134000Y-113696750D01*
X182134000Y-114537309D01*
X182230673Y-114770698D01*
X182409301Y-114949327D01*
X182642690Y-115046000D01*
X182895309Y-115046000D01*
X183483250Y-115046000D01*
X183642000Y-114887250D01*
X183642000Y-116257890D01*
X183514310Y-116205000D01*
X183261691Y-116205000D01*
X181483691Y-116205000D01*
X181250302Y-116301673D01*
X181071673Y-116480301D01*
X180975000Y-116713690D01*
X180975000Y-116966309D01*
X180975000Y-118744309D01*
X181071673Y-118977698D01*
X181250301Y-119156327D01*
X181483690Y-119253000D01*
X181736309Y-119253000D01*
X183514309Y-119253000D01*
X183747698Y-119156327D01*
X183926327Y-118977699D01*
X183986682Y-118831988D01*
X184174596Y-119020231D01*
X184734528Y-119252735D01*
X185340812Y-119253264D01*
X185853000Y-119041632D01*
X185853000Y-127198763D01*
X185853000Y-127198763D01*
G37*
X185853000Y-127198763D02*
X185404284Y-126898940D01*
X185404284Y-121723205D01*
X185155894Y-121122057D01*
X184696363Y-120661722D01*
X184095648Y-120412284D01*
X183445205Y-120411716D01*
X182844057Y-120660106D01*
X182383722Y-121119637D01*
X182134284Y-121720352D01*
X182133716Y-122370795D01*
X182382106Y-122971943D01*
X182444250Y-123034196D01*
X182409301Y-123048673D01*
X182230673Y-123227302D01*
X182134000Y-123460691D01*
X182134000Y-124301250D01*
X182292750Y-124460000D01*
X183642000Y-124460000D01*
X183642000Y-124440000D01*
X183896000Y-124440000D01*
X183896000Y-124460000D01*
X185245250Y-124460000D01*
X185404000Y-124301250D01*
X185404000Y-123460691D01*
X185307327Y-123227302D01*
X185128699Y-123048673D01*
X185094166Y-123034369D01*
X185154278Y-122974363D01*
X185403716Y-122373648D01*
X185404284Y-121723205D01*
X185404284Y-126898940D01*
X185404000Y-126898751D01*
X185404000Y-125713309D01*
X185404000Y-124872750D01*
X185245250Y-124714000D01*
X183896000Y-124714000D01*
X183896000Y-126063250D01*
X184054750Y-126222000D01*
X184642691Y-126222000D01*
X184895310Y-126222000D01*
X185128699Y-126125327D01*
X185307327Y-125946698D01*
X185404000Y-125713309D01*
X185404000Y-126898751D01*
X185288713Y-126821719D01*
X184531000Y-126671000D01*
X183773287Y-126821719D01*
X183642000Y-126909442D01*
X183642000Y-126063250D01*
X183642000Y-124714000D01*
X182292750Y-124714000D01*
X182134000Y-124872750D01*
X182134000Y-125713309D01*
X182230673Y-125946698D01*
X182409301Y-126125327D01*
X182642690Y-126222000D01*
X182895309Y-126222000D01*
X183483250Y-126222000D01*
X183642000Y-126063250D01*
X183642000Y-126909442D01*
X183130929Y-127250929D01*
X182701719Y-127893287D01*
X182551000Y-128651000D01*
X182701719Y-129408713D01*
X183078763Y-129973000D01*
X178311591Y-129973000D01*
X172977591Y-129973000D01*
X170418000Y-129973000D01*
X170418000Y-128253310D01*
X170418000Y-128000691D01*
X170418000Y-126000691D01*
X170321327Y-125767302D01*
X170142699Y-125588673D01*
X169909310Y-125492000D01*
X169656691Y-125492000D01*
X167656691Y-125492000D01*
X167423302Y-125588673D01*
X167244673Y-125767301D01*
X167230369Y-125801833D01*
X167170363Y-125741722D01*
X166569648Y-125492284D01*
X165919205Y-125491716D01*
X165318057Y-125740106D01*
X164972800Y-126084759D01*
X164630363Y-125741722D01*
X164029648Y-125492284D01*
X163379205Y-125491716D01*
X162778057Y-125740106D01*
X162317722Y-126199637D01*
X162068284Y-126800352D01*
X162067716Y-127450795D01*
X162316106Y-128051943D01*
X162775637Y-128512278D01*
X163376352Y-128761716D01*
X164026795Y-128762284D01*
X164627943Y-128513894D01*
X164973199Y-128169240D01*
X165315637Y-128512278D01*
X165916352Y-128761716D01*
X166566795Y-128762284D01*
X167167943Y-128513894D01*
X167230196Y-128451749D01*
X167244673Y-128486698D01*
X167423301Y-128665327D01*
X167656690Y-128762000D01*
X167909309Y-128762000D01*
X169909309Y-128762000D01*
X170142698Y-128665327D01*
X170321327Y-128486699D01*
X170418000Y-128253310D01*
X170418000Y-129973000D01*
X152019264Y-129973000D01*
X152019264Y-127079188D01*
X151787738Y-126518851D01*
X151359404Y-126089769D01*
X150799472Y-125857265D01*
X150193188Y-125856736D01*
X149632851Y-126088262D01*
X149203769Y-126516596D01*
X149098027Y-126771250D01*
X148993738Y-126518851D01*
X148565404Y-126089769D01*
X148005472Y-125857265D01*
X147399188Y-125856736D01*
X146838851Y-126088262D01*
X146409769Y-126516596D01*
X146177265Y-127076528D01*
X146176736Y-127682812D01*
X146408262Y-128243149D01*
X146836596Y-128672231D01*
X147396528Y-128904735D01*
X148002812Y-128905264D01*
X148563149Y-128673738D01*
X148992231Y-128245404D01*
X149097972Y-127990749D01*
X149202262Y-128243149D01*
X149630596Y-128672231D01*
X150190528Y-128904735D01*
X150796812Y-128905264D01*
X151357149Y-128673738D01*
X151786231Y-128245404D01*
X152018735Y-127685472D01*
X152019264Y-127079188D01*
X152019264Y-129973000D01*
X145851236Y-129973000D01*
X146228281Y-129408713D01*
X146379000Y-128651000D01*
X146228281Y-127893287D01*
X145799071Y-127250929D01*
X145156713Y-126821719D01*
X144399000Y-126671000D01*
X143641287Y-126821719D01*
X143077000Y-127198763D01*
X143077000Y-109021236D01*
X143641287Y-109398281D01*
X144399000Y-109549000D01*
X145156713Y-109398281D01*
X145799071Y-108969071D01*
X146177157Y-108403224D01*
X146176736Y-108886812D01*
X146408262Y-109447149D01*
X146836596Y-109876231D01*
X147396528Y-110108735D01*
X148002812Y-110109264D01*
X148563149Y-109877738D01*
X148970891Y-109470706D01*
X148970736Y-109648812D01*
X149202262Y-110209149D01*
X149630596Y-110638231D01*
X150190528Y-110870735D01*
X150796812Y-110871264D01*
X151357149Y-110639738D01*
X151765000Y-110232597D01*
X151765000Y-110362309D01*
X151861673Y-110595698D01*
X152040301Y-110774327D01*
X152165342Y-110826121D01*
X151846175Y-111303790D01*
X151730167Y-111887000D01*
X151846175Y-112470210D01*
X152176536Y-112964631D01*
X152464437Y-113157000D01*
X152176536Y-113349369D01*
X151846175Y-113843790D01*
X151730167Y-114427000D01*
X151846175Y-115010210D01*
X152176536Y-115504631D01*
X152470794Y-115701247D01*
X152121567Y-115979171D01*
X151900607Y-116378016D01*
X151787738Y-116104851D01*
X151359404Y-115675769D01*
X150799472Y-115443265D01*
X150193188Y-115442736D01*
X149632851Y-115674262D01*
X149225264Y-116081138D01*
X149225264Y-113363188D01*
X148993738Y-112802851D01*
X148565404Y-112373769D01*
X148005472Y-112141265D01*
X147399188Y-112140736D01*
X146838851Y-112372262D01*
X146409769Y-112800596D01*
X146177265Y-113360528D01*
X146176736Y-113966812D01*
X146408262Y-114527149D01*
X146836596Y-114956231D01*
X147396528Y-115188735D01*
X148002812Y-115189264D01*
X148563149Y-114957738D01*
X148992231Y-114529404D01*
X149224735Y-113969472D01*
X149225264Y-113363188D01*
X149225264Y-116081138D01*
X149203769Y-116102596D01*
X148971265Y-116662528D01*
X148970736Y-117268812D01*
X149202262Y-117829149D01*
X149630596Y-118258231D01*
X150190528Y-118490735D01*
X150796812Y-118491264D01*
X151357149Y-118259738D01*
X151786231Y-117831404D01*
X151900600Y-117555971D01*
X152121567Y-117954829D01*
X152588458Y-118326392D01*
X153162000Y-118491000D01*
X153240549Y-118491000D01*
X152680851Y-118722262D01*
X152251769Y-119150596D01*
X152019265Y-119710528D01*
X152018736Y-120316812D01*
X152250262Y-120877149D01*
X152678596Y-121306231D01*
X153238528Y-121538735D01*
X153241184Y-121538737D01*
X152680851Y-121770262D01*
X152251769Y-122198596D01*
X152019265Y-122758528D01*
X152019264Y-122759674D01*
X152019264Y-121999188D01*
X151787738Y-121438851D01*
X151359404Y-121009769D01*
X150799472Y-120777265D01*
X150193188Y-120776736D01*
X149632851Y-121008262D01*
X149203769Y-121436596D01*
X149098027Y-121691250D01*
X148993738Y-121438851D01*
X148565404Y-121009769D01*
X148320284Y-120907986D01*
X148320284Y-116389205D01*
X148071894Y-115788057D01*
X147612363Y-115327722D01*
X147011648Y-115078284D01*
X146361205Y-115077716D01*
X145760057Y-115326106D01*
X145299722Y-115785637D01*
X145050284Y-116386352D01*
X145049716Y-117036795D01*
X145298106Y-117637943D01*
X145360250Y-117700196D01*
X145325301Y-117714673D01*
X145146673Y-117893302D01*
X145050000Y-118126691D01*
X145050000Y-118967250D01*
X145208750Y-119126000D01*
X146558000Y-119126000D01*
X146558000Y-119106000D01*
X146812000Y-119106000D01*
X146812000Y-119126000D01*
X148161250Y-119126000D01*
X148320000Y-118967250D01*
X148320000Y-118126691D01*
X148223327Y-117893302D01*
X148044699Y-117714673D01*
X148010166Y-117700369D01*
X148070278Y-117640363D01*
X148319716Y-117039648D01*
X148320284Y-116389205D01*
X148320284Y-120907986D01*
X148042014Y-120792438D01*
X148044699Y-120791327D01*
X148223327Y-120612698D01*
X148320000Y-120379309D01*
X148320000Y-119538750D01*
X148161250Y-119380000D01*
X146812000Y-119380000D01*
X146812000Y-120729250D01*
X146970750Y-120888000D01*
X147129907Y-120888000D01*
X146838851Y-121008262D01*
X146558000Y-121288623D01*
X146558000Y-120729250D01*
X146558000Y-119380000D01*
X145208750Y-119380000D01*
X145050000Y-119538750D01*
X145050000Y-120379309D01*
X145146673Y-120612698D01*
X145325301Y-120791327D01*
X145558690Y-120888000D01*
X145811309Y-120888000D01*
X146399250Y-120888000D01*
X146558000Y-120729250D01*
X146558000Y-121288623D01*
X146409769Y-121436596D01*
X146177265Y-121996528D01*
X146176736Y-122602812D01*
X146408262Y-123163149D01*
X146836596Y-123592231D01*
X147396528Y-123824735D01*
X148002812Y-123825264D01*
X148563149Y-123593738D01*
X148992231Y-123165404D01*
X149097972Y-122910749D01*
X149202262Y-123163149D01*
X149630596Y-123592231D01*
X150190528Y-123824735D01*
X150796812Y-123825264D01*
X151357149Y-123593738D01*
X151786231Y-123165404D01*
X152018735Y-122605472D01*
X152019264Y-121999188D01*
X152019264Y-122759674D01*
X152018736Y-123364812D01*
X152250262Y-123925149D01*
X152678596Y-124354231D01*
X153238528Y-124586735D01*
X153844812Y-124587264D01*
X154405149Y-124355738D01*
X154834231Y-123927404D01*
X155066735Y-123367472D01*
X155067264Y-122761188D01*
X154835738Y-122200851D01*
X154407404Y-121771769D01*
X153847472Y-121539265D01*
X153844815Y-121539262D01*
X154405149Y-121307738D01*
X154834231Y-120879404D01*
X155066735Y-120319472D01*
X155067264Y-119713188D01*
X154835738Y-119152851D01*
X154407404Y-118723769D01*
X153847472Y-118491265D01*
X153544182Y-118491000D01*
X153670000Y-118491000D01*
X153670002Y-118491000D01*
X153924000Y-118491000D01*
X154497542Y-118326392D01*
X154964433Y-117954829D01*
X155253593Y-117432878D01*
X155277134Y-117330013D01*
X155156330Y-117094000D01*
X153670000Y-117094000D01*
X153670000Y-117114000D01*
X153416000Y-117114000D01*
X153416000Y-117094000D01*
X153396000Y-117094000D01*
X153396000Y-116840000D01*
X153416000Y-116840000D01*
X153416000Y-116820000D01*
X153670000Y-116820000D01*
X153670000Y-116840000D01*
X155156330Y-116840000D01*
X155277134Y-116603987D01*
X155253593Y-116501122D01*
X154964433Y-115979171D01*
X154615205Y-115701247D01*
X154909464Y-115504631D01*
X155239825Y-115010210D01*
X155355833Y-114427000D01*
X155239825Y-113843790D01*
X154909464Y-113349369D01*
X154621562Y-113157000D01*
X154909464Y-112964631D01*
X155239825Y-112470210D01*
X155355833Y-111887000D01*
X155239825Y-111303790D01*
X154920657Y-110826120D01*
X155045698Y-110774327D01*
X155224327Y-110595699D01*
X155321000Y-110362310D01*
X155321000Y-110109691D01*
X155321000Y-108331691D01*
X155224327Y-108098302D01*
X155045699Y-107919673D01*
X154812310Y-107823000D01*
X154559691Y-107823000D01*
X152273691Y-107823000D01*
X152040302Y-107919673D01*
X151861673Y-108098301D01*
X151765000Y-108331690D01*
X151765000Y-108462073D01*
X151359404Y-108055769D01*
X150799472Y-107823265D01*
X150193188Y-107822736D01*
X149632851Y-108054262D01*
X149225108Y-108461293D01*
X149225264Y-108283188D01*
X148993738Y-107722851D01*
X148565404Y-107293769D01*
X148005472Y-107061265D01*
X147399188Y-107060736D01*
X146838851Y-107292262D01*
X146409769Y-107720596D01*
X146292825Y-108002227D01*
X146379000Y-107569000D01*
X146228281Y-106811287D01*
X145851236Y-106247000D01*
X183078763Y-106247000D01*
X182701719Y-106811287D01*
X182551000Y-107569000D01*
X182701719Y-108326713D01*
X183130929Y-108969071D01*
X183530102Y-109235790D01*
X183445205Y-109235716D01*
X182844057Y-109484106D01*
X182561551Y-109766118D01*
X179526717Y-106731283D01*
X179258906Y-106552337D01*
X178943000Y-106489500D01*
X161671000Y-106489500D01*
X161355095Y-106552337D01*
X161087283Y-106731283D01*
X161087280Y-106731286D01*
X160579283Y-107239283D01*
X160400337Y-107507094D01*
X160337500Y-107823000D01*
X160337500Y-107929749D01*
X160290957Y-107939008D01*
X159796536Y-108269369D01*
X159466175Y-108763790D01*
X159350167Y-109347000D01*
X159466175Y-109930210D01*
X159796536Y-110424631D01*
X160084437Y-110617000D01*
X159796536Y-110809369D01*
X159587459Y-111122275D01*
X159587458Y-111122275D01*
X159577094Y-111124337D01*
X159309283Y-111303283D01*
X158293283Y-112319283D01*
X158114337Y-112587094D01*
X158051500Y-112903000D01*
X158051500Y-117475000D01*
X158051500Y-118491000D01*
X158051500Y-120777000D01*
X158114337Y-121092906D01*
X158293283Y-121360717D01*
X159654471Y-122721905D01*
X159639265Y-122758528D01*
X159638736Y-123364812D01*
X159802643Y-123761500D01*
X157861005Y-123761500D01*
X157861000Y-123761499D01*
X157545095Y-123824337D01*
X157277283Y-124003283D01*
X157277280Y-124003286D01*
X156515283Y-124765283D01*
X156336337Y-125033094D01*
X156273500Y-125349000D01*
X156273500Y-125699016D01*
X156174057Y-125740106D01*
X155828800Y-126084759D01*
X155486363Y-125741722D01*
X155277134Y-125654842D01*
X154885648Y-125492284D01*
X154235205Y-125491716D01*
X153634057Y-125740106D01*
X153173722Y-126199637D01*
X152924284Y-126800352D01*
X152923716Y-127450795D01*
X153172106Y-128051943D01*
X153631637Y-128512278D01*
X154232352Y-128761716D01*
X154882795Y-128762284D01*
X155483943Y-128513894D01*
X155829199Y-128169240D01*
X156171637Y-128512278D01*
X156772352Y-128761716D01*
X157422795Y-128762284D01*
X158023943Y-128513894D01*
X158086196Y-128451749D01*
X158100673Y-128486698D01*
X158279301Y-128665327D01*
X158512690Y-128762000D01*
X158765309Y-128762000D01*
X160765309Y-128762000D01*
X160998698Y-128665327D01*
X161177327Y-128486699D01*
X161274000Y-128253310D01*
X161274000Y-128000691D01*
X161274000Y-126000691D01*
X161177327Y-125767302D01*
X160998699Y-125588673D01*
X160765310Y-125492000D01*
X160512691Y-125492000D01*
X158512691Y-125492000D01*
X158279302Y-125588673D01*
X158100673Y-125767301D01*
X158086369Y-125801833D01*
X158026363Y-125741722D01*
X157924500Y-125699424D01*
X157924500Y-125690933D01*
X158202933Y-125412500D01*
X162687000Y-125412500D01*
X163002905Y-125349663D01*
X163002906Y-125349663D01*
X163270717Y-125170717D01*
X163869905Y-124571528D01*
X163906528Y-124586735D01*
X164512812Y-124587264D01*
X165073149Y-124355738D01*
X165502231Y-123927404D01*
X165734735Y-123367472D01*
X165735264Y-122761188D01*
X165571356Y-122364500D01*
X167930879Y-122364500D01*
X167767265Y-122758528D01*
X167766736Y-123364812D01*
X167998262Y-123925149D01*
X168426596Y-124354231D01*
X168986528Y-124586735D01*
X169592812Y-124587264D01*
X170153149Y-124355738D01*
X170582231Y-123927404D01*
X170814735Y-123367472D01*
X170815264Y-122761188D01*
X170651356Y-122364500D01*
X172651409Y-122364500D01*
X172593265Y-122504528D01*
X172592736Y-123110812D01*
X172824262Y-123671149D01*
X173252596Y-124100231D01*
X173812528Y-124332735D01*
X174418812Y-124333264D01*
X174979149Y-124101738D01*
X175387335Y-123694262D01*
X175792596Y-124100231D01*
X176352528Y-124332735D01*
X176958812Y-124333264D01*
X177519149Y-124101738D01*
X177948231Y-123673404D01*
X178180735Y-123113472D01*
X178181264Y-122507188D01*
X177964046Y-121981479D01*
X179133500Y-123150933D01*
X179133500Y-125349000D01*
X178943691Y-125349000D01*
X178710302Y-125445673D01*
X178531673Y-125624301D01*
X178482641Y-125742673D01*
X178426180Y-125686212D01*
X178311590Y-125800801D01*
X178226533Y-125545461D01*
X177657035Y-125337484D01*
X177051300Y-125363277D01*
X176611467Y-125545461D01*
X176526409Y-125800804D01*
X177419000Y-126693395D01*
X177433142Y-126679252D01*
X177612747Y-126858857D01*
X177598605Y-126873000D01*
X177612747Y-126887142D01*
X177433142Y-127066747D01*
X177419000Y-127052605D01*
X177239395Y-127232210D01*
X177239395Y-126873000D01*
X176346804Y-125980409D01*
X176149000Y-126046300D01*
X176149000Y-125857691D01*
X176052327Y-125624302D01*
X175873699Y-125445673D01*
X175640310Y-125349000D01*
X175387691Y-125349000D01*
X173609691Y-125349000D01*
X173376302Y-125445673D01*
X173197673Y-125624301D01*
X173148641Y-125742673D01*
X173092180Y-125686212D01*
X172977590Y-125800801D01*
X172892533Y-125545461D01*
X172323035Y-125337484D01*
X171717300Y-125363277D01*
X171277467Y-125545461D01*
X171192409Y-125800804D01*
X172085000Y-126693395D01*
X172099142Y-126679252D01*
X172278747Y-126858857D01*
X172264605Y-126873000D01*
X172278747Y-126887142D01*
X172099142Y-127066747D01*
X172085000Y-127052605D01*
X171905395Y-127232210D01*
X171905395Y-126873000D01*
X171012804Y-125980409D01*
X170757461Y-126065467D01*
X170549484Y-126634965D01*
X170575277Y-127240700D01*
X170757461Y-127680533D01*
X171012804Y-127765591D01*
X171905395Y-126873000D01*
X171905395Y-127232210D01*
X171192409Y-127945196D01*
X171277467Y-128200539D01*
X171846965Y-128408516D01*
X172452700Y-128382723D01*
X172892533Y-128200539D01*
X172977590Y-127945198D01*
X172977591Y-127945199D01*
X173092180Y-128059788D01*
X173148641Y-128003326D01*
X173197673Y-128121698D01*
X173376301Y-128300327D01*
X173609690Y-128397000D01*
X173862309Y-128397000D01*
X175640309Y-128397000D01*
X175873698Y-128300327D01*
X176052327Y-128121699D01*
X176149000Y-127888310D01*
X176149000Y-127699699D01*
X176346804Y-127765591D01*
X177239395Y-126873000D01*
X177239395Y-127232210D01*
X176526409Y-127945196D01*
X176611467Y-128200539D01*
X177180965Y-128408516D01*
X177786700Y-128382723D01*
X178226533Y-128200539D01*
X178311590Y-127945198D01*
X178311591Y-127945199D01*
X178426180Y-128059788D01*
X178482641Y-128003326D01*
X178531673Y-128121698D01*
X178710301Y-128300327D01*
X178943690Y-128397000D01*
X179196309Y-128397000D01*
X180974309Y-128397000D01*
X181207698Y-128300327D01*
X181386327Y-128121699D01*
X181483000Y-127888310D01*
X181483000Y-127635691D01*
X181483000Y-125857691D01*
X181386327Y-125624302D01*
X181207699Y-125445673D01*
X180974310Y-125349000D01*
X180784500Y-125349000D01*
X180784500Y-122809005D01*
X180784500Y-122809000D01*
X180784501Y-122809000D01*
X180721663Y-122493095D01*
X180721264Y-122492497D01*
X180721264Y-118189188D01*
X180489738Y-117628851D01*
X180061404Y-117199769D01*
X179501472Y-116967265D01*
X178895188Y-116966736D01*
X178334851Y-117198262D01*
X178192516Y-117340348D01*
X178192516Y-115427035D01*
X178166723Y-114821300D01*
X177984539Y-114381467D01*
X177729196Y-114296409D01*
X177549591Y-114476014D01*
X177549591Y-114116804D01*
X177464533Y-113861461D01*
X176922516Y-113663519D01*
X176922516Y-109585035D01*
X176896723Y-108979300D01*
X176714539Y-108539467D01*
X176459196Y-108454409D01*
X175566605Y-109347000D01*
X175580747Y-109361142D01*
X175401142Y-109540747D01*
X175387000Y-109526605D01*
X175372857Y-109540747D01*
X175207395Y-109375285D01*
X175193252Y-109361142D01*
X175207395Y-109347000D01*
X174314804Y-108454409D01*
X174059461Y-108539467D01*
X173851484Y-109108965D01*
X173877277Y-109714700D01*
X174059461Y-110154533D01*
X174314801Y-110239590D01*
X174200212Y-110354180D01*
X174256673Y-110410641D01*
X174138302Y-110459673D01*
X173959673Y-110638301D01*
X173863000Y-110871690D01*
X173863000Y-111124309D01*
X173863000Y-112902309D01*
X173959673Y-113135698D01*
X174138301Y-113314327D01*
X174371690Y-113411000D01*
X174624309Y-113411000D01*
X176402309Y-113411000D01*
X176635698Y-113314327D01*
X176814327Y-113135699D01*
X176911000Y-112902310D01*
X176911000Y-112649691D01*
X176911000Y-110871691D01*
X176814327Y-110638302D01*
X176635699Y-110459673D01*
X176517326Y-110410641D01*
X176573788Y-110354180D01*
X176459198Y-110239590D01*
X176714539Y-110154533D01*
X176922516Y-109585035D01*
X176922516Y-113663519D01*
X176911000Y-113659314D01*
X176895035Y-113653484D01*
X176289300Y-113679277D01*
X175849467Y-113861461D01*
X175764409Y-114116804D01*
X176657000Y-115009395D01*
X177549591Y-114116804D01*
X177549591Y-114476014D01*
X176836605Y-115189000D01*
X177729196Y-116081591D01*
X177984539Y-115996533D01*
X178192516Y-115427035D01*
X178192516Y-117340348D01*
X177905769Y-117626596D01*
X177673265Y-118186528D01*
X177672736Y-118792812D01*
X177904262Y-119353149D01*
X178332596Y-119782231D01*
X178892528Y-120014735D01*
X179498812Y-120015264D01*
X180059149Y-119783738D01*
X180488231Y-119355404D01*
X180720735Y-118795472D01*
X180721264Y-118189188D01*
X180721264Y-122492497D01*
X180542717Y-122225284D01*
X180542717Y-122225283D01*
X180542713Y-122225280D01*
X177549591Y-119232157D01*
X177549591Y-116261196D01*
X176657000Y-115368605D01*
X175764409Y-116261196D01*
X175849467Y-116516539D01*
X176418965Y-116724516D01*
X177024700Y-116698723D01*
X177464533Y-116516539D01*
X177549591Y-116261196D01*
X177549591Y-119232157D01*
X174942500Y-116625066D01*
X174942500Y-116496881D01*
X174979149Y-116481738D01*
X175408231Y-116053404D01*
X175419404Y-116026494D01*
X175584804Y-116081591D01*
X176477395Y-115189000D01*
X175584804Y-114296409D01*
X175419862Y-114351353D01*
X175409738Y-114326851D01*
X174981404Y-113897769D01*
X174421472Y-113665265D01*
X173815188Y-113664736D01*
X173254851Y-113896262D01*
X173079146Y-114071659D01*
X172869738Y-113564851D01*
X172462262Y-113156664D01*
X172868231Y-112751404D01*
X173100735Y-112191472D01*
X173101264Y-111585188D01*
X172869738Y-111024851D01*
X172441404Y-110595769D01*
X171881472Y-110363265D01*
X171334516Y-110362787D01*
X171334516Y-109585035D01*
X171308723Y-108979300D01*
X171126539Y-108539467D01*
X170871196Y-108454409D01*
X169978605Y-109347000D01*
X170871196Y-110239591D01*
X171126539Y-110154533D01*
X171334516Y-109585035D01*
X171334516Y-110362787D01*
X171275188Y-110362736D01*
X170714851Y-110594262D01*
X170691591Y-110617481D01*
X170691591Y-110419196D01*
X169799000Y-109526605D01*
X169619395Y-109706210D01*
X169619395Y-109347000D01*
X168726804Y-108454409D01*
X168471461Y-108539467D01*
X168263484Y-109108965D01*
X168289277Y-109714700D01*
X168471461Y-110154533D01*
X168726804Y-110239591D01*
X169619395Y-109347000D01*
X169619395Y-109706210D01*
X168906409Y-110419196D01*
X168991467Y-110674539D01*
X169560965Y-110882516D01*
X170166700Y-110856723D01*
X170606533Y-110674539D01*
X170691591Y-110419196D01*
X170691591Y-110617481D01*
X170285769Y-111022596D01*
X170053265Y-111582528D01*
X170052736Y-112188812D01*
X170284262Y-112749149D01*
X170691737Y-113157335D01*
X170285769Y-113562596D01*
X170053265Y-114122528D01*
X170052736Y-114728812D01*
X170284262Y-115289149D01*
X170691737Y-115697335D01*
X170285769Y-116102596D01*
X170053265Y-116662528D01*
X170052736Y-117268812D01*
X170284262Y-117829149D01*
X170712596Y-118258231D01*
X171272528Y-118490735D01*
X171878812Y-118491264D01*
X172439149Y-118259738D01*
X172868231Y-117831404D01*
X173100735Y-117271472D01*
X173101264Y-116665188D01*
X172869738Y-116104851D01*
X172462262Y-115696664D01*
X172614853Y-115544340D01*
X172824262Y-116051149D01*
X173252596Y-116480231D01*
X173291500Y-116496385D01*
X173291500Y-116967000D01*
X173354337Y-117282906D01*
X173533283Y-117550717D01*
X177485375Y-121502808D01*
X176961472Y-121285265D01*
X176355188Y-121284736D01*
X175794851Y-121516262D01*
X175386664Y-121923737D01*
X174981404Y-121517769D01*
X174934394Y-121498248D01*
X174879663Y-121223095D01*
X174700717Y-120955283D01*
X174432905Y-120776337D01*
X174117000Y-120713500D01*
X170651120Y-120713500D01*
X170814735Y-120319472D01*
X170815264Y-119713188D01*
X170583738Y-119152851D01*
X170155404Y-118723769D01*
X169595472Y-118491265D01*
X168989188Y-118490736D01*
X168428851Y-118722262D01*
X168416262Y-118734828D01*
X167652216Y-117970782D01*
X167384405Y-117791836D01*
X167068499Y-117728999D01*
X165290753Y-117728999D01*
X165480735Y-117271472D01*
X165481264Y-116665188D01*
X165249738Y-116104851D01*
X164842262Y-115696664D01*
X165248231Y-115291404D01*
X165480735Y-114731472D01*
X165481264Y-114125188D01*
X165249738Y-113564851D01*
X164842262Y-113156664D01*
X165248231Y-112751404D01*
X165480735Y-112191472D01*
X165481264Y-111585188D01*
X165249738Y-111024851D01*
X165074340Y-110849146D01*
X165581149Y-110639738D01*
X166010231Y-110211404D01*
X166242735Y-109651472D01*
X166243264Y-109045188D01*
X166011738Y-108484851D01*
X165667987Y-108140500D01*
X168951147Y-108140500D01*
X168906409Y-108274804D01*
X169799000Y-109167395D01*
X170691591Y-108274804D01*
X170646852Y-108140500D01*
X174539147Y-108140500D01*
X174494409Y-108274804D01*
X175387000Y-109167395D01*
X176279591Y-108274804D01*
X176234852Y-108140500D01*
X178601066Y-108140500D01*
X180025374Y-109564808D01*
X179501472Y-109347265D01*
X178895188Y-109346736D01*
X178334851Y-109578262D01*
X177905769Y-110006596D01*
X177673265Y-110566528D01*
X177672736Y-111172812D01*
X177904262Y-111733149D01*
X178332596Y-112162231D01*
X178892528Y-112394735D01*
X179498812Y-112395264D01*
X180059149Y-112163738D01*
X180488231Y-111735404D01*
X180720735Y-111175472D01*
X180721264Y-110569188D01*
X180504046Y-110043479D01*
X181915280Y-111454713D01*
X181915283Y-111454717D01*
X182183094Y-111633662D01*
X182183095Y-111633663D01*
X182326869Y-111662261D01*
X182382106Y-111795943D01*
X182444250Y-111858196D01*
X182409301Y-111872673D01*
X182230673Y-112051302D01*
X182134000Y-112284691D01*
X182134000Y-113125250D01*
X182292750Y-113284000D01*
X183642000Y-113284000D01*
X183642000Y-113264000D01*
X183896000Y-113264000D01*
X183896000Y-113284000D01*
X185245250Y-113284000D01*
X185404000Y-113125250D01*
X185404000Y-112284691D01*
X185307327Y-112051302D01*
X185128699Y-111872673D01*
X185094166Y-111858369D01*
X185154278Y-111798363D01*
X185403716Y-111197648D01*
X185404284Y-110547205D01*
X185155894Y-109946057D01*
X184721669Y-109511073D01*
X185288713Y-109398281D01*
X185853000Y-109021236D01*
X185853000Y-116416839D01*
X185404000Y-116230398D01*
X185404000Y-114537309D01*
X185404000Y-113696750D01*
X185245250Y-113538000D01*
X183896000Y-113538000D01*
X183896000Y-114887250D01*
X184054750Y-115046000D01*
X184642691Y-115046000D01*
X184895310Y-115046000D01*
X185128699Y-114949327D01*
X185307327Y-114770698D01*
X185404000Y-114537309D01*
X185404000Y-116230398D01*
X185343472Y-116205265D01*
X184737188Y-116204736D01*
X184176851Y-116436262D01*
X183986707Y-116626073D01*
X183926327Y-116480302D01*
X183747699Y-116301673D01*
X183642000Y-116257890D01*
X183642000Y-114887250D01*
X183642000Y-113538000D01*
X182292750Y-113538000D01*
X182134000Y-113696750D01*
X182134000Y-114537309D01*
X182230673Y-114770698D01*
X182409301Y-114949327D01*
X182642690Y-115046000D01*
X182895309Y-115046000D01*
X183483250Y-115046000D01*
X183642000Y-114887250D01*
X183642000Y-116257890D01*
X183514310Y-116205000D01*
X183261691Y-116205000D01*
X181483691Y-116205000D01*
X181250302Y-116301673D01*
X181071673Y-116480301D01*
X180975000Y-116713690D01*
X180975000Y-116966309D01*
X180975000Y-118744309D01*
X181071673Y-118977698D01*
X181250301Y-119156327D01*
X181483690Y-119253000D01*
X181736309Y-119253000D01*
X183514309Y-119253000D01*
X183747698Y-119156327D01*
X183926327Y-118977699D01*
X183986682Y-118831988D01*
X184174596Y-119020231D01*
X184734528Y-119252735D01*
X185340812Y-119253264D01*
X185853000Y-119041632D01*
X185853000Y-127198763D01*
M02*
