%FSLAX46Y46*%
G04 Gerber Fmt 4.6, Leading zero omitted, Abs format (unit mm)*
G04 Created by KiCad (PCBNEW (2014-10-18 BZR 5203)-product) date 09/12/2014 12:15:24*
%MOMM*%
G01*
G04 APERTURE LIST*
%ADD10C,0.150000*%
%ADD11C,0.247650*%
%ADD12C,0.250000*%
%ADD13C,2.178000*%
%ADD14R,2.178000X2.178000*%
%ADD15R,2.400000X2.400000*%
%ADD16C,2.400000*%
%ADD17R,2.686000X2.178000*%
%ADD18O,2.686000X2.178000*%
G04 APERTURE END LIST*
D10*
D11*
X177096055Y-106846714D02*
X176907369Y-107513381D01*
X176718683Y-107037190D01*
X176529998Y-107513381D01*
X176341312Y-106846714D01*
X176058284Y-106846714D02*
X175869598Y-107513381D01*
X175680912Y-107037190D01*
X175492227Y-107513381D01*
X175303541Y-106846714D01*
X175020513Y-106846714D02*
X174831827Y-107513381D01*
X174643141Y-107037190D01*
X174454456Y-107513381D01*
X174265770Y-106846714D01*
X173888399Y-107418143D02*
X173841227Y-107465762D01*
X173888399Y-107513381D01*
X173935570Y-107465762D01*
X173888399Y-107418143D01*
X173888399Y-107513381D01*
X172992142Y-107513381D02*
X172992142Y-106513381D01*
X172992142Y-107465762D02*
X173086485Y-107513381D01*
X173275171Y-107513381D01*
X173369513Y-107465762D01*
X173416685Y-107418143D01*
X173463856Y-107322905D01*
X173463856Y-107037190D01*
X173416685Y-106941952D01*
X173369513Y-106894333D01*
X173275171Y-106846714D01*
X173086485Y-106846714D01*
X172992142Y-106894333D01*
X172378914Y-107513381D02*
X172473256Y-107465762D01*
X172520428Y-107418143D01*
X172567599Y-107322905D01*
X172567599Y-107037190D01*
X172520428Y-106941952D01*
X172473256Y-106894333D01*
X172378914Y-106846714D01*
X172237399Y-106846714D01*
X172143056Y-106894333D01*
X172095885Y-106941952D01*
X172048714Y-107037190D01*
X172048714Y-107322905D01*
X172095885Y-107418143D01*
X172143056Y-107465762D01*
X172237399Y-107513381D01*
X172378914Y-107513381D01*
X171482657Y-107513381D02*
X171576999Y-107465762D01*
X171624171Y-107370524D01*
X171624171Y-106513381D01*
X170680742Y-106846714D02*
X170680742Y-107656238D01*
X170727913Y-107751476D01*
X170775085Y-107799095D01*
X170869428Y-107846714D01*
X171010942Y-107846714D01*
X171105285Y-107799095D01*
X170680742Y-107465762D02*
X170775085Y-107513381D01*
X170963771Y-107513381D01*
X171058113Y-107465762D01*
X171105285Y-107418143D01*
X171152456Y-107322905D01*
X171152456Y-107037190D01*
X171105285Y-106941952D01*
X171058113Y-106894333D01*
X170963771Y-106846714D01*
X170775085Y-106846714D01*
X170680742Y-106894333D01*
X169784485Y-107513381D02*
X169784485Y-106989571D01*
X169831656Y-106894333D01*
X169925999Y-106846714D01*
X170114685Y-106846714D01*
X170209028Y-106894333D01*
X169784485Y-107465762D02*
X169878828Y-107513381D01*
X170114685Y-107513381D01*
X170209028Y-107465762D01*
X170256199Y-107370524D01*
X170256199Y-107275286D01*
X170209028Y-107180048D01*
X170114685Y-107132429D01*
X169878828Y-107132429D01*
X169784485Y-107084810D01*
X169312771Y-106846714D02*
X169312771Y-107513381D01*
X169312771Y-106941952D02*
X169265599Y-106894333D01*
X169171257Y-106846714D01*
X169029742Y-106846714D01*
X168935399Y-106894333D01*
X168888228Y-106989571D01*
X168888228Y-107513381D01*
X168275000Y-107513381D02*
X168369342Y-107465762D01*
X168416514Y-107418143D01*
X168463685Y-107322905D01*
X168463685Y-107037190D01*
X168416514Y-106941952D01*
X168369342Y-106894333D01*
X168275000Y-106846714D01*
X168133485Y-106846714D01*
X168039142Y-106894333D01*
X167991971Y-106941952D01*
X167944800Y-107037190D01*
X167944800Y-107322905D01*
X167991971Y-107418143D01*
X168039142Y-107465762D01*
X168133485Y-107513381D01*
X168275000Y-107513381D01*
X167661771Y-106846714D02*
X167284400Y-106846714D01*
X167520257Y-107513381D02*
X167520257Y-106656238D01*
X167473085Y-106561000D01*
X167378743Y-106513381D01*
X167284400Y-106513381D01*
X167095714Y-106846714D02*
X166718343Y-106846714D01*
X166954200Y-107513381D02*
X166954200Y-106656238D01*
X166907028Y-106561000D01*
X166812686Y-106513381D01*
X166718343Y-106513381D01*
X166388143Y-107418143D02*
X166340971Y-107465762D01*
X166388143Y-107513381D01*
X166435314Y-107465762D01*
X166388143Y-107418143D01*
X166388143Y-107513381D01*
X165491886Y-107465762D02*
X165586229Y-107513381D01*
X165774915Y-107513381D01*
X165869257Y-107465762D01*
X165916429Y-107418143D01*
X165963600Y-107322905D01*
X165963600Y-107037190D01*
X165916429Y-106941952D01*
X165869257Y-106894333D01*
X165774915Y-106846714D01*
X165586229Y-106846714D01*
X165491886Y-106894333D01*
X164925829Y-107513381D02*
X165020171Y-107465762D01*
X165067343Y-107418143D01*
X165114514Y-107322905D01*
X165114514Y-107037190D01*
X165067343Y-106941952D01*
X165020171Y-106894333D01*
X164925829Y-106846714D01*
X164784314Y-106846714D01*
X164689971Y-106894333D01*
X164642800Y-106941952D01*
X164595629Y-107037190D01*
X164595629Y-107322905D01*
X164642800Y-107418143D01*
X164689971Y-107465762D01*
X164784314Y-107513381D01*
X164925829Y-107513381D01*
X164171086Y-107513381D02*
X164171086Y-106846714D01*
X164171086Y-106941952D02*
X164123914Y-106894333D01*
X164029572Y-106846714D01*
X163888057Y-106846714D01*
X163793714Y-106894333D01*
X163746543Y-106989571D01*
X163746543Y-107513381D01*
X163746543Y-106989571D02*
X163699372Y-106894333D01*
X163605029Y-106846714D01*
X163463514Y-106846714D01*
X163369172Y-106894333D01*
X163322000Y-106989571D01*
X163322000Y-107513381D01*
X162142714Y-106465762D02*
X162991800Y-107751476D01*
X161954029Y-106846714D02*
X161576658Y-106846714D01*
X161812515Y-107513381D02*
X161812515Y-106656238D01*
X161765343Y-106561000D01*
X161671001Y-106513381D01*
X161576658Y-106513381D01*
X161246458Y-107513381D02*
X161246458Y-106846714D01*
X161246458Y-107037190D02*
X161199286Y-106941952D01*
X161152115Y-106894333D01*
X161057772Y-106846714D01*
X160963429Y-106846714D01*
X159925657Y-106465762D02*
X160774743Y-107751476D01*
X159170915Y-107513381D02*
X159170915Y-106989571D01*
X159218086Y-106894333D01*
X159312429Y-106846714D01*
X159501115Y-106846714D01*
X159595458Y-106894333D01*
X159170915Y-107465762D02*
X159265258Y-107513381D01*
X159501115Y-107513381D01*
X159595458Y-107465762D01*
X159642629Y-107370524D01*
X159642629Y-107275286D01*
X159595458Y-107180048D01*
X159501115Y-107132429D01*
X159265258Y-107132429D01*
X159170915Y-107084810D01*
X158699201Y-107132429D02*
X157944458Y-107132429D01*
X157472744Y-106846714D02*
X157472744Y-107846714D01*
X157472744Y-106894333D02*
X157378401Y-106846714D01*
X157189715Y-106846714D01*
X157095372Y-106894333D01*
X157048201Y-106941952D01*
X157001030Y-107037190D01*
X157001030Y-107322905D01*
X157048201Y-107418143D01*
X157095372Y-107465762D01*
X157189715Y-107513381D01*
X157378401Y-107513381D01*
X157472744Y-107465762D01*
X156576487Y-107513381D02*
X156576487Y-106846714D01*
X156576487Y-107037190D02*
X156529315Y-106941952D01*
X156482144Y-106894333D01*
X156387801Y-106846714D01*
X156293458Y-106846714D01*
X155821744Y-107513381D02*
X155916086Y-107465762D01*
X155963258Y-107418143D01*
X156010429Y-107322905D01*
X156010429Y-107037190D01*
X155963258Y-106941952D01*
X155916086Y-106894333D01*
X155821744Y-106846714D01*
X155680229Y-106846714D01*
X155585886Y-106894333D01*
X155538715Y-106941952D01*
X155491544Y-107037190D01*
X155491544Y-107322905D01*
X155538715Y-107418143D01*
X155585886Y-107465762D01*
X155680229Y-107513381D01*
X155821744Y-107513381D01*
X155067001Y-106846714D02*
X155067001Y-107846714D01*
X155067001Y-106894333D02*
X154972658Y-106846714D01*
X154783972Y-106846714D01*
X154689629Y-106894333D01*
X154642458Y-106941952D01*
X154595287Y-107037190D01*
X154595287Y-107322905D01*
X154642458Y-107418143D01*
X154689629Y-107465762D01*
X154783972Y-107513381D01*
X154972658Y-107513381D01*
X155067001Y-107465762D01*
X154029230Y-107513381D02*
X154123572Y-107465762D01*
X154170744Y-107418143D01*
X154217915Y-107322905D01*
X154217915Y-107037190D01*
X154170744Y-106941952D01*
X154123572Y-106894333D01*
X154029230Y-106846714D01*
X153887715Y-106846714D01*
X153793372Y-106894333D01*
X153746201Y-106941952D01*
X153699030Y-107037190D01*
X153699030Y-107322905D01*
X153746201Y-107418143D01*
X153793372Y-107465762D01*
X153887715Y-107513381D01*
X154029230Y-107513381D01*
X153321658Y-107465762D02*
X153227315Y-107513381D01*
X153038630Y-107513381D01*
X152944287Y-107465762D01*
X152897115Y-107370524D01*
X152897115Y-107322905D01*
X152944287Y-107227667D01*
X153038630Y-107180048D01*
X153180144Y-107180048D01*
X153274487Y-107132429D01*
X153321658Y-107037190D01*
X153321658Y-106989571D01*
X153274487Y-106894333D01*
X153180144Y-106846714D01*
X153038630Y-106846714D01*
X152944287Y-106894333D01*
D12*
X156805381Y-111451094D02*
X156805381Y-111641571D01*
X156853000Y-111736809D01*
X156948238Y-111832047D01*
X157138714Y-111879666D01*
X157472048Y-111879666D01*
X157662524Y-111832047D01*
X157757762Y-111736809D01*
X157805381Y-111641571D01*
X157805381Y-111451094D01*
X157757762Y-111355856D01*
X157662524Y-111260618D01*
X157472048Y-111212999D01*
X157138714Y-111212999D01*
X156948238Y-111260618D01*
X156853000Y-111355856D01*
X156805381Y-111451094D01*
X157138714Y-112308237D02*
X158138714Y-112308237D01*
X157186333Y-112308237D02*
X157138714Y-112403475D01*
X157138714Y-112593952D01*
X157186333Y-112689190D01*
X157233952Y-112736809D01*
X157329190Y-112784428D01*
X157614905Y-112784428D01*
X157710143Y-112736809D01*
X157757762Y-112689190D01*
X157805381Y-112593952D01*
X157805381Y-112403475D01*
X157757762Y-112308237D01*
X157757762Y-113593952D02*
X157805381Y-113498714D01*
X157805381Y-113308237D01*
X157757762Y-113212999D01*
X157662524Y-113165380D01*
X157281571Y-113165380D01*
X157186333Y-113212999D01*
X157138714Y-113308237D01*
X157138714Y-113498714D01*
X157186333Y-113593952D01*
X157281571Y-113641571D01*
X157376810Y-113641571D01*
X157472048Y-113165380D01*
X157138714Y-114070142D02*
X157805381Y-114070142D01*
X157233952Y-114070142D02*
X157186333Y-114117761D01*
X157138714Y-114212999D01*
X157138714Y-114355857D01*
X157186333Y-114451095D01*
X157281571Y-114498714D01*
X157805381Y-114498714D01*
X157805381Y-115736809D02*
X156805381Y-115736809D01*
X157281571Y-115736809D02*
X157281571Y-116308238D01*
X157805381Y-116308238D02*
X156805381Y-116308238D01*
X157805381Y-117213000D02*
X157281571Y-117213000D01*
X157186333Y-117165381D01*
X157138714Y-117070143D01*
X157138714Y-116879666D01*
X157186333Y-116784428D01*
X157757762Y-117213000D02*
X157805381Y-117117762D01*
X157805381Y-116879666D01*
X157757762Y-116784428D01*
X157662524Y-116736809D01*
X157567286Y-116736809D01*
X157472048Y-116784428D01*
X157424429Y-116879666D01*
X157424429Y-117117762D01*
X157376810Y-117213000D01*
X157805381Y-117689190D02*
X157138714Y-117689190D01*
X157329190Y-117689190D02*
X157233952Y-117736809D01*
X157186333Y-117784428D01*
X157138714Y-117879666D01*
X157138714Y-117974905D01*
X157805381Y-118736810D02*
X156805381Y-118736810D01*
X157757762Y-118736810D02*
X157805381Y-118641572D01*
X157805381Y-118451095D01*
X157757762Y-118355857D01*
X157710143Y-118308238D01*
X157614905Y-118260619D01*
X157329190Y-118260619D01*
X157233952Y-118308238D01*
X157186333Y-118355857D01*
X157138714Y-118451095D01*
X157138714Y-118641572D01*
X157186333Y-118736810D01*
X157138714Y-119117762D02*
X157805381Y-119308238D01*
X157329190Y-119498715D01*
X157805381Y-119689191D01*
X157138714Y-119879667D01*
X157805381Y-120689191D02*
X157281571Y-120689191D01*
X157186333Y-120641572D01*
X157138714Y-120546334D01*
X157138714Y-120355857D01*
X157186333Y-120260619D01*
X157757762Y-120689191D02*
X157805381Y-120593953D01*
X157805381Y-120355857D01*
X157757762Y-120260619D01*
X157662524Y-120213000D01*
X157567286Y-120213000D01*
X157472048Y-120260619D01*
X157424429Y-120355857D01*
X157424429Y-120593953D01*
X157376810Y-120689191D01*
X157805381Y-121165381D02*
X157138714Y-121165381D01*
X157329190Y-121165381D02*
X157233952Y-121213000D01*
X157186333Y-121260619D01*
X157138714Y-121355857D01*
X157138714Y-121451096D01*
X157757762Y-122165382D02*
X157805381Y-122070144D01*
X157805381Y-121879667D01*
X157757762Y-121784429D01*
X157662524Y-121736810D01*
X157281571Y-121736810D01*
X157186333Y-121784429D01*
X157138714Y-121879667D01*
X157138714Y-122070144D01*
X157186333Y-122165382D01*
X157281571Y-122213001D01*
X157376810Y-122213001D01*
X157472048Y-121736810D01*
X173345667Y-129865381D02*
X173821858Y-129865381D01*
X173821858Y-128865381D01*
X173012334Y-129865381D02*
X173012334Y-129198714D01*
X173012334Y-128865381D02*
X173059953Y-128913000D01*
X173012334Y-128960619D01*
X172964715Y-128913000D01*
X173012334Y-128865381D01*
X173012334Y-128960619D01*
X172107572Y-129817762D02*
X172202810Y-129865381D01*
X172393287Y-129865381D01*
X172488525Y-129817762D01*
X172536144Y-129770143D01*
X172583763Y-129674905D01*
X172583763Y-129389190D01*
X172536144Y-129293952D01*
X172488525Y-129246333D01*
X172393287Y-129198714D01*
X172202810Y-129198714D01*
X172107572Y-129246333D01*
X171298048Y-129817762D02*
X171393286Y-129865381D01*
X171583763Y-129865381D01*
X171679001Y-129817762D01*
X171726620Y-129722524D01*
X171726620Y-129341571D01*
X171679001Y-129246333D01*
X171583763Y-129198714D01*
X171393286Y-129198714D01*
X171298048Y-129246333D01*
X171250429Y-129341571D01*
X171250429Y-129436810D01*
X171726620Y-129532048D01*
X170821858Y-129198714D02*
X170821858Y-129865381D01*
X170821858Y-129293952D02*
X170774239Y-129246333D01*
X170679001Y-129198714D01*
X170536143Y-129198714D01*
X170440905Y-129246333D01*
X170393286Y-129341571D01*
X170393286Y-129865381D01*
X169488524Y-129817762D02*
X169583762Y-129865381D01*
X169774239Y-129865381D01*
X169869477Y-129817762D01*
X169917096Y-129770143D01*
X169964715Y-129674905D01*
X169964715Y-129389190D01*
X169917096Y-129293952D01*
X169869477Y-129246333D01*
X169774239Y-129198714D01*
X169583762Y-129198714D01*
X169488524Y-129246333D01*
X168679000Y-129817762D02*
X168774238Y-129865381D01*
X168964715Y-129865381D01*
X169059953Y-129817762D01*
X169107572Y-129722524D01*
X169107572Y-129341571D01*
X169059953Y-129246333D01*
X168964715Y-129198714D01*
X168774238Y-129198714D01*
X168679000Y-129246333D01*
X168631381Y-129341571D01*
X168631381Y-129436810D01*
X169107572Y-129532048D01*
X167774238Y-129865381D02*
X167774238Y-128865381D01*
X167774238Y-129817762D02*
X167869476Y-129865381D01*
X168059953Y-129865381D01*
X168155191Y-129817762D01*
X168202810Y-129770143D01*
X168250429Y-129674905D01*
X168250429Y-129389190D01*
X168202810Y-129293952D01*
X168155191Y-129246333D01*
X168059953Y-129198714D01*
X167869476Y-129198714D01*
X167774238Y-129246333D01*
X166107571Y-129198714D02*
X166107571Y-129865381D01*
X166536143Y-129198714D02*
X166536143Y-129722524D01*
X166488524Y-129817762D01*
X166393286Y-129865381D01*
X166250428Y-129865381D01*
X166155190Y-129817762D01*
X166107571Y-129770143D01*
X165631381Y-129198714D02*
X165631381Y-129865381D01*
X165631381Y-129293952D02*
X165583762Y-129246333D01*
X165488524Y-129198714D01*
X165345666Y-129198714D01*
X165250428Y-129246333D01*
X165202809Y-129341571D01*
X165202809Y-129865381D01*
X164298047Y-129865381D02*
X164298047Y-128865381D01*
X164298047Y-129817762D02*
X164393285Y-129865381D01*
X164583762Y-129865381D01*
X164679000Y-129817762D01*
X164726619Y-129770143D01*
X164774238Y-129674905D01*
X164774238Y-129389190D01*
X164726619Y-129293952D01*
X164679000Y-129246333D01*
X164583762Y-129198714D01*
X164393285Y-129198714D01*
X164298047Y-129246333D01*
X163440904Y-129817762D02*
X163536142Y-129865381D01*
X163726619Y-129865381D01*
X163821857Y-129817762D01*
X163869476Y-129722524D01*
X163869476Y-129341571D01*
X163821857Y-129246333D01*
X163726619Y-129198714D01*
X163536142Y-129198714D01*
X163440904Y-129246333D01*
X163393285Y-129341571D01*
X163393285Y-129436810D01*
X163869476Y-129532048D01*
X162964714Y-129865381D02*
X162964714Y-129198714D01*
X162964714Y-129389190D02*
X162917095Y-129293952D01*
X162869476Y-129246333D01*
X162774238Y-129198714D01*
X162678999Y-129198714D01*
X161012332Y-129770143D02*
X161059951Y-129817762D01*
X161202808Y-129865381D01*
X161298046Y-129865381D01*
X161440904Y-129817762D01*
X161536142Y-129722524D01*
X161583761Y-129627286D01*
X161631380Y-129436810D01*
X161631380Y-129293952D01*
X161583761Y-129103476D01*
X161536142Y-129008238D01*
X161440904Y-128913000D01*
X161298046Y-128865381D01*
X161202808Y-128865381D01*
X161059951Y-128913000D01*
X161012332Y-128960619D01*
X160583761Y-129341571D02*
X160250427Y-129341571D01*
X160107570Y-129865381D02*
X160583761Y-129865381D01*
X160583761Y-128865381D01*
X160107570Y-128865381D01*
X159107570Y-129865381D02*
X159440904Y-129389190D01*
X159678999Y-129865381D02*
X159678999Y-128865381D01*
X159298046Y-128865381D01*
X159202808Y-128913000D01*
X159155189Y-128960619D01*
X159107570Y-129055857D01*
X159107570Y-129198714D01*
X159155189Y-129293952D01*
X159202808Y-129341571D01*
X159298046Y-129389190D01*
X159678999Y-129389190D01*
X158678999Y-129865381D02*
X158678999Y-128865381D01*
X158107570Y-129865381D01*
X158107570Y-128865381D01*
X156678999Y-128865381D02*
X156488522Y-128865381D01*
X156393284Y-128913000D01*
X156298046Y-129008238D01*
X156250427Y-129198714D01*
X156250427Y-129532048D01*
X156298046Y-129722524D01*
X156393284Y-129817762D01*
X156488522Y-129865381D01*
X156678999Y-129865381D01*
X156774237Y-129817762D01*
X156869475Y-129722524D01*
X156917094Y-129532048D01*
X156917094Y-129198714D01*
X156869475Y-129008238D01*
X156774237Y-128913000D01*
X156678999Y-128865381D01*
X155821856Y-129865381D02*
X155821856Y-128865381D01*
X155821856Y-129341571D02*
X155250427Y-129341571D01*
X155250427Y-129865381D02*
X155250427Y-128865381D01*
X154298046Y-129865381D02*
X154774237Y-129865381D01*
X154774237Y-128865381D01*
X153298046Y-129198714D02*
X153059951Y-129865381D01*
X152821855Y-129198714D01*
X151917093Y-129865381D02*
X152488522Y-129865381D01*
X152202808Y-129865381D02*
X152202808Y-128865381D01*
X152298046Y-129008238D01*
X152393284Y-129103476D01*
X152488522Y-129151095D01*
X151488522Y-129770143D02*
X151440903Y-129817762D01*
X151488522Y-129865381D01*
X151536141Y-129817762D01*
X151488522Y-129770143D01*
X151488522Y-129865381D01*
X151059951Y-128960619D02*
X151012332Y-128913000D01*
X150917094Y-128865381D01*
X150678998Y-128865381D01*
X150583760Y-128913000D01*
X150536141Y-128960619D01*
X150488522Y-129055857D01*
X150488522Y-129151095D01*
X150536141Y-129293952D01*
X151107570Y-129865381D01*
X150488522Y-129865381D01*
%LPC*%
D13*
X147701000Y-113411000D03*
X147701000Y-108331000D03*
X147701000Y-122301000D03*
X147701000Y-127381000D03*
X164211000Y-123063000D03*
X169291000Y-123063000D03*
X150495000Y-127381000D03*
X150495000Y-122301000D03*
X164211000Y-120015000D03*
X169291000Y-120015000D03*
D14*
X174625000Y-126873000D03*
D13*
X172085000Y-126873000D03*
D14*
X182499000Y-117983000D03*
D13*
X185039000Y-117983000D03*
D14*
X179959000Y-126873000D03*
D13*
X177419000Y-126873000D03*
D14*
X175387000Y-111887000D03*
D13*
X175387000Y-109347000D03*
X164719000Y-109347000D03*
X169799000Y-109347000D03*
X153543000Y-120015000D03*
X161163000Y-120015000D03*
X171577000Y-111887000D03*
X163957000Y-111887000D03*
X163957000Y-116967000D03*
X171577000Y-116967000D03*
X161163000Y-123063000D03*
X153543000Y-123063000D03*
X179197000Y-118491000D03*
X179197000Y-110871000D03*
X174117000Y-115189000D03*
X174117000Y-122809000D03*
X176657000Y-122809000D03*
X176657000Y-115189000D03*
X163957000Y-114427000D03*
X171577000Y-114427000D03*
X150495000Y-109347000D03*
X150495000Y-116967000D03*
D15*
X168783000Y-127127000D03*
D16*
X166243000Y-127127000D03*
X163703000Y-127127000D03*
D15*
X159639000Y-127127000D03*
D16*
X157099000Y-127127000D03*
X154559000Y-127127000D03*
D15*
X145923000Y-119253000D03*
D16*
X145923000Y-116713000D03*
D15*
X183769000Y-124841000D03*
D16*
X183769000Y-122301000D03*
D15*
X183769000Y-113665000D03*
D16*
X183769000Y-111125000D03*
D17*
X153543000Y-109347000D03*
D18*
X153543000Y-111887000D03*
X153543000Y-114427000D03*
X153543000Y-116967000D03*
X161163000Y-116967000D03*
X161163000Y-114427000D03*
X161163000Y-111887000D03*
X161163000Y-109347000D03*
M02*
