%FSLAX46Y46*%
G04 Gerber Fmt 4.6, Leading zero omitted, Abs format (unit mm)*
G04 Created by KiCad (PCBNEW (2014-08-06 BZR 5059)-product) date 24/08/2014 19:27:10*
%MOMM*%
G01*
G04 APERTURE LIST*
%ADD10C,0.150000*%
%ADD11C,0.304800*%
%ADD12C,0.127000*%
%ADD13C,0.203200*%
%ADD14C,0.381000*%
%ADD15C,0.285750*%
%ADD16C,0.271780*%
%ADD17C,0.269240*%
%ADD18C,2.178000*%
%ADD19R,2.178000X2.178000*%
%ADD20C,1.924000*%
%ADD21R,2.686000X2.178000*%
%ADD22O,2.686000X2.178000*%
G04 APERTURE END LIST*
D10*
D11*
X141224000Y-124079000D02*
X148336000Y-124079000D01*
X148336000Y-124079000D02*
X148336000Y-126111000D01*
X148336000Y-126111000D02*
X141224000Y-126111000D01*
X141224000Y-126111000D02*
X141224000Y-124079000D01*
X141224000Y-124587000D02*
X141732000Y-124079000D01*
X165481000Y-109474000D02*
X165481000Y-116586000D01*
X165481000Y-116586000D02*
X163449000Y-116586000D01*
X163449000Y-116586000D02*
X163449000Y-109474000D01*
X163449000Y-109474000D02*
X165481000Y-109474000D01*
X164973000Y-109474000D02*
X165481000Y-109982000D01*
X168656000Y-109474000D02*
X168656000Y-116586000D01*
X168656000Y-116586000D02*
X166624000Y-116586000D01*
X166624000Y-116586000D02*
X166624000Y-109474000D01*
X166624000Y-109474000D02*
X168656000Y-109474000D01*
X168148000Y-109474000D02*
X168656000Y-109982000D01*
X166624000Y-138176000D02*
X166624000Y-131064000D01*
X166624000Y-131064000D02*
X168656000Y-131064000D01*
X168656000Y-131064000D02*
X168656000Y-138176000D01*
X168656000Y-138176000D02*
X166624000Y-138176000D01*
X167132000Y-138176000D02*
X166624000Y-137668000D01*
X156591000Y-131826000D02*
X149479000Y-131826000D01*
X149479000Y-131826000D02*
X149479000Y-129794000D01*
X149479000Y-129794000D02*
X156591000Y-129794000D01*
X156591000Y-129794000D02*
X156591000Y-131826000D01*
X156591000Y-131318000D02*
X156083000Y-131826000D01*
X159004000Y-137541000D02*
X159004000Y-130429000D01*
X159004000Y-130429000D02*
X161036000Y-130429000D01*
X161036000Y-130429000D02*
X161036000Y-137541000D01*
X161036000Y-137541000D02*
X159004000Y-137541000D01*
X159512000Y-137541000D02*
X159004000Y-137033000D01*
D12*
X177165000Y-125730000D02*
G75*
G03X177165000Y-125730000I-3175000J0D01*
G74*
G01*
X179705000Y-136779000D02*
G75*
G03X179705000Y-136779000I-3175000J0D01*
G74*
G01*
X189230000Y-125730000D02*
G75*
G03X189230000Y-125730000I-3175000J0D01*
G74*
G01*
X186055000Y-136779000D02*
G75*
G03X186055000Y-136779000I-3175000J0D01*
G74*
G01*
D11*
X146939000Y-114808000D02*
X146939000Y-121920000D01*
X146939000Y-121920000D02*
X144907000Y-121920000D01*
X144907000Y-121920000D02*
X144907000Y-114808000D01*
X144907000Y-114808000D02*
X146939000Y-114808000D01*
X146431000Y-114808000D02*
X146939000Y-115316000D01*
D12*
X146685000Y-137160000D02*
G75*
G03X146685000Y-137160000I-3175000J0D01*
G74*
G01*
D11*
X188341000Y-132969000D02*
X188341000Y-140081000D01*
X188341000Y-140081000D02*
X186309000Y-140081000D01*
X186309000Y-140081000D02*
X186309000Y-132969000D01*
X186309000Y-132969000D02*
X188341000Y-132969000D01*
X187833000Y-132969000D02*
X188341000Y-133477000D01*
X143510000Y-133350000D02*
X140970000Y-133350000D01*
X140970000Y-133350000D02*
X140970000Y-128270000D01*
X140970000Y-128270000D02*
X143510000Y-128270000D01*
X143510000Y-128270000D02*
X143510000Y-133350000D01*
X193040000Y-128905000D02*
X190500000Y-128905000D01*
X190500000Y-128905000D02*
X190500000Y-123825000D01*
X190500000Y-123825000D02*
X193040000Y-123825000D01*
X193040000Y-123825000D02*
X193040000Y-128905000D01*
X193040000Y-139065000D02*
X190500000Y-139065000D01*
X190500000Y-139065000D02*
X190500000Y-133985000D01*
X190500000Y-133985000D02*
X193040000Y-133985000D01*
X193040000Y-133985000D02*
X193040000Y-139065000D01*
X149860000Y-123825000D02*
X150368000Y-123825000D01*
X157480000Y-123825000D02*
X156972000Y-123825000D01*
X156972000Y-123825000D02*
X156972000Y-122809000D01*
X156972000Y-122809000D02*
X150368000Y-122809000D01*
X150368000Y-122809000D02*
X150368000Y-124841000D01*
X150368000Y-124841000D02*
X156972000Y-124841000D01*
X156972000Y-124841000D02*
X156972000Y-123825000D01*
X150368000Y-123317000D02*
X150876000Y-122809000D01*
X142113000Y-114173000D02*
X142113000Y-114681000D01*
X142113000Y-121793000D02*
X142113000Y-121285000D01*
X142113000Y-121285000D02*
X143129000Y-121285000D01*
X143129000Y-121285000D02*
X143129000Y-114681000D01*
X143129000Y-114681000D02*
X141097000Y-114681000D01*
X141097000Y-114681000D02*
X141097000Y-121285000D01*
X141097000Y-121285000D02*
X142113000Y-121285000D01*
X142621000Y-114681000D02*
X143129000Y-115189000D01*
X172720000Y-116840000D02*
X173228000Y-116840000D01*
X180340000Y-116840000D02*
X179832000Y-116840000D01*
X179832000Y-116840000D02*
X179832000Y-115824000D01*
X179832000Y-115824000D02*
X173228000Y-115824000D01*
X173228000Y-115824000D02*
X173228000Y-117856000D01*
X173228000Y-117856000D02*
X179832000Y-117856000D01*
X179832000Y-117856000D02*
X179832000Y-116840000D01*
X173228000Y-116332000D02*
X173736000Y-115824000D01*
X162560000Y-119380000D02*
X163576000Y-119380000D01*
X163576000Y-119380000D02*
X163576000Y-118364000D01*
X163576000Y-118364000D02*
X171704000Y-118364000D01*
X171704000Y-118364000D02*
X171704000Y-120396000D01*
X171704000Y-120396000D02*
X163576000Y-120396000D01*
X163576000Y-120396000D02*
X163576000Y-119380000D01*
X163576000Y-118872000D02*
X164084000Y-118364000D01*
X172720000Y-119380000D02*
X171704000Y-119380000D01*
X161925000Y-109220000D02*
X161925000Y-109728000D01*
X161925000Y-116840000D02*
X161925000Y-116332000D01*
X161925000Y-116332000D02*
X162941000Y-116332000D01*
X162941000Y-116332000D02*
X162941000Y-109728000D01*
X162941000Y-109728000D02*
X160909000Y-109728000D01*
X160909000Y-109728000D02*
X160909000Y-116332000D01*
X160909000Y-116332000D02*
X161925000Y-116332000D01*
X162433000Y-109728000D02*
X162941000Y-110236000D01*
X164465000Y-130175000D02*
X164465000Y-130683000D01*
X164465000Y-137795000D02*
X164465000Y-137287000D01*
X164465000Y-137287000D02*
X165481000Y-137287000D01*
X165481000Y-137287000D02*
X165481000Y-130683000D01*
X165481000Y-130683000D02*
X163449000Y-130683000D01*
X163449000Y-130683000D02*
X163449000Y-137287000D01*
X163449000Y-137287000D02*
X164465000Y-137287000D01*
X164973000Y-130683000D02*
X165481000Y-131191000D01*
X157480000Y-128270000D02*
X156972000Y-128270000D01*
X149860000Y-128270000D02*
X150368000Y-128270000D01*
X150368000Y-128270000D02*
X150368000Y-129286000D01*
X150368000Y-129286000D02*
X156972000Y-129286000D01*
X156972000Y-129286000D02*
X156972000Y-127254000D01*
X156972000Y-127254000D02*
X150368000Y-127254000D01*
X150368000Y-127254000D02*
X150368000Y-128270000D01*
X156972000Y-128778000D02*
X156464000Y-129286000D01*
X179070000Y-120650000D02*
X179070000Y-121158000D01*
X179070000Y-128270000D02*
X179070000Y-127762000D01*
X179070000Y-127762000D02*
X180086000Y-127762000D01*
X180086000Y-127762000D02*
X180086000Y-121158000D01*
X180086000Y-121158000D02*
X178054000Y-121158000D01*
X178054000Y-121158000D02*
X178054000Y-127762000D01*
X178054000Y-127762000D02*
X179070000Y-127762000D01*
X179578000Y-121158000D02*
X180086000Y-121666000D01*
X182880000Y-131445000D02*
X182372000Y-131445000D01*
X175260000Y-131445000D02*
X175768000Y-131445000D01*
X175768000Y-131445000D02*
X175768000Y-132461000D01*
X175768000Y-132461000D02*
X182372000Y-132461000D01*
X182372000Y-132461000D02*
X182372000Y-130429000D01*
X182372000Y-130429000D02*
X175768000Y-130429000D01*
X175768000Y-130429000D02*
X175768000Y-131445000D01*
X182372000Y-131953000D02*
X181864000Y-132461000D01*
X172085000Y-131445000D02*
X172085000Y-131953000D01*
X172085000Y-139065000D02*
X172085000Y-138557000D01*
X172085000Y-138557000D02*
X173101000Y-138557000D01*
X173101000Y-138557000D02*
X173101000Y-131953000D01*
X173101000Y-131953000D02*
X171069000Y-131953000D01*
X171069000Y-131953000D02*
X171069000Y-138557000D01*
X171069000Y-138557000D02*
X172085000Y-138557000D01*
X172593000Y-131953000D02*
X173101000Y-132461000D01*
X156845000Y-133350000D02*
X156337000Y-133350000D01*
X149225000Y-133350000D02*
X149733000Y-133350000D01*
X149733000Y-133350000D02*
X149733000Y-134366000D01*
X149733000Y-134366000D02*
X156337000Y-134366000D01*
X156337000Y-134366000D02*
X156337000Y-132334000D01*
X156337000Y-132334000D02*
X149733000Y-132334000D01*
X149733000Y-132334000D02*
X149733000Y-133350000D01*
X156337000Y-133858000D02*
X155829000Y-134366000D01*
X185420000Y-117983000D02*
X185420000Y-115443000D01*
X185420000Y-115443000D02*
X193040000Y-115443000D01*
X193040000Y-115443000D02*
X193040000Y-117983000D01*
X193040000Y-117983000D02*
X185420000Y-117983000D01*
X187960000Y-115443000D02*
X187960000Y-117983000D01*
D13*
X148336000Y-108712000D02*
G75*
G03X148336000Y-108712000I-3556000J0D01*
G74*
G01*
D11*
X149225000Y-137795000D02*
X149225000Y-135255000D01*
X149225000Y-135255000D02*
X156845000Y-135255000D01*
X156845000Y-135255000D02*
X156845000Y-137795000D01*
X156845000Y-137795000D02*
X149225000Y-137795000D01*
X151765000Y-135255000D02*
X151765000Y-137795000D01*
X193040000Y-108585000D02*
X193040000Y-111125000D01*
X193040000Y-111125000D02*
X185420000Y-111125000D01*
X185420000Y-111125000D02*
X185420000Y-108585000D01*
X185420000Y-108585000D02*
X193040000Y-108585000D01*
X190500000Y-111125000D02*
X190500000Y-108585000D01*
X182880000Y-108585000D02*
X182880000Y-111125000D01*
X182880000Y-111125000D02*
X175260000Y-111125000D01*
X175260000Y-111125000D02*
X175260000Y-108585000D01*
X175260000Y-108585000D02*
X182880000Y-108585000D01*
X180340000Y-111125000D02*
X180340000Y-108585000D01*
D14*
X155575000Y-111125000D02*
X155575000Y-112395000D01*
X155575000Y-112395000D02*
X153035000Y-112395000D01*
X153035000Y-112395000D02*
X153035000Y-111125000D01*
X156845000Y-111125000D02*
X156845000Y-121285000D01*
X156845000Y-121285000D02*
X151765000Y-121285000D01*
X151765000Y-121285000D02*
X151765000Y-111125000D01*
X151765000Y-111125000D02*
X156845000Y-111125000D01*
D13*
X144610667Y-125457857D02*
X144562286Y-125506238D01*
X144417143Y-125554619D01*
X144320381Y-125554619D01*
X144175239Y-125506238D01*
X144078477Y-125409476D01*
X144030096Y-125312714D01*
X143981715Y-125119190D01*
X143981715Y-124974048D01*
X144030096Y-124780524D01*
X144078477Y-124683762D01*
X144175239Y-124587000D01*
X144320381Y-124538619D01*
X144417143Y-124538619D01*
X144562286Y-124587000D01*
X144610667Y-124635381D01*
X145578286Y-125554619D02*
X144997715Y-125554619D01*
X145288001Y-125554619D02*
X145288001Y-124538619D01*
X145191239Y-124683762D01*
X145094477Y-124780524D01*
X144997715Y-124828905D01*
X164827857Y-113199333D02*
X164876238Y-113247714D01*
X164924619Y-113392857D01*
X164924619Y-113489619D01*
X164876238Y-113634761D01*
X164779476Y-113731523D01*
X164682714Y-113779904D01*
X164489190Y-113828285D01*
X164344048Y-113828285D01*
X164150524Y-113779904D01*
X164053762Y-113731523D01*
X163957000Y-113634761D01*
X163908619Y-113489619D01*
X163908619Y-113392857D01*
X163957000Y-113247714D01*
X164005381Y-113199333D01*
X164005381Y-112812285D02*
X163957000Y-112763904D01*
X163908619Y-112667142D01*
X163908619Y-112425238D01*
X163957000Y-112328476D01*
X164005381Y-112280095D01*
X164102143Y-112231714D01*
X164198905Y-112231714D01*
X164344048Y-112280095D01*
X164924619Y-112860666D01*
X164924619Y-112231714D01*
X168002857Y-113199333D02*
X168051238Y-113247714D01*
X168099619Y-113392857D01*
X168099619Y-113489619D01*
X168051238Y-113634761D01*
X167954476Y-113731523D01*
X167857714Y-113779904D01*
X167664190Y-113828285D01*
X167519048Y-113828285D01*
X167325524Y-113779904D01*
X167228762Y-113731523D01*
X167132000Y-113634761D01*
X167083619Y-113489619D01*
X167083619Y-113392857D01*
X167132000Y-113247714D01*
X167180381Y-113199333D01*
X167083619Y-112860666D02*
X167083619Y-112231714D01*
X167470667Y-112570380D01*
X167470667Y-112425238D01*
X167519048Y-112328476D01*
X167567429Y-112280095D01*
X167664190Y-112231714D01*
X167906095Y-112231714D01*
X168002857Y-112280095D01*
X168051238Y-112328476D01*
X168099619Y-112425238D01*
X168099619Y-112715523D01*
X168051238Y-112812285D01*
X168002857Y-112860666D01*
X168002857Y-134789333D02*
X168051238Y-134837714D01*
X168099619Y-134982857D01*
X168099619Y-135079619D01*
X168051238Y-135224761D01*
X167954476Y-135321523D01*
X167857714Y-135369904D01*
X167664190Y-135418285D01*
X167519048Y-135418285D01*
X167325524Y-135369904D01*
X167228762Y-135321523D01*
X167132000Y-135224761D01*
X167083619Y-135079619D01*
X167083619Y-134982857D01*
X167132000Y-134837714D01*
X167180381Y-134789333D01*
X167422286Y-133918476D02*
X168099619Y-133918476D01*
X167035238Y-134160380D02*
X167760952Y-134402285D01*
X167760952Y-133773333D01*
X152865667Y-131172857D02*
X152817286Y-131221238D01*
X152672143Y-131269619D01*
X152575381Y-131269619D01*
X152430239Y-131221238D01*
X152333477Y-131124476D01*
X152285096Y-131027714D01*
X152236715Y-130834190D01*
X152236715Y-130689048D01*
X152285096Y-130495524D01*
X152333477Y-130398762D01*
X152430239Y-130302000D01*
X152575381Y-130253619D01*
X152672143Y-130253619D01*
X152817286Y-130302000D01*
X152865667Y-130350381D01*
X153784905Y-130253619D02*
X153301096Y-130253619D01*
X153252715Y-130737429D01*
X153301096Y-130689048D01*
X153397858Y-130640667D01*
X153639762Y-130640667D01*
X153736524Y-130689048D01*
X153784905Y-130737429D01*
X153833286Y-130834190D01*
X153833286Y-131076095D01*
X153784905Y-131172857D01*
X153736524Y-131221238D01*
X153639762Y-131269619D01*
X153397858Y-131269619D01*
X153301096Y-131221238D01*
X153252715Y-131172857D01*
X160382857Y-134154333D02*
X160431238Y-134202714D01*
X160479619Y-134347857D01*
X160479619Y-134444619D01*
X160431238Y-134589761D01*
X160334476Y-134686523D01*
X160237714Y-134734904D01*
X160044190Y-134783285D01*
X159899048Y-134783285D01*
X159705524Y-134734904D01*
X159608762Y-134686523D01*
X159512000Y-134589761D01*
X159463619Y-134444619D01*
X159463619Y-134347857D01*
X159512000Y-134202714D01*
X159560381Y-134154333D01*
X159463619Y-133283476D02*
X159463619Y-133476999D01*
X159512000Y-133573761D01*
X159560381Y-133622142D01*
X159705524Y-133718904D01*
X159899048Y-133767285D01*
X160286095Y-133767285D01*
X160382857Y-133718904D01*
X160431238Y-133670523D01*
X160479619Y-133573761D01*
X160479619Y-133380238D01*
X160431238Y-133283476D01*
X160382857Y-133235095D01*
X160286095Y-133186714D01*
X160044190Y-133186714D01*
X159947429Y-133235095D01*
X159899048Y-133283476D01*
X159850667Y-133380238D01*
X159850667Y-133573761D01*
X159899048Y-133670523D01*
X159947429Y-133718904D01*
X160044190Y-133767285D01*
X172874214Y-125878166D02*
X172928643Y-125920500D01*
X172983071Y-126047500D01*
X172983071Y-126132166D01*
X172928643Y-126259166D01*
X172819786Y-126343833D01*
X172710929Y-126386166D01*
X172493214Y-126428500D01*
X172329929Y-126428500D01*
X172112214Y-126386166D01*
X172003357Y-126343833D01*
X171894500Y-126259166D01*
X171840071Y-126132166D01*
X171840071Y-126047500D01*
X171894500Y-125920500D01*
X171948929Y-125878166D01*
X171840071Y-125581833D02*
X171840071Y-124989166D01*
X172983071Y-125370166D01*
D15*
X174071643Y-123625428D02*
X174071643Y-122754571D01*
X174507071Y-123190000D02*
X173636214Y-123190000D01*
D11*
D13*
X175414214Y-136927166D02*
X175468643Y-136969500D01*
X175523071Y-137096500D01*
X175523071Y-137181166D01*
X175468643Y-137308166D01*
X175359786Y-137392833D01*
X175250929Y-137435166D01*
X175033214Y-137477500D01*
X174869929Y-137477500D01*
X174652214Y-137435166D01*
X174543357Y-137392833D01*
X174434500Y-137308166D01*
X174380071Y-137181166D01*
X174380071Y-137096500D01*
X174434500Y-136969500D01*
X174488929Y-136927166D01*
X174869929Y-136419166D02*
X174815500Y-136503833D01*
X174761071Y-136546166D01*
X174652214Y-136588500D01*
X174597786Y-136588500D01*
X174488929Y-136546166D01*
X174434500Y-136503833D01*
X174380071Y-136419166D01*
X174380071Y-136249833D01*
X174434500Y-136165166D01*
X174488929Y-136122833D01*
X174597786Y-136080500D01*
X174652214Y-136080500D01*
X174761071Y-136122833D01*
X174815500Y-136165166D01*
X174869929Y-136249833D01*
X174869929Y-136419166D01*
X174924357Y-136503833D01*
X174978786Y-136546166D01*
X175087643Y-136588500D01*
X175305357Y-136588500D01*
X175414214Y-136546166D01*
X175468643Y-136503833D01*
X175523071Y-136419166D01*
X175523071Y-136249833D01*
X175468643Y-136165166D01*
X175414214Y-136122833D01*
X175305357Y-136080500D01*
X175087643Y-136080500D01*
X174978786Y-136122833D01*
X174924357Y-136165166D01*
X174869929Y-136249833D01*
D15*
X176611643Y-134674428D02*
X176611643Y-133803571D01*
X177047071Y-134239000D02*
X176176214Y-134239000D01*
D11*
D13*
X185906834Y-127662214D02*
X185864500Y-127716643D01*
X185737500Y-127771071D01*
X185652834Y-127771071D01*
X185525834Y-127716643D01*
X185441167Y-127607786D01*
X185398834Y-127498929D01*
X185356500Y-127281214D01*
X185356500Y-127117929D01*
X185398834Y-126900214D01*
X185441167Y-126791357D01*
X185525834Y-126682500D01*
X185652834Y-126628071D01*
X185737500Y-126628071D01*
X185864500Y-126682500D01*
X185906834Y-126736929D01*
X186330167Y-127771071D02*
X186499500Y-127771071D01*
X186584167Y-127716643D01*
X186626500Y-127662214D01*
X186711167Y-127498929D01*
X186753500Y-127281214D01*
X186753500Y-126845786D01*
X186711167Y-126736929D01*
X186668834Y-126682500D01*
X186584167Y-126628071D01*
X186414834Y-126628071D01*
X186330167Y-126682500D01*
X186287834Y-126736929D01*
X186245500Y-126845786D01*
X186245500Y-127117929D01*
X186287834Y-127226786D01*
X186330167Y-127281214D01*
X186414834Y-127335643D01*
X186584167Y-127335643D01*
X186668834Y-127281214D01*
X186711167Y-127226786D01*
X186753500Y-127117929D01*
D15*
X183079572Y-125811643D02*
X183950429Y-125811643D01*
X183515000Y-126247071D02*
X183515000Y-125376214D01*
D11*
D13*
X181764214Y-137350500D02*
X181818643Y-137392834D01*
X181873071Y-137519834D01*
X181873071Y-137604500D01*
X181818643Y-137731500D01*
X181709786Y-137816167D01*
X181600929Y-137858500D01*
X181383214Y-137900834D01*
X181219929Y-137900834D01*
X181002214Y-137858500D01*
X180893357Y-137816167D01*
X180784500Y-137731500D01*
X180730071Y-137604500D01*
X180730071Y-137519834D01*
X180784500Y-137392834D01*
X180838929Y-137350500D01*
X181873071Y-136503834D02*
X181873071Y-137011834D01*
X181873071Y-136757834D02*
X180730071Y-136757834D01*
X180893357Y-136842500D01*
X181002214Y-136927167D01*
X181056643Y-137011834D01*
X180730071Y-135953500D02*
X180730071Y-135868833D01*
X180784500Y-135784167D01*
X180838929Y-135741833D01*
X180947786Y-135699500D01*
X181165500Y-135657167D01*
X181437643Y-135657167D01*
X181655357Y-135699500D01*
X181764214Y-135741833D01*
X181818643Y-135784167D01*
X181873071Y-135868833D01*
X181873071Y-135953500D01*
X181818643Y-136038167D01*
X181764214Y-136080500D01*
X181655357Y-136122833D01*
X181437643Y-136165167D01*
X181165500Y-136165167D01*
X180947786Y-136122833D01*
X180838929Y-136080500D01*
X180784500Y-136038167D01*
X180730071Y-135953500D01*
D15*
X182961643Y-134674428D02*
X182961643Y-133803571D01*
X183397071Y-134239000D02*
X182526214Y-134239000D01*
D11*
D13*
X146285857Y-119017143D02*
X146334238Y-119065524D01*
X146382619Y-119210667D01*
X146382619Y-119307429D01*
X146334238Y-119452571D01*
X146237476Y-119549333D01*
X146140714Y-119597714D01*
X145947190Y-119646095D01*
X145802048Y-119646095D01*
X145608524Y-119597714D01*
X145511762Y-119549333D01*
X145415000Y-119452571D01*
X145366619Y-119307429D01*
X145366619Y-119210667D01*
X145415000Y-119065524D01*
X145463381Y-119017143D01*
X146382619Y-118049524D02*
X146382619Y-118630095D01*
X146382619Y-118339809D02*
X145366619Y-118339809D01*
X145511762Y-118436571D01*
X145608524Y-118533333D01*
X145656905Y-118630095D01*
X146382619Y-117081905D02*
X146382619Y-117662476D01*
X146382619Y-117372190D02*
X145366619Y-117372190D01*
X145511762Y-117468952D01*
X145608524Y-117565714D01*
X145656905Y-117662476D01*
X142938500Y-136044214D02*
X142896166Y-136098643D01*
X142769166Y-136153071D01*
X142684500Y-136153071D01*
X142557500Y-136098643D01*
X142472833Y-135989786D01*
X142430500Y-135880929D01*
X142388166Y-135663214D01*
X142388166Y-135499929D01*
X142430500Y-135282214D01*
X142472833Y-135173357D01*
X142557500Y-135064500D01*
X142684500Y-135010071D01*
X142769166Y-135010071D01*
X142896166Y-135064500D01*
X142938500Y-135118929D01*
X143785166Y-136153071D02*
X143277166Y-136153071D01*
X143531166Y-136153071D02*
X143531166Y-135010071D01*
X143446500Y-135173357D01*
X143361833Y-135282214D01*
X143277166Y-135336643D01*
X144123833Y-135118929D02*
X144166167Y-135064500D01*
X144250833Y-135010071D01*
X144462500Y-135010071D01*
X144547167Y-135064500D01*
X144589500Y-135118929D01*
X144631833Y-135227786D01*
X144631833Y-135336643D01*
X144589500Y-135499929D01*
X144081500Y-136153071D01*
X144631833Y-136153071D01*
D15*
X145614572Y-137241643D02*
X146485429Y-137241643D01*
X146050000Y-137677071D02*
X146050000Y-136806214D01*
D11*
D13*
X187687857Y-137178143D02*
X187736238Y-137226524D01*
X187784619Y-137371667D01*
X187784619Y-137468429D01*
X187736238Y-137613571D01*
X187639476Y-137710333D01*
X187542714Y-137758714D01*
X187349190Y-137807095D01*
X187204048Y-137807095D01*
X187010524Y-137758714D01*
X186913762Y-137710333D01*
X186817000Y-137613571D01*
X186768619Y-137468429D01*
X186768619Y-137371667D01*
X186817000Y-137226524D01*
X186865381Y-137178143D01*
X187784619Y-136210524D02*
X187784619Y-136791095D01*
X187784619Y-136500809D02*
X186768619Y-136500809D01*
X186913762Y-136597571D01*
X187010524Y-136694333D01*
X187058905Y-136791095D01*
X186768619Y-135871857D02*
X186768619Y-135242905D01*
X187155667Y-135581571D01*
X187155667Y-135436429D01*
X187204048Y-135339667D01*
X187252429Y-135291286D01*
X187349190Y-135242905D01*
X187591095Y-135242905D01*
X187687857Y-135291286D01*
X187736238Y-135339667D01*
X187784619Y-135436429D01*
X187784619Y-135726714D01*
X187736238Y-135823476D01*
X187687857Y-135871857D01*
D16*
X140482501Y-131612398D02*
X138752761Y-131612398D01*
X138752761Y-131198257D01*
X138835130Y-131094722D01*
X138917499Y-131042954D01*
X139082236Y-130991186D01*
X139329341Y-130991186D01*
X139494079Y-131042954D01*
X139576447Y-131094722D01*
X139658816Y-131198257D01*
X139658816Y-131612398D01*
X140482501Y-129955834D02*
X140482501Y-130577046D01*
X140482501Y-130266440D02*
X138752761Y-130266440D01*
X138999867Y-130369975D01*
X139164604Y-130473510D01*
X139246973Y-130577046D01*
D11*
D16*
X192552501Y-123357398D02*
X190822761Y-123357398D01*
X190822761Y-122943257D01*
X190905130Y-122839722D01*
X190987499Y-122787954D01*
X191152236Y-122736186D01*
X191399341Y-122736186D01*
X191564079Y-122787954D01*
X191646447Y-122839722D01*
X191728816Y-122943257D01*
X191728816Y-123357398D01*
X190987499Y-122322046D02*
X190905130Y-122270278D01*
X190822761Y-122166743D01*
X190822761Y-121907905D01*
X190905130Y-121804369D01*
X190987499Y-121752602D01*
X191152236Y-121700834D01*
X191316973Y-121700834D01*
X191564079Y-121752602D01*
X192552501Y-122373813D01*
X192552501Y-121700834D01*
D11*
D16*
X192552501Y-133517398D02*
X190822761Y-133517398D01*
X190822761Y-133103257D01*
X190905130Y-132999722D01*
X190987499Y-132947954D01*
X191152236Y-132896186D01*
X191399341Y-132896186D01*
X191564079Y-132947954D01*
X191646447Y-132999722D01*
X191728816Y-133103257D01*
X191728816Y-133517398D01*
X190822761Y-132533813D02*
X190822761Y-131860834D01*
X191481710Y-132223207D01*
X191481710Y-132067905D01*
X191564079Y-131964369D01*
X191646447Y-131912602D01*
X191811184Y-131860834D01*
X192223027Y-131860834D01*
X192387764Y-131912602D01*
X192470133Y-131964369D01*
X192552501Y-132067905D01*
X192552501Y-132378510D01*
X192470133Y-132482046D01*
X192387764Y-132533813D01*
D11*
D13*
X153458333Y-124456976D02*
X153035000Y-123791738D01*
X152732619Y-124456976D02*
X152732619Y-123059976D01*
X153216428Y-123059976D01*
X153337381Y-123126500D01*
X153397857Y-123193024D01*
X153458333Y-123326071D01*
X153458333Y-123525643D01*
X153397857Y-123658690D01*
X153337381Y-123725214D01*
X153216428Y-123791738D01*
X152732619Y-123791738D01*
X154667857Y-124456976D02*
X153942143Y-124456976D01*
X154305000Y-124456976D02*
X154305000Y-123059976D01*
X154184048Y-123259548D01*
X154063095Y-123392595D01*
X153942143Y-123459119D01*
X142744976Y-118194667D02*
X142079738Y-118618000D01*
X142744976Y-118920381D02*
X141347976Y-118920381D01*
X141347976Y-118436572D01*
X141414500Y-118315619D01*
X141481024Y-118255143D01*
X141614071Y-118194667D01*
X141813643Y-118194667D01*
X141946690Y-118255143D01*
X142013214Y-118315619D01*
X142079738Y-118436572D01*
X142079738Y-118920381D01*
X141481024Y-117710857D02*
X141414500Y-117650381D01*
X141347976Y-117529429D01*
X141347976Y-117227048D01*
X141414500Y-117106095D01*
X141481024Y-117045619D01*
X141614071Y-116985143D01*
X141747119Y-116985143D01*
X141946690Y-117045619D01*
X142744976Y-117771333D01*
X142744976Y-116985143D01*
X176318333Y-117471976D02*
X175895000Y-116806738D01*
X175592619Y-117471976D02*
X175592619Y-116074976D01*
X176076428Y-116074976D01*
X176197381Y-116141500D01*
X176257857Y-116208024D01*
X176318333Y-116341071D01*
X176318333Y-116540643D01*
X176257857Y-116673690D01*
X176197381Y-116740214D01*
X176076428Y-116806738D01*
X175592619Y-116806738D01*
X176741667Y-116074976D02*
X177527857Y-116074976D01*
X177104524Y-116607167D01*
X177285952Y-116607167D01*
X177406905Y-116673690D01*
X177467381Y-116740214D01*
X177527857Y-116873262D01*
X177527857Y-117205881D01*
X177467381Y-117338929D01*
X177406905Y-117405452D01*
X177285952Y-117471976D01*
X176923095Y-117471976D01*
X176802143Y-117405452D01*
X176741667Y-117338929D01*
X167428333Y-120011976D02*
X167005000Y-119346738D01*
X166702619Y-120011976D02*
X166702619Y-118614976D01*
X167186428Y-118614976D01*
X167307381Y-118681500D01*
X167367857Y-118748024D01*
X167428333Y-118881071D01*
X167428333Y-119080643D01*
X167367857Y-119213690D01*
X167307381Y-119280214D01*
X167186428Y-119346738D01*
X166702619Y-119346738D01*
X168516905Y-119080643D02*
X168516905Y-120011976D01*
X168214524Y-118548452D02*
X167912143Y-119546310D01*
X168698333Y-119546310D01*
X162556976Y-113241667D02*
X161891738Y-113665000D01*
X162556976Y-113967381D02*
X161159976Y-113967381D01*
X161159976Y-113483572D01*
X161226500Y-113362619D01*
X161293024Y-113302143D01*
X161426071Y-113241667D01*
X161625643Y-113241667D01*
X161758690Y-113302143D01*
X161825214Y-113362619D01*
X161891738Y-113483572D01*
X161891738Y-113967381D01*
X161159976Y-112092619D02*
X161159976Y-112697381D01*
X161825214Y-112757857D01*
X161758690Y-112697381D01*
X161692167Y-112576429D01*
X161692167Y-112274048D01*
X161758690Y-112153095D01*
X161825214Y-112092619D01*
X161958262Y-112032143D01*
X162290881Y-112032143D01*
X162423929Y-112092619D01*
X162490452Y-112153095D01*
X162556976Y-112274048D01*
X162556976Y-112576429D01*
X162490452Y-112697381D01*
X162423929Y-112757857D01*
X165096976Y-134196667D02*
X164431738Y-134620000D01*
X165096976Y-134922381D02*
X163699976Y-134922381D01*
X163699976Y-134438572D01*
X163766500Y-134317619D01*
X163833024Y-134257143D01*
X163966071Y-134196667D01*
X164165643Y-134196667D01*
X164298690Y-134257143D01*
X164365214Y-134317619D01*
X164431738Y-134438572D01*
X164431738Y-134922381D01*
X163699976Y-133108095D02*
X163699976Y-133350000D01*
X163766500Y-133470952D01*
X163833024Y-133531429D01*
X164032595Y-133652381D01*
X164298690Y-133712857D01*
X164830881Y-133712857D01*
X164963929Y-133652381D01*
X165030452Y-133591905D01*
X165096976Y-133470952D01*
X165096976Y-133229048D01*
X165030452Y-133108095D01*
X164963929Y-133047619D01*
X164830881Y-132987143D01*
X164498262Y-132987143D01*
X164365214Y-133047619D01*
X164298690Y-133108095D01*
X164232167Y-133229048D01*
X164232167Y-133470952D01*
X164298690Y-133591905D01*
X164365214Y-133652381D01*
X164498262Y-133712857D01*
X153458333Y-128901976D02*
X153035000Y-128236738D01*
X152732619Y-128901976D02*
X152732619Y-127504976D01*
X153216428Y-127504976D01*
X153337381Y-127571500D01*
X153397857Y-127638024D01*
X153458333Y-127771071D01*
X153458333Y-127970643D01*
X153397857Y-128103690D01*
X153337381Y-128170214D01*
X153216428Y-128236738D01*
X152732619Y-128236738D01*
X153881667Y-127504976D02*
X154728333Y-127504976D01*
X154184048Y-128901976D01*
X179701976Y-124671667D02*
X179036738Y-125095000D01*
X179701976Y-125397381D02*
X178304976Y-125397381D01*
X178304976Y-124913572D01*
X178371500Y-124792619D01*
X178438024Y-124732143D01*
X178571071Y-124671667D01*
X178770643Y-124671667D01*
X178903690Y-124732143D01*
X178970214Y-124792619D01*
X179036738Y-124913572D01*
X179036738Y-125397381D01*
X178903690Y-123945952D02*
X178837167Y-124066905D01*
X178770643Y-124127381D01*
X178637595Y-124187857D01*
X178571071Y-124187857D01*
X178438024Y-124127381D01*
X178371500Y-124066905D01*
X178304976Y-123945952D01*
X178304976Y-123704048D01*
X178371500Y-123583095D01*
X178438024Y-123522619D01*
X178571071Y-123462143D01*
X178637595Y-123462143D01*
X178770643Y-123522619D01*
X178837167Y-123583095D01*
X178903690Y-123704048D01*
X178903690Y-123945952D01*
X178970214Y-124066905D01*
X179036738Y-124127381D01*
X179169786Y-124187857D01*
X179435881Y-124187857D01*
X179568929Y-124127381D01*
X179635452Y-124066905D01*
X179701976Y-123945952D01*
X179701976Y-123704048D01*
X179635452Y-123583095D01*
X179568929Y-123522619D01*
X179435881Y-123462143D01*
X179169786Y-123462143D01*
X179036738Y-123522619D01*
X178970214Y-123583095D01*
X178903690Y-123704048D01*
X178858333Y-132076976D02*
X178435000Y-131411738D01*
X178132619Y-132076976D02*
X178132619Y-130679976D01*
X178616428Y-130679976D01*
X178737381Y-130746500D01*
X178797857Y-130813024D01*
X178858333Y-130946071D01*
X178858333Y-131145643D01*
X178797857Y-131278690D01*
X178737381Y-131345214D01*
X178616428Y-131411738D01*
X178132619Y-131411738D01*
X179463095Y-132076976D02*
X179705000Y-132076976D01*
X179825952Y-132010452D01*
X179886428Y-131943929D01*
X180007381Y-131744357D01*
X180067857Y-131478262D01*
X180067857Y-130946071D01*
X180007381Y-130813024D01*
X179946905Y-130746500D01*
X179825952Y-130679976D01*
X179584048Y-130679976D01*
X179463095Y-130746500D01*
X179402619Y-130813024D01*
X179342143Y-130946071D01*
X179342143Y-131278690D01*
X179402619Y-131411738D01*
X179463095Y-131478262D01*
X179584048Y-131544786D01*
X179825952Y-131544786D01*
X179946905Y-131478262D01*
X180007381Y-131411738D01*
X180067857Y-131278690D01*
X172716976Y-136071429D02*
X172051738Y-136494762D01*
X172716976Y-136797143D02*
X171319976Y-136797143D01*
X171319976Y-136313334D01*
X171386500Y-136192381D01*
X171453024Y-136131905D01*
X171586071Y-136071429D01*
X171785643Y-136071429D01*
X171918690Y-136131905D01*
X171985214Y-136192381D01*
X172051738Y-136313334D01*
X172051738Y-136797143D01*
X172716976Y-134861905D02*
X172716976Y-135587619D01*
X172716976Y-135224762D02*
X171319976Y-135224762D01*
X171519548Y-135345714D01*
X171652595Y-135466667D01*
X171719119Y-135587619D01*
X171319976Y-134075714D02*
X171319976Y-133954762D01*
X171386500Y-133833810D01*
X171453024Y-133773333D01*
X171586071Y-133712857D01*
X171852167Y-133652381D01*
X172184786Y-133652381D01*
X172450881Y-133712857D01*
X172583929Y-133773333D01*
X172650452Y-133833810D01*
X172716976Y-133954762D01*
X172716976Y-134075714D01*
X172650452Y-134196667D01*
X172583929Y-134257143D01*
X172450881Y-134317619D01*
X172184786Y-134378095D01*
X171852167Y-134378095D01*
X171586071Y-134317619D01*
X171453024Y-134257143D01*
X171386500Y-134196667D01*
X171319976Y-134075714D01*
X152218571Y-133981976D02*
X151795238Y-133316738D01*
X151492857Y-133981976D02*
X151492857Y-132584976D01*
X151976666Y-132584976D01*
X152097619Y-132651500D01*
X152158095Y-132718024D01*
X152218571Y-132851071D01*
X152218571Y-133050643D01*
X152158095Y-133183690D01*
X152097619Y-133250214D01*
X151976666Y-133316738D01*
X151492857Y-133316738D01*
X153428095Y-133981976D02*
X152702381Y-133981976D01*
X153065238Y-133981976D02*
X153065238Y-132584976D01*
X152944286Y-132784548D01*
X152823333Y-132917595D01*
X152702381Y-132984119D01*
X154637619Y-133981976D02*
X153911905Y-133981976D01*
X154274762Y-133981976D02*
X154274762Y-132584976D01*
X154153810Y-132784548D01*
X154032857Y-132917595D01*
X153911905Y-132984119D01*
D17*
X187024797Y-120190079D02*
X186665810Y-119337364D01*
X186409391Y-120190079D02*
X186409391Y-118399379D01*
X186819662Y-118399379D01*
X186922229Y-118484650D01*
X186973513Y-118569921D01*
X187024797Y-118740464D01*
X187024797Y-118996279D01*
X186973513Y-119166821D01*
X186922229Y-119252093D01*
X186819662Y-119337364D01*
X186409391Y-119337364D01*
X187845338Y-119252093D02*
X187999189Y-119337364D01*
X188050473Y-119422636D01*
X188101757Y-119593179D01*
X188101757Y-119848993D01*
X188050473Y-120019536D01*
X187999189Y-120104807D01*
X187896622Y-120190079D01*
X187486351Y-120190079D01*
X187486351Y-118399379D01*
X187845338Y-118399379D01*
X187947905Y-118484650D01*
X187999189Y-118569921D01*
X188050473Y-118740464D01*
X188050473Y-118911007D01*
X187999189Y-119081550D01*
X187947905Y-119166821D01*
X187845338Y-119252093D01*
X187486351Y-119252093D01*
X188512027Y-119678450D02*
X189024865Y-119678450D01*
X188409460Y-120190079D02*
X188768446Y-118399379D01*
X189127433Y-120190079D01*
X189435136Y-120104807D02*
X189588988Y-120190079D01*
X189845407Y-120190079D01*
X189947974Y-120104807D01*
X189999258Y-120019536D01*
X190050542Y-119848993D01*
X190050542Y-119678450D01*
X189999258Y-119507907D01*
X189947974Y-119422636D01*
X189845407Y-119337364D01*
X189640271Y-119252093D01*
X189537704Y-119166821D01*
X189486420Y-119081550D01*
X189435136Y-118911007D01*
X189435136Y-118740464D01*
X189486420Y-118569921D01*
X189537704Y-118484650D01*
X189640271Y-118399379D01*
X189896691Y-118399379D01*
X190050542Y-118484650D01*
X190460812Y-120104807D02*
X190614664Y-120190079D01*
X190871083Y-120190079D01*
X190973650Y-120104807D01*
X191024934Y-120019536D01*
X191076218Y-119848993D01*
X191076218Y-119678450D01*
X191024934Y-119507907D01*
X190973650Y-119422636D01*
X190871083Y-119337364D01*
X190665947Y-119252093D01*
X190563380Y-119166821D01*
X190512096Y-119081550D01*
X190460812Y-118911007D01*
X190460812Y-118740464D01*
X190512096Y-118569921D01*
X190563380Y-118484650D01*
X190665947Y-118399379D01*
X190922367Y-118399379D01*
X191076218Y-118484650D01*
X192101894Y-120190079D02*
X191486488Y-120190079D01*
X191794191Y-120190079D02*
X191794191Y-118399379D01*
X191691623Y-118655193D01*
X191589056Y-118825736D01*
X191486488Y-118911007D01*
D11*
D13*
X148136429Y-106041976D02*
X147713096Y-105376738D01*
X147410715Y-106041976D02*
X147410715Y-104644976D01*
X147894524Y-104644976D01*
X148015477Y-104711500D01*
X148075953Y-104778024D01*
X148136429Y-104911071D01*
X148136429Y-105110643D01*
X148075953Y-105243690D01*
X148015477Y-105310214D01*
X147894524Y-105376738D01*
X147410715Y-105376738D01*
X149345953Y-104711500D02*
X149225001Y-104644976D01*
X149043572Y-104644976D01*
X148862144Y-104711500D01*
X148741191Y-104844548D01*
X148680715Y-104977595D01*
X148620239Y-105243690D01*
X148620239Y-105443262D01*
X148680715Y-105709357D01*
X148741191Y-105842405D01*
X148862144Y-105975452D01*
X149043572Y-106041976D01*
X149164524Y-106041976D01*
X149345953Y-105975452D01*
X149406429Y-105908929D01*
X149406429Y-105443262D01*
X149164524Y-105443262D01*
X149890239Y-105642833D02*
X150495001Y-105642833D01*
X149769286Y-106041976D02*
X150192620Y-104644976D01*
X150615953Y-106041976D01*
X151039286Y-106041976D02*
X151039286Y-104644976D01*
X151644048Y-106041976D02*
X151644048Y-104644976D01*
X152369762Y-106041976D01*
X152369762Y-104644976D01*
X153639762Y-106041976D02*
X152914048Y-106041976D01*
X153276905Y-106041976D02*
X153276905Y-104644976D01*
X153155953Y-104844548D01*
X153035000Y-104977595D01*
X152914048Y-105044119D01*
D17*
X149957972Y-140510079D02*
X149598985Y-139657364D01*
X149342566Y-140510079D02*
X149342566Y-138719379D01*
X149752837Y-138719379D01*
X149855404Y-138804650D01*
X149906688Y-138889921D01*
X149957972Y-139060464D01*
X149957972Y-139316279D01*
X149906688Y-139486821D01*
X149855404Y-139572093D01*
X149752837Y-139657364D01*
X149342566Y-139657364D01*
X150265675Y-138719379D02*
X150881080Y-138719379D01*
X150573377Y-140510079D02*
X150573377Y-138719379D01*
X151855473Y-140510079D02*
X151496486Y-139657364D01*
X151240067Y-140510079D02*
X151240067Y-138719379D01*
X151650338Y-138719379D01*
X151752905Y-138804650D01*
X151804189Y-138889921D01*
X151855473Y-139060464D01*
X151855473Y-139316279D01*
X151804189Y-139486821D01*
X151752905Y-139572093D01*
X151650338Y-139657364D01*
X151240067Y-139657364D01*
X152317027Y-139572093D02*
X152676014Y-139572093D01*
X152829865Y-140510079D02*
X152317027Y-140510079D01*
X152317027Y-138719379D01*
X152829865Y-138719379D01*
X153650406Y-139572093D02*
X153804257Y-139657364D01*
X153855541Y-139742636D01*
X153906825Y-139913179D01*
X153906825Y-140168993D01*
X153855541Y-140339536D01*
X153804257Y-140424807D01*
X153701690Y-140510079D01*
X153291419Y-140510079D01*
X153291419Y-138719379D01*
X153650406Y-138719379D01*
X153752973Y-138804650D01*
X153804257Y-138889921D01*
X153855541Y-139060464D01*
X153855541Y-139231007D01*
X153804257Y-139401550D01*
X153752973Y-139486821D01*
X153650406Y-139572093D01*
X153291419Y-139572093D01*
X154881217Y-140510079D02*
X154368379Y-140510079D01*
X154368379Y-138719379D01*
X155240204Y-139572093D02*
X155599191Y-139572093D01*
X155753042Y-140510079D02*
X155240204Y-140510079D01*
X155240204Y-138719379D01*
X155753042Y-138719379D01*
X156778718Y-140510079D02*
X156163312Y-140510079D01*
X156471015Y-140510079D02*
X156471015Y-138719379D01*
X156368447Y-138975193D01*
X156265880Y-139145736D01*
X156163312Y-139231007D01*
D11*
D17*
X187794054Y-113119807D02*
X187947906Y-113205079D01*
X188204325Y-113205079D01*
X188306892Y-113119807D01*
X188358176Y-113034536D01*
X188409460Y-112863993D01*
X188409460Y-112693450D01*
X188358176Y-112522907D01*
X188306892Y-112437636D01*
X188204325Y-112352364D01*
X187999189Y-112267093D01*
X187896622Y-112181821D01*
X187845338Y-112096550D01*
X187794054Y-111926007D01*
X187794054Y-111755464D01*
X187845338Y-111584921D01*
X187896622Y-111499650D01*
X187999189Y-111414379D01*
X188255609Y-111414379D01*
X188409460Y-111499650D01*
X188768446Y-111414379D02*
X189024865Y-113205079D01*
X189230001Y-111926007D01*
X189435136Y-113205079D01*
X189691555Y-111414379D01*
X190665947Y-113205079D02*
X190050541Y-113205079D01*
X190358244Y-113205079D02*
X190358244Y-111414379D01*
X190255676Y-111670193D01*
X190153109Y-111840736D01*
X190050541Y-111926007D01*
D11*
D17*
X177634054Y-113119807D02*
X177787906Y-113205079D01*
X178044325Y-113205079D01*
X178146892Y-113119807D01*
X178198176Y-113034536D01*
X178249460Y-112863993D01*
X178249460Y-112693450D01*
X178198176Y-112522907D01*
X178146892Y-112437636D01*
X178044325Y-112352364D01*
X177839189Y-112267093D01*
X177736622Y-112181821D01*
X177685338Y-112096550D01*
X177634054Y-111926007D01*
X177634054Y-111755464D01*
X177685338Y-111584921D01*
X177736622Y-111499650D01*
X177839189Y-111414379D01*
X178095609Y-111414379D01*
X178249460Y-111499650D01*
X178608446Y-111414379D02*
X178864865Y-113205079D01*
X179070001Y-111926007D01*
X179275136Y-113205079D01*
X179531555Y-111414379D01*
X179890541Y-111584921D02*
X179941825Y-111499650D01*
X180044393Y-111414379D01*
X180300812Y-111414379D01*
X180403379Y-111499650D01*
X180454663Y-111584921D01*
X180505947Y-111755464D01*
X180505947Y-111926007D01*
X180454663Y-112181821D01*
X179839257Y-113205079D01*
X180505947Y-113205079D01*
D11*
D15*
X153434143Y-108881333D02*
X153434143Y-110320667D01*
X153488571Y-110490000D01*
X153543000Y-110574667D01*
X153651857Y-110659333D01*
X153869571Y-110659333D01*
X153978429Y-110574667D01*
X154032857Y-110490000D01*
X154087286Y-110320667D01*
X154087286Y-108881333D01*
X155230286Y-110659333D02*
X154577143Y-110659333D01*
X154903715Y-110659333D02*
X154903715Y-108881333D01*
X154794858Y-109135333D01*
X154686000Y-109304667D01*
X154577143Y-109389333D01*
D11*
%LPC*%
D18*
X142240000Y-125095000D03*
X147320000Y-125095000D03*
X164465000Y-110490000D03*
X164465000Y-115570000D03*
X167640000Y-110490000D03*
X167640000Y-115570000D03*
X167640000Y-137160000D03*
X167640000Y-132080000D03*
X155575000Y-130810000D03*
X150495000Y-130810000D03*
X160020000Y-136525000D03*
X160020000Y-131445000D03*
D19*
X173990000Y-124460000D03*
D18*
X173990000Y-127000000D03*
D19*
X176530000Y-135509000D03*
D18*
X176530000Y-138049000D03*
D19*
X184785000Y-125730000D03*
D18*
X187325000Y-125730000D03*
D19*
X182880000Y-135509000D03*
D18*
X182880000Y-138049000D03*
X145923000Y-115824000D03*
X145923000Y-120904000D03*
D19*
X144780000Y-137160000D03*
D18*
X142240000Y-137160000D03*
X187325000Y-133985000D03*
X187325000Y-139065000D03*
D19*
X142240000Y-132080000D03*
D18*
X142240000Y-129540000D03*
D19*
X191770000Y-127635000D03*
D18*
X191770000Y-125095000D03*
D19*
X191770000Y-137795000D03*
D18*
X191770000Y-135255000D03*
X149860000Y-123825000D03*
X157480000Y-123825000D03*
X142113000Y-114173000D03*
X142113000Y-121793000D03*
X172720000Y-116840000D03*
X180340000Y-116840000D03*
X162560000Y-119380000D03*
X172720000Y-119380000D03*
X161925000Y-109220000D03*
X161925000Y-116840000D03*
X164465000Y-130175000D03*
X164465000Y-137795000D03*
X157480000Y-128270000D03*
X149860000Y-128270000D03*
X179070000Y-120650000D03*
X179070000Y-128270000D03*
X182880000Y-131445000D03*
X175260000Y-131445000D03*
X172085000Y-131445000D03*
X172085000Y-139065000D03*
X156845000Y-133350000D03*
X149225000Y-133350000D03*
D19*
X186690000Y-116713000D03*
D18*
X189230000Y-116713000D03*
X191770000Y-116713000D03*
D20*
X142240000Y-109601000D03*
X144780000Y-107061000D03*
X147320000Y-109601000D03*
D19*
X150495000Y-136525000D03*
D18*
X153035000Y-136525000D03*
X155575000Y-136525000D03*
D19*
X191770000Y-109855000D03*
D18*
X189230000Y-109855000D03*
X186690000Y-109855000D03*
D19*
X181610000Y-109855000D03*
D18*
X179070000Y-109855000D03*
X176530000Y-109855000D03*
D21*
X150495000Y-112395000D03*
D22*
X150495000Y-114935000D03*
X150495000Y-117475000D03*
X150495000Y-120015000D03*
X158115000Y-120015000D03*
X158115000Y-117475000D03*
X158115000Y-114935000D03*
X158115000Y-112395000D03*
M02*
