M48
;DRILL file {kicad (2014-10-18 BZR 5203)-product} date 23/10/2014 11:23:10
;FORMAT={-:-/ absolute / inch / decimal}
FMAT,2
INCH,TZ
T1C0.032
T2C0.039
%
G90
G05
M72
T1
X5.605Y-4.565
X5.605Y-4.765
X5.705Y-4.355
X5.705Y-4.525
X5.705Y-4.825
X5.745Y-5.135
X5.805Y-4.255
X5.805Y-4.535
X5.805Y-4.835
X5.895Y-4.925
X5.895Y-5.025
X5.905Y-4.355
X5.905Y-4.515
X5.905Y-4.815
X5.945Y-5.135
X6.045Y-4.305
X6.045Y-4.405
X6.045Y-4.505
X6.045Y-4.605
X6.045Y-4.74
X6.045Y-4.855
X6.075Y-4.975
X6.275Y-4.975
X6.345Y-4.305
X6.345Y-4.405
X6.345Y-4.505
X6.345Y-4.605
X6.345Y-4.74
X6.345Y-4.855
X6.465Y-4.985
X6.485Y-4.305
X6.485Y-4.405
X6.485Y-4.505
X6.485Y-4.605
X6.535Y-4.735
X6.535Y-4.885
X6.685Y-4.305
X6.735Y-4.735
X6.735Y-4.885
X6.765Y-4.985
X6.775Y-5.135
X6.785Y-4.405
X6.785Y-4.505
X6.785Y-4.605
X6.875Y-4.545
X6.875Y-4.845
X6.875Y-5.135
X6.915Y-4.955
X6.925Y-4.285
X6.925Y-4.385
X6.975Y-4.545
X6.975Y-4.845
X6.985Y-5.135
X7.085Y-4.575
X7.085Y-5.135
X7.115Y-4.955
X7.185Y-4.575
T2
X5.615Y-4.935
X5.615Y-5.035
X6.075Y-5.135
X6.175Y-5.135
X6.275Y-5.135
X6.425Y-5.135
X6.525Y-5.135
X6.625Y-5.135
X7.085Y-4.375
X7.175Y-4.745
X7.175Y-4.845
X7.185Y-4.375
T0
M30
