%FSLAX46Y46*%
G04 Gerber Fmt 4.6, Leading zero omitted, Abs format (unit mm)*
G04 Created by KiCad (PCBNEW (2014-08-06 BZR 5059)-product) date 24/08/2014 19:27:10*
%MOMM*%
G01*
G04 APERTURE LIST*
%ADD10C,0.150000*%
%ADD11C,1.778000*%
%ADD12R,1.778000X1.778000*%
%ADD13C,1.524000*%
%ADD14R,2.286000X1.778000*%
%ADD15O,2.286000X1.778000*%
%ADD16C,0.762000*%
G04 APERTURE END LIST*
D10*
D11*
X142240000Y-125095000D03*
X147320000Y-125095000D03*
X164465000Y-110490000D03*
X164465000Y-115570000D03*
X167640000Y-110490000D03*
X167640000Y-115570000D03*
X167640000Y-137160000D03*
X167640000Y-132080000D03*
X155575000Y-130810000D03*
X150495000Y-130810000D03*
X160020000Y-136525000D03*
X160020000Y-131445000D03*
D12*
X173990000Y-124460000D03*
D11*
X173990000Y-127000000D03*
D12*
X176530000Y-135509000D03*
D11*
X176530000Y-138049000D03*
D12*
X184785000Y-125730000D03*
D11*
X187325000Y-125730000D03*
D12*
X182880000Y-135509000D03*
D11*
X182880000Y-138049000D03*
X145923000Y-115824000D03*
X145923000Y-120904000D03*
D12*
X144780000Y-137160000D03*
D11*
X142240000Y-137160000D03*
X187325000Y-133985000D03*
X187325000Y-139065000D03*
D12*
X142240000Y-132080000D03*
D11*
X142240000Y-129540000D03*
D12*
X191770000Y-127635000D03*
D11*
X191770000Y-125095000D03*
D12*
X191770000Y-137795000D03*
D11*
X191770000Y-135255000D03*
X149860000Y-123825000D03*
X157480000Y-123825000D03*
X142113000Y-114173000D03*
X142113000Y-121793000D03*
X172720000Y-116840000D03*
X180340000Y-116840000D03*
X162560000Y-119380000D03*
X172720000Y-119380000D03*
X161925000Y-109220000D03*
X161925000Y-116840000D03*
X164465000Y-130175000D03*
X164465000Y-137795000D03*
X157480000Y-128270000D03*
X149860000Y-128270000D03*
X179070000Y-120650000D03*
X179070000Y-128270000D03*
X182880000Y-131445000D03*
X175260000Y-131445000D03*
X172085000Y-131445000D03*
X172085000Y-139065000D03*
X156845000Y-133350000D03*
X149225000Y-133350000D03*
D12*
X186690000Y-116713000D03*
D11*
X189230000Y-116713000D03*
X191770000Y-116713000D03*
D13*
X142240000Y-109601000D03*
X144780000Y-107061000D03*
X147320000Y-109601000D03*
D12*
X150495000Y-136525000D03*
D11*
X153035000Y-136525000D03*
X155575000Y-136525000D03*
D12*
X191770000Y-109855000D03*
D11*
X189230000Y-109855000D03*
X186690000Y-109855000D03*
D12*
X181610000Y-109855000D03*
D11*
X179070000Y-109855000D03*
X176530000Y-109855000D03*
D14*
X150495000Y-112395000D03*
D15*
X150495000Y-114935000D03*
X150495000Y-117475000D03*
X150495000Y-120015000D03*
X158115000Y-120015000D03*
X158115000Y-117475000D03*
X158115000Y-114935000D03*
X158115000Y-112395000D03*
D16*
X190500000Y-133985000D02*
X187325000Y-133985000D01*
X191770000Y-135255000D02*
X190500000Y-133985000D01*
X186182300Y-133985000D02*
X184658300Y-135509000D01*
X187325000Y-133985000D02*
X186182300Y-133985000D01*
X182880000Y-135509000D02*
X184658300Y-135509000D01*
X147573700Y-120904000D02*
X145923000Y-120904000D01*
X148462700Y-120015000D02*
X147573700Y-120904000D01*
X150495000Y-120015000D02*
X148462700Y-120015000D01*
X182880000Y-138049000D02*
X176530000Y-138049000D01*
X175514000Y-139065000D02*
X176530000Y-138049000D01*
X172085000Y-139065000D02*
X175514000Y-139065000D01*
X171519000Y-139631000D02*
X172085000Y-139065000D01*
X144175100Y-139631000D02*
X171519000Y-139631000D01*
X142240000Y-137695900D02*
X144175100Y-139631000D01*
X142240000Y-137160000D02*
X142240000Y-137695900D01*
X172085000Y-131445000D02*
X175260000Y-131445000D01*
X170939500Y-130299500D02*
X172085000Y-131445000D01*
X166880400Y-130299500D02*
X170939500Y-130299500D01*
X165194400Y-131985500D02*
X166880400Y-130299500D01*
X163695100Y-131985500D02*
X165194400Y-131985500D01*
X162325000Y-130615400D02*
X163695100Y-131985500D01*
X162325000Y-128670000D02*
X162325000Y-130615400D01*
X157480000Y-123825000D02*
X162325000Y-128670000D01*
X142516900Y-121793000D02*
X142113000Y-121793000D01*
X148462700Y-115847200D02*
X142516900Y-121793000D01*
X148462700Y-114935000D02*
X148462700Y-115847200D01*
X150495000Y-114935000D02*
X148462700Y-114935000D01*
X168910000Y-113030000D02*
X172720000Y-116840000D01*
X167005000Y-113030000D02*
X168910000Y-113030000D01*
X164465000Y-110490000D02*
X167005000Y-113030000D01*
X150495000Y-112395000D02*
X150495000Y-110616700D01*
X160528300Y-111633300D02*
X160528300Y-110616700D01*
X164465000Y-115570000D02*
X160528300Y-111633300D01*
X160528300Y-110616700D02*
X161925000Y-109220000D01*
X160528300Y-110616700D02*
X150495000Y-110616700D01*
X148335700Y-110616700D02*
X147320000Y-109601000D01*
X150495000Y-110616700D02*
X148335700Y-110616700D01*
X168893700Y-110490000D02*
X167640000Y-110490000D01*
X174503600Y-116099900D02*
X168893700Y-110490000D01*
X174503600Y-117596400D02*
X174503600Y-116099900D01*
X172720000Y-119380000D02*
X174503600Y-117596400D01*
X163921200Y-138338800D02*
X164465000Y-137795000D01*
X154848800Y-138338800D02*
X163921200Y-138338800D01*
X153035000Y-136525000D02*
X154848800Y-138338800D01*
X167005000Y-137795000D02*
X167640000Y-137160000D01*
X164465000Y-137795000D02*
X167005000Y-137795000D01*
X161290000Y-117475000D02*
X158115000Y-117475000D01*
X161925000Y-116840000D02*
X161290000Y-117475000D01*
X153035000Y-120522700D02*
X153035000Y-136525000D01*
X156082700Y-117475000D02*
X153035000Y-120522700D01*
X158115000Y-117475000D02*
X156082700Y-117475000D01*
X160020000Y-130810000D02*
X160020000Y-131445000D01*
X157480000Y-128270000D02*
X160020000Y-130810000D01*
X166464100Y-133255900D02*
X167640000Y-132080000D01*
X161830900Y-133255900D02*
X166464100Y-133255900D01*
X160020000Y-131445000D02*
X161830900Y-133255900D01*
X191770000Y-109855000D02*
X191770000Y-111633300D01*
X193548300Y-113411600D02*
X191770000Y-111633300D01*
X193548300Y-117477900D02*
X193548300Y-113411600D01*
X190122200Y-120904000D02*
X193548300Y-117477900D01*
X186521100Y-120904000D02*
X190122200Y-120904000D01*
X182670200Y-124754900D02*
X186521100Y-120904000D01*
X182670200Y-127185200D02*
X182670200Y-124754900D01*
X176589700Y-133265700D02*
X182670200Y-127185200D01*
X168825700Y-133265700D02*
X176589700Y-133265700D01*
X167640000Y-132080000D02*
X168825700Y-133265700D01*
X155003800Y-131381200D02*
X155575000Y-130810000D01*
X155003800Y-135953800D02*
X155003800Y-131381200D01*
X155575000Y-136525000D02*
X155003800Y-135953800D01*
X156845000Y-133350000D02*
X160020000Y-136525000D01*
X181610000Y-113030000D02*
X164465000Y-130175000D01*
X181610000Y-109855000D02*
X181610000Y-113030000D01*
X173990000Y-124460000D02*
X175768300Y-124460000D01*
X186690000Y-113030000D02*
X179070000Y-120650000D01*
X186690000Y-109855000D02*
X186690000Y-113030000D01*
X175768300Y-123951700D02*
X175768300Y-124460000D01*
X179070000Y-120650000D02*
X175768300Y-123951700D01*
X189230000Y-109855000D02*
X189230000Y-116713000D01*
X187960000Y-125095000D02*
X187325000Y-125730000D01*
X191770000Y-125095000D02*
X187960000Y-125095000D01*
X145637200Y-115538200D02*
X145923000Y-115824000D01*
X145637200Y-108884400D02*
X145637200Y-115538200D01*
X147079900Y-107441700D02*
X145637200Y-108884400D01*
X174116700Y-107441700D02*
X147079900Y-107441700D01*
X176530000Y-109855000D02*
X174116700Y-107441700D01*
X142113000Y-109728000D02*
X142113000Y-114173000D01*
X142240000Y-109601000D02*
X142113000Y-109728000D01*
M02*
