%FSLAX46Y46*%
G04 Gerber Fmt 4.6, Leading zero omitted, Abs format (unit mm)*
G04 Created by KiCad (PCBNEW (2014-10-18 BZR 5203)-product) date 09/12/2014 12:15:24*
%MOMM*%
G01*
G04 APERTURE LIST*
%ADD10C,0.150000*%
%ADD11C,1.778000*%
%ADD12R,1.778000X1.778000*%
%ADD13R,2.000000X2.000000*%
%ADD14C,2.000000*%
%ADD15R,2.286000X1.778000*%
%ADD16O,2.286000X1.778000*%
%ADD17C,0.381000*%
%ADD18C,0.254000*%
G04 APERTURE END LIST*
D10*
D11*
X147701000Y-113411000D03*
X147701000Y-108331000D03*
X147701000Y-122301000D03*
X147701000Y-127381000D03*
X164211000Y-123063000D03*
X169291000Y-123063000D03*
X150495000Y-127381000D03*
X150495000Y-122301000D03*
X164211000Y-120015000D03*
X169291000Y-120015000D03*
D12*
X174625000Y-126873000D03*
D11*
X172085000Y-126873000D03*
D12*
X182499000Y-117983000D03*
D11*
X185039000Y-117983000D03*
D12*
X179959000Y-126873000D03*
D11*
X177419000Y-126873000D03*
D12*
X175387000Y-111887000D03*
D11*
X175387000Y-109347000D03*
X164719000Y-109347000D03*
X169799000Y-109347000D03*
X153543000Y-120015000D03*
X161163000Y-120015000D03*
X171577000Y-111887000D03*
X163957000Y-111887000D03*
X163957000Y-116967000D03*
X171577000Y-116967000D03*
X161163000Y-123063000D03*
X153543000Y-123063000D03*
X179197000Y-118491000D03*
X179197000Y-110871000D03*
X174117000Y-115189000D03*
X174117000Y-122809000D03*
X176657000Y-122809000D03*
X176657000Y-115189000D03*
X163957000Y-114427000D03*
X171577000Y-114427000D03*
X150495000Y-109347000D03*
X150495000Y-116967000D03*
D13*
X168783000Y-127127000D03*
D14*
X166243000Y-127127000D03*
X163703000Y-127127000D03*
D13*
X159639000Y-127127000D03*
D14*
X157099000Y-127127000D03*
X154559000Y-127127000D03*
D13*
X145923000Y-119253000D03*
D14*
X145923000Y-116713000D03*
D13*
X183769000Y-124841000D03*
D14*
X183769000Y-122301000D03*
D13*
X183769000Y-113665000D03*
D14*
X183769000Y-111125000D03*
D15*
X153543000Y-109347000D03*
D16*
X153543000Y-111887000D03*
X153543000Y-114427000D03*
X153543000Y-116967000D03*
X161163000Y-116967000D03*
X161163000Y-114427000D03*
X161163000Y-111887000D03*
X161163000Y-109347000D03*
D17*
X174117000Y-122809000D02*
X174117000Y-126365000D01*
X174117000Y-126365000D02*
X174625000Y-126873000D01*
X176657000Y-122809000D02*
X174117000Y-122809000D01*
X161163000Y-120015000D02*
X161163000Y-116967000D01*
X145923000Y-116586000D02*
X146431000Y-116078000D01*
X146431000Y-116078000D02*
X147193000Y-113792000D01*
X147193000Y-113792000D02*
X147701000Y-113284000D01*
X147701000Y-108331000D02*
X147701000Y-108839000D01*
X153035000Y-114427000D02*
X153543000Y-114427000D01*
X147701000Y-108839000D02*
X153035000Y-114427000D01*
X153543000Y-120142000D02*
X153543000Y-120015000D01*
X153543000Y-120015000D02*
X155321000Y-118237000D01*
X155321000Y-118237000D02*
X155321000Y-117598275D01*
X155321000Y-117598275D02*
X155321010Y-117598265D01*
X155321010Y-117598265D02*
X155321010Y-116335735D01*
X155321010Y-116335735D02*
X155321000Y-116335725D01*
X155321000Y-116335725D02*
X155321000Y-114935000D01*
X155321000Y-114935000D02*
X154813000Y-114427000D01*
X154813000Y-114427000D02*
X153543000Y-114427000D01*
X147701000Y-122301000D02*
X150495000Y-119507000D01*
X150495000Y-119507000D02*
X150495000Y-116967000D01*
X147701000Y-127381000D02*
X149225000Y-128905000D01*
X149225000Y-128905000D02*
X157646822Y-128905000D01*
X157646822Y-128905000D02*
X158139754Y-128412068D01*
X158139754Y-128412068D02*
X159639000Y-127127000D01*
X165735000Y-116967000D02*
X165735000Y-122301000D01*
X165735000Y-122301000D02*
X164973000Y-123063000D01*
X164973000Y-123063000D02*
X164211000Y-123063000D01*
X166751000Y-116967000D02*
X165735000Y-116967000D01*
X165735000Y-116967000D02*
X165735000Y-112395000D01*
X165735000Y-112395000D02*
X165227000Y-111887000D01*
X165227000Y-111887000D02*
X163957000Y-111887000D01*
X161163000Y-114427000D02*
X163703000Y-111887000D01*
X163703000Y-111887000D02*
X163957000Y-111887000D01*
X167513000Y-116967000D02*
X166751000Y-116967000D01*
X171577000Y-116967000D02*
X167513000Y-116967000D01*
X163957000Y-112171478D02*
X163957000Y-111887000D01*
X161163000Y-123063000D02*
X160909000Y-123063000D01*
X169291000Y-120015000D02*
X178181000Y-120015000D01*
X178181000Y-120015000D02*
X179197000Y-118491000D01*
X168783000Y-127127000D02*
X169291000Y-126873000D01*
X169291000Y-126873000D02*
X169291000Y-123063000D01*
X169291000Y-123063000D02*
X169291000Y-122555000D01*
X169291000Y-122555000D02*
X169291000Y-120015000D01*
X161099650Y-111950350D02*
X161163000Y-111887000D01*
X166243000Y-127127000D02*
X168783000Y-127127000D01*
X150495000Y-127381000D02*
X150749000Y-127127000D01*
X150749000Y-127127000D02*
X154432000Y-127127000D01*
X154432000Y-127127000D02*
X154559000Y-127000000D01*
X150495000Y-122301000D02*
X151257000Y-123063000D01*
X151257000Y-123063000D02*
X153543000Y-123063000D01*
X163703000Y-127127000D02*
X162687000Y-125857000D01*
X162687000Y-125857000D02*
X162687000Y-121539000D01*
X162687000Y-121539000D02*
X164211000Y-120015000D01*
X163957000Y-116967000D02*
X163957000Y-119761000D01*
X163957000Y-119761000D02*
X164211000Y-120015000D01*
X163957000Y-114427000D02*
X163957000Y-116967000D01*
X179197000Y-110871000D02*
X179197000Y-115189000D01*
X179197000Y-115189000D02*
X181229000Y-117221000D01*
X181229000Y-117221000D02*
X181991000Y-117475000D01*
X181991000Y-117475000D02*
X182499000Y-117983000D01*
X183769000Y-122301000D02*
X185039000Y-120777000D01*
X185039000Y-120777000D02*
X185039000Y-117983000D01*
X171577000Y-114427000D02*
X172085000Y-114427000D01*
X172085000Y-114427000D02*
X174371000Y-112141000D01*
X174371000Y-112141000D02*
X174879000Y-112141000D01*
X174879000Y-112141000D02*
X175387000Y-111887000D01*
X171577000Y-111887000D02*
X170053000Y-111887000D01*
X170053000Y-111887000D02*
X165227000Y-107315000D01*
X165227000Y-107315000D02*
X158877000Y-107315000D01*
X158877000Y-107315000D02*
X156845000Y-109347000D01*
X156845000Y-109347000D02*
X153543000Y-109347000D01*
X150495000Y-109347000D02*
X153543000Y-109347000D01*
X153543000Y-109347000D02*
X153543000Y-111887000D01*
D18*
G36*
X185853000Y-116670839D02*
X185414908Y-116488927D01*
X185414908Y-111389539D01*
X185390856Y-110739540D01*
X185188387Y-110250736D01*
X184921532Y-110152073D01*
X184741927Y-110331678D01*
X184741927Y-109972468D01*
X184643264Y-109705613D01*
X184033539Y-109479092D01*
X183383540Y-109503144D01*
X182894736Y-109705613D01*
X182796073Y-109972468D01*
X183769000Y-110945395D01*
X184741927Y-109972468D01*
X184741927Y-110331678D01*
X183948605Y-111125000D01*
X183962747Y-111139142D01*
X183783142Y-111318747D01*
X183769000Y-111304605D01*
X183754857Y-111318747D01*
X183575252Y-111139142D01*
X183589395Y-111125000D01*
X182616468Y-110152073D01*
X182349613Y-110250736D01*
X182123092Y-110860461D01*
X182147144Y-111510460D01*
X182349613Y-111999264D01*
X182543675Y-112071013D01*
X182409302Y-112126673D01*
X182230673Y-112305301D01*
X182134000Y-112538690D01*
X182134000Y-112791309D01*
X182134000Y-114791309D01*
X182230673Y-115024698D01*
X182409301Y-115203327D01*
X182642690Y-115300000D01*
X182895309Y-115300000D01*
X184895309Y-115300000D01*
X185128698Y-115203327D01*
X185307327Y-115024699D01*
X185404000Y-114791310D01*
X185404000Y-114538691D01*
X185404000Y-112538691D01*
X185307327Y-112305302D01*
X185128699Y-112126673D01*
X184994325Y-112071013D01*
X185188387Y-111999264D01*
X185414908Y-111389539D01*
X185414908Y-116488927D01*
X185343472Y-116459265D01*
X184737188Y-116458736D01*
X184176851Y-116690262D01*
X183986707Y-116880073D01*
X183926327Y-116734302D01*
X183747699Y-116555673D01*
X183514310Y-116459000D01*
X183261691Y-116459000D01*
X181634434Y-116459000D01*
X180022500Y-114847066D01*
X180022500Y-112178881D01*
X180059149Y-112163738D01*
X180488231Y-111735404D01*
X180720735Y-111175472D01*
X180721264Y-110569188D01*
X180489738Y-110008851D01*
X180061404Y-109579769D01*
X179501472Y-109347265D01*
X178895188Y-109346736D01*
X178334851Y-109578262D01*
X177905769Y-110006596D01*
X177673265Y-110566528D01*
X177672736Y-111172812D01*
X177904262Y-111733149D01*
X178332596Y-112162231D01*
X178371500Y-112178385D01*
X178371500Y-115189000D01*
X178434337Y-115504906D01*
X178613283Y-115772717D01*
X180025374Y-117184808D01*
X179501472Y-116967265D01*
X178895188Y-116966736D01*
X178334851Y-117198262D01*
X178181264Y-117351581D01*
X178181264Y-114887188D01*
X177949738Y-114326851D01*
X177521404Y-113897769D01*
X176961472Y-113665265D01*
X176355188Y-113664736D01*
X175794851Y-113896262D01*
X175365769Y-114324596D01*
X175354595Y-114351505D01*
X175189196Y-114296409D01*
X174296605Y-115189000D01*
X175189196Y-116081591D01*
X175354137Y-116026646D01*
X175364262Y-116051149D01*
X175792596Y-116480231D01*
X176352528Y-116712735D01*
X176958812Y-116713264D01*
X177519149Y-116481738D01*
X177948231Y-116053404D01*
X178180735Y-115493472D01*
X178181264Y-114887188D01*
X178181264Y-117351581D01*
X177905769Y-117626596D01*
X177673265Y-118186528D01*
X177672736Y-118792812D01*
X177799360Y-119099267D01*
X177739205Y-119189500D01*
X175009591Y-119189500D01*
X175009591Y-116261196D01*
X174117000Y-115368605D01*
X173224409Y-116261196D01*
X173309467Y-116516539D01*
X173878965Y-116724516D01*
X174484700Y-116698723D01*
X174924533Y-116516539D01*
X175009591Y-116261196D01*
X175009591Y-119189500D01*
X170598881Y-119189500D01*
X170583738Y-119152851D01*
X170155404Y-118723769D01*
X169595472Y-118491265D01*
X168989188Y-118490736D01*
X168428851Y-118722262D01*
X167999769Y-119150596D01*
X167767265Y-119710528D01*
X167766736Y-120316812D01*
X167998262Y-120877149D01*
X168426596Y-121306231D01*
X168465500Y-121322385D01*
X168465500Y-121755118D01*
X168428851Y-121770262D01*
X167999769Y-122198596D01*
X167767265Y-122758528D01*
X167766736Y-123364812D01*
X167998262Y-123925149D01*
X168426596Y-124354231D01*
X168465500Y-124370385D01*
X168465500Y-125492000D01*
X167656691Y-125492000D01*
X167423302Y-125588673D01*
X167244673Y-125767301D01*
X167230369Y-125801833D01*
X167170363Y-125741722D01*
X166569648Y-125492284D01*
X165919205Y-125491716D01*
X165318057Y-125740106D01*
X164972800Y-126084759D01*
X164630363Y-125741722D01*
X164029648Y-125492284D01*
X163512500Y-125491832D01*
X163512500Y-124423120D01*
X163906528Y-124586735D01*
X164512812Y-124587264D01*
X165073149Y-124355738D01*
X165502231Y-123927404D01*
X165662854Y-123540579D01*
X166318713Y-122884719D01*
X166318717Y-122884717D01*
X166318717Y-122884716D01*
X166497663Y-122616905D01*
X166560500Y-122301000D01*
X166560501Y-122301000D01*
X166560500Y-122300994D01*
X166560500Y-117792500D01*
X166751000Y-117792500D01*
X167513000Y-117792500D01*
X170269118Y-117792500D01*
X170284262Y-117829149D01*
X170712596Y-118258231D01*
X171272528Y-118490735D01*
X171878812Y-118491264D01*
X172439149Y-118259738D01*
X172868231Y-117831404D01*
X173100735Y-117271472D01*
X173101264Y-116665188D01*
X172869738Y-116104851D01*
X172462262Y-115696664D01*
X172607081Y-115552098D01*
X172607277Y-115556700D01*
X172789461Y-115996533D01*
X173044804Y-116081591D01*
X173937395Y-115189000D01*
X173923252Y-115174857D01*
X174102857Y-114995252D01*
X174117000Y-115009395D01*
X175009591Y-114116804D01*
X174924533Y-113861461D01*
X174355035Y-113653484D01*
X174011313Y-113668120D01*
X174298677Y-113380756D01*
X174371690Y-113411000D01*
X174624309Y-113411000D01*
X176402309Y-113411000D01*
X176635698Y-113314327D01*
X176814327Y-113135699D01*
X176911000Y-112902310D01*
X176911000Y-112649691D01*
X176911000Y-110871691D01*
X176814327Y-110638302D01*
X176635699Y-110459673D01*
X176489988Y-110399317D01*
X176678231Y-110211404D01*
X176910735Y-109651472D01*
X176911264Y-109045188D01*
X176679738Y-108484851D01*
X176251404Y-108055769D01*
X175691472Y-107823265D01*
X175085188Y-107822736D01*
X174524851Y-108054262D01*
X174095769Y-108482596D01*
X173863265Y-109042528D01*
X173862736Y-109648812D01*
X174094262Y-110209149D01*
X174284073Y-110399292D01*
X174138302Y-110459673D01*
X173959673Y-110638301D01*
X173863000Y-110871690D01*
X173863000Y-111124309D01*
X173863000Y-111506690D01*
X173787283Y-111557283D01*
X173063555Y-112281010D01*
X173100735Y-112191472D01*
X173101264Y-111585188D01*
X172869738Y-111024851D01*
X172441404Y-110595769D01*
X171881472Y-110363265D01*
X171275188Y-110362736D01*
X170714851Y-110594262D01*
X170312600Y-110995811D01*
X170156741Y-110848154D01*
X170661149Y-110639738D01*
X171090231Y-110211404D01*
X171322735Y-109651472D01*
X171323264Y-109045188D01*
X171091738Y-108484851D01*
X170663404Y-108055769D01*
X170103472Y-107823265D01*
X169497188Y-107822736D01*
X168936851Y-108054262D01*
X168507769Y-108482596D01*
X168275265Y-109042528D01*
X168275244Y-109065684D01*
X165794733Y-106715726D01*
X165667727Y-106635740D01*
X165542905Y-106552337D01*
X165531780Y-106550124D01*
X165522185Y-106544081D01*
X165374225Y-106518784D01*
X165227000Y-106489500D01*
X158877005Y-106489500D01*
X158877000Y-106489499D01*
X158561094Y-106552337D01*
X158293283Y-106731283D01*
X156503066Y-108521500D01*
X155321000Y-108521500D01*
X155321000Y-108331691D01*
X155224327Y-108098302D01*
X155045699Y-107919673D01*
X154812310Y-107823000D01*
X154559691Y-107823000D01*
X152273691Y-107823000D01*
X152040302Y-107919673D01*
X151861673Y-108098301D01*
X151765000Y-108331690D01*
X151765000Y-108462073D01*
X151359404Y-108055769D01*
X150799472Y-107823265D01*
X150193188Y-107822736D01*
X149632851Y-108054262D01*
X149224886Y-108461515D01*
X149225264Y-108029188D01*
X148993738Y-107468851D01*
X148565404Y-107039769D01*
X148005472Y-106807265D01*
X147399188Y-106806736D01*
X146838851Y-107038262D01*
X146409769Y-107466596D01*
X146375193Y-107549863D01*
X146228281Y-106811287D01*
X145851236Y-106247000D01*
X183078763Y-106247000D01*
X182701719Y-106811287D01*
X182551000Y-107569000D01*
X182701719Y-108326713D01*
X183130929Y-108969071D01*
X183773287Y-109398281D01*
X184531000Y-109549000D01*
X185288713Y-109398281D01*
X185853000Y-109021236D01*
X185853000Y-116670839D01*
X185853000Y-116670839D01*
G37*
X185853000Y-116670839D02*
X185414908Y-116488927D01*
X185414908Y-111389539D01*
X185390856Y-110739540D01*
X185188387Y-110250736D01*
X184921532Y-110152073D01*
X184741927Y-110331678D01*
X184741927Y-109972468D01*
X184643264Y-109705613D01*
X184033539Y-109479092D01*
X183383540Y-109503144D01*
X182894736Y-109705613D01*
X182796073Y-109972468D01*
X183769000Y-110945395D01*
X184741927Y-109972468D01*
X184741927Y-110331678D01*
X183948605Y-111125000D01*
X183962747Y-111139142D01*
X183783142Y-111318747D01*
X183769000Y-111304605D01*
X183754857Y-111318747D01*
X183575252Y-111139142D01*
X183589395Y-111125000D01*
X182616468Y-110152073D01*
X182349613Y-110250736D01*
X182123092Y-110860461D01*
X182147144Y-111510460D01*
X182349613Y-111999264D01*
X182543675Y-112071013D01*
X182409302Y-112126673D01*
X182230673Y-112305301D01*
X182134000Y-112538690D01*
X182134000Y-112791309D01*
X182134000Y-114791309D01*
X182230673Y-115024698D01*
X182409301Y-115203327D01*
X182642690Y-115300000D01*
X182895309Y-115300000D01*
X184895309Y-115300000D01*
X185128698Y-115203327D01*
X185307327Y-115024699D01*
X185404000Y-114791310D01*
X185404000Y-114538691D01*
X185404000Y-112538691D01*
X185307327Y-112305302D01*
X185128699Y-112126673D01*
X184994325Y-112071013D01*
X185188387Y-111999264D01*
X185414908Y-111389539D01*
X185414908Y-116488927D01*
X185343472Y-116459265D01*
X184737188Y-116458736D01*
X184176851Y-116690262D01*
X183986707Y-116880073D01*
X183926327Y-116734302D01*
X183747699Y-116555673D01*
X183514310Y-116459000D01*
X183261691Y-116459000D01*
X181634434Y-116459000D01*
X180022500Y-114847066D01*
X180022500Y-112178881D01*
X180059149Y-112163738D01*
X180488231Y-111735404D01*
X180720735Y-111175472D01*
X180721264Y-110569188D01*
X180489738Y-110008851D01*
X180061404Y-109579769D01*
X179501472Y-109347265D01*
X178895188Y-109346736D01*
X178334851Y-109578262D01*
X177905769Y-110006596D01*
X177673265Y-110566528D01*
X177672736Y-111172812D01*
X177904262Y-111733149D01*
X178332596Y-112162231D01*
X178371500Y-112178385D01*
X178371500Y-115189000D01*
X178434337Y-115504906D01*
X178613283Y-115772717D01*
X180025374Y-117184808D01*
X179501472Y-116967265D01*
X178895188Y-116966736D01*
X178334851Y-117198262D01*
X178181264Y-117351581D01*
X178181264Y-114887188D01*
X177949738Y-114326851D01*
X177521404Y-113897769D01*
X176961472Y-113665265D01*
X176355188Y-113664736D01*
X175794851Y-113896262D01*
X175365769Y-114324596D01*
X175354595Y-114351505D01*
X175189196Y-114296409D01*
X174296605Y-115189000D01*
X175189196Y-116081591D01*
X175354137Y-116026646D01*
X175364262Y-116051149D01*
X175792596Y-116480231D01*
X176352528Y-116712735D01*
X176958812Y-116713264D01*
X177519149Y-116481738D01*
X177948231Y-116053404D01*
X178180735Y-115493472D01*
X178181264Y-114887188D01*
X178181264Y-117351581D01*
X177905769Y-117626596D01*
X177673265Y-118186528D01*
X177672736Y-118792812D01*
X177799360Y-119099267D01*
X177739205Y-119189500D01*
X175009591Y-119189500D01*
X175009591Y-116261196D01*
X174117000Y-115368605D01*
X173224409Y-116261196D01*
X173309467Y-116516539D01*
X173878965Y-116724516D01*
X174484700Y-116698723D01*
X174924533Y-116516539D01*
X175009591Y-116261196D01*
X175009591Y-119189500D01*
X170598881Y-119189500D01*
X170583738Y-119152851D01*
X170155404Y-118723769D01*
X169595472Y-118491265D01*
X168989188Y-118490736D01*
X168428851Y-118722262D01*
X167999769Y-119150596D01*
X167767265Y-119710528D01*
X167766736Y-120316812D01*
X167998262Y-120877149D01*
X168426596Y-121306231D01*
X168465500Y-121322385D01*
X168465500Y-121755118D01*
X168428851Y-121770262D01*
X167999769Y-122198596D01*
X167767265Y-122758528D01*
X167766736Y-123364812D01*
X167998262Y-123925149D01*
X168426596Y-124354231D01*
X168465500Y-124370385D01*
X168465500Y-125492000D01*
X167656691Y-125492000D01*
X167423302Y-125588673D01*
X167244673Y-125767301D01*
X167230369Y-125801833D01*
X167170363Y-125741722D01*
X166569648Y-125492284D01*
X165919205Y-125491716D01*
X165318057Y-125740106D01*
X164972800Y-126084759D01*
X164630363Y-125741722D01*
X164029648Y-125492284D01*
X163512500Y-125491832D01*
X163512500Y-124423120D01*
X163906528Y-124586735D01*
X164512812Y-124587264D01*
X165073149Y-124355738D01*
X165502231Y-123927404D01*
X165662854Y-123540579D01*
X166318713Y-122884719D01*
X166318717Y-122884717D01*
X166318717Y-122884716D01*
X166497663Y-122616905D01*
X166560500Y-122301000D01*
X166560501Y-122301000D01*
X166560500Y-122300994D01*
X166560500Y-117792500D01*
X166751000Y-117792500D01*
X167513000Y-117792500D01*
X170269118Y-117792500D01*
X170284262Y-117829149D01*
X170712596Y-118258231D01*
X171272528Y-118490735D01*
X171878812Y-118491264D01*
X172439149Y-118259738D01*
X172868231Y-117831404D01*
X173100735Y-117271472D01*
X173101264Y-116665188D01*
X172869738Y-116104851D01*
X172462262Y-115696664D01*
X172607081Y-115552098D01*
X172607277Y-115556700D01*
X172789461Y-115996533D01*
X173044804Y-116081591D01*
X173937395Y-115189000D01*
X173923252Y-115174857D01*
X174102857Y-114995252D01*
X174117000Y-115009395D01*
X175009591Y-114116804D01*
X174924533Y-113861461D01*
X174355035Y-113653484D01*
X174011313Y-113668120D01*
X174298677Y-113380756D01*
X174371690Y-113411000D01*
X174624309Y-113411000D01*
X176402309Y-113411000D01*
X176635698Y-113314327D01*
X176814327Y-113135699D01*
X176911000Y-112902310D01*
X176911000Y-112649691D01*
X176911000Y-110871691D01*
X176814327Y-110638302D01*
X176635699Y-110459673D01*
X176489988Y-110399317D01*
X176678231Y-110211404D01*
X176910735Y-109651472D01*
X176911264Y-109045188D01*
X176679738Y-108484851D01*
X176251404Y-108055769D01*
X175691472Y-107823265D01*
X175085188Y-107822736D01*
X174524851Y-108054262D01*
X174095769Y-108482596D01*
X173863265Y-109042528D01*
X173862736Y-109648812D01*
X174094262Y-110209149D01*
X174284073Y-110399292D01*
X174138302Y-110459673D01*
X173959673Y-110638301D01*
X173863000Y-110871690D01*
X173863000Y-111124309D01*
X173863000Y-111506690D01*
X173787283Y-111557283D01*
X173063555Y-112281010D01*
X173100735Y-112191472D01*
X173101264Y-111585188D01*
X172869738Y-111024851D01*
X172441404Y-110595769D01*
X171881472Y-110363265D01*
X171275188Y-110362736D01*
X170714851Y-110594262D01*
X170312600Y-110995811D01*
X170156741Y-110848154D01*
X170661149Y-110639738D01*
X171090231Y-110211404D01*
X171322735Y-109651472D01*
X171323264Y-109045188D01*
X171091738Y-108484851D01*
X170663404Y-108055769D01*
X170103472Y-107823265D01*
X169497188Y-107822736D01*
X168936851Y-108054262D01*
X168507769Y-108482596D01*
X168275265Y-109042528D01*
X168275244Y-109065684D01*
X165794733Y-106715726D01*
X165667727Y-106635740D01*
X165542905Y-106552337D01*
X165531780Y-106550124D01*
X165522185Y-106544081D01*
X165374225Y-106518784D01*
X165227000Y-106489500D01*
X158877005Y-106489500D01*
X158877000Y-106489499D01*
X158561094Y-106552337D01*
X158293283Y-106731283D01*
X156503066Y-108521500D01*
X155321000Y-108521500D01*
X155321000Y-108331691D01*
X155224327Y-108098302D01*
X155045699Y-107919673D01*
X154812310Y-107823000D01*
X154559691Y-107823000D01*
X152273691Y-107823000D01*
X152040302Y-107919673D01*
X151861673Y-108098301D01*
X151765000Y-108331690D01*
X151765000Y-108462073D01*
X151359404Y-108055769D01*
X150799472Y-107823265D01*
X150193188Y-107822736D01*
X149632851Y-108054262D01*
X149224886Y-108461515D01*
X149225264Y-108029188D01*
X148993738Y-107468851D01*
X148565404Y-107039769D01*
X148005472Y-106807265D01*
X147399188Y-106806736D01*
X146838851Y-107038262D01*
X146409769Y-107466596D01*
X146375193Y-107549863D01*
X146228281Y-106811287D01*
X145851236Y-106247000D01*
X183078763Y-106247000D01*
X182701719Y-106811287D01*
X182551000Y-107569000D01*
X182701719Y-108326713D01*
X183130929Y-108969071D01*
X183773287Y-109398281D01*
X184531000Y-109549000D01*
X185288713Y-109398281D01*
X185853000Y-109021236D01*
X185853000Y-116670839D01*
G36*
X185853000Y-127198763D02*
X185288713Y-126821719D01*
X184531000Y-126671000D01*
X183773287Y-126821719D01*
X183130929Y-127250929D01*
X182701719Y-127893287D01*
X182551000Y-128651000D01*
X182701719Y-129408713D01*
X183078763Y-129973000D01*
X181483000Y-129973000D01*
X181483000Y-127888310D01*
X181483000Y-127635691D01*
X181483000Y-127158750D01*
X181483000Y-126587250D01*
X181483000Y-126110309D01*
X181483000Y-125857690D01*
X181386327Y-125624301D01*
X181207698Y-125445673D01*
X180974309Y-125349000D01*
X180244750Y-125349000D01*
X180086000Y-125507750D01*
X180086000Y-126746000D01*
X181324250Y-126746000D01*
X181483000Y-126587250D01*
X181483000Y-127158750D01*
X181324250Y-127000000D01*
X180086000Y-127000000D01*
X180086000Y-128238250D01*
X180244750Y-128397000D01*
X180974309Y-128397000D01*
X181207698Y-128300327D01*
X181386327Y-128121699D01*
X181483000Y-127888310D01*
X181483000Y-129973000D01*
X179832000Y-129973000D01*
X179832000Y-128238250D01*
X179832000Y-127000000D01*
X179812000Y-127000000D01*
X179812000Y-126746000D01*
X179832000Y-126746000D01*
X179832000Y-125507750D01*
X179673250Y-125349000D01*
X178943691Y-125349000D01*
X178710302Y-125445673D01*
X178531673Y-125624301D01*
X178471317Y-125770011D01*
X178283404Y-125581769D01*
X177723472Y-125349265D01*
X177117188Y-125348736D01*
X176556851Y-125580262D01*
X176149000Y-125987402D01*
X176149000Y-125857691D01*
X176052327Y-125624302D01*
X175873699Y-125445673D01*
X175640310Y-125349000D01*
X175387691Y-125349000D01*
X174942500Y-125349000D01*
X174942500Y-124116881D01*
X174979149Y-124101738D01*
X175387335Y-123694262D01*
X175792596Y-124100231D01*
X176352528Y-124332735D01*
X176958812Y-124333264D01*
X177519149Y-124101738D01*
X177948231Y-123673404D01*
X178180735Y-123113472D01*
X178181264Y-122507188D01*
X177949738Y-121946851D01*
X177521404Y-121517769D01*
X176961472Y-121285265D01*
X176355188Y-121284736D01*
X175794851Y-121516262D01*
X175386664Y-121923737D01*
X174981404Y-121517769D01*
X174421472Y-121285265D01*
X173815188Y-121284736D01*
X173254851Y-121516262D01*
X172825769Y-121944596D01*
X172593265Y-122504528D01*
X172592736Y-123110812D01*
X172824262Y-123671149D01*
X173252596Y-124100231D01*
X173291500Y-124116385D01*
X173291500Y-125530474D01*
X173197673Y-125624301D01*
X173137317Y-125770011D01*
X172949404Y-125581769D01*
X172389472Y-125349265D01*
X171783188Y-125348736D01*
X171222851Y-125580262D01*
X170793769Y-126008596D01*
X170561265Y-126568528D01*
X170560736Y-127174812D01*
X170792262Y-127735149D01*
X171220596Y-128164231D01*
X171780528Y-128396735D01*
X172386812Y-128397264D01*
X172947149Y-128165738D01*
X173137292Y-127975926D01*
X173197673Y-128121698D01*
X173376301Y-128300327D01*
X173609690Y-128397000D01*
X173862309Y-128397000D01*
X175640309Y-128397000D01*
X175873698Y-128300327D01*
X176052327Y-128121699D01*
X176149000Y-127888310D01*
X176149000Y-127757926D01*
X176554596Y-128164231D01*
X177114528Y-128396735D01*
X177720812Y-128397264D01*
X178281149Y-128165738D01*
X178471291Y-127975926D01*
X178531673Y-128121699D01*
X178710302Y-128300327D01*
X178943691Y-128397000D01*
X179673250Y-128397000D01*
X179832000Y-128238250D01*
X179832000Y-129973000D01*
X161274000Y-129973000D01*
X161274000Y-128253310D01*
X161274000Y-128000691D01*
X161274000Y-126000691D01*
X161177327Y-125767302D01*
X160998699Y-125588673D01*
X160765310Y-125492000D01*
X160512691Y-125492000D01*
X158512691Y-125492000D01*
X158279302Y-125588673D01*
X158100673Y-125767301D01*
X158086369Y-125801833D01*
X158026363Y-125741722D01*
X157425648Y-125492284D01*
X156775205Y-125491716D01*
X156174057Y-125740106D01*
X155828800Y-126084759D01*
X155486363Y-125741722D01*
X154885648Y-125492284D01*
X154235205Y-125491716D01*
X153634057Y-125740106D01*
X153173722Y-126199637D01*
X153131424Y-126301500D01*
X151570765Y-126301500D01*
X151359404Y-126089769D01*
X150799472Y-125857265D01*
X150193188Y-125856736D01*
X149632851Y-126088262D01*
X149203769Y-126516596D01*
X149098027Y-126771250D01*
X148993738Y-126518851D01*
X148565404Y-126089769D01*
X148005472Y-125857265D01*
X147399188Y-125856736D01*
X146838851Y-126088262D01*
X146409769Y-126516596D01*
X146177265Y-127076528D01*
X146176736Y-127682812D01*
X146408262Y-128243149D01*
X146836596Y-128672231D01*
X147396528Y-128904735D01*
X148002812Y-128905264D01*
X148041744Y-128889177D01*
X148641280Y-129488713D01*
X148641283Y-129488717D01*
X148909094Y-129667662D01*
X148909095Y-129667663D01*
X149225000Y-129730500D01*
X157646822Y-129730500D01*
X157962727Y-129667663D01*
X157962728Y-129667663D01*
X158230539Y-129488717D01*
X158701061Y-129018194D01*
X158999955Y-128762000D01*
X160765309Y-128762000D01*
X160998698Y-128665327D01*
X161177327Y-128486699D01*
X161274000Y-128253310D01*
X161274000Y-129973000D01*
X145851236Y-129973000D01*
X146228281Y-129408713D01*
X146379000Y-128651000D01*
X146228281Y-127893287D01*
X145799071Y-127250929D01*
X145156713Y-126821719D01*
X144399000Y-126671000D01*
X143641287Y-126821719D01*
X143077000Y-127198763D01*
X143077000Y-109021236D01*
X143641287Y-109398281D01*
X144399000Y-109549000D01*
X145156713Y-109398281D01*
X145799071Y-108969071D01*
X146176936Y-108403556D01*
X146176736Y-108632812D01*
X146408262Y-109193149D01*
X146836596Y-109622231D01*
X147396528Y-109854735D01*
X147529466Y-109854850D01*
X151758383Y-114285144D01*
X151730167Y-114427000D01*
X151846175Y-115010210D01*
X152176536Y-115504631D01*
X152464437Y-115697000D01*
X152176536Y-115889369D01*
X151881282Y-116331247D01*
X151787738Y-116104851D01*
X151359404Y-115675769D01*
X150799472Y-115443265D01*
X150193188Y-115442736D01*
X149632851Y-115674262D01*
X149225264Y-116081138D01*
X149225264Y-113109188D01*
X148993738Y-112548851D01*
X148565404Y-112119769D01*
X148005472Y-111887265D01*
X147399188Y-111886736D01*
X146838851Y-112118262D01*
X146409769Y-112546596D01*
X146177265Y-113106528D01*
X146176736Y-113712812D01*
X146272216Y-113943891D01*
X145894188Y-115077973D01*
X145599205Y-115077716D01*
X144998057Y-115326106D01*
X144537722Y-115785637D01*
X144288284Y-116386352D01*
X144287716Y-117036795D01*
X144536106Y-117637943D01*
X144598250Y-117700196D01*
X144563302Y-117714673D01*
X144384673Y-117893301D01*
X144288000Y-118126690D01*
X144288000Y-118379309D01*
X144288000Y-120379309D01*
X144384673Y-120612698D01*
X144563301Y-120791327D01*
X144796690Y-120888000D01*
X145049309Y-120888000D01*
X147049309Y-120888000D01*
X147282698Y-120791327D01*
X147461327Y-120612699D01*
X147558000Y-120379310D01*
X147558000Y-120126691D01*
X147558000Y-118126691D01*
X147461327Y-117893302D01*
X147282699Y-117714673D01*
X147248166Y-117700369D01*
X147308278Y-117640363D01*
X147557716Y-117039648D01*
X147558284Y-116389205D01*
X147358549Y-115905811D01*
X147682158Y-114934984D01*
X148002812Y-114935264D01*
X148563149Y-114703738D01*
X148992231Y-114275404D01*
X149224735Y-113715472D01*
X149225264Y-113109188D01*
X149225264Y-116081138D01*
X149203769Y-116102596D01*
X148971265Y-116662528D01*
X148970736Y-117268812D01*
X149202262Y-117829149D01*
X149630596Y-118258231D01*
X149669500Y-118274385D01*
X149669500Y-119165066D01*
X148042094Y-120792471D01*
X148005472Y-120777265D01*
X147399188Y-120776736D01*
X146838851Y-121008262D01*
X146409769Y-121436596D01*
X146177265Y-121996528D01*
X146176736Y-122602812D01*
X146408262Y-123163149D01*
X146836596Y-123592231D01*
X147396528Y-123824735D01*
X148002812Y-123825264D01*
X148563149Y-123593738D01*
X148992231Y-123165404D01*
X149097972Y-122910749D01*
X149202262Y-123163149D01*
X149630596Y-123592231D01*
X150190528Y-123824735D01*
X150796812Y-123825264D01*
X150885595Y-123788579D01*
X150941095Y-123825663D01*
X151257000Y-123888501D01*
X151257000Y-123888500D01*
X151257005Y-123888500D01*
X152235118Y-123888500D01*
X152250262Y-123925149D01*
X152678596Y-124354231D01*
X153238528Y-124586735D01*
X153844812Y-124587264D01*
X154405149Y-124355738D01*
X154834231Y-123927404D01*
X155066735Y-123367472D01*
X155067264Y-122761188D01*
X154835738Y-122200851D01*
X154407404Y-121771769D01*
X153847472Y-121539265D01*
X153844815Y-121539262D01*
X154405149Y-121307738D01*
X154834231Y-120879404D01*
X155066735Y-120319472D01*
X155067264Y-119713188D01*
X155051177Y-119674255D01*
X155904713Y-118820719D01*
X155904717Y-118820717D01*
X155904717Y-118820716D01*
X156083663Y-118552905D01*
X156146500Y-118237000D01*
X156146501Y-118237000D01*
X156146500Y-118236994D01*
X156146500Y-117598315D01*
X156146510Y-117598265D01*
X156146510Y-116335735D01*
X156146500Y-116335684D01*
X156146500Y-114935000D01*
X156083663Y-114619095D01*
X156083662Y-114619094D01*
X155904717Y-114351283D01*
X155904713Y-114351280D01*
X155396717Y-113843283D01*
X155128906Y-113664337D01*
X155118541Y-113662275D01*
X155118540Y-113662275D01*
X154909464Y-113349369D01*
X154621562Y-113157000D01*
X154909464Y-112964631D01*
X155239825Y-112470210D01*
X155355833Y-111887000D01*
X155239825Y-111303790D01*
X154920657Y-110826120D01*
X155045698Y-110774327D01*
X155224327Y-110595699D01*
X155321000Y-110362310D01*
X155321000Y-110172500D01*
X156845000Y-110172500D01*
X157160905Y-110109663D01*
X157160906Y-110109663D01*
X157428717Y-109930717D01*
X159218934Y-108140500D01*
X160016340Y-108140500D01*
X159741567Y-108359171D01*
X159452407Y-108881122D01*
X159428866Y-108983987D01*
X159549670Y-109220000D01*
X161036000Y-109220000D01*
X161036000Y-109200000D01*
X161290000Y-109200000D01*
X161290000Y-109220000D01*
X162776330Y-109220000D01*
X162897134Y-108983987D01*
X162873593Y-108881122D01*
X162584433Y-108359171D01*
X162309659Y-108140500D01*
X163871147Y-108140500D01*
X163826409Y-108274804D01*
X164719000Y-109167395D01*
X164733142Y-109153252D01*
X164912747Y-109332857D01*
X164898605Y-109347000D01*
X165791196Y-110239591D01*
X166046539Y-110154533D01*
X166254516Y-109585035D01*
X166247440Y-109418858D01*
X169485267Y-112486274D01*
X169612272Y-112566259D01*
X169737095Y-112649663D01*
X169748219Y-112651875D01*
X169757815Y-112657919D01*
X169905774Y-112683215D01*
X170053000Y-112712500D01*
X170269118Y-112712500D01*
X170284262Y-112749149D01*
X170691737Y-113157335D01*
X170285769Y-113562596D01*
X170053265Y-114122528D01*
X170052736Y-114728812D01*
X170284262Y-115289149D01*
X170691737Y-115697335D01*
X170285769Y-116102596D01*
X170269614Y-116141500D01*
X167513000Y-116141500D01*
X166751000Y-116141500D01*
X166560500Y-116141500D01*
X166560500Y-112395000D01*
X166497663Y-112079095D01*
X166497662Y-112079094D01*
X166318717Y-111811283D01*
X166318713Y-111811280D01*
X165810717Y-111303283D01*
X165542906Y-111124337D01*
X165268273Y-111069709D01*
X165249738Y-111024851D01*
X165082098Y-110856918D01*
X165086700Y-110856723D01*
X165526533Y-110674539D01*
X165611591Y-110419196D01*
X164719000Y-109526605D01*
X164704857Y-109540747D01*
X164539395Y-109375285D01*
X164525252Y-109361142D01*
X164539395Y-109347000D01*
X163646804Y-108454409D01*
X163391461Y-108539467D01*
X163183484Y-109108965D01*
X163209277Y-109714700D01*
X163391461Y-110154533D01*
X163646801Y-110239590D01*
X163532212Y-110354180D01*
X163574222Y-110396190D01*
X163094851Y-110594262D01*
X162669469Y-111018902D01*
X162529464Y-110809369D01*
X162235205Y-110612752D01*
X162584433Y-110334829D01*
X162873593Y-109812878D01*
X162897134Y-109710013D01*
X162776330Y-109474000D01*
X161290000Y-109474000D01*
X161290000Y-109494000D01*
X161036000Y-109494000D01*
X161036000Y-109474000D01*
X159549670Y-109474000D01*
X159428866Y-109710013D01*
X159452407Y-109812878D01*
X159741567Y-110334829D01*
X160090794Y-110612752D01*
X159796536Y-110809369D01*
X159466175Y-111303790D01*
X159350167Y-111887000D01*
X159466175Y-112470210D01*
X159796536Y-112964631D01*
X160084437Y-113157000D01*
X159796536Y-113349369D01*
X159466175Y-113843790D01*
X159350167Y-114427000D01*
X159466175Y-115010210D01*
X159796536Y-115504631D01*
X160084437Y-115697000D01*
X159796536Y-115889369D01*
X159466175Y-116383790D01*
X159350167Y-116967000D01*
X159466175Y-117550210D01*
X159796536Y-118044631D01*
X160290957Y-118374992D01*
X160337500Y-118384250D01*
X160337500Y-118707118D01*
X160300851Y-118722262D01*
X159871769Y-119150596D01*
X159639265Y-119710528D01*
X159638736Y-120316812D01*
X159870262Y-120877149D01*
X160298596Y-121306231D01*
X160858528Y-121538735D01*
X160861184Y-121538737D01*
X160300851Y-121770262D01*
X159871769Y-122198596D01*
X159639265Y-122758528D01*
X159638736Y-123364812D01*
X159870262Y-123925149D01*
X160298596Y-124354231D01*
X160858528Y-124586735D01*
X161464812Y-124587264D01*
X161861500Y-124423356D01*
X161861500Y-125857000D01*
X161884169Y-125970969D01*
X161894116Y-126086751D01*
X161915341Y-126127682D01*
X161924337Y-126172905D01*
X161988898Y-126269528D01*
X162042393Y-126372686D01*
X162176341Y-126540121D01*
X162068284Y-126800352D01*
X162067716Y-127450795D01*
X162316106Y-128051943D01*
X162775637Y-128512278D01*
X163376352Y-128761716D01*
X164026795Y-128762284D01*
X164627943Y-128513894D01*
X164973199Y-128169240D01*
X165315637Y-128512278D01*
X165916352Y-128761716D01*
X166566795Y-128762284D01*
X167167943Y-128513894D01*
X167230196Y-128451749D01*
X167244673Y-128486698D01*
X167423301Y-128665327D01*
X167656690Y-128762000D01*
X167909309Y-128762000D01*
X169909309Y-128762000D01*
X170142698Y-128665327D01*
X170321327Y-128486699D01*
X170418000Y-128253310D01*
X170418000Y-128000691D01*
X170418000Y-126000691D01*
X170321327Y-125767302D01*
X170142699Y-125588673D01*
X170116500Y-125577821D01*
X170116500Y-124370881D01*
X170153149Y-124355738D01*
X170582231Y-123927404D01*
X170814735Y-123367472D01*
X170815264Y-122761188D01*
X170583738Y-122200851D01*
X170155404Y-121771769D01*
X170116500Y-121755614D01*
X170116500Y-121322881D01*
X170153149Y-121307738D01*
X170582231Y-120879404D01*
X170598385Y-120840500D01*
X178181000Y-120840500D01*
X178261158Y-120824555D01*
X178342894Y-120824470D01*
X178417583Y-120793441D01*
X178496905Y-120777663D01*
X178564863Y-120732254D01*
X178640341Y-120700898D01*
X178697468Y-120643650D01*
X178764717Y-120598717D01*
X178810125Y-120530758D01*
X178867858Y-120472905D01*
X179173141Y-120014979D01*
X179498812Y-120015264D01*
X180059149Y-119783738D01*
X180488231Y-119355404D01*
X180720735Y-118795472D01*
X180721264Y-118189188D01*
X180504046Y-117663480D01*
X180645283Y-117804717D01*
X180669945Y-117821195D01*
X180688131Y-117844628D01*
X180803075Y-117910150D01*
X180913094Y-117983663D01*
X180942187Y-117989450D01*
X180967954Y-118004138D01*
X180975000Y-118006486D01*
X180975000Y-118998309D01*
X181071673Y-119231698D01*
X181250301Y-119410327D01*
X181483690Y-119507000D01*
X181736309Y-119507000D01*
X183514309Y-119507000D01*
X183747698Y-119410327D01*
X183926327Y-119231699D01*
X183986682Y-119085988D01*
X184174596Y-119274231D01*
X184213500Y-119290385D01*
X184213500Y-120478127D01*
X184056731Y-120666250D01*
X183445205Y-120665716D01*
X182844057Y-120914106D01*
X182383722Y-121373637D01*
X182134284Y-121974352D01*
X182133716Y-122624795D01*
X182382106Y-123225943D01*
X182444250Y-123288196D01*
X182409302Y-123302673D01*
X182230673Y-123481301D01*
X182134000Y-123714690D01*
X182134000Y-123967309D01*
X182134000Y-125967309D01*
X182230673Y-126200698D01*
X182409301Y-126379327D01*
X182642690Y-126476000D01*
X182895309Y-126476000D01*
X184895309Y-126476000D01*
X185128698Y-126379327D01*
X185307327Y-126200699D01*
X185404000Y-125967310D01*
X185404000Y-125714691D01*
X185404000Y-123714691D01*
X185307327Y-123481302D01*
X185128699Y-123302673D01*
X185094166Y-123288369D01*
X185154278Y-123228363D01*
X185403716Y-122627648D01*
X185404284Y-121977205D01*
X185307859Y-121743840D01*
X185673166Y-121305473D01*
X185732590Y-121196278D01*
X185801663Y-121092905D01*
X185809044Y-121055793D01*
X185827131Y-121022560D01*
X185840245Y-120898934D01*
X185853000Y-120834814D01*
X185853000Y-127198763D01*
X185853000Y-127198763D01*
G37*
X185853000Y-127198763D02*
X185288713Y-126821719D01*
X184531000Y-126671000D01*
X183773287Y-126821719D01*
X183130929Y-127250929D01*
X182701719Y-127893287D01*
X182551000Y-128651000D01*
X182701719Y-129408713D01*
X183078763Y-129973000D01*
X181483000Y-129973000D01*
X181483000Y-127888310D01*
X181483000Y-127635691D01*
X181483000Y-127158750D01*
X181483000Y-126587250D01*
X181483000Y-126110309D01*
X181483000Y-125857690D01*
X181386327Y-125624301D01*
X181207698Y-125445673D01*
X180974309Y-125349000D01*
X180244750Y-125349000D01*
X180086000Y-125507750D01*
X180086000Y-126746000D01*
X181324250Y-126746000D01*
X181483000Y-126587250D01*
X181483000Y-127158750D01*
X181324250Y-127000000D01*
X180086000Y-127000000D01*
X180086000Y-128238250D01*
X180244750Y-128397000D01*
X180974309Y-128397000D01*
X181207698Y-128300327D01*
X181386327Y-128121699D01*
X181483000Y-127888310D01*
X181483000Y-129973000D01*
X179832000Y-129973000D01*
X179832000Y-128238250D01*
X179832000Y-127000000D01*
X179812000Y-127000000D01*
X179812000Y-126746000D01*
X179832000Y-126746000D01*
X179832000Y-125507750D01*
X179673250Y-125349000D01*
X178943691Y-125349000D01*
X178710302Y-125445673D01*
X178531673Y-125624301D01*
X178471317Y-125770011D01*
X178283404Y-125581769D01*
X177723472Y-125349265D01*
X177117188Y-125348736D01*
X176556851Y-125580262D01*
X176149000Y-125987402D01*
X176149000Y-125857691D01*
X176052327Y-125624302D01*
X175873699Y-125445673D01*
X175640310Y-125349000D01*
X175387691Y-125349000D01*
X174942500Y-125349000D01*
X174942500Y-124116881D01*
X174979149Y-124101738D01*
X175387335Y-123694262D01*
X175792596Y-124100231D01*
X176352528Y-124332735D01*
X176958812Y-124333264D01*
X177519149Y-124101738D01*
X177948231Y-123673404D01*
X178180735Y-123113472D01*
X178181264Y-122507188D01*
X177949738Y-121946851D01*
X177521404Y-121517769D01*
X176961472Y-121285265D01*
X176355188Y-121284736D01*
X175794851Y-121516262D01*
X175386664Y-121923737D01*
X174981404Y-121517769D01*
X174421472Y-121285265D01*
X173815188Y-121284736D01*
X173254851Y-121516262D01*
X172825769Y-121944596D01*
X172593265Y-122504528D01*
X172592736Y-123110812D01*
X172824262Y-123671149D01*
X173252596Y-124100231D01*
X173291500Y-124116385D01*
X173291500Y-125530474D01*
X173197673Y-125624301D01*
X173137317Y-125770011D01*
X172949404Y-125581769D01*
X172389472Y-125349265D01*
X171783188Y-125348736D01*
X171222851Y-125580262D01*
X170793769Y-126008596D01*
X170561265Y-126568528D01*
X170560736Y-127174812D01*
X170792262Y-127735149D01*
X171220596Y-128164231D01*
X171780528Y-128396735D01*
X172386812Y-128397264D01*
X172947149Y-128165738D01*
X173137292Y-127975926D01*
X173197673Y-128121698D01*
X173376301Y-128300327D01*
X173609690Y-128397000D01*
X173862309Y-128397000D01*
X175640309Y-128397000D01*
X175873698Y-128300327D01*
X176052327Y-128121699D01*
X176149000Y-127888310D01*
X176149000Y-127757926D01*
X176554596Y-128164231D01*
X177114528Y-128396735D01*
X177720812Y-128397264D01*
X178281149Y-128165738D01*
X178471291Y-127975926D01*
X178531673Y-128121699D01*
X178710302Y-128300327D01*
X178943691Y-128397000D01*
X179673250Y-128397000D01*
X179832000Y-128238250D01*
X179832000Y-129973000D01*
X161274000Y-129973000D01*
X161274000Y-128253310D01*
X161274000Y-128000691D01*
X161274000Y-126000691D01*
X161177327Y-125767302D01*
X160998699Y-125588673D01*
X160765310Y-125492000D01*
X160512691Y-125492000D01*
X158512691Y-125492000D01*
X158279302Y-125588673D01*
X158100673Y-125767301D01*
X158086369Y-125801833D01*
X158026363Y-125741722D01*
X157425648Y-125492284D01*
X156775205Y-125491716D01*
X156174057Y-125740106D01*
X155828800Y-126084759D01*
X155486363Y-125741722D01*
X154885648Y-125492284D01*
X154235205Y-125491716D01*
X153634057Y-125740106D01*
X153173722Y-126199637D01*
X153131424Y-126301500D01*
X151570765Y-126301500D01*
X151359404Y-126089769D01*
X150799472Y-125857265D01*
X150193188Y-125856736D01*
X149632851Y-126088262D01*
X149203769Y-126516596D01*
X149098027Y-126771250D01*
X148993738Y-126518851D01*
X148565404Y-126089769D01*
X148005472Y-125857265D01*
X147399188Y-125856736D01*
X146838851Y-126088262D01*
X146409769Y-126516596D01*
X146177265Y-127076528D01*
X146176736Y-127682812D01*
X146408262Y-128243149D01*
X146836596Y-128672231D01*
X147396528Y-128904735D01*
X148002812Y-128905264D01*
X148041744Y-128889177D01*
X148641280Y-129488713D01*
X148641283Y-129488717D01*
X148909094Y-129667662D01*
X148909095Y-129667663D01*
X149225000Y-129730500D01*
X157646822Y-129730500D01*
X157962727Y-129667663D01*
X157962728Y-129667663D01*
X158230539Y-129488717D01*
X158701061Y-129018194D01*
X158999955Y-128762000D01*
X160765309Y-128762000D01*
X160998698Y-128665327D01*
X161177327Y-128486699D01*
X161274000Y-128253310D01*
X161274000Y-129973000D01*
X145851236Y-129973000D01*
X146228281Y-129408713D01*
X146379000Y-128651000D01*
X146228281Y-127893287D01*
X145799071Y-127250929D01*
X145156713Y-126821719D01*
X144399000Y-126671000D01*
X143641287Y-126821719D01*
X143077000Y-127198763D01*
X143077000Y-109021236D01*
X143641287Y-109398281D01*
X144399000Y-109549000D01*
X145156713Y-109398281D01*
X145799071Y-108969071D01*
X146176936Y-108403556D01*
X146176736Y-108632812D01*
X146408262Y-109193149D01*
X146836596Y-109622231D01*
X147396528Y-109854735D01*
X147529466Y-109854850D01*
X151758383Y-114285144D01*
X151730167Y-114427000D01*
X151846175Y-115010210D01*
X152176536Y-115504631D01*
X152464437Y-115697000D01*
X152176536Y-115889369D01*
X151881282Y-116331247D01*
X151787738Y-116104851D01*
X151359404Y-115675769D01*
X150799472Y-115443265D01*
X150193188Y-115442736D01*
X149632851Y-115674262D01*
X149225264Y-116081138D01*
X149225264Y-113109188D01*
X148993738Y-112548851D01*
X148565404Y-112119769D01*
X148005472Y-111887265D01*
X147399188Y-111886736D01*
X146838851Y-112118262D01*
X146409769Y-112546596D01*
X146177265Y-113106528D01*
X146176736Y-113712812D01*
X146272216Y-113943891D01*
X145894188Y-115077973D01*
X145599205Y-115077716D01*
X144998057Y-115326106D01*
X144537722Y-115785637D01*
X144288284Y-116386352D01*
X144287716Y-117036795D01*
X144536106Y-117637943D01*
X144598250Y-117700196D01*
X144563302Y-117714673D01*
X144384673Y-117893301D01*
X144288000Y-118126690D01*
X144288000Y-118379309D01*
X144288000Y-120379309D01*
X144384673Y-120612698D01*
X144563301Y-120791327D01*
X144796690Y-120888000D01*
X145049309Y-120888000D01*
X147049309Y-120888000D01*
X147282698Y-120791327D01*
X147461327Y-120612699D01*
X147558000Y-120379310D01*
X147558000Y-120126691D01*
X147558000Y-118126691D01*
X147461327Y-117893302D01*
X147282699Y-117714673D01*
X147248166Y-117700369D01*
X147308278Y-117640363D01*
X147557716Y-117039648D01*
X147558284Y-116389205D01*
X147358549Y-115905811D01*
X147682158Y-114934984D01*
X148002812Y-114935264D01*
X148563149Y-114703738D01*
X148992231Y-114275404D01*
X149224735Y-113715472D01*
X149225264Y-113109188D01*
X149225264Y-116081138D01*
X149203769Y-116102596D01*
X148971265Y-116662528D01*
X148970736Y-117268812D01*
X149202262Y-117829149D01*
X149630596Y-118258231D01*
X149669500Y-118274385D01*
X149669500Y-119165066D01*
X148042094Y-120792471D01*
X148005472Y-120777265D01*
X147399188Y-120776736D01*
X146838851Y-121008262D01*
X146409769Y-121436596D01*
X146177265Y-121996528D01*
X146176736Y-122602812D01*
X146408262Y-123163149D01*
X146836596Y-123592231D01*
X147396528Y-123824735D01*
X148002812Y-123825264D01*
X148563149Y-123593738D01*
X148992231Y-123165404D01*
X149097972Y-122910749D01*
X149202262Y-123163149D01*
X149630596Y-123592231D01*
X150190528Y-123824735D01*
X150796812Y-123825264D01*
X150885595Y-123788579D01*
X150941095Y-123825663D01*
X151257000Y-123888501D01*
X151257000Y-123888500D01*
X151257005Y-123888500D01*
X152235118Y-123888500D01*
X152250262Y-123925149D01*
X152678596Y-124354231D01*
X153238528Y-124586735D01*
X153844812Y-124587264D01*
X154405149Y-124355738D01*
X154834231Y-123927404D01*
X155066735Y-123367472D01*
X155067264Y-122761188D01*
X154835738Y-122200851D01*
X154407404Y-121771769D01*
X153847472Y-121539265D01*
X153844815Y-121539262D01*
X154405149Y-121307738D01*
X154834231Y-120879404D01*
X155066735Y-120319472D01*
X155067264Y-119713188D01*
X155051177Y-119674255D01*
X155904713Y-118820719D01*
X155904717Y-118820717D01*
X155904717Y-118820716D01*
X156083663Y-118552905D01*
X156146500Y-118237000D01*
X156146501Y-118237000D01*
X156146500Y-118236994D01*
X156146500Y-117598315D01*
X156146510Y-117598265D01*
X156146510Y-116335735D01*
X156146500Y-116335684D01*
X156146500Y-114935000D01*
X156083663Y-114619095D01*
X156083662Y-114619094D01*
X155904717Y-114351283D01*
X155904713Y-114351280D01*
X155396717Y-113843283D01*
X155128906Y-113664337D01*
X155118541Y-113662275D01*
X155118540Y-113662275D01*
X154909464Y-113349369D01*
X154621562Y-113157000D01*
X154909464Y-112964631D01*
X155239825Y-112470210D01*
X155355833Y-111887000D01*
X155239825Y-111303790D01*
X154920657Y-110826120D01*
X155045698Y-110774327D01*
X155224327Y-110595699D01*
X155321000Y-110362310D01*
X155321000Y-110172500D01*
X156845000Y-110172500D01*
X157160905Y-110109663D01*
X157160906Y-110109663D01*
X157428717Y-109930717D01*
X159218934Y-108140500D01*
X160016340Y-108140500D01*
X159741567Y-108359171D01*
X159452407Y-108881122D01*
X159428866Y-108983987D01*
X159549670Y-109220000D01*
X161036000Y-109220000D01*
X161036000Y-109200000D01*
X161290000Y-109200000D01*
X161290000Y-109220000D01*
X162776330Y-109220000D01*
X162897134Y-108983987D01*
X162873593Y-108881122D01*
X162584433Y-108359171D01*
X162309659Y-108140500D01*
X163871147Y-108140500D01*
X163826409Y-108274804D01*
X164719000Y-109167395D01*
X164733142Y-109153252D01*
X164912747Y-109332857D01*
X164898605Y-109347000D01*
X165791196Y-110239591D01*
X166046539Y-110154533D01*
X166254516Y-109585035D01*
X166247440Y-109418858D01*
X169485267Y-112486274D01*
X169612272Y-112566259D01*
X169737095Y-112649663D01*
X169748219Y-112651875D01*
X169757815Y-112657919D01*
X169905774Y-112683215D01*
X170053000Y-112712500D01*
X170269118Y-112712500D01*
X170284262Y-112749149D01*
X170691737Y-113157335D01*
X170285769Y-113562596D01*
X170053265Y-114122528D01*
X170052736Y-114728812D01*
X170284262Y-115289149D01*
X170691737Y-115697335D01*
X170285769Y-116102596D01*
X170269614Y-116141500D01*
X167513000Y-116141500D01*
X166751000Y-116141500D01*
X166560500Y-116141500D01*
X166560500Y-112395000D01*
X166497663Y-112079095D01*
X166497662Y-112079094D01*
X166318717Y-111811283D01*
X166318713Y-111811280D01*
X165810717Y-111303283D01*
X165542906Y-111124337D01*
X165268273Y-111069709D01*
X165249738Y-111024851D01*
X165082098Y-110856918D01*
X165086700Y-110856723D01*
X165526533Y-110674539D01*
X165611591Y-110419196D01*
X164719000Y-109526605D01*
X164704857Y-109540747D01*
X164539395Y-109375285D01*
X164525252Y-109361142D01*
X164539395Y-109347000D01*
X163646804Y-108454409D01*
X163391461Y-108539467D01*
X163183484Y-109108965D01*
X163209277Y-109714700D01*
X163391461Y-110154533D01*
X163646801Y-110239590D01*
X163532212Y-110354180D01*
X163574222Y-110396190D01*
X163094851Y-110594262D01*
X162669469Y-111018902D01*
X162529464Y-110809369D01*
X162235205Y-110612752D01*
X162584433Y-110334829D01*
X162873593Y-109812878D01*
X162897134Y-109710013D01*
X162776330Y-109474000D01*
X161290000Y-109474000D01*
X161290000Y-109494000D01*
X161036000Y-109494000D01*
X161036000Y-109474000D01*
X159549670Y-109474000D01*
X159428866Y-109710013D01*
X159452407Y-109812878D01*
X159741567Y-110334829D01*
X160090794Y-110612752D01*
X159796536Y-110809369D01*
X159466175Y-111303790D01*
X159350167Y-111887000D01*
X159466175Y-112470210D01*
X159796536Y-112964631D01*
X160084437Y-113157000D01*
X159796536Y-113349369D01*
X159466175Y-113843790D01*
X159350167Y-114427000D01*
X159466175Y-115010210D01*
X159796536Y-115504631D01*
X160084437Y-115697000D01*
X159796536Y-115889369D01*
X159466175Y-116383790D01*
X159350167Y-116967000D01*
X159466175Y-117550210D01*
X159796536Y-118044631D01*
X160290957Y-118374992D01*
X160337500Y-118384250D01*
X160337500Y-118707118D01*
X160300851Y-118722262D01*
X159871769Y-119150596D01*
X159639265Y-119710528D01*
X159638736Y-120316812D01*
X159870262Y-120877149D01*
X160298596Y-121306231D01*
X160858528Y-121538735D01*
X160861184Y-121538737D01*
X160300851Y-121770262D01*
X159871769Y-122198596D01*
X159639265Y-122758528D01*
X159638736Y-123364812D01*
X159870262Y-123925149D01*
X160298596Y-124354231D01*
X160858528Y-124586735D01*
X161464812Y-124587264D01*
X161861500Y-124423356D01*
X161861500Y-125857000D01*
X161884169Y-125970969D01*
X161894116Y-126086751D01*
X161915341Y-126127682D01*
X161924337Y-126172905D01*
X161988898Y-126269528D01*
X162042393Y-126372686D01*
X162176341Y-126540121D01*
X162068284Y-126800352D01*
X162067716Y-127450795D01*
X162316106Y-128051943D01*
X162775637Y-128512278D01*
X163376352Y-128761716D01*
X164026795Y-128762284D01*
X164627943Y-128513894D01*
X164973199Y-128169240D01*
X165315637Y-128512278D01*
X165916352Y-128761716D01*
X166566795Y-128762284D01*
X167167943Y-128513894D01*
X167230196Y-128451749D01*
X167244673Y-128486698D01*
X167423301Y-128665327D01*
X167656690Y-128762000D01*
X167909309Y-128762000D01*
X169909309Y-128762000D01*
X170142698Y-128665327D01*
X170321327Y-128486699D01*
X170418000Y-128253310D01*
X170418000Y-128000691D01*
X170418000Y-126000691D01*
X170321327Y-125767302D01*
X170142699Y-125588673D01*
X170116500Y-125577821D01*
X170116500Y-124370881D01*
X170153149Y-124355738D01*
X170582231Y-123927404D01*
X170814735Y-123367472D01*
X170815264Y-122761188D01*
X170583738Y-122200851D01*
X170155404Y-121771769D01*
X170116500Y-121755614D01*
X170116500Y-121322881D01*
X170153149Y-121307738D01*
X170582231Y-120879404D01*
X170598385Y-120840500D01*
X178181000Y-120840500D01*
X178261158Y-120824555D01*
X178342894Y-120824470D01*
X178417583Y-120793441D01*
X178496905Y-120777663D01*
X178564863Y-120732254D01*
X178640341Y-120700898D01*
X178697468Y-120643650D01*
X178764717Y-120598717D01*
X178810125Y-120530758D01*
X178867858Y-120472905D01*
X179173141Y-120014979D01*
X179498812Y-120015264D01*
X180059149Y-119783738D01*
X180488231Y-119355404D01*
X180720735Y-118795472D01*
X180721264Y-118189188D01*
X180504046Y-117663480D01*
X180645283Y-117804717D01*
X180669945Y-117821195D01*
X180688131Y-117844628D01*
X180803075Y-117910150D01*
X180913094Y-117983663D01*
X180942187Y-117989450D01*
X180967954Y-118004138D01*
X180975000Y-118006486D01*
X180975000Y-118998309D01*
X181071673Y-119231698D01*
X181250301Y-119410327D01*
X181483690Y-119507000D01*
X181736309Y-119507000D01*
X183514309Y-119507000D01*
X183747698Y-119410327D01*
X183926327Y-119231699D01*
X183986682Y-119085988D01*
X184174596Y-119274231D01*
X184213500Y-119290385D01*
X184213500Y-120478127D01*
X184056731Y-120666250D01*
X183445205Y-120665716D01*
X182844057Y-120914106D01*
X182383722Y-121373637D01*
X182134284Y-121974352D01*
X182133716Y-122624795D01*
X182382106Y-123225943D01*
X182444250Y-123288196D01*
X182409302Y-123302673D01*
X182230673Y-123481301D01*
X182134000Y-123714690D01*
X182134000Y-123967309D01*
X182134000Y-125967309D01*
X182230673Y-126200698D01*
X182409301Y-126379327D01*
X182642690Y-126476000D01*
X182895309Y-126476000D01*
X184895309Y-126476000D01*
X185128698Y-126379327D01*
X185307327Y-126200699D01*
X185404000Y-125967310D01*
X185404000Y-125714691D01*
X185404000Y-123714691D01*
X185307327Y-123481302D01*
X185128699Y-123302673D01*
X185094166Y-123288369D01*
X185154278Y-123228363D01*
X185403716Y-122627648D01*
X185404284Y-121977205D01*
X185307859Y-121743840D01*
X185673166Y-121305473D01*
X185732590Y-121196278D01*
X185801663Y-121092905D01*
X185809044Y-121055793D01*
X185827131Y-121022560D01*
X185840245Y-120898934D01*
X185853000Y-120834814D01*
X185853000Y-127198763D01*
M02*
