G04 #@! TF.FileFunction,Copper,L2,Bot,Signal*
%FSLAX46Y46*%
G04 Gerber Fmt 4.6, Leading zero omitted, Abs format (unit mm)*
G04 Created by KiCad (PCBNEW (2014-10-31 BZR 5247)-product) date dim. 09 nov. 2014 20:49:24 CET*
%MOMM*%
G01*
G04 APERTURE LIST*
%ADD10C,0.150000*%
%ADD11C,1.524000*%
%ADD12C,1.778000*%
%ADD13R,1.778000X1.778000*%
%ADD14R,2.000000X2.000000*%
%ADD15C,2.000000*%
%ADD16R,2.286000X1.778000*%
%ADD17O,2.286000X1.778000*%
%ADD18C,0.508000*%
%ADD19C,0.254000*%
G04 APERTURE END LIST*
D10*
D11*
X144907000Y-110617000D03*
X147447000Y-108077000D03*
X149987000Y-110617000D03*
D12*
X142367000Y-121031000D03*
X142367000Y-115951000D03*
X164719000Y-109347000D03*
X169799000Y-109347000D03*
X145923000Y-130429000D03*
X151003000Y-130429000D03*
X165989000Y-123825000D03*
X171069000Y-123825000D03*
X154305000Y-126365000D03*
X159385000Y-126365000D03*
X165989000Y-120269000D03*
X171069000Y-120269000D03*
D13*
X149733000Y-125095000D03*
D12*
X149733000Y-127635000D03*
D13*
X174625000Y-130429000D03*
D12*
X172085000Y-130429000D03*
D13*
X179959000Y-116205000D03*
D12*
X182499000Y-116205000D03*
D13*
X179959000Y-130429000D03*
D12*
X177419000Y-130429000D03*
D13*
X175895000Y-111379000D03*
D12*
X175895000Y-108839000D03*
X180721000Y-126111000D03*
X175641000Y-126111000D03*
X153543000Y-120396000D03*
X161163000Y-120396000D03*
X144907000Y-114935000D03*
X144907000Y-122555000D03*
X149987000Y-114681000D03*
X149987000Y-122301000D03*
X172339000Y-111887000D03*
X164719000Y-111887000D03*
X164719000Y-116967000D03*
X172339000Y-116967000D03*
X153543000Y-123317000D03*
X161163000Y-123317000D03*
X177165000Y-123063000D03*
X177165000Y-115443000D03*
X174625000Y-115443000D03*
X174625000Y-123063000D03*
X171831000Y-126619000D03*
X164211000Y-126619000D03*
X164719000Y-114427000D03*
X172339000Y-114427000D03*
X147447000Y-115189000D03*
X147447000Y-122809000D03*
D14*
X168275000Y-129921000D03*
D15*
X165735000Y-129921000D03*
X163195000Y-129921000D03*
D14*
X159385000Y-129921000D03*
D15*
X156845000Y-129921000D03*
X154305000Y-129921000D03*
D14*
X142621000Y-127889000D03*
D15*
X142621000Y-125349000D03*
D14*
X182245000Y-123063000D03*
D15*
X182245000Y-120523000D03*
D14*
X182499000Y-111125000D03*
D15*
X179959000Y-111125000D03*
D16*
X153543000Y-109347000D03*
D17*
X153543000Y-111887000D03*
X153543000Y-114427000D03*
X153543000Y-116967000D03*
X161163000Y-116967000D03*
X161163000Y-114427000D03*
X161163000Y-111887000D03*
X161163000Y-109347000D03*
D18*
X171831000Y-126619000D02*
X171831000Y-126746000D01*
X171831000Y-126746000D02*
X174625000Y-129159000D01*
X174625000Y-129159000D02*
X174625000Y-130302000D01*
X161163000Y-120396000D02*
X161163000Y-116967000D01*
X142621000Y-125222000D02*
X142367000Y-120904000D01*
X153543000Y-120523000D02*
X153543000Y-120015000D01*
X155448000Y-118110000D02*
X153543000Y-120015000D01*
X155448000Y-118110000D02*
X155448000Y-115062000D01*
X155448000Y-115062000D02*
X154813000Y-114427000D01*
X153543000Y-114427000D02*
X154813000Y-114427000D01*
X163830001Y-108458001D02*
X164719000Y-109347000D01*
X163068010Y-107696010D02*
X163830001Y-108458001D01*
X159384990Y-107696010D02*
X163068010Y-107696010D01*
X155194000Y-111887000D02*
X159384990Y-107696010D01*
X153543000Y-111887000D02*
X155194000Y-111887000D01*
X144907000Y-121539000D02*
X149987000Y-116459000D01*
X149987000Y-116459000D02*
X149987000Y-114681000D01*
X144907000Y-122555000D02*
X144907000Y-121539000D01*
X149987000Y-113665000D02*
X151765000Y-111887000D01*
X151765000Y-111887000D02*
X153543000Y-111887000D01*
X149987000Y-114681000D02*
X149987000Y-113665000D01*
X169799000Y-109347000D02*
X167259000Y-106807000D01*
X167259000Y-106807000D02*
X156083000Y-106807000D01*
X156083000Y-106807000D02*
X153543000Y-109347000D01*
X172339000Y-111887000D02*
X169799000Y-109347000D01*
X147447000Y-113157000D02*
X149987000Y-110617000D01*
X147447000Y-115189000D02*
X147447000Y-113157000D01*
X151257000Y-109347000D02*
X153543000Y-109347000D01*
X149987000Y-110617000D02*
X151257000Y-109347000D01*
X145923000Y-125349000D02*
X147447000Y-123825000D01*
X147447000Y-123825000D02*
X147447000Y-122809000D01*
X145923000Y-130429000D02*
X145923000Y-125349000D01*
X152654000Y-132080000D02*
X151003000Y-130429000D01*
X159385000Y-129794000D02*
X157353000Y-132207000D01*
X157353000Y-132207000D02*
X152654000Y-132207000D01*
X152654000Y-132207000D02*
X152654000Y-132080000D01*
X168275000Y-116967000D02*
X168275000Y-115727478D01*
X168275000Y-115727478D02*
X164719000Y-112171478D01*
X164719000Y-112171478D02*
X164719000Y-111887000D01*
X172339000Y-116967000D02*
X168275000Y-116967000D01*
X168275000Y-116967000D02*
X168275000Y-121793000D01*
X168275000Y-121793000D02*
X165989000Y-123825000D01*
X159893000Y-114427000D02*
X157988000Y-116332000D01*
X157988000Y-116332000D02*
X157988000Y-124460000D01*
X157988000Y-124460000D02*
X156845000Y-125603000D01*
X156845000Y-125603000D02*
X156845000Y-129794000D01*
X161163000Y-114427000D02*
X159893000Y-114427000D01*
X164211000Y-111887000D02*
X164719000Y-111887000D01*
X161417000Y-114427000D02*
X164211000Y-111887000D01*
X161163000Y-114427000D02*
X161417000Y-114427000D01*
X168275000Y-129921000D02*
X169545000Y-128905000D01*
X169545000Y-128905000D02*
X169545000Y-125603000D01*
X169545000Y-125603000D02*
X171069000Y-123825000D01*
X153543000Y-123317000D02*
X156845000Y-119888000D01*
X165735000Y-129921000D02*
X168275000Y-129921000D01*
X156845000Y-113919000D02*
X156845000Y-113918700D01*
X156845000Y-119888000D02*
X156845000Y-113919000D01*
X161099650Y-111950350D02*
X161163000Y-111887000D01*
X156845000Y-113665000D02*
X158623000Y-111887000D01*
X158623000Y-111887000D02*
X161163000Y-111887000D01*
X156845000Y-113919000D02*
X156845000Y-113665000D01*
X174371000Y-120269000D02*
X177165000Y-123063000D01*
X171069000Y-120269000D02*
X174371000Y-120269000D01*
X171069000Y-123825000D02*
X171069000Y-120269000D01*
X154305000Y-126365000D02*
X154305000Y-129794000D01*
X159385000Y-126365000D02*
X161163000Y-124587000D01*
X161163000Y-124587000D02*
X161163000Y-123317000D01*
X164719000Y-114427000D02*
X164719000Y-116967000D01*
X164719000Y-118745000D02*
X165989000Y-120269000D01*
X164719000Y-116967000D02*
X164719000Y-118745000D01*
X161925000Y-129159000D02*
X163195000Y-129921000D01*
X161925000Y-125603000D02*
X161925000Y-129159000D01*
X163449000Y-124079000D02*
X161925000Y-125603000D01*
X163449000Y-122809000D02*
X163449000Y-124079000D01*
X165989000Y-120269000D02*
X163449000Y-122809000D01*
X149987000Y-124841000D02*
X149733000Y-125095000D01*
X149987000Y-122301000D02*
X149987000Y-124841000D01*
X179197000Y-116205000D02*
X179959000Y-116205000D01*
X177927000Y-116205000D02*
X179197000Y-116205000D01*
X177165000Y-115443000D02*
X177927000Y-116205000D01*
X182499000Y-116205000D02*
X182499000Y-120269000D01*
X182499000Y-120269000D02*
X182245000Y-120523000D01*
X172339000Y-114427000D02*
X173101000Y-114427000D01*
X173101000Y-114427000D02*
X174879000Y-112141000D01*
X174879000Y-112141000D02*
X175895000Y-111379000D01*
X144907000Y-110617000D02*
X147447000Y-108077000D01*
X144907000Y-114935000D02*
X144907000Y-110617000D01*
D19*
G36*
X164134512Y-110616949D02*
X163928697Y-110701990D01*
X163535371Y-111094630D01*
X163322243Y-111607900D01*
X163322193Y-111665193D01*
X162795162Y-112144311D01*
X162846345Y-111887000D01*
X162740005Y-111352391D01*
X162437173Y-110899172D01*
X162131743Y-110695090D01*
X162584433Y-110334829D01*
X162873593Y-109812878D01*
X162897134Y-109710013D01*
X162776330Y-109474000D01*
X161290000Y-109474000D01*
X161290000Y-109494000D01*
X161036000Y-109494000D01*
X161036000Y-109474000D01*
X159549670Y-109474000D01*
X159428866Y-109710013D01*
X159452407Y-109812878D01*
X159741567Y-110334829D01*
X160194256Y-110695090D01*
X159888827Y-110899172D01*
X159737933Y-111125000D01*
X158623000Y-111125000D01*
X158331395Y-111183004D01*
X158232376Y-111249165D01*
X158084185Y-111348184D01*
X156306185Y-113126185D01*
X156141004Y-113373395D01*
X156083000Y-113665000D01*
X156083000Y-113918700D01*
X156083000Y-113919000D01*
X156083000Y-114667135D01*
X155986816Y-114523185D01*
X155351815Y-113888185D01*
X155104605Y-113723004D01*
X154991835Y-113700572D01*
X154817173Y-113439172D01*
X154394873Y-113157000D01*
X154817173Y-112874828D01*
X154968066Y-112649000D01*
X155194000Y-112649000D01*
X155194000Y-112648999D01*
X155485604Y-112590996D01*
X155485605Y-112590996D01*
X155732815Y-112425815D01*
X159669656Y-108488973D01*
X159452407Y-108881122D01*
X159428866Y-108983987D01*
X159549670Y-109220000D01*
X161036000Y-109220000D01*
X161036000Y-109200000D01*
X161290000Y-109200000D01*
X161290000Y-109220000D01*
X162776330Y-109220000D01*
X162897134Y-108983987D01*
X162873593Y-108881122D01*
X162639189Y-108458010D01*
X162752380Y-108458010D01*
X163291186Y-108996816D01*
X163333987Y-109039617D01*
X163322243Y-109067900D01*
X163321758Y-109623661D01*
X163533990Y-110137303D01*
X163926630Y-110530629D01*
X164134512Y-110616949D01*
X164134512Y-110616949D01*
G37*
X164134512Y-110616949D02*
X163928697Y-110701990D01*
X163535371Y-111094630D01*
X163322243Y-111607900D01*
X163322193Y-111665193D01*
X162795162Y-112144311D01*
X162846345Y-111887000D01*
X162740005Y-111352391D01*
X162437173Y-110899172D01*
X162131743Y-110695090D01*
X162584433Y-110334829D01*
X162873593Y-109812878D01*
X162897134Y-109710013D01*
X162776330Y-109474000D01*
X161290000Y-109474000D01*
X161290000Y-109494000D01*
X161036000Y-109494000D01*
X161036000Y-109474000D01*
X159549670Y-109474000D01*
X159428866Y-109710013D01*
X159452407Y-109812878D01*
X159741567Y-110334829D01*
X160194256Y-110695090D01*
X159888827Y-110899172D01*
X159737933Y-111125000D01*
X158623000Y-111125000D01*
X158331395Y-111183004D01*
X158232376Y-111249165D01*
X158084185Y-111348184D01*
X156306185Y-113126185D01*
X156141004Y-113373395D01*
X156083000Y-113665000D01*
X156083000Y-113918700D01*
X156083000Y-113919000D01*
X156083000Y-114667135D01*
X155986816Y-114523185D01*
X155351815Y-113888185D01*
X155104605Y-113723004D01*
X154991835Y-113700572D01*
X154817173Y-113439172D01*
X154394873Y-113157000D01*
X154817173Y-112874828D01*
X154968066Y-112649000D01*
X155194000Y-112649000D01*
X155194000Y-112648999D01*
X155485604Y-112590996D01*
X155485605Y-112590996D01*
X155732815Y-112425815D01*
X159669656Y-108488973D01*
X159452407Y-108881122D01*
X159428866Y-108983987D01*
X159549670Y-109220000D01*
X161036000Y-109220000D01*
X161036000Y-109200000D01*
X161290000Y-109200000D01*
X161290000Y-109220000D01*
X162776330Y-109220000D01*
X162897134Y-108983987D01*
X162873593Y-108881122D01*
X162639189Y-108458010D01*
X162752380Y-108458010D01*
X163291186Y-108996816D01*
X163333987Y-109039617D01*
X163322243Y-109067900D01*
X163321758Y-109623661D01*
X163533990Y-110137303D01*
X163926630Y-110530629D01*
X164134512Y-110616949D01*
G36*
X184456000Y-130088356D02*
X184317269Y-129880731D01*
X184007000Y-129673416D01*
X184007000Y-112226048D01*
X184007000Y-112023953D01*
X184007000Y-110023953D01*
X183929662Y-109837242D01*
X183786759Y-109694339D01*
X183600048Y-109617000D01*
X183397953Y-109617000D01*
X181397953Y-109617000D01*
X181211242Y-109694338D01*
X181068339Y-109837241D01*
X181055721Y-109867701D01*
X181046206Y-109858186D01*
X180931926Y-109972465D01*
X180833264Y-109705613D01*
X180223539Y-109479092D01*
X179573540Y-109503144D01*
X179084736Y-109705613D01*
X178986073Y-109972468D01*
X179959000Y-110945395D01*
X179973142Y-110931252D01*
X180152747Y-111110857D01*
X180138605Y-111125000D01*
X180152747Y-111139142D01*
X179973142Y-111318747D01*
X179959000Y-111304605D01*
X179779395Y-111484210D01*
X179779395Y-111125000D01*
X178806468Y-110152073D01*
X178539613Y-110250736D01*
X178313092Y-110860461D01*
X178337144Y-111510460D01*
X178539613Y-111999264D01*
X178806468Y-112097927D01*
X179779395Y-111125000D01*
X179779395Y-111484210D01*
X178986073Y-112277532D01*
X179084736Y-112544387D01*
X179694461Y-112770908D01*
X180344460Y-112746856D01*
X180833264Y-112544387D01*
X180931926Y-112277534D01*
X180931927Y-112277535D01*
X181046206Y-112391814D01*
X181055721Y-112382298D01*
X181068338Y-112412758D01*
X181211241Y-112555661D01*
X181397952Y-112633000D01*
X181600047Y-112633000D01*
X183600047Y-112633000D01*
X183786758Y-112555662D01*
X183929661Y-112412759D01*
X184007000Y-112226048D01*
X184007000Y-129673416D01*
X183896242Y-129599409D01*
X183896242Y-115928339D01*
X183684010Y-115414697D01*
X183291370Y-115021371D01*
X182778100Y-114808243D01*
X182222339Y-114807758D01*
X181708697Y-115019990D01*
X181356000Y-115372071D01*
X181356000Y-115214953D01*
X181278662Y-115028242D01*
X181135759Y-114885339D01*
X180949048Y-114808000D01*
X180931927Y-114808000D01*
X180746953Y-114808000D01*
X178968953Y-114808000D01*
X178782242Y-114885338D01*
X178639339Y-115028241D01*
X178562199Y-115214469D01*
X178562242Y-115166339D01*
X178350010Y-114652697D01*
X177957370Y-114259371D01*
X177444100Y-114046243D01*
X176888339Y-114045758D01*
X176374697Y-114257990D01*
X175981371Y-114650630D01*
X175970081Y-114677818D01*
X175952539Y-114635467D01*
X175697196Y-114550409D01*
X174804605Y-115443000D01*
X175697196Y-116335591D01*
X175952539Y-116250533D01*
X175968758Y-116206120D01*
X175979990Y-116233303D01*
X176372630Y-116626629D01*
X176885900Y-116839757D01*
X177441661Y-116840242D01*
X177497788Y-116817050D01*
X177497789Y-116817050D01*
X177536376Y-116842834D01*
X177635395Y-116908996D01*
X177635396Y-116908996D01*
X177927000Y-116967000D01*
X178562000Y-116967000D01*
X178562000Y-117195047D01*
X178639338Y-117381758D01*
X178782241Y-117524661D01*
X178968952Y-117602000D01*
X179171047Y-117602000D01*
X180949047Y-117602000D01*
X181135758Y-117524662D01*
X181278661Y-117381759D01*
X181356000Y-117195048D01*
X181356000Y-117037386D01*
X181706630Y-117388629D01*
X181737000Y-117401239D01*
X181737000Y-119101243D01*
X181391903Y-119243835D01*
X180967326Y-119667672D01*
X180737263Y-120221724D01*
X180736739Y-120821644D01*
X180965835Y-121376097D01*
X181144426Y-121555000D01*
X181143953Y-121555000D01*
X180957242Y-121632338D01*
X180814339Y-121775241D01*
X180737000Y-121961952D01*
X180737000Y-122164047D01*
X180737000Y-124164047D01*
X180814338Y-124350758D01*
X180957241Y-124493661D01*
X181143952Y-124571000D01*
X181346047Y-124571000D01*
X183346047Y-124571000D01*
X183532758Y-124493662D01*
X183675661Y-124350759D01*
X183753000Y-124164048D01*
X183753000Y-123961953D01*
X183753000Y-121961953D01*
X183675662Y-121775242D01*
X183532759Y-121632339D01*
X183346048Y-121555000D01*
X183345693Y-121555000D01*
X183522674Y-121378328D01*
X183752737Y-120824276D01*
X183753261Y-120224356D01*
X183524165Y-119669903D01*
X183261000Y-119406278D01*
X183261000Y-117401704D01*
X183289303Y-117390010D01*
X183682629Y-116997370D01*
X183895757Y-116484100D01*
X183896242Y-115928339D01*
X183896242Y-129599409D01*
X183716112Y-129479051D01*
X183007000Y-129338000D01*
X182297888Y-129479051D01*
X182256516Y-129506694D01*
X182256516Y-126349035D01*
X182230723Y-125743300D01*
X182048539Y-125303467D01*
X181793196Y-125218409D01*
X181613591Y-125398014D01*
X181613591Y-125038804D01*
X181528533Y-124783461D01*
X180959035Y-124575484D01*
X180353300Y-124601277D01*
X179913467Y-124783461D01*
X179828409Y-125038804D01*
X180721000Y-125931395D01*
X181613591Y-125038804D01*
X181613591Y-125398014D01*
X180900605Y-126111000D01*
X181793196Y-127003591D01*
X182048539Y-126918533D01*
X182256516Y-126349035D01*
X182256516Y-129506694D01*
X181696731Y-129880731D01*
X181613591Y-130005158D01*
X181613591Y-127183196D01*
X180721000Y-126290605D01*
X180541395Y-126470210D01*
X180541395Y-126111000D01*
X179648804Y-125218409D01*
X179393461Y-125303467D01*
X179185484Y-125872965D01*
X179211277Y-126478700D01*
X179393461Y-126918533D01*
X179648804Y-127003591D01*
X180541395Y-126111000D01*
X180541395Y-126470210D01*
X179828409Y-127183196D01*
X179913467Y-127438539D01*
X180482965Y-127646516D01*
X181088700Y-127620723D01*
X181528533Y-127438539D01*
X181613591Y-127183196D01*
X181613591Y-130005158D01*
X181483000Y-130200602D01*
X181415249Y-130301998D01*
X181324252Y-130301998D01*
X181483000Y-130143250D01*
X181483000Y-129666309D01*
X181483000Y-129413690D01*
X181386327Y-129180301D01*
X181207698Y-129001673D01*
X180974309Y-128905000D01*
X180244750Y-128905000D01*
X180086000Y-129063750D01*
X180086000Y-130302000D01*
X180106000Y-130302000D01*
X180106000Y-130556000D01*
X180086000Y-130556000D01*
X180086000Y-131794250D01*
X180244750Y-131953000D01*
X180974309Y-131953000D01*
X181207698Y-131856327D01*
X181273293Y-131790731D01*
X181295051Y-131900112D01*
X181696731Y-132501269D01*
X181904356Y-132640000D01*
X179832000Y-132640000D01*
X179832000Y-131794250D01*
X179832000Y-130556000D01*
X179812000Y-130556000D01*
X179812000Y-130302000D01*
X179832000Y-130302000D01*
X179832000Y-129063750D01*
X179673250Y-128905000D01*
X178943691Y-128905000D01*
X178710302Y-129001673D01*
X178531673Y-129180301D01*
X178435000Y-129413690D01*
X178435000Y-129469391D01*
X178211370Y-129245371D01*
X177698100Y-129032243D01*
X177142339Y-129031758D01*
X177038242Y-129074769D01*
X177038242Y-125834339D01*
X176826010Y-125320697D01*
X176433370Y-124927371D01*
X175920100Y-124714243D01*
X175364339Y-124713758D01*
X174850697Y-124925990D01*
X174457371Y-125318630D01*
X174244243Y-125831900D01*
X174243758Y-126387661D01*
X174455990Y-126901303D01*
X174848630Y-127294629D01*
X175361900Y-127507757D01*
X175917661Y-127508242D01*
X176431303Y-127296010D01*
X176824629Y-126903370D01*
X177037757Y-126390100D01*
X177038242Y-125834339D01*
X177038242Y-129074769D01*
X176628697Y-129243990D01*
X176235371Y-129636630D01*
X176022243Y-130149900D01*
X176022000Y-130428353D01*
X176022000Y-129438953D01*
X175944662Y-129252242D01*
X175801759Y-129109339D01*
X175615048Y-129032000D01*
X175412953Y-129032000D01*
X175365256Y-129032000D01*
X175352670Y-128986416D01*
X175328996Y-128867395D01*
X175313339Y-128843963D01*
X175305839Y-128816798D01*
X175231233Y-128721084D01*
X175163815Y-128620185D01*
X175140383Y-128604528D01*
X175123058Y-128582301D01*
X173213285Y-126932951D01*
X173227757Y-126898100D01*
X173228242Y-126342339D01*
X173016010Y-125828697D01*
X172623370Y-125435371D01*
X172110100Y-125222243D01*
X171554339Y-125221758D01*
X171040697Y-125433990D01*
X170647371Y-125826630D01*
X170434243Y-126339900D01*
X170433758Y-126895661D01*
X170645990Y-127409303D01*
X171038630Y-127802629D01*
X171551900Y-128015757D01*
X172107661Y-128016242D01*
X172126823Y-128008324D01*
X173426665Y-129130914D01*
X173305339Y-129252241D01*
X173228000Y-129438952D01*
X173228000Y-129596613D01*
X172877370Y-129245371D01*
X172364100Y-129032243D01*
X171808339Y-129031758D01*
X171294697Y-129243990D01*
X170901371Y-129636630D01*
X170688243Y-130149900D01*
X170687758Y-130705661D01*
X170899990Y-131219303D01*
X171292630Y-131612629D01*
X171805900Y-131825757D01*
X172361661Y-131826242D01*
X172875303Y-131614010D01*
X173228000Y-131261928D01*
X173228000Y-131419047D01*
X173305338Y-131605758D01*
X173448241Y-131748661D01*
X173634952Y-131826000D01*
X173837047Y-131826000D01*
X175615047Y-131826000D01*
X175801758Y-131748662D01*
X175944661Y-131605759D01*
X176022000Y-131419048D01*
X176022000Y-131216953D01*
X176022000Y-130706246D01*
X176233990Y-131219303D01*
X176626630Y-131612629D01*
X177139900Y-131825757D01*
X177695661Y-131826242D01*
X178209303Y-131614010D01*
X178435000Y-131388706D01*
X178435000Y-131444310D01*
X178531673Y-131677699D01*
X178710302Y-131856327D01*
X178943691Y-131953000D01*
X179673250Y-131953000D01*
X179832000Y-131794250D01*
X179832000Y-132640000D01*
X157984561Y-132640000D01*
X159004351Y-131429000D01*
X160486047Y-131429000D01*
X160672758Y-131351662D01*
X160815661Y-131208759D01*
X160893000Y-131022048D01*
X160893000Y-130819953D01*
X160893000Y-128819953D01*
X160815662Y-128633242D01*
X160672759Y-128490339D01*
X160486048Y-128413000D01*
X160283953Y-128413000D01*
X158283953Y-128413000D01*
X158097242Y-128490338D01*
X157954339Y-128633241D01*
X157877000Y-128819952D01*
X157877000Y-128820306D01*
X157700328Y-128643326D01*
X157607000Y-128604572D01*
X157607000Y-125918630D01*
X158526815Y-124998815D01*
X158691996Y-124751605D01*
X158749999Y-124460000D01*
X158750000Y-124460000D01*
X158750000Y-116647630D01*
X159945160Y-115452469D01*
X160311126Y-115697000D01*
X159888827Y-115979172D01*
X159585995Y-116432391D01*
X159479655Y-116967000D01*
X159585995Y-117501609D01*
X159888827Y-117954828D01*
X160342046Y-118257660D01*
X160401000Y-118269386D01*
X160401000Y-119199295D01*
X160372697Y-119210990D01*
X159979371Y-119603630D01*
X159766243Y-120116900D01*
X159765758Y-120672661D01*
X159977990Y-121186303D01*
X160370630Y-121579629D01*
X160883900Y-121792757D01*
X161439661Y-121793242D01*
X161953303Y-121581010D01*
X162346629Y-121188370D01*
X162559757Y-120675100D01*
X162560242Y-120119339D01*
X162348010Y-119605697D01*
X161955370Y-119212371D01*
X161925000Y-119199760D01*
X161925000Y-118269386D01*
X161983954Y-118257660D01*
X162437173Y-117954828D01*
X162740005Y-117501609D01*
X162846345Y-116967000D01*
X162740005Y-116432391D01*
X162437173Y-115979172D01*
X162014873Y-115697000D01*
X162437173Y-115414828D01*
X162740005Y-114961609D01*
X162846345Y-114427000D01*
X162800932Y-114198693D01*
X164005690Y-113103457D01*
X164134512Y-113156949D01*
X163928697Y-113241990D01*
X163535371Y-113634630D01*
X163322243Y-114147900D01*
X163321758Y-114703661D01*
X163533990Y-115217303D01*
X163926630Y-115610629D01*
X163957000Y-115623239D01*
X163957000Y-115770295D01*
X163928697Y-115781990D01*
X163535371Y-116174630D01*
X163322243Y-116687900D01*
X163321758Y-117243661D01*
X163533990Y-117757303D01*
X163926630Y-118150629D01*
X163957000Y-118163239D01*
X163957000Y-118745000D01*
X163979388Y-118857552D01*
X163991494Y-118971670D01*
X164008190Y-119002349D01*
X164015004Y-119036605D01*
X164078756Y-119132016D01*
X164133615Y-119232821D01*
X164649535Y-119851924D01*
X164592243Y-119989900D01*
X164591758Y-120545661D01*
X164604315Y-120576053D01*
X162910185Y-122270185D01*
X162745004Y-122517395D01*
X162687000Y-122809000D01*
X162687000Y-123763369D01*
X162350626Y-124099742D01*
X162559757Y-123596100D01*
X162560242Y-123040339D01*
X162348010Y-122526697D01*
X161955370Y-122133371D01*
X161442100Y-121920243D01*
X160886339Y-121919758D01*
X160372697Y-122131990D01*
X159979371Y-122524630D01*
X159766243Y-123037900D01*
X159765758Y-123593661D01*
X159977990Y-124107303D01*
X160271271Y-124401097D01*
X159692382Y-124979986D01*
X159664100Y-124968243D01*
X159108339Y-124967758D01*
X158594697Y-125179990D01*
X158201371Y-125572630D01*
X157988243Y-126085900D01*
X157987758Y-126641661D01*
X158199990Y-127155303D01*
X158592630Y-127548629D01*
X159105900Y-127761757D01*
X159661661Y-127762242D01*
X160175303Y-127550010D01*
X160568629Y-127157370D01*
X160781757Y-126644100D01*
X160782242Y-126088339D01*
X160769684Y-126057946D01*
X161163000Y-125664630D01*
X161163000Y-129159000D01*
X161181213Y-129250567D01*
X161185752Y-129343812D01*
X161209950Y-129395036D01*
X161221004Y-129450605D01*
X161272871Y-129528230D01*
X161312748Y-129612642D01*
X161354709Y-129650709D01*
X161386185Y-129697815D01*
X161463806Y-129749679D01*
X161532954Y-129812410D01*
X161687013Y-129904845D01*
X161686739Y-130219644D01*
X161915835Y-130774097D01*
X162339672Y-131198674D01*
X162893724Y-131428737D01*
X163493644Y-131429261D01*
X164048097Y-131200165D01*
X164465355Y-130783633D01*
X164879672Y-131198674D01*
X165433724Y-131428737D01*
X166033644Y-131429261D01*
X166588097Y-131200165D01*
X166767000Y-131021573D01*
X166767000Y-131022047D01*
X166844338Y-131208758D01*
X166987241Y-131351661D01*
X167173952Y-131429000D01*
X167376047Y-131429000D01*
X169376047Y-131429000D01*
X169562758Y-131351662D01*
X169705661Y-131208759D01*
X169783000Y-131022048D01*
X169783000Y-130819953D01*
X169783000Y-129690436D01*
X170021018Y-129500022D01*
X170048428Y-129467459D01*
X170083815Y-129443815D01*
X170143408Y-129354627D01*
X170212488Y-129272564D01*
X170225349Y-129231993D01*
X170248996Y-129196605D01*
X170269923Y-129091396D01*
X170302339Y-128989148D01*
X170298696Y-128946744D01*
X170307000Y-128905000D01*
X170307000Y-125884882D01*
X170875329Y-125221831D01*
X171345661Y-125222242D01*
X171859303Y-125010010D01*
X172252629Y-124617370D01*
X172465757Y-124104100D01*
X172466242Y-123548339D01*
X172254010Y-123034697D01*
X171861370Y-122641371D01*
X171831000Y-122628760D01*
X171831000Y-121465704D01*
X171859303Y-121454010D01*
X172252629Y-121061370D01*
X172265239Y-121031000D01*
X174055369Y-121031000D01*
X174690426Y-121666056D01*
X174348339Y-121665758D01*
X173834697Y-121877990D01*
X173441371Y-122270630D01*
X173228243Y-122783900D01*
X173227758Y-123339661D01*
X173439990Y-123853303D01*
X173832630Y-124246629D01*
X174345900Y-124459757D01*
X174901661Y-124460242D01*
X175415303Y-124248010D01*
X175808629Y-123855370D01*
X175894949Y-123647487D01*
X175979990Y-123853303D01*
X176372630Y-124246629D01*
X176885900Y-124459757D01*
X177441661Y-124460242D01*
X177955303Y-124248010D01*
X178348629Y-123855370D01*
X178561757Y-123342100D01*
X178562242Y-122786339D01*
X178350010Y-122272697D01*
X177957370Y-121879371D01*
X177444100Y-121666243D01*
X176888339Y-121665758D01*
X176857946Y-121678315D01*
X175517591Y-120337960D01*
X174909815Y-119730185D01*
X174662605Y-119565004D01*
X174371000Y-119507000D01*
X172265704Y-119507000D01*
X172254010Y-119478697D01*
X171861370Y-119085371D01*
X171348100Y-118872243D01*
X170792339Y-118871758D01*
X170278697Y-119083990D01*
X169885371Y-119476630D01*
X169672243Y-119989900D01*
X169671758Y-120545661D01*
X169883990Y-121059303D01*
X170276630Y-121452629D01*
X170307000Y-121465239D01*
X170307000Y-122628295D01*
X170278697Y-122639990D01*
X169885371Y-123032630D01*
X169672243Y-123545900D01*
X169671758Y-124101661D01*
X169722658Y-124224849D01*
X168966446Y-125107097D01*
X168907643Y-125211661D01*
X168841004Y-125311395D01*
X168835227Y-125340436D01*
X168820712Y-125366248D01*
X168806402Y-125485349D01*
X168783000Y-125603000D01*
X168783000Y-128413000D01*
X167173953Y-128413000D01*
X166987242Y-128490338D01*
X166844339Y-128633241D01*
X166767000Y-128819952D01*
X166767000Y-128820306D01*
X166590328Y-128643326D01*
X166036276Y-128413263D01*
X165608242Y-128412889D01*
X165608242Y-126342339D01*
X165396010Y-125828697D01*
X165003370Y-125435371D01*
X164490100Y-125222243D01*
X163934339Y-125221758D01*
X163420697Y-125433990D01*
X163027371Y-125826630D01*
X162814243Y-126339900D01*
X162813758Y-126895661D01*
X163025990Y-127409303D01*
X163418630Y-127802629D01*
X163931900Y-128015757D01*
X164487661Y-128016242D01*
X165001303Y-127804010D01*
X165394629Y-127411370D01*
X165607757Y-126898100D01*
X165608242Y-126342339D01*
X165608242Y-128412889D01*
X165436356Y-128412739D01*
X164881903Y-128641835D01*
X164464644Y-129058366D01*
X164050328Y-128643326D01*
X163496276Y-128413263D01*
X162896356Y-128412739D01*
X162687000Y-128499243D01*
X162687000Y-125918630D01*
X163987815Y-124617816D01*
X163987815Y-124617815D01*
X164152996Y-124370605D01*
X164210999Y-124079000D01*
X164211000Y-124079000D01*
X164211000Y-123124630D01*
X165681617Y-121654013D01*
X165709900Y-121665757D01*
X166265661Y-121666242D01*
X166779303Y-121454010D01*
X167172629Y-121061370D01*
X167385757Y-120548100D01*
X167386242Y-119992339D01*
X167174010Y-119478697D01*
X166781370Y-119085371D01*
X166268100Y-118872243D01*
X165816609Y-118871848D01*
X165481000Y-118469117D01*
X165481000Y-118163704D01*
X165509303Y-118152010D01*
X165902629Y-117759370D01*
X166115757Y-117246100D01*
X166116242Y-116690339D01*
X165904010Y-116176697D01*
X165511370Y-115783371D01*
X165481000Y-115770760D01*
X165481000Y-115623704D01*
X165509303Y-115612010D01*
X165902629Y-115219370D01*
X166115757Y-114706100D01*
X166115809Y-114645918D01*
X167513000Y-116043108D01*
X167513000Y-116967000D01*
X167513000Y-121450811D01*
X166367129Y-122469363D01*
X166268100Y-122428243D01*
X165712339Y-122427758D01*
X165198697Y-122639990D01*
X164805371Y-123032630D01*
X164592243Y-123545900D01*
X164591758Y-124101661D01*
X164803990Y-124615303D01*
X165196630Y-125008629D01*
X165709900Y-125221757D01*
X166265661Y-125222242D01*
X166779303Y-125010010D01*
X167172629Y-124617370D01*
X167385757Y-124104100D01*
X167386194Y-123602570D01*
X168781245Y-122362526D01*
X168794942Y-122344425D01*
X168813815Y-122331815D01*
X168884202Y-122226472D01*
X168960658Y-122125441D01*
X168966385Y-122103477D01*
X168978996Y-122084605D01*
X169003713Y-121960343D01*
X169035685Y-121837746D01*
X169032571Y-121815262D01*
X169037000Y-121793000D01*
X169037000Y-117729000D01*
X171142295Y-117729000D01*
X171153990Y-117757303D01*
X171546630Y-118150629D01*
X172059900Y-118363757D01*
X172615661Y-118364242D01*
X173129303Y-118152010D01*
X173522629Y-117759370D01*
X173735757Y-117246100D01*
X173736242Y-116690339D01*
X173683913Y-116563694D01*
X173732409Y-116515198D01*
X173817467Y-116770539D01*
X174386965Y-116978516D01*
X174992700Y-116952723D01*
X175432533Y-116770539D01*
X175517591Y-116515196D01*
X174625000Y-115622605D01*
X174610857Y-115636747D01*
X174431252Y-115457142D01*
X174445395Y-115443000D01*
X174431252Y-115428857D01*
X174610857Y-115249252D01*
X174625000Y-115263395D01*
X175517591Y-114370804D01*
X175432533Y-114115461D01*
X174863035Y-113907484D01*
X174456967Y-113924774D01*
X175350459Y-112776000D01*
X176885047Y-112776000D01*
X177071758Y-112698662D01*
X177214661Y-112555759D01*
X177292000Y-112369048D01*
X177292000Y-112166953D01*
X177292000Y-110388953D01*
X177214662Y-110202242D01*
X177071759Y-110059339D01*
X176885048Y-109982000D01*
X176727386Y-109982000D01*
X177078629Y-109631370D01*
X177291757Y-109118100D01*
X177292242Y-108562339D01*
X177080010Y-108048697D01*
X176687370Y-107655371D01*
X176174100Y-107442243D01*
X175618339Y-107441758D01*
X175104697Y-107653990D01*
X174711371Y-108046630D01*
X174498243Y-108559900D01*
X174497758Y-109115661D01*
X174709990Y-109629303D01*
X175062071Y-109982000D01*
X174904953Y-109982000D01*
X174718242Y-110059338D01*
X174575339Y-110202241D01*
X174498000Y-110388952D01*
X174498000Y-110591047D01*
X174498000Y-111474250D01*
X174421800Y-111531400D01*
X174354143Y-111606857D01*
X174277514Y-111673177D01*
X173554365Y-112602938D01*
X173735757Y-112166100D01*
X173736242Y-111610339D01*
X173524010Y-111096697D01*
X173131370Y-110703371D01*
X172618100Y-110490243D01*
X172062339Y-110489758D01*
X172031946Y-110502315D01*
X171184013Y-109654382D01*
X171195757Y-109626100D01*
X171196242Y-109070339D01*
X170984010Y-108556697D01*
X170591370Y-108163371D01*
X170078100Y-107950243D01*
X169522339Y-107949758D01*
X169491946Y-107962315D01*
X167797815Y-106268185D01*
X167550605Y-106103004D01*
X167259000Y-106045000D01*
X156083000Y-106045000D01*
X155791395Y-106103004D01*
X155544184Y-106268185D01*
X153862369Y-107950000D01*
X152298953Y-107950000D01*
X152112242Y-108027338D01*
X151969339Y-108170241D01*
X151892000Y-108356952D01*
X151892000Y-108559047D01*
X151892000Y-108585000D01*
X151257000Y-108585000D01*
X150965395Y-108643004D01*
X150718184Y-108808185D01*
X150179202Y-109347167D01*
X149735490Y-109346780D01*
X149268542Y-109539718D01*
X148910974Y-109896663D01*
X148717221Y-110363273D01*
X148716831Y-110809537D01*
X146908185Y-112618185D01*
X146743004Y-112865395D01*
X146685000Y-113157000D01*
X146685000Y-113992295D01*
X146656697Y-114003990D01*
X146263371Y-114396630D01*
X146229655Y-114477825D01*
X146092010Y-114144697D01*
X145699370Y-113751371D01*
X145669000Y-113738760D01*
X145669000Y-111650815D01*
X145983026Y-111337337D01*
X146176779Y-110870727D01*
X146177168Y-110424461D01*
X147254798Y-109346832D01*
X147698510Y-109347220D01*
X148165458Y-109154282D01*
X148523026Y-108797337D01*
X148716779Y-108330727D01*
X148717220Y-107825490D01*
X148524282Y-107358542D01*
X148167337Y-107000974D01*
X147700727Y-106807221D01*
X147195490Y-106806780D01*
X146728542Y-106999718D01*
X146370974Y-107356663D01*
X146177221Y-107823273D01*
X146176831Y-108269537D01*
X145099202Y-109347167D01*
X144655490Y-109346780D01*
X144188542Y-109539718D01*
X143830974Y-109896663D01*
X143637221Y-110363273D01*
X143636780Y-110868510D01*
X143829718Y-111335458D01*
X144145000Y-111651290D01*
X144145000Y-113738295D01*
X144116697Y-113749990D01*
X143723371Y-114142630D01*
X143510243Y-114655900D01*
X143509839Y-115118452D01*
X143159370Y-114767371D01*
X142646100Y-114554243D01*
X142090339Y-114553758D01*
X141576697Y-114765990D01*
X141183371Y-115158630D01*
X140970243Y-115671900D01*
X140969758Y-116227661D01*
X141181990Y-116741303D01*
X141574630Y-117134629D01*
X142087900Y-117347757D01*
X142643661Y-117348242D01*
X143157303Y-117136010D01*
X143550629Y-116743370D01*
X143763757Y-116230100D01*
X143764160Y-115767547D01*
X144114630Y-116118629D01*
X144627900Y-116331757D01*
X145183661Y-116332242D01*
X145697303Y-116120010D01*
X146090629Y-115727370D01*
X146124344Y-115646174D01*
X146261990Y-115979303D01*
X146654630Y-116372629D01*
X147167900Y-116585757D01*
X147723661Y-116586242D01*
X148237303Y-116374010D01*
X148630629Y-115981370D01*
X148830547Y-115499910D01*
X149194630Y-115864629D01*
X149225000Y-115877239D01*
X149225000Y-116143370D01*
X144368185Y-121000185D01*
X144203004Y-121247395D01*
X144184163Y-121342113D01*
X144116697Y-121369990D01*
X143723371Y-121762630D01*
X143510243Y-122275900D01*
X143509758Y-122831661D01*
X143721990Y-123345303D01*
X144114630Y-123738629D01*
X144627900Y-123951757D01*
X145183661Y-123952242D01*
X145697303Y-123740010D01*
X146090629Y-123347370D01*
X146124344Y-123266174D01*
X146261990Y-123599303D01*
X146428382Y-123765986D01*
X145384185Y-124810185D01*
X145219004Y-125057395D01*
X145161000Y-125349000D01*
X145161000Y-129232295D01*
X145132697Y-129243990D01*
X144739371Y-129636630D01*
X144526243Y-130149900D01*
X144525758Y-130705661D01*
X144737990Y-131219303D01*
X145130630Y-131612629D01*
X145643900Y-131825757D01*
X146199661Y-131826242D01*
X146713303Y-131614010D01*
X147106629Y-131221370D01*
X147319757Y-130708100D01*
X147320242Y-130152339D01*
X147108010Y-129638697D01*
X146715370Y-129245371D01*
X146685000Y-129232760D01*
X146685000Y-125664630D01*
X147985815Y-124363816D01*
X147985815Y-124363815D01*
X148150996Y-124116605D01*
X148169836Y-124021886D01*
X148237303Y-123994010D01*
X148630629Y-123601370D01*
X148830547Y-123119910D01*
X149194630Y-123484629D01*
X149225000Y-123497239D01*
X149225000Y-123698000D01*
X148742953Y-123698000D01*
X148556242Y-123775338D01*
X148413339Y-123918241D01*
X148336000Y-124104952D01*
X148336000Y-124307047D01*
X148336000Y-126085047D01*
X148413338Y-126271758D01*
X148556241Y-126414661D01*
X148742952Y-126492000D01*
X148900613Y-126492000D01*
X148549371Y-126842630D01*
X148336243Y-127355900D01*
X148335758Y-127911661D01*
X148547990Y-128425303D01*
X148940630Y-128818629D01*
X149453900Y-129031757D01*
X150009661Y-129032242D01*
X150523303Y-128820010D01*
X150916629Y-128427370D01*
X151129757Y-127914100D01*
X151130242Y-127358339D01*
X150918010Y-126844697D01*
X150565928Y-126492000D01*
X150723047Y-126492000D01*
X150909758Y-126414662D01*
X151052661Y-126271759D01*
X151130000Y-126085048D01*
X151130000Y-125882953D01*
X151130000Y-124104953D01*
X151052662Y-123918242D01*
X150909759Y-123775339D01*
X150749000Y-123708749D01*
X150749000Y-123497704D01*
X150777303Y-123486010D01*
X151170629Y-123093370D01*
X151383757Y-122580100D01*
X151384242Y-122024339D01*
X151172010Y-121510697D01*
X150779370Y-121117371D01*
X150266100Y-120904243D01*
X149710339Y-120903758D01*
X149196697Y-121115990D01*
X148803371Y-121508630D01*
X148603452Y-121990089D01*
X148239370Y-121625371D01*
X147726100Y-121412243D01*
X147170339Y-121411758D01*
X146656697Y-121623990D01*
X146263371Y-122016630D01*
X146229655Y-122097825D01*
X146092010Y-121764697D01*
X145925616Y-121598013D01*
X150525815Y-116997815D01*
X150690996Y-116750605D01*
X150690996Y-116750604D01*
X150749000Y-116459000D01*
X150749000Y-115877704D01*
X150777303Y-115866010D01*
X151170629Y-115473370D01*
X151383757Y-114960100D01*
X151384242Y-114404339D01*
X151172010Y-113890697D01*
X151005616Y-113724013D01*
X152080630Y-112649000D01*
X152117933Y-112649000D01*
X152268827Y-112874828D01*
X152691126Y-113157000D01*
X152268827Y-113439172D01*
X151965995Y-113892391D01*
X151859655Y-114427000D01*
X151965995Y-114961609D01*
X152268827Y-115414828D01*
X152691126Y-115697000D01*
X152268827Y-115979172D01*
X151965995Y-116432391D01*
X151859655Y-116967000D01*
X151965995Y-117501609D01*
X152268827Y-117954828D01*
X152722046Y-118257660D01*
X153256655Y-118364000D01*
X153829345Y-118364000D01*
X154187638Y-118292731D01*
X153481424Y-118998945D01*
X153266339Y-118998758D01*
X152752697Y-119210990D01*
X152359371Y-119603630D01*
X152146243Y-120116900D01*
X152145758Y-120672661D01*
X152357990Y-121186303D01*
X152750630Y-121579629D01*
X153263900Y-121792757D01*
X153819661Y-121793242D01*
X154040215Y-121702111D01*
X153827859Y-121922634D01*
X153822100Y-121920243D01*
X153266339Y-121919758D01*
X152752697Y-122131990D01*
X152359371Y-122524630D01*
X152146243Y-123037900D01*
X152145758Y-123593661D01*
X152357990Y-124107303D01*
X152750630Y-124500629D01*
X153263900Y-124713757D01*
X153819661Y-124714242D01*
X154333303Y-124502010D01*
X154726629Y-124109370D01*
X154939757Y-123596100D01*
X154940242Y-123040339D01*
X154918334Y-122987318D01*
X157226000Y-120590896D01*
X157226000Y-124144370D01*
X156306185Y-125064185D01*
X156141004Y-125311395D01*
X156083000Y-125603000D01*
X156083000Y-128604194D01*
X155991903Y-128641835D01*
X155574644Y-129058366D01*
X155160328Y-128643326D01*
X155067000Y-128604572D01*
X155067000Y-127561704D01*
X155095303Y-127550010D01*
X155488629Y-127157370D01*
X155701757Y-126644100D01*
X155702242Y-126088339D01*
X155490010Y-125574697D01*
X155097370Y-125181371D01*
X154584100Y-124968243D01*
X154028339Y-124967758D01*
X153514697Y-125179990D01*
X153121371Y-125572630D01*
X152908243Y-126085900D01*
X152907758Y-126641661D01*
X153119990Y-127155303D01*
X153512630Y-127548629D01*
X153543000Y-127561239D01*
X153543000Y-128604194D01*
X153451903Y-128641835D01*
X153027326Y-129065672D01*
X152797263Y-129619724D01*
X152796739Y-130219644D01*
X153025835Y-130774097D01*
X153449672Y-131198674D01*
X154003724Y-131428737D01*
X154603644Y-131429261D01*
X155158097Y-131200165D01*
X155575355Y-130783633D01*
X155989672Y-131198674D01*
X156543724Y-131428737D01*
X157011841Y-131429145D01*
X156998490Y-131445000D01*
X153096630Y-131445000D01*
X152388013Y-130736382D01*
X152399757Y-130708100D01*
X152400242Y-130152339D01*
X152188010Y-129638697D01*
X151795370Y-129245371D01*
X151282100Y-129032243D01*
X150726339Y-129031758D01*
X150212697Y-129243990D01*
X149819371Y-129636630D01*
X149606243Y-130149900D01*
X149605758Y-130705661D01*
X149817990Y-131219303D01*
X150210630Y-131612629D01*
X150723900Y-131825757D01*
X151279661Y-131826242D01*
X151310053Y-131813684D01*
X151938837Y-132442468D01*
X151950004Y-132498605D01*
X152044481Y-132640000D01*
X142961643Y-132640000D01*
X143169269Y-132501269D01*
X143570949Y-131900112D01*
X143712000Y-131191000D01*
X143570949Y-130481888D01*
X143169269Y-129880731D01*
X142568112Y-129479051D01*
X142155613Y-129397000D01*
X143722047Y-129397000D01*
X143908758Y-129319662D01*
X144051661Y-129176759D01*
X144129000Y-128990048D01*
X144129000Y-128787953D01*
X144129000Y-126787953D01*
X144051662Y-126601242D01*
X143908759Y-126458339D01*
X143722048Y-126381000D01*
X143721693Y-126381000D01*
X143898674Y-126204328D01*
X144128737Y-125650276D01*
X144129261Y-125050356D01*
X143900165Y-124495903D01*
X143476328Y-124071326D01*
X143312632Y-124003353D01*
X143204710Y-122168685D01*
X143550629Y-121823370D01*
X143763757Y-121310100D01*
X143764242Y-120754339D01*
X143552010Y-120240697D01*
X143159370Y-119847371D01*
X142646100Y-119634243D01*
X142090339Y-119633758D01*
X141576697Y-119845990D01*
X141183371Y-120238630D01*
X140970243Y-120751900D01*
X140969758Y-121307661D01*
X141181990Y-121821303D01*
X141574630Y-122214629D01*
X141683436Y-122259809D01*
X141789386Y-124060958D01*
X141767903Y-124069835D01*
X141343326Y-124493672D01*
X141113263Y-125047724D01*
X141112739Y-125647644D01*
X141341835Y-126202097D01*
X141520426Y-126381000D01*
X141519953Y-126381000D01*
X141333242Y-126458338D01*
X141190339Y-126601241D01*
X141113000Y-126787952D01*
X141113000Y-126990047D01*
X141113000Y-128990047D01*
X141190338Y-129176758D01*
X141333241Y-129319661D01*
X141519952Y-129397000D01*
X141562386Y-129397000D01*
X141149888Y-129479051D01*
X140548731Y-129880731D01*
X140410000Y-130088356D01*
X140410000Y-108417643D01*
X140548731Y-108625269D01*
X141149888Y-109026949D01*
X141859000Y-109168000D01*
X142568112Y-109026949D01*
X143169269Y-108625269D01*
X143570949Y-108024112D01*
X143712000Y-107315000D01*
X143570949Y-106605888D01*
X143169269Y-106004731D01*
X142961643Y-105866000D01*
X181904356Y-105866000D01*
X181696731Y-106004731D01*
X181295051Y-106605888D01*
X181154000Y-107315000D01*
X181295051Y-108024112D01*
X181696731Y-108625269D01*
X182297888Y-109026949D01*
X183007000Y-109168000D01*
X183716112Y-109026949D01*
X184317269Y-108625269D01*
X184456000Y-108417643D01*
X184456000Y-130088356D01*
X184456000Y-130088356D01*
G37*
X184456000Y-130088356D02*
X184317269Y-129880731D01*
X184007000Y-129673416D01*
X184007000Y-112226048D01*
X184007000Y-112023953D01*
X184007000Y-110023953D01*
X183929662Y-109837242D01*
X183786759Y-109694339D01*
X183600048Y-109617000D01*
X183397953Y-109617000D01*
X181397953Y-109617000D01*
X181211242Y-109694338D01*
X181068339Y-109837241D01*
X181055721Y-109867701D01*
X181046206Y-109858186D01*
X180931926Y-109972465D01*
X180833264Y-109705613D01*
X180223539Y-109479092D01*
X179573540Y-109503144D01*
X179084736Y-109705613D01*
X178986073Y-109972468D01*
X179959000Y-110945395D01*
X179973142Y-110931252D01*
X180152747Y-111110857D01*
X180138605Y-111125000D01*
X180152747Y-111139142D01*
X179973142Y-111318747D01*
X179959000Y-111304605D01*
X179779395Y-111484210D01*
X179779395Y-111125000D01*
X178806468Y-110152073D01*
X178539613Y-110250736D01*
X178313092Y-110860461D01*
X178337144Y-111510460D01*
X178539613Y-111999264D01*
X178806468Y-112097927D01*
X179779395Y-111125000D01*
X179779395Y-111484210D01*
X178986073Y-112277532D01*
X179084736Y-112544387D01*
X179694461Y-112770908D01*
X180344460Y-112746856D01*
X180833264Y-112544387D01*
X180931926Y-112277534D01*
X180931927Y-112277535D01*
X181046206Y-112391814D01*
X181055721Y-112382298D01*
X181068338Y-112412758D01*
X181211241Y-112555661D01*
X181397952Y-112633000D01*
X181600047Y-112633000D01*
X183600047Y-112633000D01*
X183786758Y-112555662D01*
X183929661Y-112412759D01*
X184007000Y-112226048D01*
X184007000Y-129673416D01*
X183896242Y-129599409D01*
X183896242Y-115928339D01*
X183684010Y-115414697D01*
X183291370Y-115021371D01*
X182778100Y-114808243D01*
X182222339Y-114807758D01*
X181708697Y-115019990D01*
X181356000Y-115372071D01*
X181356000Y-115214953D01*
X181278662Y-115028242D01*
X181135759Y-114885339D01*
X180949048Y-114808000D01*
X180931927Y-114808000D01*
X180746953Y-114808000D01*
X178968953Y-114808000D01*
X178782242Y-114885338D01*
X178639339Y-115028241D01*
X178562199Y-115214469D01*
X178562242Y-115166339D01*
X178350010Y-114652697D01*
X177957370Y-114259371D01*
X177444100Y-114046243D01*
X176888339Y-114045758D01*
X176374697Y-114257990D01*
X175981371Y-114650630D01*
X175970081Y-114677818D01*
X175952539Y-114635467D01*
X175697196Y-114550409D01*
X174804605Y-115443000D01*
X175697196Y-116335591D01*
X175952539Y-116250533D01*
X175968758Y-116206120D01*
X175979990Y-116233303D01*
X176372630Y-116626629D01*
X176885900Y-116839757D01*
X177441661Y-116840242D01*
X177497788Y-116817050D01*
X177497789Y-116817050D01*
X177536376Y-116842834D01*
X177635395Y-116908996D01*
X177635396Y-116908996D01*
X177927000Y-116967000D01*
X178562000Y-116967000D01*
X178562000Y-117195047D01*
X178639338Y-117381758D01*
X178782241Y-117524661D01*
X178968952Y-117602000D01*
X179171047Y-117602000D01*
X180949047Y-117602000D01*
X181135758Y-117524662D01*
X181278661Y-117381759D01*
X181356000Y-117195048D01*
X181356000Y-117037386D01*
X181706630Y-117388629D01*
X181737000Y-117401239D01*
X181737000Y-119101243D01*
X181391903Y-119243835D01*
X180967326Y-119667672D01*
X180737263Y-120221724D01*
X180736739Y-120821644D01*
X180965835Y-121376097D01*
X181144426Y-121555000D01*
X181143953Y-121555000D01*
X180957242Y-121632338D01*
X180814339Y-121775241D01*
X180737000Y-121961952D01*
X180737000Y-122164047D01*
X180737000Y-124164047D01*
X180814338Y-124350758D01*
X180957241Y-124493661D01*
X181143952Y-124571000D01*
X181346047Y-124571000D01*
X183346047Y-124571000D01*
X183532758Y-124493662D01*
X183675661Y-124350759D01*
X183753000Y-124164048D01*
X183753000Y-123961953D01*
X183753000Y-121961953D01*
X183675662Y-121775242D01*
X183532759Y-121632339D01*
X183346048Y-121555000D01*
X183345693Y-121555000D01*
X183522674Y-121378328D01*
X183752737Y-120824276D01*
X183753261Y-120224356D01*
X183524165Y-119669903D01*
X183261000Y-119406278D01*
X183261000Y-117401704D01*
X183289303Y-117390010D01*
X183682629Y-116997370D01*
X183895757Y-116484100D01*
X183896242Y-115928339D01*
X183896242Y-129599409D01*
X183716112Y-129479051D01*
X183007000Y-129338000D01*
X182297888Y-129479051D01*
X182256516Y-129506694D01*
X182256516Y-126349035D01*
X182230723Y-125743300D01*
X182048539Y-125303467D01*
X181793196Y-125218409D01*
X181613591Y-125398014D01*
X181613591Y-125038804D01*
X181528533Y-124783461D01*
X180959035Y-124575484D01*
X180353300Y-124601277D01*
X179913467Y-124783461D01*
X179828409Y-125038804D01*
X180721000Y-125931395D01*
X181613591Y-125038804D01*
X181613591Y-125398014D01*
X180900605Y-126111000D01*
X181793196Y-127003591D01*
X182048539Y-126918533D01*
X182256516Y-126349035D01*
X182256516Y-129506694D01*
X181696731Y-129880731D01*
X181613591Y-130005158D01*
X181613591Y-127183196D01*
X180721000Y-126290605D01*
X180541395Y-126470210D01*
X180541395Y-126111000D01*
X179648804Y-125218409D01*
X179393461Y-125303467D01*
X179185484Y-125872965D01*
X179211277Y-126478700D01*
X179393461Y-126918533D01*
X179648804Y-127003591D01*
X180541395Y-126111000D01*
X180541395Y-126470210D01*
X179828409Y-127183196D01*
X179913467Y-127438539D01*
X180482965Y-127646516D01*
X181088700Y-127620723D01*
X181528533Y-127438539D01*
X181613591Y-127183196D01*
X181613591Y-130005158D01*
X181483000Y-130200602D01*
X181415249Y-130301998D01*
X181324252Y-130301998D01*
X181483000Y-130143250D01*
X181483000Y-129666309D01*
X181483000Y-129413690D01*
X181386327Y-129180301D01*
X181207698Y-129001673D01*
X180974309Y-128905000D01*
X180244750Y-128905000D01*
X180086000Y-129063750D01*
X180086000Y-130302000D01*
X180106000Y-130302000D01*
X180106000Y-130556000D01*
X180086000Y-130556000D01*
X180086000Y-131794250D01*
X180244750Y-131953000D01*
X180974309Y-131953000D01*
X181207698Y-131856327D01*
X181273293Y-131790731D01*
X181295051Y-131900112D01*
X181696731Y-132501269D01*
X181904356Y-132640000D01*
X179832000Y-132640000D01*
X179832000Y-131794250D01*
X179832000Y-130556000D01*
X179812000Y-130556000D01*
X179812000Y-130302000D01*
X179832000Y-130302000D01*
X179832000Y-129063750D01*
X179673250Y-128905000D01*
X178943691Y-128905000D01*
X178710302Y-129001673D01*
X178531673Y-129180301D01*
X178435000Y-129413690D01*
X178435000Y-129469391D01*
X178211370Y-129245371D01*
X177698100Y-129032243D01*
X177142339Y-129031758D01*
X177038242Y-129074769D01*
X177038242Y-125834339D01*
X176826010Y-125320697D01*
X176433370Y-124927371D01*
X175920100Y-124714243D01*
X175364339Y-124713758D01*
X174850697Y-124925990D01*
X174457371Y-125318630D01*
X174244243Y-125831900D01*
X174243758Y-126387661D01*
X174455990Y-126901303D01*
X174848630Y-127294629D01*
X175361900Y-127507757D01*
X175917661Y-127508242D01*
X176431303Y-127296010D01*
X176824629Y-126903370D01*
X177037757Y-126390100D01*
X177038242Y-125834339D01*
X177038242Y-129074769D01*
X176628697Y-129243990D01*
X176235371Y-129636630D01*
X176022243Y-130149900D01*
X176022000Y-130428353D01*
X176022000Y-129438953D01*
X175944662Y-129252242D01*
X175801759Y-129109339D01*
X175615048Y-129032000D01*
X175412953Y-129032000D01*
X175365256Y-129032000D01*
X175352670Y-128986416D01*
X175328996Y-128867395D01*
X175313339Y-128843963D01*
X175305839Y-128816798D01*
X175231233Y-128721084D01*
X175163815Y-128620185D01*
X175140383Y-128604528D01*
X175123058Y-128582301D01*
X173213285Y-126932951D01*
X173227757Y-126898100D01*
X173228242Y-126342339D01*
X173016010Y-125828697D01*
X172623370Y-125435371D01*
X172110100Y-125222243D01*
X171554339Y-125221758D01*
X171040697Y-125433990D01*
X170647371Y-125826630D01*
X170434243Y-126339900D01*
X170433758Y-126895661D01*
X170645990Y-127409303D01*
X171038630Y-127802629D01*
X171551900Y-128015757D01*
X172107661Y-128016242D01*
X172126823Y-128008324D01*
X173426665Y-129130914D01*
X173305339Y-129252241D01*
X173228000Y-129438952D01*
X173228000Y-129596613D01*
X172877370Y-129245371D01*
X172364100Y-129032243D01*
X171808339Y-129031758D01*
X171294697Y-129243990D01*
X170901371Y-129636630D01*
X170688243Y-130149900D01*
X170687758Y-130705661D01*
X170899990Y-131219303D01*
X171292630Y-131612629D01*
X171805900Y-131825757D01*
X172361661Y-131826242D01*
X172875303Y-131614010D01*
X173228000Y-131261928D01*
X173228000Y-131419047D01*
X173305338Y-131605758D01*
X173448241Y-131748661D01*
X173634952Y-131826000D01*
X173837047Y-131826000D01*
X175615047Y-131826000D01*
X175801758Y-131748662D01*
X175944661Y-131605759D01*
X176022000Y-131419048D01*
X176022000Y-131216953D01*
X176022000Y-130706246D01*
X176233990Y-131219303D01*
X176626630Y-131612629D01*
X177139900Y-131825757D01*
X177695661Y-131826242D01*
X178209303Y-131614010D01*
X178435000Y-131388706D01*
X178435000Y-131444310D01*
X178531673Y-131677699D01*
X178710302Y-131856327D01*
X178943691Y-131953000D01*
X179673250Y-131953000D01*
X179832000Y-131794250D01*
X179832000Y-132640000D01*
X157984561Y-132640000D01*
X159004351Y-131429000D01*
X160486047Y-131429000D01*
X160672758Y-131351662D01*
X160815661Y-131208759D01*
X160893000Y-131022048D01*
X160893000Y-130819953D01*
X160893000Y-128819953D01*
X160815662Y-128633242D01*
X160672759Y-128490339D01*
X160486048Y-128413000D01*
X160283953Y-128413000D01*
X158283953Y-128413000D01*
X158097242Y-128490338D01*
X157954339Y-128633241D01*
X157877000Y-128819952D01*
X157877000Y-128820306D01*
X157700328Y-128643326D01*
X157607000Y-128604572D01*
X157607000Y-125918630D01*
X158526815Y-124998815D01*
X158691996Y-124751605D01*
X158749999Y-124460000D01*
X158750000Y-124460000D01*
X158750000Y-116647630D01*
X159945160Y-115452469D01*
X160311126Y-115697000D01*
X159888827Y-115979172D01*
X159585995Y-116432391D01*
X159479655Y-116967000D01*
X159585995Y-117501609D01*
X159888827Y-117954828D01*
X160342046Y-118257660D01*
X160401000Y-118269386D01*
X160401000Y-119199295D01*
X160372697Y-119210990D01*
X159979371Y-119603630D01*
X159766243Y-120116900D01*
X159765758Y-120672661D01*
X159977990Y-121186303D01*
X160370630Y-121579629D01*
X160883900Y-121792757D01*
X161439661Y-121793242D01*
X161953303Y-121581010D01*
X162346629Y-121188370D01*
X162559757Y-120675100D01*
X162560242Y-120119339D01*
X162348010Y-119605697D01*
X161955370Y-119212371D01*
X161925000Y-119199760D01*
X161925000Y-118269386D01*
X161983954Y-118257660D01*
X162437173Y-117954828D01*
X162740005Y-117501609D01*
X162846345Y-116967000D01*
X162740005Y-116432391D01*
X162437173Y-115979172D01*
X162014873Y-115697000D01*
X162437173Y-115414828D01*
X162740005Y-114961609D01*
X162846345Y-114427000D01*
X162800932Y-114198693D01*
X164005690Y-113103457D01*
X164134512Y-113156949D01*
X163928697Y-113241990D01*
X163535371Y-113634630D01*
X163322243Y-114147900D01*
X163321758Y-114703661D01*
X163533990Y-115217303D01*
X163926630Y-115610629D01*
X163957000Y-115623239D01*
X163957000Y-115770295D01*
X163928697Y-115781990D01*
X163535371Y-116174630D01*
X163322243Y-116687900D01*
X163321758Y-117243661D01*
X163533990Y-117757303D01*
X163926630Y-118150629D01*
X163957000Y-118163239D01*
X163957000Y-118745000D01*
X163979388Y-118857552D01*
X163991494Y-118971670D01*
X164008190Y-119002349D01*
X164015004Y-119036605D01*
X164078756Y-119132016D01*
X164133615Y-119232821D01*
X164649535Y-119851924D01*
X164592243Y-119989900D01*
X164591758Y-120545661D01*
X164604315Y-120576053D01*
X162910185Y-122270185D01*
X162745004Y-122517395D01*
X162687000Y-122809000D01*
X162687000Y-123763369D01*
X162350626Y-124099742D01*
X162559757Y-123596100D01*
X162560242Y-123040339D01*
X162348010Y-122526697D01*
X161955370Y-122133371D01*
X161442100Y-121920243D01*
X160886339Y-121919758D01*
X160372697Y-122131990D01*
X159979371Y-122524630D01*
X159766243Y-123037900D01*
X159765758Y-123593661D01*
X159977990Y-124107303D01*
X160271271Y-124401097D01*
X159692382Y-124979986D01*
X159664100Y-124968243D01*
X159108339Y-124967758D01*
X158594697Y-125179990D01*
X158201371Y-125572630D01*
X157988243Y-126085900D01*
X157987758Y-126641661D01*
X158199990Y-127155303D01*
X158592630Y-127548629D01*
X159105900Y-127761757D01*
X159661661Y-127762242D01*
X160175303Y-127550010D01*
X160568629Y-127157370D01*
X160781757Y-126644100D01*
X160782242Y-126088339D01*
X160769684Y-126057946D01*
X161163000Y-125664630D01*
X161163000Y-129159000D01*
X161181213Y-129250567D01*
X161185752Y-129343812D01*
X161209950Y-129395036D01*
X161221004Y-129450605D01*
X161272871Y-129528230D01*
X161312748Y-129612642D01*
X161354709Y-129650709D01*
X161386185Y-129697815D01*
X161463806Y-129749679D01*
X161532954Y-129812410D01*
X161687013Y-129904845D01*
X161686739Y-130219644D01*
X161915835Y-130774097D01*
X162339672Y-131198674D01*
X162893724Y-131428737D01*
X163493644Y-131429261D01*
X164048097Y-131200165D01*
X164465355Y-130783633D01*
X164879672Y-131198674D01*
X165433724Y-131428737D01*
X166033644Y-131429261D01*
X166588097Y-131200165D01*
X166767000Y-131021573D01*
X166767000Y-131022047D01*
X166844338Y-131208758D01*
X166987241Y-131351661D01*
X167173952Y-131429000D01*
X167376047Y-131429000D01*
X169376047Y-131429000D01*
X169562758Y-131351662D01*
X169705661Y-131208759D01*
X169783000Y-131022048D01*
X169783000Y-130819953D01*
X169783000Y-129690436D01*
X170021018Y-129500022D01*
X170048428Y-129467459D01*
X170083815Y-129443815D01*
X170143408Y-129354627D01*
X170212488Y-129272564D01*
X170225349Y-129231993D01*
X170248996Y-129196605D01*
X170269923Y-129091396D01*
X170302339Y-128989148D01*
X170298696Y-128946744D01*
X170307000Y-128905000D01*
X170307000Y-125884882D01*
X170875329Y-125221831D01*
X171345661Y-125222242D01*
X171859303Y-125010010D01*
X172252629Y-124617370D01*
X172465757Y-124104100D01*
X172466242Y-123548339D01*
X172254010Y-123034697D01*
X171861370Y-122641371D01*
X171831000Y-122628760D01*
X171831000Y-121465704D01*
X171859303Y-121454010D01*
X172252629Y-121061370D01*
X172265239Y-121031000D01*
X174055369Y-121031000D01*
X174690426Y-121666056D01*
X174348339Y-121665758D01*
X173834697Y-121877990D01*
X173441371Y-122270630D01*
X173228243Y-122783900D01*
X173227758Y-123339661D01*
X173439990Y-123853303D01*
X173832630Y-124246629D01*
X174345900Y-124459757D01*
X174901661Y-124460242D01*
X175415303Y-124248010D01*
X175808629Y-123855370D01*
X175894949Y-123647487D01*
X175979990Y-123853303D01*
X176372630Y-124246629D01*
X176885900Y-124459757D01*
X177441661Y-124460242D01*
X177955303Y-124248010D01*
X178348629Y-123855370D01*
X178561757Y-123342100D01*
X178562242Y-122786339D01*
X178350010Y-122272697D01*
X177957370Y-121879371D01*
X177444100Y-121666243D01*
X176888339Y-121665758D01*
X176857946Y-121678315D01*
X175517591Y-120337960D01*
X174909815Y-119730185D01*
X174662605Y-119565004D01*
X174371000Y-119507000D01*
X172265704Y-119507000D01*
X172254010Y-119478697D01*
X171861370Y-119085371D01*
X171348100Y-118872243D01*
X170792339Y-118871758D01*
X170278697Y-119083990D01*
X169885371Y-119476630D01*
X169672243Y-119989900D01*
X169671758Y-120545661D01*
X169883990Y-121059303D01*
X170276630Y-121452629D01*
X170307000Y-121465239D01*
X170307000Y-122628295D01*
X170278697Y-122639990D01*
X169885371Y-123032630D01*
X169672243Y-123545900D01*
X169671758Y-124101661D01*
X169722658Y-124224849D01*
X168966446Y-125107097D01*
X168907643Y-125211661D01*
X168841004Y-125311395D01*
X168835227Y-125340436D01*
X168820712Y-125366248D01*
X168806402Y-125485349D01*
X168783000Y-125603000D01*
X168783000Y-128413000D01*
X167173953Y-128413000D01*
X166987242Y-128490338D01*
X166844339Y-128633241D01*
X166767000Y-128819952D01*
X166767000Y-128820306D01*
X166590328Y-128643326D01*
X166036276Y-128413263D01*
X165608242Y-128412889D01*
X165608242Y-126342339D01*
X165396010Y-125828697D01*
X165003370Y-125435371D01*
X164490100Y-125222243D01*
X163934339Y-125221758D01*
X163420697Y-125433990D01*
X163027371Y-125826630D01*
X162814243Y-126339900D01*
X162813758Y-126895661D01*
X163025990Y-127409303D01*
X163418630Y-127802629D01*
X163931900Y-128015757D01*
X164487661Y-128016242D01*
X165001303Y-127804010D01*
X165394629Y-127411370D01*
X165607757Y-126898100D01*
X165608242Y-126342339D01*
X165608242Y-128412889D01*
X165436356Y-128412739D01*
X164881903Y-128641835D01*
X164464644Y-129058366D01*
X164050328Y-128643326D01*
X163496276Y-128413263D01*
X162896356Y-128412739D01*
X162687000Y-128499243D01*
X162687000Y-125918630D01*
X163987815Y-124617816D01*
X163987815Y-124617815D01*
X164152996Y-124370605D01*
X164210999Y-124079000D01*
X164211000Y-124079000D01*
X164211000Y-123124630D01*
X165681617Y-121654013D01*
X165709900Y-121665757D01*
X166265661Y-121666242D01*
X166779303Y-121454010D01*
X167172629Y-121061370D01*
X167385757Y-120548100D01*
X167386242Y-119992339D01*
X167174010Y-119478697D01*
X166781370Y-119085371D01*
X166268100Y-118872243D01*
X165816609Y-118871848D01*
X165481000Y-118469117D01*
X165481000Y-118163704D01*
X165509303Y-118152010D01*
X165902629Y-117759370D01*
X166115757Y-117246100D01*
X166116242Y-116690339D01*
X165904010Y-116176697D01*
X165511370Y-115783371D01*
X165481000Y-115770760D01*
X165481000Y-115623704D01*
X165509303Y-115612010D01*
X165902629Y-115219370D01*
X166115757Y-114706100D01*
X166115809Y-114645918D01*
X167513000Y-116043108D01*
X167513000Y-116967000D01*
X167513000Y-121450811D01*
X166367129Y-122469363D01*
X166268100Y-122428243D01*
X165712339Y-122427758D01*
X165198697Y-122639990D01*
X164805371Y-123032630D01*
X164592243Y-123545900D01*
X164591758Y-124101661D01*
X164803990Y-124615303D01*
X165196630Y-125008629D01*
X165709900Y-125221757D01*
X166265661Y-125222242D01*
X166779303Y-125010010D01*
X167172629Y-124617370D01*
X167385757Y-124104100D01*
X167386194Y-123602570D01*
X168781245Y-122362526D01*
X168794942Y-122344425D01*
X168813815Y-122331815D01*
X168884202Y-122226472D01*
X168960658Y-122125441D01*
X168966385Y-122103477D01*
X168978996Y-122084605D01*
X169003713Y-121960343D01*
X169035685Y-121837746D01*
X169032571Y-121815262D01*
X169037000Y-121793000D01*
X169037000Y-117729000D01*
X171142295Y-117729000D01*
X171153990Y-117757303D01*
X171546630Y-118150629D01*
X172059900Y-118363757D01*
X172615661Y-118364242D01*
X173129303Y-118152010D01*
X173522629Y-117759370D01*
X173735757Y-117246100D01*
X173736242Y-116690339D01*
X173683913Y-116563694D01*
X173732409Y-116515198D01*
X173817467Y-116770539D01*
X174386965Y-116978516D01*
X174992700Y-116952723D01*
X175432533Y-116770539D01*
X175517591Y-116515196D01*
X174625000Y-115622605D01*
X174610857Y-115636747D01*
X174431252Y-115457142D01*
X174445395Y-115443000D01*
X174431252Y-115428857D01*
X174610857Y-115249252D01*
X174625000Y-115263395D01*
X175517591Y-114370804D01*
X175432533Y-114115461D01*
X174863035Y-113907484D01*
X174456967Y-113924774D01*
X175350459Y-112776000D01*
X176885047Y-112776000D01*
X177071758Y-112698662D01*
X177214661Y-112555759D01*
X177292000Y-112369048D01*
X177292000Y-112166953D01*
X177292000Y-110388953D01*
X177214662Y-110202242D01*
X177071759Y-110059339D01*
X176885048Y-109982000D01*
X176727386Y-109982000D01*
X177078629Y-109631370D01*
X177291757Y-109118100D01*
X177292242Y-108562339D01*
X177080010Y-108048697D01*
X176687370Y-107655371D01*
X176174100Y-107442243D01*
X175618339Y-107441758D01*
X175104697Y-107653990D01*
X174711371Y-108046630D01*
X174498243Y-108559900D01*
X174497758Y-109115661D01*
X174709990Y-109629303D01*
X175062071Y-109982000D01*
X174904953Y-109982000D01*
X174718242Y-110059338D01*
X174575339Y-110202241D01*
X174498000Y-110388952D01*
X174498000Y-110591047D01*
X174498000Y-111474250D01*
X174421800Y-111531400D01*
X174354143Y-111606857D01*
X174277514Y-111673177D01*
X173554365Y-112602938D01*
X173735757Y-112166100D01*
X173736242Y-111610339D01*
X173524010Y-111096697D01*
X173131370Y-110703371D01*
X172618100Y-110490243D01*
X172062339Y-110489758D01*
X172031946Y-110502315D01*
X171184013Y-109654382D01*
X171195757Y-109626100D01*
X171196242Y-109070339D01*
X170984010Y-108556697D01*
X170591370Y-108163371D01*
X170078100Y-107950243D01*
X169522339Y-107949758D01*
X169491946Y-107962315D01*
X167797815Y-106268185D01*
X167550605Y-106103004D01*
X167259000Y-106045000D01*
X156083000Y-106045000D01*
X155791395Y-106103004D01*
X155544184Y-106268185D01*
X153862369Y-107950000D01*
X152298953Y-107950000D01*
X152112242Y-108027338D01*
X151969339Y-108170241D01*
X151892000Y-108356952D01*
X151892000Y-108559047D01*
X151892000Y-108585000D01*
X151257000Y-108585000D01*
X150965395Y-108643004D01*
X150718184Y-108808185D01*
X150179202Y-109347167D01*
X149735490Y-109346780D01*
X149268542Y-109539718D01*
X148910974Y-109896663D01*
X148717221Y-110363273D01*
X148716831Y-110809537D01*
X146908185Y-112618185D01*
X146743004Y-112865395D01*
X146685000Y-113157000D01*
X146685000Y-113992295D01*
X146656697Y-114003990D01*
X146263371Y-114396630D01*
X146229655Y-114477825D01*
X146092010Y-114144697D01*
X145699370Y-113751371D01*
X145669000Y-113738760D01*
X145669000Y-111650815D01*
X145983026Y-111337337D01*
X146176779Y-110870727D01*
X146177168Y-110424461D01*
X147254798Y-109346832D01*
X147698510Y-109347220D01*
X148165458Y-109154282D01*
X148523026Y-108797337D01*
X148716779Y-108330727D01*
X148717220Y-107825490D01*
X148524282Y-107358542D01*
X148167337Y-107000974D01*
X147700727Y-106807221D01*
X147195490Y-106806780D01*
X146728542Y-106999718D01*
X146370974Y-107356663D01*
X146177221Y-107823273D01*
X146176831Y-108269537D01*
X145099202Y-109347167D01*
X144655490Y-109346780D01*
X144188542Y-109539718D01*
X143830974Y-109896663D01*
X143637221Y-110363273D01*
X143636780Y-110868510D01*
X143829718Y-111335458D01*
X144145000Y-111651290D01*
X144145000Y-113738295D01*
X144116697Y-113749990D01*
X143723371Y-114142630D01*
X143510243Y-114655900D01*
X143509839Y-115118452D01*
X143159370Y-114767371D01*
X142646100Y-114554243D01*
X142090339Y-114553758D01*
X141576697Y-114765990D01*
X141183371Y-115158630D01*
X140970243Y-115671900D01*
X140969758Y-116227661D01*
X141181990Y-116741303D01*
X141574630Y-117134629D01*
X142087900Y-117347757D01*
X142643661Y-117348242D01*
X143157303Y-117136010D01*
X143550629Y-116743370D01*
X143763757Y-116230100D01*
X143764160Y-115767547D01*
X144114630Y-116118629D01*
X144627900Y-116331757D01*
X145183661Y-116332242D01*
X145697303Y-116120010D01*
X146090629Y-115727370D01*
X146124344Y-115646174D01*
X146261990Y-115979303D01*
X146654630Y-116372629D01*
X147167900Y-116585757D01*
X147723661Y-116586242D01*
X148237303Y-116374010D01*
X148630629Y-115981370D01*
X148830547Y-115499910D01*
X149194630Y-115864629D01*
X149225000Y-115877239D01*
X149225000Y-116143370D01*
X144368185Y-121000185D01*
X144203004Y-121247395D01*
X144184163Y-121342113D01*
X144116697Y-121369990D01*
X143723371Y-121762630D01*
X143510243Y-122275900D01*
X143509758Y-122831661D01*
X143721990Y-123345303D01*
X144114630Y-123738629D01*
X144627900Y-123951757D01*
X145183661Y-123952242D01*
X145697303Y-123740010D01*
X146090629Y-123347370D01*
X146124344Y-123266174D01*
X146261990Y-123599303D01*
X146428382Y-123765986D01*
X145384185Y-124810185D01*
X145219004Y-125057395D01*
X145161000Y-125349000D01*
X145161000Y-129232295D01*
X145132697Y-129243990D01*
X144739371Y-129636630D01*
X144526243Y-130149900D01*
X144525758Y-130705661D01*
X144737990Y-131219303D01*
X145130630Y-131612629D01*
X145643900Y-131825757D01*
X146199661Y-131826242D01*
X146713303Y-131614010D01*
X147106629Y-131221370D01*
X147319757Y-130708100D01*
X147320242Y-130152339D01*
X147108010Y-129638697D01*
X146715370Y-129245371D01*
X146685000Y-129232760D01*
X146685000Y-125664630D01*
X147985815Y-124363816D01*
X147985815Y-124363815D01*
X148150996Y-124116605D01*
X148169836Y-124021886D01*
X148237303Y-123994010D01*
X148630629Y-123601370D01*
X148830547Y-123119910D01*
X149194630Y-123484629D01*
X149225000Y-123497239D01*
X149225000Y-123698000D01*
X148742953Y-123698000D01*
X148556242Y-123775338D01*
X148413339Y-123918241D01*
X148336000Y-124104952D01*
X148336000Y-124307047D01*
X148336000Y-126085047D01*
X148413338Y-126271758D01*
X148556241Y-126414661D01*
X148742952Y-126492000D01*
X148900613Y-126492000D01*
X148549371Y-126842630D01*
X148336243Y-127355900D01*
X148335758Y-127911661D01*
X148547990Y-128425303D01*
X148940630Y-128818629D01*
X149453900Y-129031757D01*
X150009661Y-129032242D01*
X150523303Y-128820010D01*
X150916629Y-128427370D01*
X151129757Y-127914100D01*
X151130242Y-127358339D01*
X150918010Y-126844697D01*
X150565928Y-126492000D01*
X150723047Y-126492000D01*
X150909758Y-126414662D01*
X151052661Y-126271759D01*
X151130000Y-126085048D01*
X151130000Y-125882953D01*
X151130000Y-124104953D01*
X151052662Y-123918242D01*
X150909759Y-123775339D01*
X150749000Y-123708749D01*
X150749000Y-123497704D01*
X150777303Y-123486010D01*
X151170629Y-123093370D01*
X151383757Y-122580100D01*
X151384242Y-122024339D01*
X151172010Y-121510697D01*
X150779370Y-121117371D01*
X150266100Y-120904243D01*
X149710339Y-120903758D01*
X149196697Y-121115990D01*
X148803371Y-121508630D01*
X148603452Y-121990089D01*
X148239370Y-121625371D01*
X147726100Y-121412243D01*
X147170339Y-121411758D01*
X146656697Y-121623990D01*
X146263371Y-122016630D01*
X146229655Y-122097825D01*
X146092010Y-121764697D01*
X145925616Y-121598013D01*
X150525815Y-116997815D01*
X150690996Y-116750605D01*
X150690996Y-116750604D01*
X150749000Y-116459000D01*
X150749000Y-115877704D01*
X150777303Y-115866010D01*
X151170629Y-115473370D01*
X151383757Y-114960100D01*
X151384242Y-114404339D01*
X151172010Y-113890697D01*
X151005616Y-113724013D01*
X152080630Y-112649000D01*
X152117933Y-112649000D01*
X152268827Y-112874828D01*
X152691126Y-113157000D01*
X152268827Y-113439172D01*
X151965995Y-113892391D01*
X151859655Y-114427000D01*
X151965995Y-114961609D01*
X152268827Y-115414828D01*
X152691126Y-115697000D01*
X152268827Y-115979172D01*
X151965995Y-116432391D01*
X151859655Y-116967000D01*
X151965995Y-117501609D01*
X152268827Y-117954828D01*
X152722046Y-118257660D01*
X153256655Y-118364000D01*
X153829345Y-118364000D01*
X154187638Y-118292731D01*
X153481424Y-118998945D01*
X153266339Y-118998758D01*
X152752697Y-119210990D01*
X152359371Y-119603630D01*
X152146243Y-120116900D01*
X152145758Y-120672661D01*
X152357990Y-121186303D01*
X152750630Y-121579629D01*
X153263900Y-121792757D01*
X153819661Y-121793242D01*
X154040215Y-121702111D01*
X153827859Y-121922634D01*
X153822100Y-121920243D01*
X153266339Y-121919758D01*
X152752697Y-122131990D01*
X152359371Y-122524630D01*
X152146243Y-123037900D01*
X152145758Y-123593661D01*
X152357990Y-124107303D01*
X152750630Y-124500629D01*
X153263900Y-124713757D01*
X153819661Y-124714242D01*
X154333303Y-124502010D01*
X154726629Y-124109370D01*
X154939757Y-123596100D01*
X154940242Y-123040339D01*
X154918334Y-122987318D01*
X157226000Y-120590896D01*
X157226000Y-124144370D01*
X156306185Y-125064185D01*
X156141004Y-125311395D01*
X156083000Y-125603000D01*
X156083000Y-128604194D01*
X155991903Y-128641835D01*
X155574644Y-129058366D01*
X155160328Y-128643326D01*
X155067000Y-128604572D01*
X155067000Y-127561704D01*
X155095303Y-127550010D01*
X155488629Y-127157370D01*
X155701757Y-126644100D01*
X155702242Y-126088339D01*
X155490010Y-125574697D01*
X155097370Y-125181371D01*
X154584100Y-124968243D01*
X154028339Y-124967758D01*
X153514697Y-125179990D01*
X153121371Y-125572630D01*
X152908243Y-126085900D01*
X152907758Y-126641661D01*
X153119990Y-127155303D01*
X153512630Y-127548629D01*
X153543000Y-127561239D01*
X153543000Y-128604194D01*
X153451903Y-128641835D01*
X153027326Y-129065672D01*
X152797263Y-129619724D01*
X152796739Y-130219644D01*
X153025835Y-130774097D01*
X153449672Y-131198674D01*
X154003724Y-131428737D01*
X154603644Y-131429261D01*
X155158097Y-131200165D01*
X155575355Y-130783633D01*
X155989672Y-131198674D01*
X156543724Y-131428737D01*
X157011841Y-131429145D01*
X156998490Y-131445000D01*
X153096630Y-131445000D01*
X152388013Y-130736382D01*
X152399757Y-130708100D01*
X152400242Y-130152339D01*
X152188010Y-129638697D01*
X151795370Y-129245371D01*
X151282100Y-129032243D01*
X150726339Y-129031758D01*
X150212697Y-129243990D01*
X149819371Y-129636630D01*
X149606243Y-130149900D01*
X149605758Y-130705661D01*
X149817990Y-131219303D01*
X150210630Y-131612629D01*
X150723900Y-131825757D01*
X151279661Y-131826242D01*
X151310053Y-131813684D01*
X151938837Y-132442468D01*
X151950004Y-132498605D01*
X152044481Y-132640000D01*
X142961643Y-132640000D01*
X143169269Y-132501269D01*
X143570949Y-131900112D01*
X143712000Y-131191000D01*
X143570949Y-130481888D01*
X143169269Y-129880731D01*
X142568112Y-129479051D01*
X142155613Y-129397000D01*
X143722047Y-129397000D01*
X143908758Y-129319662D01*
X144051661Y-129176759D01*
X144129000Y-128990048D01*
X144129000Y-128787953D01*
X144129000Y-126787953D01*
X144051662Y-126601242D01*
X143908759Y-126458339D01*
X143722048Y-126381000D01*
X143721693Y-126381000D01*
X143898674Y-126204328D01*
X144128737Y-125650276D01*
X144129261Y-125050356D01*
X143900165Y-124495903D01*
X143476328Y-124071326D01*
X143312632Y-124003353D01*
X143204710Y-122168685D01*
X143550629Y-121823370D01*
X143763757Y-121310100D01*
X143764242Y-120754339D01*
X143552010Y-120240697D01*
X143159370Y-119847371D01*
X142646100Y-119634243D01*
X142090339Y-119633758D01*
X141576697Y-119845990D01*
X141183371Y-120238630D01*
X140970243Y-120751900D01*
X140969758Y-121307661D01*
X141181990Y-121821303D01*
X141574630Y-122214629D01*
X141683436Y-122259809D01*
X141789386Y-124060958D01*
X141767903Y-124069835D01*
X141343326Y-124493672D01*
X141113263Y-125047724D01*
X141112739Y-125647644D01*
X141341835Y-126202097D01*
X141520426Y-126381000D01*
X141519953Y-126381000D01*
X141333242Y-126458338D01*
X141190339Y-126601241D01*
X141113000Y-126787952D01*
X141113000Y-126990047D01*
X141113000Y-128990047D01*
X141190338Y-129176758D01*
X141333241Y-129319661D01*
X141519952Y-129397000D01*
X141562386Y-129397000D01*
X141149888Y-129479051D01*
X140548731Y-129880731D01*
X140410000Y-130088356D01*
X140410000Y-108417643D01*
X140548731Y-108625269D01*
X141149888Y-109026949D01*
X141859000Y-109168000D01*
X142568112Y-109026949D01*
X143169269Y-108625269D01*
X143570949Y-108024112D01*
X143712000Y-107315000D01*
X143570949Y-106605888D01*
X143169269Y-106004731D01*
X142961643Y-105866000D01*
X181904356Y-105866000D01*
X181696731Y-106004731D01*
X181295051Y-106605888D01*
X181154000Y-107315000D01*
X181295051Y-108024112D01*
X181696731Y-108625269D01*
X182297888Y-109026949D01*
X183007000Y-109168000D01*
X183716112Y-109026949D01*
X184317269Y-108625269D01*
X184456000Y-108417643D01*
X184456000Y-130088356D01*
M02*
