%FSLAX46Y46*%
G04 Gerber Fmt 4.6, Leading zero omitted, Abs format (unit mm)*
G04 Created by KiCad (PCBNEW (2014-10-18 BZR 5203)-product) date 10/11/2014 14:08:34*
%MOMM*%
G01*
G04 APERTURE LIST*
%ADD10C,0.150000*%
%ADD11C,0.300000*%
%ADD12C,0.250000*%
%ADD13C,0.247650*%
%ADD14C,0.304800*%
%ADD15C,0.127000*%
%ADD16C,0.381000*%
%ADD17C,0.203200*%
%ADD18C,0.177800*%
%ADD19C,0.285750*%
%ADD20C,2.178000*%
%ADD21R,2.178000X2.178000*%
%ADD22R,2.400000X2.400000*%
%ADD23C,2.400000*%
%ADD24R,2.686000X2.178000*%
%ADD25O,2.686000X2.178000*%
G04 APERTURE END LIST*
D10*
D11*
X181590143Y-113982428D02*
X181590143Y-112839571D01*
X180911572Y-110724143D02*
X182054429Y-110724143D01*
X181483000Y-111295571D02*
X181483000Y-110152714D01*
D12*
X181681381Y-124126524D02*
X181633762Y-124221762D01*
X181586143Y-124269381D01*
X181490905Y-124317000D01*
X181205190Y-124317000D01*
X181109952Y-124269381D01*
X181062333Y-124221762D01*
X181014714Y-124126524D01*
X181014714Y-123983666D01*
X181062333Y-123888428D01*
X181109952Y-123840809D01*
X181205190Y-123793190D01*
X181490905Y-123793190D01*
X181586143Y-123840809D01*
X181633762Y-123888428D01*
X181681381Y-123983666D01*
X181681381Y-124126524D01*
X181014714Y-122936047D02*
X181681381Y-122936047D01*
X181014714Y-123364619D02*
X181538524Y-123364619D01*
X181633762Y-123317000D01*
X181681381Y-123221762D01*
X181681381Y-123078904D01*
X181633762Y-122983666D01*
X181586143Y-122936047D01*
X181014714Y-122602714D02*
X181014714Y-122221762D01*
X180681381Y-122459857D02*
X181538524Y-122459857D01*
X181633762Y-122412238D01*
X181681381Y-122317000D01*
X181681381Y-122221762D01*
X144597381Y-118181381D02*
X143930714Y-118181381D01*
X143597381Y-118181381D02*
X143645000Y-118229000D01*
X143692619Y-118181381D01*
X143645000Y-118133762D01*
X143597381Y-118181381D01*
X143692619Y-118181381D01*
X143930714Y-117705191D02*
X144597381Y-117705191D01*
X144025952Y-117705191D02*
X143978333Y-117657572D01*
X143930714Y-117562334D01*
X143930714Y-117419476D01*
X143978333Y-117324238D01*
X144073571Y-117276619D01*
X144597381Y-117276619D01*
X164766809Y-129865381D02*
X164766809Y-128865381D01*
X164766809Y-129246333D02*
X164862047Y-129198714D01*
X165052524Y-129198714D01*
X165147762Y-129246333D01*
X165195381Y-129293952D01*
X165243000Y-129389190D01*
X165243000Y-129674905D01*
X165195381Y-129770143D01*
X165147762Y-129817762D01*
X165052524Y-129865381D01*
X164862047Y-129865381D01*
X164766809Y-129817762D01*
X166100143Y-129865381D02*
X166100143Y-129341571D01*
X166052524Y-129246333D01*
X165957286Y-129198714D01*
X165766809Y-129198714D01*
X165671571Y-129246333D01*
X166100143Y-129817762D02*
X166004905Y-129865381D01*
X165766809Y-129865381D01*
X165671571Y-129817762D01*
X165623952Y-129722524D01*
X165623952Y-129627286D01*
X165671571Y-129532048D01*
X165766809Y-129484429D01*
X166004905Y-129484429D01*
X166100143Y-129436810D01*
X166528714Y-129817762D02*
X166623952Y-129865381D01*
X166814428Y-129865381D01*
X166909667Y-129817762D01*
X166957286Y-129722524D01*
X166957286Y-129674905D01*
X166909667Y-129579667D01*
X166814428Y-129532048D01*
X166671571Y-129532048D01*
X166576333Y-129484429D01*
X166528714Y-129389190D01*
X166528714Y-129341571D01*
X166576333Y-129246333D01*
X166671571Y-129198714D01*
X166814428Y-129198714D01*
X166909667Y-129246333D01*
X167338238Y-129817762D02*
X167433476Y-129865381D01*
X167623952Y-129865381D01*
X167719191Y-129817762D01*
X167766810Y-129722524D01*
X167766810Y-129674905D01*
X167719191Y-129579667D01*
X167623952Y-129532048D01*
X167481095Y-129532048D01*
X167385857Y-129484429D01*
X167338238Y-129389190D01*
X167338238Y-129341571D01*
X167385857Y-129246333D01*
X167481095Y-129198714D01*
X167623952Y-129198714D01*
X167719191Y-129246333D01*
X155027571Y-129198714D02*
X155408523Y-129198714D01*
X155170428Y-128865381D02*
X155170428Y-129722524D01*
X155218047Y-129817762D01*
X155313285Y-129865381D01*
X155408523Y-129865381D01*
X155741857Y-129865381D02*
X155741857Y-129198714D01*
X155741857Y-129389190D02*
X155789476Y-129293952D01*
X155837095Y-129246333D01*
X155932333Y-129198714D01*
X156027572Y-129198714D01*
X156741858Y-129817762D02*
X156646620Y-129865381D01*
X156456143Y-129865381D01*
X156360905Y-129817762D01*
X156313286Y-129722524D01*
X156313286Y-129341571D01*
X156360905Y-129246333D01*
X156456143Y-129198714D01*
X156646620Y-129198714D01*
X156741858Y-129246333D01*
X156789477Y-129341571D01*
X156789477Y-129436810D01*
X156313286Y-129532048D01*
X157218048Y-129865381D02*
X157218048Y-128865381D01*
X157218048Y-129246333D02*
X157313286Y-129198714D01*
X157503763Y-129198714D01*
X157599001Y-129246333D01*
X157646620Y-129293952D01*
X157694239Y-129389190D01*
X157694239Y-129674905D01*
X157646620Y-129770143D01*
X157599001Y-129817762D01*
X157503763Y-129865381D01*
X157313286Y-129865381D01*
X157218048Y-129817762D01*
X158265667Y-129865381D02*
X158170429Y-129817762D01*
X158122810Y-129722524D01*
X158122810Y-128865381D01*
X159027573Y-129817762D02*
X158932335Y-129865381D01*
X158741858Y-129865381D01*
X158646620Y-129817762D01*
X158599001Y-129722524D01*
X158599001Y-129341571D01*
X158646620Y-129246333D01*
X158741858Y-129198714D01*
X158932335Y-129198714D01*
X159027573Y-129246333D01*
X159075192Y-129341571D01*
X159075192Y-129436810D01*
X158599001Y-129532048D01*
D13*
X154134457Y-106846714D02*
X154511828Y-106846714D01*
X154275971Y-107513381D02*
X154275971Y-106656238D01*
X154323143Y-106561000D01*
X154417485Y-106513381D01*
X154511828Y-106513381D01*
X155266571Y-106846714D02*
X155266571Y-107513381D01*
X154842028Y-106846714D02*
X154842028Y-107370524D01*
X154889200Y-107465762D01*
X154983542Y-107513381D01*
X155125057Y-107513381D01*
X155219400Y-107465762D01*
X155266571Y-107418143D01*
X155738285Y-106846714D02*
X155738285Y-107513381D01*
X155738285Y-106941952D02*
X155785457Y-106894333D01*
X155879799Y-106846714D01*
X156021314Y-106846714D01*
X156115657Y-106894333D01*
X156162828Y-106989571D01*
X156162828Y-107513381D01*
X156634542Y-107513381D02*
X156634542Y-106513381D01*
X156728885Y-107132429D02*
X157011914Y-107513381D01*
X157011914Y-106846714D02*
X156634542Y-107227667D01*
X157342113Y-106846714D02*
X157577970Y-107513381D01*
X157813828Y-106846714D02*
X157577970Y-107513381D01*
X157483628Y-107751476D01*
X157436456Y-107799095D01*
X157342113Y-107846714D01*
X159370485Y-107513381D02*
X159370485Y-106513381D01*
X159370485Y-107465762D02*
X159276142Y-107513381D01*
X159087456Y-107513381D01*
X158993114Y-107465762D01*
X158945942Y-107418143D01*
X158898771Y-107322905D01*
X158898771Y-107037190D01*
X158945942Y-106941952D01*
X158993114Y-106894333D01*
X159087456Y-106846714D01*
X159276142Y-106846714D01*
X159370485Y-106894333D01*
X160266742Y-106846714D02*
X160266742Y-107513381D01*
X159842199Y-106846714D02*
X159842199Y-107370524D01*
X159889371Y-107465762D01*
X159983713Y-107513381D01*
X160125228Y-107513381D01*
X160219571Y-107465762D01*
X160266742Y-107418143D01*
X161162999Y-107513381D02*
X161162999Y-106513381D01*
X161162999Y-107465762D02*
X161068656Y-107513381D01*
X160879970Y-107513381D01*
X160785628Y-107465762D01*
X160738456Y-107418143D01*
X160691285Y-107322905D01*
X160691285Y-107037190D01*
X160738456Y-106941952D01*
X160785628Y-106894333D01*
X160879970Y-106846714D01*
X161068656Y-106846714D01*
X161162999Y-106894333D01*
X162012085Y-107465762D02*
X161917742Y-107513381D01*
X161729056Y-107513381D01*
X161634713Y-107465762D01*
X161587542Y-107370524D01*
X161587542Y-106989571D01*
X161634713Y-106894333D01*
X161729056Y-106846714D01*
X161917742Y-106846714D01*
X162012085Y-106894333D01*
X162059256Y-106989571D01*
X162059256Y-107084810D01*
X161587542Y-107180048D01*
X163238542Y-106846714D02*
X163238542Y-107846714D01*
X163238542Y-106894333D02*
X163332885Y-106846714D01*
X163521571Y-106846714D01*
X163615914Y-106894333D01*
X163663085Y-106941952D01*
X163710256Y-107037190D01*
X163710256Y-107322905D01*
X163663085Y-107418143D01*
X163615914Y-107465762D01*
X163521571Y-107513381D01*
X163332885Y-107513381D01*
X163238542Y-107465762D01*
X164134799Y-107513381D02*
X164134799Y-106846714D01*
X164134799Y-107037190D02*
X164181971Y-106941952D01*
X164229142Y-106894333D01*
X164323485Y-106846714D01*
X164417828Y-106846714D01*
X165125400Y-107465762D02*
X165031057Y-107513381D01*
X164842371Y-107513381D01*
X164748028Y-107465762D01*
X164700857Y-107370524D01*
X164700857Y-106989571D01*
X164748028Y-106894333D01*
X164842371Y-106846714D01*
X165031057Y-106846714D01*
X165125400Y-106894333D01*
X165172571Y-106989571D01*
X165172571Y-107084810D01*
X164700857Y-107180048D01*
X166021657Y-107513381D02*
X166021657Y-106989571D01*
X165974486Y-106894333D01*
X165880143Y-106846714D01*
X165691457Y-106846714D01*
X165597114Y-106894333D01*
X166021657Y-107465762D02*
X165927314Y-107513381D01*
X165691457Y-107513381D01*
X165597114Y-107465762D01*
X165549943Y-107370524D01*
X165549943Y-107275286D01*
X165597114Y-107180048D01*
X165691457Y-107132429D01*
X165927314Y-107132429D01*
X166021657Y-107084810D01*
X166493371Y-107513381D02*
X166493371Y-106846714D01*
X166493371Y-106941952D02*
X166540543Y-106894333D01*
X166634885Y-106846714D01*
X166776400Y-106846714D01*
X166870743Y-106894333D01*
X166917914Y-106989571D01*
X166917914Y-107513381D01*
X166917914Y-106989571D02*
X166965085Y-106894333D01*
X167059428Y-106846714D01*
X167200943Y-106846714D01*
X167295285Y-106894333D01*
X167342457Y-106989571D01*
X167342457Y-107513381D01*
X167814171Y-106846714D02*
X167814171Y-107846714D01*
X167814171Y-106894333D02*
X167908514Y-106846714D01*
X168097200Y-106846714D01*
X168191543Y-106894333D01*
X168238714Y-106941952D01*
X168285885Y-107037190D01*
X168285885Y-107322905D01*
X168238714Y-107418143D01*
X168191543Y-107465762D01*
X168097200Y-107513381D01*
X167908514Y-107513381D01*
X167814171Y-107465762D01*
X169370828Y-106846714D02*
X169606685Y-107513381D01*
X169842543Y-106846714D01*
X170172743Y-106608619D02*
X170219914Y-106561000D01*
X170314257Y-106513381D01*
X170550114Y-106513381D01*
X170644457Y-106561000D01*
X170691628Y-106608619D01*
X170738800Y-106703857D01*
X170738800Y-106799095D01*
X170691628Y-106941952D01*
X170125571Y-107513381D01*
X170738800Y-107513381D01*
X171163343Y-107418143D02*
X171210515Y-107465762D01*
X171163343Y-107513381D01*
X171116172Y-107465762D01*
X171163343Y-107418143D01*
X171163343Y-107513381D01*
X171823743Y-106513381D02*
X171918086Y-106513381D01*
X172012429Y-106561000D01*
X172059600Y-106608619D01*
X172106771Y-106703857D01*
X172153943Y-106894333D01*
X172153943Y-107132429D01*
X172106771Y-107322905D01*
X172059600Y-107418143D01*
X172012429Y-107465762D01*
X171918086Y-107513381D01*
X171823743Y-107513381D01*
X171729400Y-107465762D01*
X171682229Y-107418143D01*
X171635057Y-107322905D01*
X171587886Y-107132429D01*
X171587886Y-106894333D01*
X171635057Y-106703857D01*
X171682229Y-106608619D01*
X171729400Y-106561000D01*
X171823743Y-106513381D01*
X172578486Y-107132429D02*
X173333229Y-107132429D01*
X173663429Y-106846714D02*
X174040800Y-106846714D01*
X173804943Y-106513381D02*
X173804943Y-107370524D01*
X173852115Y-107465762D01*
X173946457Y-107513381D01*
X174040800Y-107513381D01*
D14*
X146685000Y-114681000D02*
X146685000Y-107569000D01*
X146685000Y-107569000D02*
X148717000Y-107569000D01*
X148717000Y-107569000D02*
X148717000Y-114681000D01*
X148717000Y-114681000D02*
X146685000Y-114681000D01*
X147193000Y-114681000D02*
X146685000Y-114173000D01*
X148717000Y-121285000D02*
X148717000Y-128397000D01*
X148717000Y-128397000D02*
X146685000Y-128397000D01*
X146685000Y-128397000D02*
X146685000Y-121285000D01*
X146685000Y-121285000D02*
X148717000Y-121285000D01*
X148209000Y-121285000D02*
X148717000Y-121793000D01*
X163195000Y-122047000D02*
X170307000Y-122047000D01*
X170307000Y-122047000D02*
X170307000Y-124079000D01*
X170307000Y-124079000D02*
X163195000Y-124079000D01*
X163195000Y-124079000D02*
X163195000Y-122047000D01*
X163195000Y-122555000D02*
X163703000Y-122047000D01*
X149479000Y-128397000D02*
X149479000Y-121285000D01*
X149479000Y-121285000D02*
X151511000Y-121285000D01*
X151511000Y-121285000D02*
X151511000Y-128397000D01*
X151511000Y-128397000D02*
X149479000Y-128397000D01*
X149987000Y-128397000D02*
X149479000Y-127889000D01*
X163195000Y-118999000D02*
X170307000Y-118999000D01*
X170307000Y-118999000D02*
X170307000Y-121031000D01*
X170307000Y-121031000D02*
X163195000Y-121031000D01*
X163195000Y-121031000D02*
X163195000Y-118999000D01*
X163195000Y-119507000D02*
X163703000Y-118999000D01*
D15*
X175898173Y-126873000D02*
G75*
G03X175898173Y-126873000I-2543173J0D01*
G01*
X186312173Y-117729000D02*
G75*
G03X186312173Y-117729000I-2543173J0D01*
G01*
X181232173Y-126873000D02*
G75*
G03X181232173Y-126873000I-2543173J0D01*
G01*
X177930173Y-110617000D02*
G75*
G03X177930173Y-110617000I-2543173J0D01*
G01*
D14*
X163703000Y-108331000D02*
X170815000Y-108331000D01*
X170815000Y-108331000D02*
X170815000Y-110363000D01*
X170815000Y-110363000D02*
X163703000Y-110363000D01*
X163703000Y-110363000D02*
X163703000Y-108331000D01*
X163703000Y-108839000D02*
X164211000Y-108331000D01*
X153543000Y-120015000D02*
X154051000Y-120015000D01*
X161163000Y-120015000D02*
X160655000Y-120015000D01*
X160655000Y-120015000D02*
X160655000Y-118999000D01*
X160655000Y-118999000D02*
X154051000Y-118999000D01*
X154051000Y-118999000D02*
X154051000Y-121031000D01*
X154051000Y-121031000D02*
X160655000Y-121031000D01*
X160655000Y-121031000D02*
X160655000Y-120015000D01*
X154051000Y-119507000D02*
X154559000Y-118999000D01*
X171577000Y-111887000D02*
X171069000Y-111887000D01*
X163957000Y-111887000D02*
X164465000Y-111887000D01*
X164465000Y-111887000D02*
X164465000Y-112903000D01*
X164465000Y-112903000D02*
X171069000Y-112903000D01*
X171069000Y-112903000D02*
X171069000Y-110871000D01*
X171069000Y-110871000D02*
X164465000Y-110871000D01*
X164465000Y-110871000D02*
X164465000Y-111887000D01*
X171069000Y-112395000D02*
X170561000Y-112903000D01*
X163957000Y-116967000D02*
X164465000Y-116967000D01*
X171577000Y-116967000D02*
X171069000Y-116967000D01*
X171069000Y-116967000D02*
X171069000Y-115951000D01*
X171069000Y-115951000D02*
X164465000Y-115951000D01*
X164465000Y-115951000D02*
X164465000Y-117983000D01*
X164465000Y-117983000D02*
X171069000Y-117983000D01*
X171069000Y-117983000D02*
X171069000Y-116967000D01*
X164465000Y-116459000D02*
X164973000Y-115951000D01*
X161163000Y-123063000D02*
X160655000Y-123063000D01*
X153543000Y-123063000D02*
X154051000Y-123063000D01*
X154051000Y-123063000D02*
X154051000Y-124079000D01*
X154051000Y-124079000D02*
X160655000Y-124079000D01*
X160655000Y-124079000D02*
X160655000Y-122047000D01*
X160655000Y-122047000D02*
X154051000Y-122047000D01*
X154051000Y-122047000D02*
X154051000Y-123063000D01*
X160655000Y-123571000D02*
X160147000Y-124079000D01*
X179197000Y-118491000D02*
X179197000Y-117983000D01*
X179197000Y-110871000D02*
X179197000Y-111379000D01*
X179197000Y-111379000D02*
X178181000Y-111379000D01*
X178181000Y-111379000D02*
X178181000Y-117983000D01*
X178181000Y-117983000D02*
X180213000Y-117983000D01*
X180213000Y-117983000D02*
X180213000Y-111379000D01*
X180213000Y-111379000D02*
X179197000Y-111379000D01*
X178689000Y-117983000D02*
X178181000Y-117475000D01*
X174117000Y-115189000D02*
X174117000Y-115697000D01*
X174117000Y-122809000D02*
X174117000Y-122301000D01*
X174117000Y-122301000D02*
X175133000Y-122301000D01*
X175133000Y-122301000D02*
X175133000Y-115697000D01*
X175133000Y-115697000D02*
X173101000Y-115697000D01*
X173101000Y-115697000D02*
X173101000Y-122301000D01*
X173101000Y-122301000D02*
X174117000Y-122301000D01*
X174625000Y-115697000D02*
X175133000Y-116205000D01*
X176657000Y-122809000D02*
X176657000Y-122301000D01*
X176657000Y-115189000D02*
X176657000Y-115697000D01*
X176657000Y-115697000D02*
X175641000Y-115697000D01*
X175641000Y-115697000D02*
X175641000Y-122301000D01*
X175641000Y-122301000D02*
X177673000Y-122301000D01*
X177673000Y-122301000D02*
X177673000Y-115697000D01*
X177673000Y-115697000D02*
X176657000Y-115697000D01*
X176149000Y-122301000D02*
X175641000Y-121793000D01*
X163957000Y-114427000D02*
X164465000Y-114427000D01*
X171577000Y-114427000D02*
X171069000Y-114427000D01*
X171069000Y-114427000D02*
X171069000Y-113411000D01*
X171069000Y-113411000D02*
X164465000Y-113411000D01*
X164465000Y-113411000D02*
X164465000Y-115443000D01*
X164465000Y-115443000D02*
X171069000Y-115443000D01*
X171069000Y-115443000D02*
X171069000Y-114427000D01*
X164465000Y-113919000D02*
X164973000Y-113411000D01*
X150495000Y-109347000D02*
X150495000Y-109855000D01*
X150495000Y-116967000D02*
X150495000Y-116459000D01*
X150495000Y-116459000D02*
X151511000Y-116459000D01*
X151511000Y-116459000D02*
X151511000Y-109855000D01*
X151511000Y-109855000D02*
X149479000Y-109855000D01*
X149479000Y-109855000D02*
X149479000Y-116459000D01*
X149479000Y-116459000D02*
X150495000Y-116459000D01*
X151003000Y-109855000D02*
X151511000Y-110363000D01*
X170053000Y-125857000D02*
X170053000Y-128397000D01*
X170053000Y-128397000D02*
X162433000Y-128397000D01*
X162433000Y-128397000D02*
X162433000Y-125857000D01*
X162433000Y-125857000D02*
X170053000Y-125857000D01*
X167513000Y-128397000D02*
X167513000Y-125857000D01*
X160909000Y-125857000D02*
X160909000Y-128397000D01*
X160909000Y-128397000D02*
X153289000Y-128397000D01*
X153289000Y-128397000D02*
X153289000Y-125857000D01*
X153289000Y-125857000D02*
X160909000Y-125857000D01*
X158369000Y-128397000D02*
X158369000Y-125857000D01*
X147955000Y-120523000D02*
X145415000Y-120523000D01*
X145415000Y-120523000D02*
X145415000Y-115443000D01*
X145415000Y-115443000D02*
X147955000Y-115443000D01*
X147955000Y-115443000D02*
X147955000Y-120523000D01*
X185039000Y-125857000D02*
X182499000Y-125857000D01*
X182499000Y-125857000D02*
X182499000Y-120777000D01*
X182499000Y-120777000D02*
X185039000Y-120777000D01*
X185039000Y-120777000D02*
X185039000Y-125857000D01*
X185039000Y-114681000D02*
X182499000Y-114681000D01*
X182499000Y-114681000D02*
X182499000Y-109601000D01*
X182499000Y-109601000D02*
X185039000Y-109601000D01*
X185039000Y-109601000D02*
X185039000Y-114681000D01*
D16*
X158623000Y-108077000D02*
X158623000Y-109347000D01*
X158623000Y-109347000D02*
X156083000Y-109347000D01*
X156083000Y-109347000D02*
X156083000Y-108077000D01*
X159893000Y-108077000D02*
X159893000Y-118237000D01*
X159893000Y-118237000D02*
X154813000Y-118237000D01*
X154813000Y-118237000D02*
X154813000Y-108077000D01*
X154813000Y-108077000D02*
X159893000Y-108077000D01*
D17*
X148058143Y-111291666D02*
X148105762Y-111339285D01*
X148153381Y-111482142D01*
X148153381Y-111577380D01*
X148105762Y-111720238D01*
X148010524Y-111815476D01*
X147915286Y-111863095D01*
X147724810Y-111910714D01*
X147581952Y-111910714D01*
X147391476Y-111863095D01*
X147296238Y-111815476D01*
X147201000Y-111720238D01*
X147153381Y-111577380D01*
X147153381Y-111482142D01*
X147201000Y-111339285D01*
X147248619Y-111291666D01*
X148153381Y-110339285D02*
X148153381Y-110910714D01*
X148153381Y-110625000D02*
X147153381Y-110625000D01*
X147296238Y-110720238D01*
X147391476Y-110815476D01*
X147439095Y-110910714D01*
X148058143Y-125007666D02*
X148105762Y-125055285D01*
X148153381Y-125198142D01*
X148153381Y-125293380D01*
X148105762Y-125436238D01*
X148010524Y-125531476D01*
X147915286Y-125579095D01*
X147724810Y-125626714D01*
X147581952Y-125626714D01*
X147391476Y-125579095D01*
X147296238Y-125531476D01*
X147201000Y-125436238D01*
X147153381Y-125293380D01*
X147153381Y-125198142D01*
X147201000Y-125055285D01*
X147248619Y-125007666D01*
X147153381Y-124674333D02*
X147153381Y-124055285D01*
X147534333Y-124388619D01*
X147534333Y-124245761D01*
X147581952Y-124150523D01*
X147629571Y-124102904D01*
X147724810Y-124055285D01*
X147962905Y-124055285D01*
X148058143Y-124102904D01*
X148105762Y-124150523D01*
X148153381Y-124245761D01*
X148153381Y-124531476D01*
X148105762Y-124626714D01*
X148058143Y-124674333D01*
X166584334Y-123420143D02*
X166536715Y-123467762D01*
X166393858Y-123515381D01*
X166298620Y-123515381D01*
X166155762Y-123467762D01*
X166060524Y-123372524D01*
X166012905Y-123277286D01*
X165965286Y-123086810D01*
X165965286Y-122943952D01*
X166012905Y-122753476D01*
X166060524Y-122658238D01*
X166155762Y-122563000D01*
X166298620Y-122515381D01*
X166393858Y-122515381D01*
X166536715Y-122563000D01*
X166584334Y-122610619D01*
X167441477Y-122848714D02*
X167441477Y-123515381D01*
X167203381Y-122467762D02*
X166965286Y-123182048D01*
X167584334Y-123182048D01*
X150852143Y-125007666D02*
X150899762Y-125055285D01*
X150947381Y-125198142D01*
X150947381Y-125293380D01*
X150899762Y-125436238D01*
X150804524Y-125531476D01*
X150709286Y-125579095D01*
X150518810Y-125626714D01*
X150375952Y-125626714D01*
X150185476Y-125579095D01*
X150090238Y-125531476D01*
X149995000Y-125436238D01*
X149947381Y-125293380D01*
X149947381Y-125198142D01*
X149995000Y-125055285D01*
X150042619Y-125007666D01*
X149947381Y-124102904D02*
X149947381Y-124579095D01*
X150423571Y-124626714D01*
X150375952Y-124579095D01*
X150328333Y-124483857D01*
X150328333Y-124245761D01*
X150375952Y-124150523D01*
X150423571Y-124102904D01*
X150518810Y-124055285D01*
X150756905Y-124055285D01*
X150852143Y-124102904D01*
X150899762Y-124150523D01*
X150947381Y-124245761D01*
X150947381Y-124483857D01*
X150899762Y-124579095D01*
X150852143Y-124626714D01*
X166584334Y-120372143D02*
X166536715Y-120419762D01*
X166393858Y-120467381D01*
X166298620Y-120467381D01*
X166155762Y-120419762D01*
X166060524Y-120324524D01*
X166012905Y-120229286D01*
X165965286Y-120038810D01*
X165965286Y-119895952D01*
X166012905Y-119705476D01*
X166060524Y-119610238D01*
X166155762Y-119515000D01*
X166298620Y-119467381D01*
X166393858Y-119467381D01*
X166536715Y-119515000D01*
X166584334Y-119562619D01*
X167441477Y-119467381D02*
X167251000Y-119467381D01*
X167155762Y-119515000D01*
X167108143Y-119562619D01*
X167012905Y-119705476D01*
X166965286Y-119895952D01*
X166965286Y-120276905D01*
X167012905Y-120372143D01*
X167060524Y-120419762D01*
X167155762Y-120467381D01*
X167346239Y-120467381D01*
X167441477Y-120419762D01*
X167489096Y-120372143D01*
X167536715Y-120276905D01*
X167536715Y-120038810D01*
X167489096Y-119943571D01*
X167441477Y-119895952D01*
X167346239Y-119848333D01*
X167155762Y-119848333D01*
X167060524Y-119895952D01*
X167012905Y-119943571D01*
X166965286Y-120038810D01*
D15*
X173228000Y-128923143D02*
X173191714Y-128959429D01*
X173082857Y-128995714D01*
X173010286Y-128995714D01*
X172901429Y-128959429D01*
X172828857Y-128886857D01*
X172792572Y-128814286D01*
X172756286Y-128669143D01*
X172756286Y-128560286D01*
X172792572Y-128415143D01*
X172828857Y-128342571D01*
X172901429Y-128270000D01*
X173010286Y-128233714D01*
X173082857Y-128233714D01*
X173191714Y-128270000D01*
X173228000Y-128306286D01*
X173663429Y-128560286D02*
X173590857Y-128524000D01*
X173554572Y-128487714D01*
X173518286Y-128415143D01*
X173518286Y-128378857D01*
X173554572Y-128306286D01*
X173590857Y-128270000D01*
X173663429Y-128233714D01*
X173808572Y-128233714D01*
X173881143Y-128270000D01*
X173917429Y-128306286D01*
X173953714Y-128378857D01*
X173953714Y-128415143D01*
X173917429Y-128487714D01*
X173881143Y-128524000D01*
X173808572Y-128560286D01*
X173663429Y-128560286D01*
X173590857Y-128596571D01*
X173554572Y-128632857D01*
X173518286Y-128705429D01*
X173518286Y-128850571D01*
X173554572Y-128923143D01*
X173590857Y-128959429D01*
X173663429Y-128995714D01*
X173808572Y-128995714D01*
X173881143Y-128959429D01*
X173917429Y-128923143D01*
X173953714Y-128850571D01*
X173953714Y-128705429D01*
X173917429Y-128632857D01*
X173881143Y-128596571D01*
X173808572Y-128560286D01*
D18*
X174334715Y-128832429D02*
X174915286Y-128832429D01*
X174625000Y-129122714D02*
X174625000Y-128542143D01*
D15*
X183642000Y-116223143D02*
X183605714Y-116259429D01*
X183496857Y-116295714D01*
X183424286Y-116295714D01*
X183315429Y-116259429D01*
X183242857Y-116186857D01*
X183206572Y-116114286D01*
X183170286Y-115969143D01*
X183170286Y-115860286D01*
X183206572Y-115715143D01*
X183242857Y-115642571D01*
X183315429Y-115570000D01*
X183424286Y-115533714D01*
X183496857Y-115533714D01*
X183605714Y-115570000D01*
X183642000Y-115606286D01*
X184004857Y-116295714D02*
X184150000Y-116295714D01*
X184222572Y-116259429D01*
X184258857Y-116223143D01*
X184331429Y-116114286D01*
X184367714Y-115969143D01*
X184367714Y-115678857D01*
X184331429Y-115606286D01*
X184295143Y-115570000D01*
X184222572Y-115533714D01*
X184077429Y-115533714D01*
X184004857Y-115570000D01*
X183968572Y-115606286D01*
X183932286Y-115678857D01*
X183932286Y-115860286D01*
X183968572Y-115932857D01*
X184004857Y-115969143D01*
X184077429Y-116005429D01*
X184222572Y-116005429D01*
X184295143Y-115969143D01*
X184331429Y-115932857D01*
X184367714Y-115860286D01*
D18*
X182208715Y-115878429D02*
X182789286Y-115878429D01*
X182499000Y-116168714D02*
X182499000Y-115588143D01*
D15*
X178199143Y-128923143D02*
X178162857Y-128959429D01*
X178054000Y-128995714D01*
X177981429Y-128995714D01*
X177872572Y-128959429D01*
X177800000Y-128886857D01*
X177763715Y-128814286D01*
X177727429Y-128669143D01*
X177727429Y-128560286D01*
X177763715Y-128415143D01*
X177800000Y-128342571D01*
X177872572Y-128270000D01*
X177981429Y-128233714D01*
X178054000Y-128233714D01*
X178162857Y-128270000D01*
X178199143Y-128306286D01*
X178924857Y-128995714D02*
X178489429Y-128995714D01*
X178707143Y-128995714D02*
X178707143Y-128233714D01*
X178634572Y-128342571D01*
X178562000Y-128415143D01*
X178489429Y-128451429D01*
X179396571Y-128233714D02*
X179469143Y-128233714D01*
X179541714Y-128270000D01*
X179578000Y-128306286D01*
X179614286Y-128378857D01*
X179650571Y-128524000D01*
X179650571Y-128705429D01*
X179614286Y-128850571D01*
X179578000Y-128923143D01*
X179541714Y-128959429D01*
X179469143Y-128995714D01*
X179396571Y-128995714D01*
X179324000Y-128959429D01*
X179287714Y-128923143D01*
X179251429Y-128850571D01*
X179215143Y-128705429D01*
X179215143Y-128524000D01*
X179251429Y-128378857D01*
X179287714Y-128306286D01*
X179324000Y-128270000D01*
X179396571Y-128233714D01*
D18*
X179668715Y-128832429D02*
X180249286Y-128832429D01*
X179959000Y-129122714D02*
X179959000Y-128542143D01*
D15*
X173881143Y-111106857D02*
X173917429Y-111143143D01*
X173953714Y-111252000D01*
X173953714Y-111324571D01*
X173917429Y-111433428D01*
X173844857Y-111506000D01*
X173772286Y-111542285D01*
X173627143Y-111578571D01*
X173518286Y-111578571D01*
X173373143Y-111542285D01*
X173300571Y-111506000D01*
X173228000Y-111433428D01*
X173191714Y-111324571D01*
X173191714Y-111252000D01*
X173228000Y-111143143D01*
X173264286Y-111106857D01*
X173953714Y-110381143D02*
X173953714Y-110816571D01*
X173953714Y-110598857D02*
X173191714Y-110598857D01*
X173300571Y-110671428D01*
X173373143Y-110744000D01*
X173409429Y-110816571D01*
X173264286Y-110090857D02*
X173228000Y-110054571D01*
X173191714Y-109982000D01*
X173191714Y-109800571D01*
X173228000Y-109728000D01*
X173264286Y-109691714D01*
X173336857Y-109655429D01*
X173409429Y-109655429D01*
X173518286Y-109691714D01*
X173953714Y-110127143D01*
X173953714Y-109655429D01*
D18*
X173536429Y-112177285D02*
X173536429Y-111596714D01*
X173826714Y-111887000D02*
X173246143Y-111887000D01*
D17*
X166616143Y-109704143D02*
X166568524Y-109751762D01*
X166425667Y-109799381D01*
X166330429Y-109799381D01*
X166187571Y-109751762D01*
X166092333Y-109656524D01*
X166044714Y-109561286D01*
X165997095Y-109370810D01*
X165997095Y-109227952D01*
X166044714Y-109037476D01*
X166092333Y-108942238D01*
X166187571Y-108847000D01*
X166330429Y-108799381D01*
X166425667Y-108799381D01*
X166568524Y-108847000D01*
X166616143Y-108894619D01*
X167568524Y-109799381D02*
X166997095Y-109799381D01*
X167282809Y-109799381D02*
X167282809Y-108799381D01*
X167187571Y-108942238D01*
X167092333Y-109037476D01*
X166997095Y-109085095D01*
X167901857Y-108799381D02*
X168520905Y-108799381D01*
X168187571Y-109180333D01*
X168330429Y-109180333D01*
X168425667Y-109227952D01*
X168473286Y-109275571D01*
X168520905Y-109370810D01*
X168520905Y-109608905D01*
X168473286Y-109704143D01*
X168425667Y-109751762D01*
X168330429Y-109799381D01*
X168044714Y-109799381D01*
X167949476Y-109751762D01*
X167901857Y-109704143D01*
X157186334Y-120467381D02*
X156853000Y-119991190D01*
X156614905Y-120467381D02*
X156614905Y-119467381D01*
X156995858Y-119467381D01*
X157091096Y-119515000D01*
X157138715Y-119562619D01*
X157186334Y-119657857D01*
X157186334Y-119800714D01*
X157138715Y-119895952D01*
X157091096Y-119943571D01*
X156995858Y-119991190D01*
X156614905Y-119991190D01*
X158138715Y-120467381D02*
X157567286Y-120467381D01*
X157853000Y-120467381D02*
X157853000Y-119467381D01*
X157757762Y-119610238D01*
X157662524Y-119705476D01*
X157567286Y-119753095D01*
X167600334Y-112339381D02*
X167267000Y-111863190D01*
X167028905Y-112339381D02*
X167028905Y-111339381D01*
X167409858Y-111339381D01*
X167505096Y-111387000D01*
X167552715Y-111434619D01*
X167600334Y-111529857D01*
X167600334Y-111672714D01*
X167552715Y-111767952D01*
X167505096Y-111815571D01*
X167409858Y-111863190D01*
X167028905Y-111863190D01*
X168505096Y-111339381D02*
X168028905Y-111339381D01*
X167981286Y-111815571D01*
X168028905Y-111767952D01*
X168124143Y-111720333D01*
X168362239Y-111720333D01*
X168457477Y-111767952D01*
X168505096Y-111815571D01*
X168552715Y-111910810D01*
X168552715Y-112148905D01*
X168505096Y-112244143D01*
X168457477Y-112291762D01*
X168362239Y-112339381D01*
X168124143Y-112339381D01*
X168028905Y-112291762D01*
X167981286Y-112244143D01*
X167600334Y-117419381D02*
X167267000Y-116943190D01*
X167028905Y-117419381D02*
X167028905Y-116419381D01*
X167409858Y-116419381D01*
X167505096Y-116467000D01*
X167552715Y-116514619D01*
X167600334Y-116609857D01*
X167600334Y-116752714D01*
X167552715Y-116847952D01*
X167505096Y-116895571D01*
X167409858Y-116943190D01*
X167028905Y-116943190D01*
X168457477Y-116419381D02*
X168267000Y-116419381D01*
X168171762Y-116467000D01*
X168124143Y-116514619D01*
X168028905Y-116657476D01*
X167981286Y-116847952D01*
X167981286Y-117228905D01*
X168028905Y-117324143D01*
X168076524Y-117371762D01*
X168171762Y-117419381D01*
X168362239Y-117419381D01*
X168457477Y-117371762D01*
X168505096Y-117324143D01*
X168552715Y-117228905D01*
X168552715Y-116990810D01*
X168505096Y-116895571D01*
X168457477Y-116847952D01*
X168362239Y-116800333D01*
X168171762Y-116800333D01*
X168076524Y-116847952D01*
X168028905Y-116895571D01*
X167981286Y-116990810D01*
X157186334Y-123515381D02*
X156853000Y-123039190D01*
X156614905Y-123515381D02*
X156614905Y-122515381D01*
X156995858Y-122515381D01*
X157091096Y-122563000D01*
X157138715Y-122610619D01*
X157186334Y-122705857D01*
X157186334Y-122848714D01*
X157138715Y-122943952D01*
X157091096Y-122991571D01*
X156995858Y-123039190D01*
X156614905Y-123039190D01*
X157519667Y-122515381D02*
X158186334Y-122515381D01*
X157757762Y-123515381D01*
X179649381Y-114847666D02*
X179173190Y-115181000D01*
X179649381Y-115419095D02*
X178649381Y-115419095D01*
X178649381Y-115038142D01*
X178697000Y-114942904D01*
X178744619Y-114895285D01*
X178839857Y-114847666D01*
X178982714Y-114847666D01*
X179077952Y-114895285D01*
X179125571Y-114942904D01*
X179173190Y-115038142D01*
X179173190Y-115419095D01*
X179077952Y-114276238D02*
X179030333Y-114371476D01*
X178982714Y-114419095D01*
X178887476Y-114466714D01*
X178839857Y-114466714D01*
X178744619Y-114419095D01*
X178697000Y-114371476D01*
X178649381Y-114276238D01*
X178649381Y-114085761D01*
X178697000Y-113990523D01*
X178744619Y-113942904D01*
X178839857Y-113895285D01*
X178887476Y-113895285D01*
X178982714Y-113942904D01*
X179030333Y-113990523D01*
X179077952Y-114085761D01*
X179077952Y-114276238D01*
X179125571Y-114371476D01*
X179173190Y-114419095D01*
X179268429Y-114466714D01*
X179458905Y-114466714D01*
X179554143Y-114419095D01*
X179601762Y-114371476D01*
X179649381Y-114276238D01*
X179649381Y-114085761D01*
X179601762Y-113990523D01*
X179554143Y-113942904D01*
X179458905Y-113895285D01*
X179268429Y-113895285D01*
X179173190Y-113942904D01*
X179125571Y-113990523D01*
X179077952Y-114085761D01*
X174569381Y-119165666D02*
X174093190Y-119499000D01*
X174569381Y-119737095D02*
X173569381Y-119737095D01*
X173569381Y-119356142D01*
X173617000Y-119260904D01*
X173664619Y-119213285D01*
X173759857Y-119165666D01*
X173902714Y-119165666D01*
X173997952Y-119213285D01*
X174045571Y-119260904D01*
X174093190Y-119356142D01*
X174093190Y-119737095D01*
X174569381Y-118689476D02*
X174569381Y-118499000D01*
X174521762Y-118403761D01*
X174474143Y-118356142D01*
X174331286Y-118260904D01*
X174140810Y-118213285D01*
X173759857Y-118213285D01*
X173664619Y-118260904D01*
X173617000Y-118308523D01*
X173569381Y-118403761D01*
X173569381Y-118594238D01*
X173617000Y-118689476D01*
X173664619Y-118737095D01*
X173759857Y-118784714D01*
X173997952Y-118784714D01*
X174093190Y-118737095D01*
X174140810Y-118689476D01*
X174188429Y-118594238D01*
X174188429Y-118403761D01*
X174140810Y-118308523D01*
X174093190Y-118260904D01*
X173997952Y-118213285D01*
X177109381Y-119641857D02*
X176633190Y-119975191D01*
X177109381Y-120213286D02*
X176109381Y-120213286D01*
X176109381Y-119832333D01*
X176157000Y-119737095D01*
X176204619Y-119689476D01*
X176299857Y-119641857D01*
X176442714Y-119641857D01*
X176537952Y-119689476D01*
X176585571Y-119737095D01*
X176633190Y-119832333D01*
X176633190Y-120213286D01*
X177109381Y-118689476D02*
X177109381Y-119260905D01*
X177109381Y-118975191D02*
X176109381Y-118975191D01*
X176252238Y-119070429D01*
X176347476Y-119165667D01*
X176395095Y-119260905D01*
X176109381Y-118070429D02*
X176109381Y-117975190D01*
X176157000Y-117879952D01*
X176204619Y-117832333D01*
X176299857Y-117784714D01*
X176490333Y-117737095D01*
X176728429Y-117737095D01*
X176918905Y-117784714D01*
X177014143Y-117832333D01*
X177061762Y-117879952D01*
X177109381Y-117975190D01*
X177109381Y-118070429D01*
X177061762Y-118165667D01*
X177014143Y-118213286D01*
X176918905Y-118260905D01*
X176728429Y-118308524D01*
X176490333Y-118308524D01*
X176299857Y-118260905D01*
X176204619Y-118213286D01*
X176157000Y-118165667D01*
X176109381Y-118070429D01*
X167124143Y-114879381D02*
X166790809Y-114403190D01*
X166552714Y-114879381D02*
X166552714Y-113879381D01*
X166933667Y-113879381D01*
X167028905Y-113927000D01*
X167076524Y-113974619D01*
X167124143Y-114069857D01*
X167124143Y-114212714D01*
X167076524Y-114307952D01*
X167028905Y-114355571D01*
X166933667Y-114403190D01*
X166552714Y-114403190D01*
X168076524Y-114879381D02*
X167505095Y-114879381D01*
X167790809Y-114879381D02*
X167790809Y-113879381D01*
X167695571Y-114022238D01*
X167600333Y-114117476D01*
X167505095Y-114165095D01*
X169028905Y-114879381D02*
X168457476Y-114879381D01*
X168743190Y-114879381D02*
X168743190Y-113879381D01*
X168647952Y-114022238D01*
X168552714Y-114117476D01*
X168457476Y-114165095D01*
X150947381Y-113323666D02*
X150471190Y-113657000D01*
X150947381Y-113895095D02*
X149947381Y-113895095D01*
X149947381Y-113514142D01*
X149995000Y-113418904D01*
X150042619Y-113371285D01*
X150137857Y-113323666D01*
X150280714Y-113323666D01*
X150375952Y-113371285D01*
X150423571Y-113418904D01*
X150471190Y-113514142D01*
X150471190Y-113895095D01*
X150280714Y-112466523D02*
X150947381Y-112466523D01*
X149899762Y-112704619D02*
X150614048Y-112942714D01*
X150614048Y-112323666D01*
D19*
X156736143Y-112183333D02*
X156736143Y-113622667D01*
X156790571Y-113792000D01*
X156845000Y-113876667D01*
X156953857Y-113961333D01*
X157171571Y-113961333D01*
X157280429Y-113876667D01*
X157334857Y-113792000D01*
X157389286Y-113622667D01*
X157389286Y-112183333D01*
X158532286Y-113961333D02*
X157879143Y-113961333D01*
X158205715Y-113961333D02*
X158205715Y-112183333D01*
X158096858Y-112437333D01*
X157988000Y-112606667D01*
X157879143Y-112691333D01*
D14*
%LPC*%
D20*
X147701000Y-113665000D03*
X147701000Y-108585000D03*
X147701000Y-122301000D03*
X147701000Y-127381000D03*
X164211000Y-123063000D03*
X169291000Y-123063000D03*
X150495000Y-127381000D03*
X150495000Y-122301000D03*
X164211000Y-120015000D03*
X169291000Y-120015000D03*
D21*
X174625000Y-126873000D03*
D20*
X172085000Y-126873000D03*
D21*
X182499000Y-117729000D03*
D20*
X185039000Y-117729000D03*
D21*
X179959000Y-126873000D03*
D20*
X177419000Y-126873000D03*
D21*
X175387000Y-111887000D03*
D20*
X175387000Y-109347000D03*
X164719000Y-109347000D03*
X169799000Y-109347000D03*
X153543000Y-120015000D03*
X161163000Y-120015000D03*
X171577000Y-111887000D03*
X163957000Y-111887000D03*
X163957000Y-116967000D03*
X171577000Y-116967000D03*
X161163000Y-123063000D03*
X153543000Y-123063000D03*
X179197000Y-118491000D03*
X179197000Y-110871000D03*
X174117000Y-115189000D03*
X174117000Y-122809000D03*
X176657000Y-122809000D03*
X176657000Y-115189000D03*
X163957000Y-114427000D03*
X171577000Y-114427000D03*
X150495000Y-109347000D03*
X150495000Y-116967000D03*
D22*
X168783000Y-127127000D03*
D23*
X166243000Y-127127000D03*
X163703000Y-127127000D03*
D22*
X159639000Y-127127000D03*
D23*
X157099000Y-127127000D03*
X154559000Y-127127000D03*
D22*
X146685000Y-119253000D03*
D23*
X146685000Y-116713000D03*
D22*
X183769000Y-124587000D03*
D23*
X183769000Y-122047000D03*
D22*
X183769000Y-113411000D03*
D23*
X183769000Y-110871000D03*
D24*
X153543000Y-109347000D03*
D25*
X153543000Y-111887000D03*
X153543000Y-114427000D03*
X153543000Y-116967000D03*
X161163000Y-116967000D03*
X161163000Y-114427000D03*
X161163000Y-111887000D03*
X161163000Y-109347000D03*
M02*
