%FSLAX46Y46*%
G04 Gerber Fmt 4.6, Leading zero omitted, Abs format (unit mm)*
G04 Created by KiCad (PCBNEW (2014-08-01 BZR 5042)-product) date 02/08/2014 20:04:44*
%MOMM*%
G01*
G04 APERTURE LIST*
%ADD10C,0.100000*%
%ADD11R,1.799540X0.999440*%
%ADD12R,1.797000X1.289000*%
%ADD13R,1.289000X1.797000*%
%ADD14R,1.924000X1.924000*%
%ADD15C,1.924000*%
%ADD16R,2.000200X3.399740*%
%ADD17R,3.399740X2.000200*%
G04 APERTURE END LIST*
D10*
D11*
X119253000Y-92329000D03*
X113919000Y-92329000D03*
X119253000Y-93599000D03*
X119253000Y-94869000D03*
X119253000Y-96139000D03*
X113919000Y-93599000D03*
X113919000Y-94869000D03*
X113919000Y-96139000D03*
D12*
X110998000Y-91249500D03*
X110998000Y-93154500D03*
D13*
X119824500Y-100838000D03*
X117919500Y-100838000D03*
X117919500Y-98552000D03*
X119824500Y-98552000D03*
X117919500Y-103378000D03*
X119824500Y-103378000D03*
X113601500Y-98552000D03*
X115506500Y-98552000D03*
X113601500Y-89916000D03*
X115506500Y-89916000D03*
X119824500Y-87376000D03*
X117919500Y-87376000D03*
X109029500Y-103378000D03*
X110934500Y-103378000D03*
X119824500Y-89916000D03*
X117919500Y-89916000D03*
X115506500Y-103378000D03*
X113601500Y-103378000D03*
D12*
X122428000Y-95059500D03*
X122428000Y-96964500D03*
D13*
X115506500Y-87376000D03*
X113601500Y-87376000D03*
X109029500Y-95504000D03*
X110934500Y-95504000D03*
X113601500Y-100838000D03*
X115506500Y-100838000D03*
D12*
X110998000Y-89090500D03*
X110998000Y-87185500D03*
D13*
X109029500Y-98298000D03*
X110934500Y-98298000D03*
X109029500Y-100838000D03*
X110934500Y-100838000D03*
D12*
X132080000Y-96837500D03*
X132080000Y-98742500D03*
X132080000Y-92519500D03*
X132080000Y-94424500D03*
D14*
X104902000Y-107188000D03*
D15*
X104902000Y-104648000D03*
X104902000Y-102108000D03*
D14*
X115316000Y-107188000D03*
D15*
X112776000Y-107188000D03*
X110236000Y-107188000D03*
D14*
X122682000Y-92202000D03*
D15*
X122682000Y-89662000D03*
X122682000Y-87122000D03*
D14*
X122682000Y-107188000D03*
D15*
X122682000Y-104648000D03*
X122682000Y-102108000D03*
D14*
X137922000Y-107188000D03*
D15*
X135382000Y-107188000D03*
D14*
X137668000Y-96266000D03*
D15*
X137668000Y-93726000D03*
D14*
X104902000Y-98552000D03*
D15*
X104902000Y-96012000D03*
D16*
X134874000Y-91099640D03*
X134874000Y-86700360D03*
D17*
X133944360Y-101346000D03*
X138343640Y-101346000D03*
D16*
X127762000Y-99989640D03*
X127762000Y-95590360D03*
D17*
X126578360Y-104902000D03*
X130977640Y-104902000D03*
D16*
X127762000Y-91099640D03*
X127762000Y-86700360D03*
D15*
X106172000Y-92202000D03*
X103632000Y-89662000D03*
X106172000Y-87122000D03*
M02*
