%FSLAX46Y46*%
G04 Gerber Fmt 4.6, Leading zero omitted, Abs format (unit mm)*
G04 Created by KiCad (PCBNEW (2014-08-06 BZR 5059)-product) date 24/08/2014 19:27:10*
%MOMM*%
G01*
G04 APERTURE LIST*
%ADD10C,0.150000*%
%ADD11C,2.178000*%
%ADD12R,2.178000X2.178000*%
%ADD13C,1.924000*%
%ADD14R,2.686000X2.178000*%
%ADD15O,2.686000X2.178000*%
G04 APERTURE END LIST*
D10*
D11*
X142240000Y-125095000D03*
X147320000Y-125095000D03*
X164465000Y-110490000D03*
X164465000Y-115570000D03*
X167640000Y-110490000D03*
X167640000Y-115570000D03*
X167640000Y-137160000D03*
X167640000Y-132080000D03*
X155575000Y-130810000D03*
X150495000Y-130810000D03*
X160020000Y-136525000D03*
X160020000Y-131445000D03*
D12*
X173990000Y-124460000D03*
D11*
X173990000Y-127000000D03*
D12*
X176530000Y-135509000D03*
D11*
X176530000Y-138049000D03*
D12*
X184785000Y-125730000D03*
D11*
X187325000Y-125730000D03*
D12*
X182880000Y-135509000D03*
D11*
X182880000Y-138049000D03*
X145923000Y-115824000D03*
X145923000Y-120904000D03*
D12*
X144780000Y-137160000D03*
D11*
X142240000Y-137160000D03*
X187325000Y-133985000D03*
X187325000Y-139065000D03*
D12*
X142240000Y-132080000D03*
D11*
X142240000Y-129540000D03*
D12*
X191770000Y-127635000D03*
D11*
X191770000Y-125095000D03*
D12*
X191770000Y-137795000D03*
D11*
X191770000Y-135255000D03*
X149860000Y-123825000D03*
X157480000Y-123825000D03*
X142113000Y-114173000D03*
X142113000Y-121793000D03*
X172720000Y-116840000D03*
X180340000Y-116840000D03*
X162560000Y-119380000D03*
X172720000Y-119380000D03*
X161925000Y-109220000D03*
X161925000Y-116840000D03*
X164465000Y-130175000D03*
X164465000Y-137795000D03*
X157480000Y-128270000D03*
X149860000Y-128270000D03*
X179070000Y-120650000D03*
X179070000Y-128270000D03*
X182880000Y-131445000D03*
X175260000Y-131445000D03*
X172085000Y-131445000D03*
X172085000Y-139065000D03*
X156845000Y-133350000D03*
X149225000Y-133350000D03*
D12*
X186690000Y-116713000D03*
D11*
X189230000Y-116713000D03*
X191770000Y-116713000D03*
D13*
X142240000Y-109601000D03*
X144780000Y-107061000D03*
X147320000Y-109601000D03*
D12*
X150495000Y-136525000D03*
D11*
X153035000Y-136525000D03*
X155575000Y-136525000D03*
D12*
X191770000Y-109855000D03*
D11*
X189230000Y-109855000D03*
X186690000Y-109855000D03*
D12*
X181610000Y-109855000D03*
D11*
X179070000Y-109855000D03*
X176530000Y-109855000D03*
D14*
X150495000Y-112395000D03*
D15*
X150495000Y-114935000D03*
X150495000Y-117475000D03*
X150495000Y-120015000D03*
X158115000Y-120015000D03*
X158115000Y-117475000D03*
X158115000Y-114935000D03*
X158115000Y-112395000D03*
M02*
