M48
;DRILL file {kicad (2014-08-06 BZR 5059)-product} date 24/08/2014 19:27:28
;FORMAT={-:-/ absolute / inch / decimal}
FMAT,2
INCH,TZ
T1C0.032
%
G90
G05
M72
T1
X5.595Y-4.495
X5.595Y-4.795
X5.6Y-4.315
X5.6Y-4.925
X5.6Y-5.1
X5.6Y-5.2
X5.6Y-5.4
X5.7Y-4.215
X5.7Y-5.4
X5.745Y-4.56
X5.745Y-4.76
X5.8Y-4.315
X5.8Y-4.925
X5.875Y-5.25
X5.9Y-4.875
X5.9Y-5.05
X5.925Y-4.425
X5.925Y-4.525
X5.925Y-4.625
X5.925Y-4.725
X5.925Y-5.15
X5.925Y-5.375
X6.025Y-5.375
X6.125Y-5.15
X6.125Y-5.375
X6.175Y-5.25
X6.2Y-4.875
X6.2Y-5.05
X6.225Y-4.425
X6.225Y-4.525
X6.225Y-4.625
X6.225Y-4.725
X6.3Y-5.175
X6.3Y-5.375
X6.375Y-4.3
X6.375Y-4.6
X6.4Y-4.7
X6.475Y-4.35
X6.475Y-4.55
X6.475Y-5.125
X6.475Y-5.425
X6.6Y-4.35
X6.6Y-4.55
X6.6Y-5.2
X6.6Y-5.4
X6.775Y-5.175
X6.775Y-5.475
X6.8Y-4.6
X6.8Y-4.7
X6.85Y-4.9
X6.85Y-5.
X6.9Y-5.175
X6.95Y-4.325
X6.95Y-5.335
X6.95Y-5.435
X7.05Y-4.325
X7.05Y-4.75
X7.05Y-5.05
X7.1Y-4.6
X7.15Y-4.325
X7.2Y-5.175
X7.2Y-5.335
X7.2Y-5.435
X7.275Y-4.95
X7.35Y-4.325
X7.35Y-4.595
X7.375Y-4.95
X7.375Y-5.275
X7.375Y-5.475
X7.45Y-4.325
X7.45Y-4.595
X7.55Y-4.325
X7.55Y-4.595
X7.55Y-4.925
X7.55Y-5.025
X7.55Y-5.325
X7.55Y-5.425
T0
M30
