%FSLAX46Y46*%
G04 Gerber Fmt 4.6, Leading zero omitted, Abs format (unit mm)*
G04 Created by KiCad (PCBNEW (2014-08-06 BZR 5059)-product) date 24/08/2014 19:27:10*
%MOMM*%
G01*
G04 APERTURE LIST*
%ADD10C,0.150000*%
%ADD11C,1.778000*%
%ADD12R,1.778000X1.778000*%
%ADD13C,1.524000*%
%ADD14R,2.286000X1.778000*%
%ADD15O,2.286000X1.778000*%
%ADD16C,0.762000*%
%ADD17C,0.254000*%
G04 APERTURE END LIST*
D10*
D11*
X142240000Y-125095000D03*
X147320000Y-125095000D03*
X164465000Y-110490000D03*
X164465000Y-115570000D03*
X167640000Y-110490000D03*
X167640000Y-115570000D03*
X167640000Y-137160000D03*
X167640000Y-132080000D03*
X155575000Y-130810000D03*
X150495000Y-130810000D03*
X160020000Y-136525000D03*
X160020000Y-131445000D03*
D12*
X173990000Y-124460000D03*
D11*
X173990000Y-127000000D03*
D12*
X176530000Y-135509000D03*
D11*
X176530000Y-138049000D03*
D12*
X184785000Y-125730000D03*
D11*
X187325000Y-125730000D03*
D12*
X182880000Y-135509000D03*
D11*
X182880000Y-138049000D03*
X145923000Y-115824000D03*
X145923000Y-120904000D03*
D12*
X144780000Y-137160000D03*
D11*
X142240000Y-137160000D03*
X187325000Y-133985000D03*
X187325000Y-139065000D03*
D12*
X142240000Y-132080000D03*
D11*
X142240000Y-129540000D03*
D12*
X191770000Y-127635000D03*
D11*
X191770000Y-125095000D03*
D12*
X191770000Y-137795000D03*
D11*
X191770000Y-135255000D03*
X149860000Y-123825000D03*
X157480000Y-123825000D03*
X142113000Y-114173000D03*
X142113000Y-121793000D03*
X172720000Y-116840000D03*
X180340000Y-116840000D03*
X162560000Y-119380000D03*
X172720000Y-119380000D03*
X161925000Y-109220000D03*
X161925000Y-116840000D03*
X164465000Y-130175000D03*
X164465000Y-137795000D03*
X157480000Y-128270000D03*
X149860000Y-128270000D03*
X179070000Y-120650000D03*
X179070000Y-128270000D03*
X182880000Y-131445000D03*
X175260000Y-131445000D03*
X172085000Y-131445000D03*
X172085000Y-139065000D03*
X156845000Y-133350000D03*
X149225000Y-133350000D03*
D12*
X186690000Y-116713000D03*
D11*
X189230000Y-116713000D03*
X191770000Y-116713000D03*
D13*
X142240000Y-109601000D03*
X144780000Y-107061000D03*
X147320000Y-109601000D03*
D12*
X150495000Y-136525000D03*
D11*
X153035000Y-136525000D03*
X155575000Y-136525000D03*
D12*
X191770000Y-109855000D03*
D11*
X189230000Y-109855000D03*
X186690000Y-109855000D03*
D12*
X181610000Y-109855000D03*
D11*
X179070000Y-109855000D03*
X176530000Y-109855000D03*
D14*
X150495000Y-112395000D03*
D15*
X150495000Y-114935000D03*
X150495000Y-117475000D03*
X150495000Y-120015000D03*
X158115000Y-120015000D03*
X158115000Y-117475000D03*
X158115000Y-114935000D03*
X158115000Y-112395000D03*
D16*
X182880000Y-116861800D02*
X182880000Y-131445000D01*
X178413200Y-112395000D02*
X182880000Y-116861800D01*
X158115000Y-112395000D02*
X178413200Y-112395000D01*
X182880000Y-131445000D02*
X182880000Y-135509000D01*
X191770000Y-127635000D02*
X191770000Y-129413300D01*
X142240000Y-137160000D02*
X142240000Y-132080000D01*
X144018400Y-122808600D02*
X145923000Y-120904000D01*
X144018400Y-130301600D02*
X144018400Y-122808600D01*
X142240000Y-132080000D02*
X144018400Y-130301600D01*
X183896000Y-139065000D02*
X187325000Y-139065000D01*
X182880000Y-138049000D02*
X183896000Y-139065000D01*
X191770000Y-137795000D02*
X189991700Y-137795000D01*
X189991700Y-131191600D02*
X189991700Y-137795000D01*
X191770000Y-129413300D02*
X189991700Y-131191600D01*
X188595000Y-137795000D02*
X187325000Y-139065000D01*
X189991700Y-137795000D02*
X188595000Y-137795000D01*
X157480000Y-122428300D02*
X157480000Y-123825000D01*
X158115000Y-121793300D02*
X157480000Y-122428300D01*
X158115000Y-120015000D02*
X158115000Y-121793300D01*
X175260000Y-131445000D02*
X175577500Y-131762500D01*
X176530000Y-132715000D02*
X176530000Y-135509000D01*
X175577500Y-131762500D02*
X176530000Y-132715000D01*
X180888300Y-126451700D02*
X179070000Y-128270000D01*
X180888300Y-117388300D02*
X180888300Y-126451700D01*
X180340000Y-116840000D02*
X180888300Y-117388300D01*
X179070000Y-128270000D02*
X175577500Y-131762500D01*
X142240000Y-129540000D02*
X142240000Y-125095000D01*
X141731500Y-129540000D02*
X142240000Y-129540000D01*
X140461600Y-130809900D02*
X141731500Y-129540000D01*
X140461600Y-137946600D02*
X140461600Y-130809900D01*
X142110800Y-139595800D02*
X140461600Y-137946600D01*
X159464300Y-139595800D02*
X142110800Y-139595800D01*
X165861600Y-133198500D02*
X159464300Y-139595800D01*
X165861600Y-131343400D02*
X165861600Y-133198500D01*
X170205000Y-127000000D02*
X165861600Y-131343400D01*
X173990000Y-127000000D02*
X170205000Y-127000000D01*
X150495000Y-117475000D02*
X148462700Y-117475000D01*
X149225000Y-123190000D02*
X147320000Y-125095000D01*
X148462700Y-122427700D02*
X149225000Y-123190000D01*
X148462700Y-117475000D02*
X148462700Y-122427700D01*
X149225000Y-123190000D02*
X149860000Y-123825000D01*
X163940600Y-111014400D02*
X164465000Y-110490000D01*
X160163500Y-111014400D02*
X163940600Y-111014400D01*
X159729300Y-110580200D02*
X160163500Y-111014400D01*
X156882100Y-110580200D02*
X159729300Y-110580200D01*
X152527300Y-114935000D02*
X156882100Y-110580200D01*
X150495000Y-114935000D02*
X152527300Y-114935000D01*
X164465000Y-117475000D02*
X162560000Y-119380000D01*
X164465000Y-115570000D02*
X164465000Y-117475000D01*
X167640000Y-122069100D02*
X167640000Y-115570000D01*
X161828100Y-127881000D02*
X167640000Y-122069100D01*
X161828100Y-132201100D02*
X161828100Y-127881000D01*
X157353400Y-136675800D02*
X161828100Y-132201100D01*
X157353400Y-137272100D02*
X157353400Y-136675800D01*
X156316100Y-138309400D02*
X157353400Y-137272100D01*
X152279400Y-138309400D02*
X156316100Y-138309400D01*
X150495000Y-136525000D02*
X152279400Y-138309400D01*
X155701200Y-126491200D02*
X157480000Y-128270000D01*
X155701200Y-115316500D02*
X155701200Y-126491200D01*
X156082700Y-114935000D02*
X155701200Y-115316500D01*
X158115000Y-114935000D02*
X156082700Y-114935000D01*
X150495000Y-128905000D02*
X150495000Y-130810000D01*
X149860000Y-128270000D02*
X150495000Y-128905000D01*
X164465000Y-132080000D02*
X160020000Y-136525000D01*
X164465000Y-130175000D02*
X164465000Y-132080000D01*
X186690000Y-122046700D02*
X184785000Y-123951700D01*
X186690000Y-116713000D02*
X186690000Y-122046700D01*
X184785000Y-125730000D02*
X184785000Y-123951700D01*
X189230000Y-116713000D02*
X186690000Y-116713000D01*
X146558300Y-136016700D02*
X146558300Y-137160000D01*
X149225000Y-133350000D02*
X146558300Y-136016700D01*
X144780000Y-137160000D02*
X146558300Y-137160000D01*
X144780000Y-107061000D02*
X142240000Y-109601000D01*
X189505600Y-114448600D02*
X191770000Y-116713000D01*
X183138500Y-114448600D02*
X189505600Y-114448600D01*
X179070000Y-110380100D02*
X183138500Y-114448600D01*
X179070000Y-109855000D02*
X179070000Y-110380100D01*
D17*
G36*
X142433747Y-137174142D02*
X142254142Y-137353747D01*
X142240000Y-137339605D01*
X142225857Y-137353747D01*
X142046252Y-137174142D01*
X142060395Y-137160000D01*
X142046252Y-137145857D01*
X142225857Y-136966252D01*
X142240000Y-136980395D01*
X142254142Y-136966252D01*
X142433747Y-137145857D01*
X142419605Y-137160000D01*
X142433747Y-137174142D01*
X142433747Y-137174142D01*
G37*
X142433747Y-137174142D02*
X142254142Y-137353747D01*
X142240000Y-137339605D01*
X142225857Y-137353747D01*
X142046252Y-137174142D01*
X142060395Y-137160000D01*
X142046252Y-137145857D01*
X142225857Y-136966252D01*
X142240000Y-136980395D01*
X142254142Y-136966252D01*
X142433747Y-137145857D01*
X142419605Y-137160000D01*
X142433747Y-137174142D01*
G36*
X194818000Y-140843000D02*
X193294264Y-140843000D01*
X193294264Y-134953188D01*
X193294264Y-124793188D01*
X193294264Y-116411188D01*
X193294000Y-116410549D01*
X193294000Y-110870310D01*
X193294000Y-110617691D01*
X193294000Y-108839691D01*
X193197327Y-108606302D01*
X193018699Y-108427673D01*
X192785310Y-108331000D01*
X192532691Y-108331000D01*
X190754691Y-108331000D01*
X190521302Y-108427673D01*
X190342673Y-108606301D01*
X190282317Y-108752011D01*
X190094404Y-108563769D01*
X189534472Y-108331265D01*
X188928188Y-108330736D01*
X188367851Y-108562262D01*
X187959664Y-108969737D01*
X187554404Y-108563769D01*
X186994472Y-108331265D01*
X186388188Y-108330736D01*
X185827851Y-108562262D01*
X185398769Y-108990596D01*
X185166265Y-109550528D01*
X185165736Y-110156812D01*
X185397262Y-110717149D01*
X185825596Y-111146231D01*
X186385528Y-111378735D01*
X186991812Y-111379264D01*
X187552149Y-111147738D01*
X187960335Y-110740262D01*
X188365596Y-111146231D01*
X188925528Y-111378735D01*
X189531812Y-111379264D01*
X190092149Y-111147738D01*
X190282292Y-110957926D01*
X190342673Y-111103698D01*
X190521301Y-111282327D01*
X190754690Y-111379000D01*
X191007309Y-111379000D01*
X192785309Y-111379000D01*
X193018698Y-111282327D01*
X193197327Y-111103699D01*
X193294000Y-110870310D01*
X193294000Y-116410549D01*
X193062738Y-115850851D01*
X192634404Y-115421769D01*
X192074472Y-115189265D01*
X191682763Y-115188923D01*
X190224020Y-113730180D01*
X189894407Y-113509938D01*
X189829899Y-113497107D01*
X189505600Y-113432600D01*
X183559340Y-113432600D01*
X181505740Y-111379000D01*
X182625309Y-111379000D01*
X182858698Y-111282327D01*
X183037327Y-111103699D01*
X183134000Y-110870310D01*
X183134000Y-110617691D01*
X183134000Y-108839691D01*
X183037327Y-108606302D01*
X182858699Y-108427673D01*
X182625310Y-108331000D01*
X182372691Y-108331000D01*
X180594691Y-108331000D01*
X180361302Y-108427673D01*
X180182673Y-108606301D01*
X180122317Y-108752011D01*
X179934404Y-108563769D01*
X179374472Y-108331265D01*
X178768188Y-108330736D01*
X178207851Y-108562262D01*
X177799664Y-108969737D01*
X177394404Y-108563769D01*
X176834472Y-108331265D01*
X176228188Y-108330736D01*
X175667851Y-108562262D01*
X175238769Y-108990596D01*
X175006265Y-109550528D01*
X175005736Y-110156812D01*
X175237262Y-110717149D01*
X175665596Y-111146231D01*
X176225528Y-111378735D01*
X176529243Y-111379000D01*
X168906592Y-111379000D01*
X168931231Y-111354404D01*
X169163735Y-110794472D01*
X169164264Y-110188188D01*
X168932738Y-109627851D01*
X168504404Y-109198769D01*
X167944472Y-108966265D01*
X167338188Y-108965736D01*
X166777851Y-109197262D01*
X166348769Y-109625596D01*
X166116265Y-110185528D01*
X166115736Y-110791812D01*
X166347262Y-111352149D01*
X166374066Y-111379000D01*
X165731592Y-111379000D01*
X165756231Y-111354404D01*
X165988735Y-110794472D01*
X165989264Y-110188188D01*
X165757738Y-109627851D01*
X165329404Y-109198769D01*
X164769472Y-108966265D01*
X164163188Y-108965736D01*
X163602851Y-109197262D01*
X163448886Y-109350958D01*
X163449264Y-108918188D01*
X163217738Y-108357851D01*
X162789404Y-107928769D01*
X162229472Y-107696265D01*
X161623188Y-107695736D01*
X161062851Y-107927262D01*
X160633769Y-108355596D01*
X160401265Y-108915528D01*
X160400736Y-109521812D01*
X160597657Y-109998400D01*
X160584340Y-109998400D01*
X160447720Y-109861780D01*
X160118107Y-109641538D01*
X160053599Y-109628707D01*
X159729300Y-109564200D01*
X156882100Y-109564200D01*
X156493294Y-109641538D01*
X156383921Y-109714619D01*
X156163679Y-109861780D01*
X152106459Y-113919000D01*
X151902644Y-113919000D01*
X151872657Y-113874120D01*
X151997698Y-113822327D01*
X152176327Y-113643699D01*
X152273000Y-113410310D01*
X152273000Y-113157691D01*
X152273000Y-111379691D01*
X152176327Y-111146302D01*
X151997699Y-110967673D01*
X151764310Y-110871000D01*
X151511691Y-110871000D01*
X149225691Y-110871000D01*
X148992302Y-110967673D01*
X148813673Y-111146301D01*
X148717242Y-111379105D01*
X148717242Y-109324339D01*
X148505010Y-108810697D01*
X148112370Y-108417371D01*
X147599100Y-108204243D01*
X147043339Y-108203758D01*
X146529697Y-108415990D01*
X146177242Y-108767830D01*
X146177242Y-106784339D01*
X145965010Y-106270697D01*
X145572370Y-105877371D01*
X145059100Y-105664243D01*
X144503339Y-105663758D01*
X143989697Y-105875990D01*
X143596371Y-106268630D01*
X143383243Y-106781900D01*
X143383034Y-107021125D01*
X142200195Y-108203964D01*
X141963339Y-108203758D01*
X141449697Y-108415990D01*
X141056371Y-108808630D01*
X140843243Y-109321900D01*
X140842758Y-109877661D01*
X141054990Y-110391303D01*
X141447630Y-110784629D01*
X141960900Y-110997757D01*
X142516661Y-110998242D01*
X143030303Y-110786010D01*
X143423629Y-110393370D01*
X143636757Y-109880100D01*
X143636965Y-109640874D01*
X144819805Y-108458035D01*
X145056661Y-108458242D01*
X145570303Y-108246010D01*
X145963629Y-107853370D01*
X146176757Y-107340100D01*
X146177242Y-106784339D01*
X146177242Y-108767830D01*
X146136371Y-108808630D01*
X145923243Y-109321900D01*
X145922758Y-109877661D01*
X146134990Y-110391303D01*
X146527630Y-110784629D01*
X147040900Y-110997757D01*
X147596661Y-110998242D01*
X148110303Y-110786010D01*
X148503629Y-110393370D01*
X148716757Y-109880100D01*
X148717242Y-109324339D01*
X148717242Y-111379105D01*
X148717000Y-111379690D01*
X148717000Y-111632309D01*
X148717000Y-113410309D01*
X148813673Y-113643698D01*
X148992301Y-113822327D01*
X149117342Y-113874121D01*
X148798175Y-114351790D01*
X148682167Y-114935000D01*
X148798175Y-115518210D01*
X149128536Y-116012631D01*
X149416437Y-116205000D01*
X149128536Y-116397369D01*
X149087355Y-116459000D01*
X148462700Y-116459000D01*
X148073894Y-116536338D01*
X147744280Y-116756580D01*
X147524038Y-117086194D01*
X147447264Y-117472164D01*
X147447264Y-115522188D01*
X147215738Y-114961851D01*
X146787404Y-114532769D01*
X146227472Y-114300265D01*
X145621188Y-114299736D01*
X145060851Y-114531262D01*
X144631769Y-114959596D01*
X144399265Y-115519528D01*
X144398736Y-116125812D01*
X144630262Y-116686149D01*
X145058596Y-117115231D01*
X145618528Y-117347735D01*
X146224812Y-117348264D01*
X146785149Y-117116738D01*
X147214231Y-116688404D01*
X147446735Y-116128472D01*
X147447264Y-115522188D01*
X147447264Y-117472164D01*
X147446700Y-117475000D01*
X147446700Y-120864542D01*
X147432723Y-120536300D01*
X147250539Y-120096467D01*
X146995196Y-120011409D01*
X146815591Y-120191014D01*
X146815591Y-119831804D01*
X146730533Y-119576461D01*
X146161035Y-119368484D01*
X145555300Y-119394277D01*
X145115467Y-119576461D01*
X145030409Y-119831804D01*
X145923000Y-120724395D01*
X146815591Y-119831804D01*
X146815591Y-120191014D01*
X146102605Y-120904000D01*
X146995196Y-121796591D01*
X147250539Y-121711533D01*
X147446700Y-121174390D01*
X147446700Y-122427700D01*
X147511207Y-122751999D01*
X147524038Y-122816507D01*
X147744280Y-123146120D01*
X147788159Y-123189999D01*
X147407084Y-123571075D01*
X147018188Y-123570736D01*
X146815591Y-123654447D01*
X146815591Y-121976196D01*
X145923000Y-121083605D01*
X145743395Y-121263210D01*
X145743395Y-120904000D01*
X144850804Y-120011409D01*
X144595461Y-120096467D01*
X144387484Y-120665965D01*
X144413277Y-121271700D01*
X144595461Y-121711533D01*
X144850804Y-121796591D01*
X145743395Y-120904000D01*
X145743395Y-121263210D01*
X145030409Y-121976196D01*
X145115467Y-122231539D01*
X145684965Y-122439516D01*
X146290700Y-122413723D01*
X146730533Y-122231539D01*
X146815591Y-121976196D01*
X146815591Y-123654447D01*
X146457851Y-123802262D01*
X146028769Y-124230596D01*
X145796265Y-124790528D01*
X145795736Y-125396812D01*
X146027262Y-125957149D01*
X146455596Y-126386231D01*
X147015528Y-126618735D01*
X147621812Y-126619264D01*
X148182149Y-126387738D01*
X148611231Y-125959404D01*
X148843735Y-125399472D01*
X148844076Y-125007763D01*
X148865716Y-124986124D01*
X148995596Y-125116231D01*
X149555528Y-125348735D01*
X150161812Y-125349264D01*
X150722149Y-125117738D01*
X151151231Y-124689404D01*
X151383735Y-124129472D01*
X151384264Y-123523188D01*
X151152738Y-122962851D01*
X150724404Y-122533769D01*
X150164472Y-122301265D01*
X149772763Y-122300923D01*
X149478700Y-122006860D01*
X149478700Y-121325243D01*
X149540458Y-121374392D01*
X150114000Y-121539000D01*
X150368000Y-121539000D01*
X150368000Y-120142000D01*
X150348000Y-120142000D01*
X150348000Y-119888000D01*
X150368000Y-119888000D01*
X150368000Y-119868000D01*
X150622000Y-119868000D01*
X150622000Y-119888000D01*
X152108330Y-119888000D01*
X152229134Y-119651987D01*
X152205593Y-119549122D01*
X151916433Y-119027171D01*
X151567205Y-118749247D01*
X151861464Y-118552631D01*
X152191825Y-118058210D01*
X152307833Y-117475000D01*
X152191825Y-116891790D01*
X151861464Y-116397369D01*
X151573562Y-116205000D01*
X151861464Y-116012631D01*
X151902644Y-115951000D01*
X152527300Y-115951000D01*
X152527300Y-115950999D01*
X152851599Y-115886492D01*
X152916106Y-115873662D01*
X152916107Y-115873662D01*
X153245720Y-115653420D01*
X156335676Y-112563464D01*
X156418175Y-112978210D01*
X156748536Y-113472631D01*
X157036437Y-113665000D01*
X156748536Y-113857369D01*
X156707355Y-113919000D01*
X156082700Y-113919000D01*
X155693894Y-113996338D01*
X155584521Y-114069419D01*
X155364279Y-114216580D01*
X154982780Y-114598080D01*
X154762538Y-114927693D01*
X154749707Y-114992200D01*
X154685200Y-115316500D01*
X154685200Y-126491200D01*
X154749707Y-126815499D01*
X154762538Y-126880007D01*
X154982780Y-127209620D01*
X155956075Y-128182915D01*
X155955736Y-128571812D01*
X156187262Y-129132149D01*
X156615596Y-129561231D01*
X157175528Y-129793735D01*
X157781812Y-129794264D01*
X158342149Y-129562738D01*
X158771231Y-129134404D01*
X159003735Y-128574472D01*
X159004264Y-127968188D01*
X158772738Y-127407851D01*
X158344404Y-126978769D01*
X157784472Y-126746265D01*
X157392763Y-126745923D01*
X156717200Y-126070359D01*
X156717200Y-125158420D01*
X157175528Y-125348735D01*
X157781812Y-125349264D01*
X158342149Y-125117738D01*
X158771231Y-124689404D01*
X159003735Y-124129472D01*
X159004264Y-123523188D01*
X158772738Y-122962851D01*
X158577684Y-122767456D01*
X158833420Y-122511720D01*
X158833421Y-122511720D01*
X159053662Y-122182107D01*
X159053662Y-122182106D01*
X159131000Y-121793300D01*
X159131000Y-121326803D01*
X159481464Y-121092631D01*
X159811825Y-120598210D01*
X159927833Y-120015000D01*
X159811825Y-119431790D01*
X159481464Y-118937369D01*
X159193562Y-118745000D01*
X159481464Y-118552631D01*
X159811825Y-118058210D01*
X159927833Y-117475000D01*
X159811825Y-116891790D01*
X159481464Y-116397369D01*
X159193562Y-116205000D01*
X159481464Y-116012631D01*
X159811825Y-115518210D01*
X159927833Y-114935000D01*
X159811825Y-114351790D01*
X159481464Y-113857369D01*
X159193562Y-113665000D01*
X159481464Y-113472631D01*
X159522644Y-113411000D01*
X177992359Y-113411000D01*
X179938348Y-115356988D01*
X179477851Y-115547262D01*
X179048769Y-115975596D01*
X178816265Y-116535528D01*
X178815736Y-117141812D01*
X179047262Y-117702149D01*
X179475596Y-118131231D01*
X179872300Y-118295956D01*
X179872300Y-119332981D01*
X179374472Y-119126265D01*
X178768188Y-119125736D01*
X178207851Y-119357262D01*
X177778769Y-119785596D01*
X177546265Y-120345528D01*
X177545736Y-120951812D01*
X177777262Y-121512149D01*
X178205596Y-121941231D01*
X178765528Y-122173735D01*
X179371812Y-122174264D01*
X179872300Y-121967467D01*
X179872300Y-126030859D01*
X179157084Y-126746075D01*
X178768188Y-126745736D01*
X178207851Y-126977262D01*
X177778769Y-127405596D01*
X177546265Y-127965528D01*
X177545923Y-128357236D01*
X175859421Y-130043738D01*
X175564472Y-129921265D01*
X175514264Y-129921221D01*
X175514264Y-126698188D01*
X175282738Y-126137851D01*
X175092926Y-125947707D01*
X175238698Y-125887327D01*
X175417327Y-125708699D01*
X175514000Y-125475310D01*
X175514000Y-125222691D01*
X175514000Y-123444691D01*
X175417327Y-123211302D01*
X175238699Y-123032673D01*
X175005310Y-122936000D01*
X174752691Y-122936000D01*
X174244264Y-122936000D01*
X174244264Y-119078188D01*
X174012738Y-118517851D01*
X173605262Y-118109664D01*
X174011231Y-117704404D01*
X174243735Y-117144472D01*
X174244264Y-116538188D01*
X174012738Y-115977851D01*
X173584404Y-115548769D01*
X173024472Y-115316265D01*
X172418188Y-115315736D01*
X171857851Y-115547262D01*
X171428769Y-115975596D01*
X171196265Y-116535528D01*
X171195736Y-117141812D01*
X171427262Y-117702149D01*
X171834737Y-118110335D01*
X171428769Y-118515596D01*
X171196265Y-119075528D01*
X171195736Y-119681812D01*
X171427262Y-120242149D01*
X171855596Y-120671231D01*
X172415528Y-120903735D01*
X173021812Y-120904264D01*
X173582149Y-120672738D01*
X174011231Y-120244404D01*
X174243735Y-119684472D01*
X174244264Y-119078188D01*
X174244264Y-122936000D01*
X172974691Y-122936000D01*
X172741302Y-123032673D01*
X172562673Y-123211301D01*
X172466000Y-123444690D01*
X172466000Y-123697309D01*
X172466000Y-125475309D01*
X172562673Y-125708698D01*
X172741301Y-125887327D01*
X172887011Y-125947682D01*
X172850629Y-125984000D01*
X170205000Y-125984000D01*
X169816194Y-126061338D01*
X169706821Y-126134419D01*
X169486579Y-126281580D01*
X165961694Y-129806465D01*
X165757738Y-129312851D01*
X165329404Y-128883769D01*
X164769472Y-128651265D01*
X164163188Y-128650736D01*
X163602851Y-128882262D01*
X163173769Y-129310596D01*
X162941265Y-129870528D01*
X162940736Y-130476812D01*
X163172262Y-131037149D01*
X163449000Y-131314370D01*
X163449000Y-131659159D01*
X162828467Y-132279692D01*
X162844099Y-132201100D01*
X162844100Y-132201100D01*
X162844100Y-128301840D01*
X168358420Y-122787520D01*
X168358421Y-122787520D01*
X168578662Y-122457907D01*
X168578662Y-122457906D01*
X168591492Y-122393399D01*
X168655999Y-122069100D01*
X168656000Y-122069100D01*
X168656000Y-116709155D01*
X168931231Y-116434404D01*
X169163735Y-115874472D01*
X169164264Y-115268188D01*
X168932738Y-114707851D01*
X168504404Y-114278769D01*
X167944472Y-114046265D01*
X167338188Y-114045736D01*
X166777851Y-114277262D01*
X166348769Y-114705596D01*
X166116265Y-115265528D01*
X166115736Y-115871812D01*
X166347262Y-116432149D01*
X166624000Y-116709370D01*
X166624000Y-121648259D01*
X165989264Y-122282995D01*
X165989264Y-115268188D01*
X165757738Y-114707851D01*
X165329404Y-114278769D01*
X164769472Y-114046265D01*
X164163188Y-114045736D01*
X163602851Y-114277262D01*
X163173769Y-114705596D01*
X162941265Y-115265528D01*
X162940885Y-115700514D01*
X162789404Y-115548769D01*
X162229472Y-115316265D01*
X161623188Y-115315736D01*
X161062851Y-115547262D01*
X160633769Y-115975596D01*
X160401265Y-116535528D01*
X160400736Y-117141812D01*
X160632262Y-117702149D01*
X161060596Y-118131231D01*
X161479540Y-118305191D01*
X161268769Y-118515596D01*
X161036265Y-119075528D01*
X161035736Y-119681812D01*
X161267262Y-120242149D01*
X161695596Y-120671231D01*
X162255528Y-120903735D01*
X162861812Y-120904264D01*
X163422149Y-120672738D01*
X163851231Y-120244404D01*
X164083735Y-119684472D01*
X164084076Y-119292763D01*
X165183420Y-118193420D01*
X165183421Y-118193420D01*
X165403662Y-117863807D01*
X165403662Y-117863806D01*
X165416492Y-117799299D01*
X165480999Y-117475000D01*
X165481000Y-117475000D01*
X165481000Y-116709155D01*
X165756231Y-116434404D01*
X165988735Y-115874472D01*
X165989264Y-115268188D01*
X165989264Y-122282995D01*
X161109680Y-127162580D01*
X160889438Y-127492193D01*
X160876607Y-127556700D01*
X160812100Y-127881000D01*
X160812100Y-130123745D01*
X160324472Y-129921265D01*
X159718188Y-129920736D01*
X159157851Y-130152262D01*
X158728769Y-130580596D01*
X158496265Y-131140528D01*
X158495736Y-131746812D01*
X158727262Y-132307149D01*
X159155596Y-132736231D01*
X159650589Y-132941770D01*
X158369264Y-134223095D01*
X158369264Y-133048188D01*
X158137738Y-132487851D01*
X157709404Y-132058769D01*
X157149472Y-131826265D01*
X156714485Y-131825885D01*
X156866231Y-131674404D01*
X157098735Y-131114472D01*
X157099264Y-130508188D01*
X156867738Y-129947851D01*
X156439404Y-129518769D01*
X155879472Y-129286265D01*
X155273188Y-129285736D01*
X154712851Y-129517262D01*
X154283769Y-129945596D01*
X154051265Y-130505528D01*
X154050736Y-131111812D01*
X154282262Y-131672149D01*
X154710596Y-132101231D01*
X155270528Y-132333735D01*
X155705514Y-132334114D01*
X155553769Y-132485596D01*
X155321265Y-133045528D01*
X155320736Y-133651812D01*
X155552262Y-134212149D01*
X155980596Y-134641231D01*
X156540528Y-134873735D01*
X157146812Y-134874264D01*
X157707149Y-134642738D01*
X158136231Y-134214404D01*
X158368735Y-133654472D01*
X158369264Y-133048188D01*
X158369264Y-134223095D01*
X156885798Y-135706561D01*
X156867738Y-135662851D01*
X156439404Y-135233769D01*
X155879472Y-135001265D01*
X155273188Y-135000736D01*
X154712851Y-135232262D01*
X154304664Y-135639737D01*
X153899404Y-135233769D01*
X153339472Y-135001265D01*
X152733188Y-135000736D01*
X152229134Y-135209006D01*
X152229134Y-120378013D01*
X152108330Y-120142000D01*
X150622000Y-120142000D01*
X150622000Y-121539000D01*
X150876000Y-121539000D01*
X151449542Y-121374392D01*
X151916433Y-121002829D01*
X152205593Y-120480878D01*
X152229134Y-120378013D01*
X152229134Y-135209006D01*
X152172851Y-135232262D01*
X151982707Y-135422073D01*
X151922327Y-135276302D01*
X151743699Y-135097673D01*
X151510310Y-135001000D01*
X151257691Y-135001000D01*
X149479691Y-135001000D01*
X149246302Y-135097673D01*
X149067673Y-135276301D01*
X148971000Y-135509690D01*
X148971000Y-135762309D01*
X148971000Y-137540309D01*
X149067673Y-137773698D01*
X149246301Y-137952327D01*
X149479690Y-138049000D01*
X149732309Y-138049000D01*
X150582159Y-138049000D01*
X151112959Y-138579800D01*
X146036225Y-138579800D01*
X146207327Y-138408699D01*
X146303714Y-138176000D01*
X146558300Y-138176000D01*
X146947106Y-138098662D01*
X147276720Y-137878420D01*
X147496962Y-137548806D01*
X147574300Y-137160000D01*
X147574300Y-136437540D01*
X149137916Y-134873924D01*
X149526812Y-134874264D01*
X150087149Y-134642738D01*
X150516231Y-134214404D01*
X150748735Y-133654472D01*
X150749264Y-133048188D01*
X150517738Y-132487851D01*
X150364041Y-132333886D01*
X150796812Y-132334264D01*
X151357149Y-132102738D01*
X151786231Y-131674404D01*
X152018735Y-131114472D01*
X152019264Y-130508188D01*
X151787738Y-129947851D01*
X151511000Y-129670629D01*
X151511000Y-128905000D01*
X151433662Y-128516194D01*
X151433662Y-128516193D01*
X151383850Y-128441645D01*
X151384264Y-127968188D01*
X151152738Y-127407851D01*
X150724404Y-126978769D01*
X150164472Y-126746265D01*
X149558188Y-126745736D01*
X148997851Y-126977262D01*
X148568769Y-127405596D01*
X148336265Y-127965528D01*
X148335736Y-128571812D01*
X148567262Y-129132149D01*
X148995596Y-129561231D01*
X149414540Y-129735191D01*
X149203769Y-129945596D01*
X148971265Y-130505528D01*
X148970736Y-131111812D01*
X149202262Y-131672149D01*
X149355958Y-131826113D01*
X148923188Y-131825736D01*
X148362851Y-132057262D01*
X147933769Y-132485596D01*
X147701265Y-133045528D01*
X147700923Y-133437236D01*
X145839880Y-135298280D01*
X145619638Y-135627893D01*
X145618025Y-135636000D01*
X145542691Y-135636000D01*
X143764691Y-135636000D01*
X143764000Y-135636286D01*
X143764000Y-133095309D01*
X143764000Y-132365750D01*
X143605250Y-132207000D01*
X142367000Y-132207000D01*
X142367000Y-133445250D01*
X142525750Y-133604000D01*
X143002691Y-133604000D01*
X143255310Y-133604000D01*
X143488699Y-133507327D01*
X143667327Y-133328698D01*
X143764000Y-133095309D01*
X143764000Y-135636286D01*
X143531302Y-135732673D01*
X143352673Y-135911301D01*
X143303641Y-136029673D01*
X143247180Y-135973212D01*
X143132590Y-136087801D01*
X143047533Y-135832461D01*
X142478035Y-135624484D01*
X141872300Y-135650277D01*
X141477600Y-135813766D01*
X141477600Y-133604000D01*
X141954250Y-133604000D01*
X142113000Y-133445250D01*
X142113000Y-132207000D01*
X142093000Y-132207000D01*
X142093000Y-131953000D01*
X142113000Y-131953000D01*
X142113000Y-131933000D01*
X142367000Y-131933000D01*
X142367000Y-131953000D01*
X143605250Y-131953000D01*
X143764000Y-131794250D01*
X143764000Y-131064691D01*
X143667327Y-130831302D01*
X143488699Y-130652673D01*
X143342988Y-130592317D01*
X143531231Y-130404404D01*
X143763735Y-129844472D01*
X143764264Y-129238188D01*
X143532738Y-128677851D01*
X143256000Y-128400629D01*
X143256000Y-126234155D01*
X143531231Y-125959404D01*
X143763735Y-125399472D01*
X143764264Y-124793188D01*
X143637264Y-124485823D01*
X143637264Y-121491188D01*
X143637264Y-113871188D01*
X143405738Y-113310851D01*
X142977404Y-112881769D01*
X142417472Y-112649265D01*
X141811188Y-112648736D01*
X141250851Y-112880262D01*
X140821769Y-113308596D01*
X140589265Y-113868528D01*
X140588736Y-114474812D01*
X140820262Y-115035149D01*
X141248596Y-115464231D01*
X141808528Y-115696735D01*
X142414812Y-115697264D01*
X142975149Y-115465738D01*
X143404231Y-115037404D01*
X143636735Y-114477472D01*
X143637264Y-113871188D01*
X143637264Y-121491188D01*
X143405738Y-120930851D01*
X142977404Y-120501769D01*
X142417472Y-120269265D01*
X141811188Y-120268736D01*
X141250851Y-120500262D01*
X140821769Y-120928596D01*
X140589265Y-121488528D01*
X140588736Y-122094812D01*
X140820262Y-122655149D01*
X141248596Y-123084231D01*
X141808528Y-123316735D01*
X142414812Y-123317264D01*
X142975149Y-123085738D01*
X143404231Y-122657404D01*
X143636735Y-122097472D01*
X143637264Y-121491188D01*
X143637264Y-124485823D01*
X143532738Y-124232851D01*
X143104404Y-123803769D01*
X142544472Y-123571265D01*
X141938188Y-123570736D01*
X141377851Y-123802262D01*
X140948769Y-124230596D01*
X140716265Y-124790528D01*
X140715736Y-125396812D01*
X140947262Y-125957149D01*
X141224000Y-126234370D01*
X141224000Y-128400844D01*
X140948769Y-128675596D01*
X140799440Y-129035218D01*
X139743180Y-130091480D01*
X139522938Y-130421093D01*
X139510107Y-130485600D01*
X139445600Y-130809900D01*
X139445600Y-137946600D01*
X139510107Y-138270899D01*
X139522938Y-138335407D01*
X139743180Y-138665020D01*
X141392380Y-140314220D01*
X141721993Y-140534462D01*
X141721994Y-140534462D01*
X141786500Y-140547292D01*
X142110800Y-140611800D01*
X159464300Y-140611800D01*
X159464300Y-140611799D01*
X159788599Y-140547292D01*
X159853106Y-140534462D01*
X159853107Y-140534462D01*
X160182720Y-140314220D01*
X162941208Y-137555732D01*
X162940736Y-138096812D01*
X163172262Y-138657149D01*
X163600596Y-139086231D01*
X164160528Y-139318735D01*
X164766812Y-139319264D01*
X165327149Y-139087738D01*
X165756231Y-138659404D01*
X165988735Y-138099472D01*
X165989264Y-137493188D01*
X165757738Y-136932851D01*
X165329404Y-136503769D01*
X164769472Y-136271265D01*
X164226149Y-136270790D01*
X166580020Y-133916921D01*
X166580020Y-133916920D01*
X166727180Y-133696679D01*
X166800261Y-133587307D01*
X166800262Y-133587306D01*
X166838080Y-133397176D01*
X167335528Y-133603735D01*
X167941812Y-133604264D01*
X168502149Y-133372738D01*
X168931231Y-132944404D01*
X169163735Y-132384472D01*
X169164264Y-131778188D01*
X168932738Y-131217851D01*
X168504404Y-130788769D01*
X168044175Y-130597665D01*
X170625840Y-128016000D01*
X172850844Y-128016000D01*
X173125596Y-128291231D01*
X173685528Y-128523735D01*
X174291812Y-128524264D01*
X174852149Y-128292738D01*
X175281231Y-127864404D01*
X175513735Y-127304472D01*
X175514264Y-126698188D01*
X175514264Y-129921221D01*
X174958188Y-129920736D01*
X174397851Y-130152262D01*
X173968769Y-130580596D01*
X173736265Y-131140528D01*
X173735736Y-131746812D01*
X173967262Y-132307149D01*
X174395596Y-132736231D01*
X174955528Y-132968735D01*
X175347236Y-132969076D01*
X175514000Y-133135840D01*
X175514000Y-133985286D01*
X175281302Y-134081673D01*
X175102673Y-134260301D01*
X175006000Y-134493690D01*
X175006000Y-134746309D01*
X175006000Y-136524309D01*
X175102673Y-136757698D01*
X175281301Y-136936327D01*
X175399673Y-136985358D01*
X175343212Y-137041820D01*
X175457801Y-137156409D01*
X175202461Y-137241467D01*
X174994484Y-137810965D01*
X175020277Y-138416700D01*
X175202461Y-138856533D01*
X175457804Y-138941591D01*
X176350395Y-138049000D01*
X176336252Y-138034857D01*
X176515857Y-137855252D01*
X176530000Y-137869395D01*
X176544142Y-137855252D01*
X176723747Y-138034857D01*
X176709605Y-138049000D01*
X177602196Y-138941591D01*
X177857539Y-138856533D01*
X178065516Y-138287035D01*
X178039723Y-137681300D01*
X177857539Y-137241467D01*
X177602198Y-137156409D01*
X177716788Y-137041820D01*
X177660326Y-136985358D01*
X177778698Y-136936327D01*
X177957327Y-136757699D01*
X178054000Y-136524310D01*
X178054000Y-136271691D01*
X178054000Y-134493691D01*
X177957327Y-134260302D01*
X177778699Y-134081673D01*
X177546000Y-133985285D01*
X177546000Y-132715000D01*
X177468662Y-132326194D01*
X177468661Y-132326193D01*
X177395580Y-132216821D01*
X177248420Y-131996580D01*
X177248420Y-131996579D01*
X177014340Y-131762499D01*
X178982916Y-129793924D01*
X179371812Y-129794264D01*
X179932149Y-129562738D01*
X180361231Y-129134404D01*
X180593735Y-128574472D01*
X180594076Y-128182763D01*
X181606720Y-127170120D01*
X181606721Y-127170120D01*
X181826962Y-126840507D01*
X181826962Y-126840506D01*
X181864000Y-126654303D01*
X181864000Y-130305844D01*
X181588769Y-130580596D01*
X181356265Y-131140528D01*
X181355736Y-131746812D01*
X181587262Y-132307149D01*
X181864000Y-132584370D01*
X181864000Y-133985286D01*
X181631302Y-134081673D01*
X181452673Y-134260301D01*
X181356000Y-134493690D01*
X181356000Y-134746309D01*
X181356000Y-136524309D01*
X181452673Y-136757698D01*
X181631301Y-136936327D01*
X181749673Y-136985358D01*
X181693212Y-137041820D01*
X181807801Y-137156409D01*
X181552461Y-137241467D01*
X181344484Y-137810965D01*
X181370277Y-138416700D01*
X181552461Y-138856533D01*
X181807804Y-138941591D01*
X182700395Y-138049000D01*
X182686252Y-138034857D01*
X182865857Y-137855252D01*
X182880000Y-137869395D01*
X182894142Y-137855252D01*
X183073747Y-138034857D01*
X183059605Y-138049000D01*
X183952196Y-138941591D01*
X184207539Y-138856533D01*
X184415516Y-138287035D01*
X184389723Y-137681300D01*
X184207539Y-137241467D01*
X183952198Y-137156409D01*
X184066788Y-137041820D01*
X184010326Y-136985358D01*
X184128698Y-136936327D01*
X184307327Y-136757699D01*
X184404000Y-136524310D01*
X184404000Y-136271691D01*
X184404000Y-134493691D01*
X184307327Y-134260302D01*
X184128699Y-134081673D01*
X183896000Y-133985285D01*
X183896000Y-132584155D01*
X184171231Y-132309404D01*
X184403735Y-131749472D01*
X184404264Y-131143188D01*
X184172738Y-130582851D01*
X183896000Y-130305629D01*
X183896000Y-127254000D01*
X184022309Y-127254000D01*
X185800309Y-127254000D01*
X186033698Y-127157327D01*
X186212327Y-126978699D01*
X186272682Y-126832988D01*
X186460596Y-127021231D01*
X187020528Y-127253735D01*
X187626812Y-127254264D01*
X188187149Y-127022738D01*
X188616231Y-126594404D01*
X188848735Y-126034472D01*
X188849264Y-125428188D01*
X188617738Y-124867851D01*
X188189404Y-124438769D01*
X187629472Y-124206265D01*
X187023188Y-124205736D01*
X186462851Y-124437262D01*
X186272707Y-124627073D01*
X186212327Y-124481302D01*
X186033699Y-124302673D01*
X185918559Y-124254980D01*
X187408420Y-122765120D01*
X187408421Y-122765120D01*
X187628662Y-122435507D01*
X187628662Y-122435506D01*
X187641492Y-122370999D01*
X187705999Y-122046700D01*
X187706000Y-122046700D01*
X187706000Y-118236713D01*
X187938698Y-118140327D01*
X188117327Y-117961699D01*
X188177682Y-117815988D01*
X188365596Y-118004231D01*
X188925528Y-118236735D01*
X189531812Y-118237264D01*
X190092149Y-118005738D01*
X190500335Y-117598262D01*
X190905596Y-118004231D01*
X191465528Y-118236735D01*
X192071812Y-118237264D01*
X192632149Y-118005738D01*
X193061231Y-117577404D01*
X193293735Y-117017472D01*
X193294264Y-116411188D01*
X193294264Y-124793188D01*
X193062738Y-124232851D01*
X192634404Y-123803769D01*
X192074472Y-123571265D01*
X191468188Y-123570736D01*
X190907851Y-123802262D01*
X190478769Y-124230596D01*
X190246265Y-124790528D01*
X190245736Y-125396812D01*
X190477262Y-125957149D01*
X190667073Y-126147291D01*
X190521301Y-126207673D01*
X190342673Y-126386302D01*
X190246000Y-126619691D01*
X190246000Y-127349250D01*
X190404750Y-127508000D01*
X191643000Y-127508000D01*
X191643000Y-127488000D01*
X191897000Y-127488000D01*
X191897000Y-127508000D01*
X193135250Y-127508000D01*
X193294000Y-127349250D01*
X193294000Y-126619691D01*
X193197327Y-126386302D01*
X193018699Y-126207673D01*
X192872988Y-126147317D01*
X193061231Y-125959404D01*
X193293735Y-125399472D01*
X193294264Y-124793188D01*
X193294264Y-134953188D01*
X193294000Y-134952549D01*
X193294000Y-128650309D01*
X193294000Y-127920750D01*
X193135250Y-127762000D01*
X191897000Y-127762000D01*
X191897000Y-129000250D01*
X192055750Y-129159000D01*
X192532691Y-129159000D01*
X192785310Y-129159000D01*
X193018699Y-129062327D01*
X193197327Y-128883698D01*
X193294000Y-128650309D01*
X193294000Y-134952549D01*
X193062738Y-134392851D01*
X192634404Y-133963769D01*
X192074472Y-133731265D01*
X191643000Y-133730888D01*
X191643000Y-129000250D01*
X191643000Y-127762000D01*
X190404750Y-127762000D01*
X190246000Y-127920750D01*
X190246000Y-128650309D01*
X190342673Y-128883698D01*
X190521301Y-129062327D01*
X190754690Y-129159000D01*
X191007309Y-129159000D01*
X191484250Y-129159000D01*
X191643000Y-129000250D01*
X191643000Y-133730888D01*
X191468188Y-133730736D01*
X190907851Y-133962262D01*
X190478769Y-134390596D01*
X190246265Y-134950528D01*
X190245736Y-135556812D01*
X190477262Y-136117149D01*
X190667073Y-136307291D01*
X190521301Y-136367673D01*
X190342673Y-136546302D01*
X190246000Y-136779691D01*
X190246000Y-137509250D01*
X190404750Y-137668000D01*
X191643000Y-137668000D01*
X191643000Y-137648000D01*
X191897000Y-137648000D01*
X191897000Y-137668000D01*
X193135250Y-137668000D01*
X193294000Y-137509250D01*
X193294000Y-136779691D01*
X193197327Y-136546302D01*
X193018699Y-136367673D01*
X192872988Y-136307317D01*
X193061231Y-136119404D01*
X193293735Y-135559472D01*
X193294264Y-134953188D01*
X193294264Y-140843000D01*
X193294000Y-140843000D01*
X193294000Y-138810309D01*
X193294000Y-138080750D01*
X193135250Y-137922000D01*
X191897000Y-137922000D01*
X191897000Y-139160250D01*
X192055750Y-139319000D01*
X192532691Y-139319000D01*
X192785310Y-139319000D01*
X193018699Y-139222327D01*
X193197327Y-139043698D01*
X193294000Y-138810309D01*
X193294000Y-140843000D01*
X191643000Y-140843000D01*
X191643000Y-139160250D01*
X191643000Y-137922000D01*
X190404750Y-137922000D01*
X190246000Y-138080750D01*
X190246000Y-138810309D01*
X190342673Y-139043698D01*
X190521301Y-139222327D01*
X190754690Y-139319000D01*
X191007309Y-139319000D01*
X191484250Y-139319000D01*
X191643000Y-139160250D01*
X191643000Y-140843000D01*
X188860516Y-140843000D01*
X188860516Y-139303035D01*
X188849264Y-139038787D01*
X188849264Y-133683188D01*
X188617738Y-133122851D01*
X188189404Y-132693769D01*
X187629472Y-132461265D01*
X187023188Y-132460736D01*
X186462851Y-132692262D01*
X186033769Y-133120596D01*
X185801265Y-133680528D01*
X185800736Y-134286812D01*
X186032262Y-134847149D01*
X186460596Y-135276231D01*
X187020528Y-135508735D01*
X187626812Y-135509264D01*
X188187149Y-135277738D01*
X188616231Y-134849404D01*
X188848735Y-134289472D01*
X188849264Y-133683188D01*
X188849264Y-139038787D01*
X188834723Y-138697300D01*
X188652539Y-138257467D01*
X188397196Y-138172409D01*
X188217591Y-138352014D01*
X188217591Y-137992804D01*
X188132533Y-137737461D01*
X187563035Y-137529484D01*
X186957300Y-137555277D01*
X186517467Y-137737461D01*
X186432409Y-137992804D01*
X187325000Y-138885395D01*
X188217591Y-137992804D01*
X188217591Y-138352014D01*
X187504605Y-139065000D01*
X188397196Y-139957591D01*
X188652539Y-139872533D01*
X188860516Y-139303035D01*
X188860516Y-140843000D01*
X188217591Y-140843000D01*
X188217591Y-140137196D01*
X187325000Y-139244605D01*
X187145395Y-139424210D01*
X187145395Y-139065000D01*
X186252804Y-138172409D01*
X185997461Y-138257467D01*
X185789484Y-138826965D01*
X185815277Y-139432700D01*
X185997461Y-139872533D01*
X186252804Y-139957591D01*
X187145395Y-139065000D01*
X187145395Y-139424210D01*
X186432409Y-140137196D01*
X186517467Y-140392539D01*
X187086965Y-140600516D01*
X187692700Y-140574723D01*
X188132533Y-140392539D01*
X188217591Y-140137196D01*
X188217591Y-140843000D01*
X184415516Y-140843000D01*
X183772591Y-140843000D01*
X183772591Y-139121196D01*
X182880000Y-138228605D01*
X182700395Y-138408210D01*
X181987409Y-139121196D01*
X182072467Y-139376539D01*
X182641965Y-139584516D01*
X183247700Y-139558723D01*
X183687533Y-139376539D01*
X183772591Y-139121196D01*
X183772591Y-140843000D01*
X178065516Y-140843000D01*
X177422591Y-140843000D01*
X177422591Y-139121196D01*
X176530000Y-138228605D01*
X176350395Y-138408210D01*
X175637409Y-139121196D01*
X175722467Y-139376539D01*
X176291965Y-139584516D01*
X176897700Y-139558723D01*
X177337533Y-139376539D01*
X177422591Y-139121196D01*
X177422591Y-140843000D01*
X173620516Y-140843000D01*
X173620516Y-139303035D01*
X173609264Y-139038787D01*
X173609264Y-131143188D01*
X173377738Y-130582851D01*
X172949404Y-130153769D01*
X172389472Y-129921265D01*
X171783188Y-129920736D01*
X171222851Y-130152262D01*
X170793769Y-130580596D01*
X170561265Y-131140528D01*
X170560736Y-131746812D01*
X170792262Y-132307149D01*
X171220596Y-132736231D01*
X171780528Y-132968735D01*
X172386812Y-132969264D01*
X172947149Y-132737738D01*
X173376231Y-132309404D01*
X173608735Y-131749472D01*
X173609264Y-131143188D01*
X173609264Y-139038787D01*
X173594723Y-138697300D01*
X173412539Y-138257467D01*
X173157196Y-138172409D01*
X172977591Y-138352014D01*
X172977591Y-137992804D01*
X172892533Y-137737461D01*
X172323035Y-137529484D01*
X171717300Y-137555277D01*
X171277467Y-137737461D01*
X171192409Y-137992804D01*
X172085000Y-138885395D01*
X172977591Y-137992804D01*
X172977591Y-138352014D01*
X172264605Y-139065000D01*
X173157196Y-139957591D01*
X173412539Y-139872533D01*
X173620516Y-139303035D01*
X173620516Y-140843000D01*
X172977591Y-140843000D01*
X172977591Y-140137196D01*
X172085000Y-139244605D01*
X171905395Y-139424210D01*
X171905395Y-139065000D01*
X171012804Y-138172409D01*
X170757461Y-138257467D01*
X170549484Y-138826965D01*
X170575277Y-139432700D01*
X170757461Y-139872533D01*
X171012804Y-139957591D01*
X171905395Y-139065000D01*
X171905395Y-139424210D01*
X171192409Y-140137196D01*
X171277467Y-140392539D01*
X171846965Y-140600516D01*
X172452700Y-140574723D01*
X172892533Y-140392539D01*
X172977591Y-140137196D01*
X172977591Y-140843000D01*
X169164264Y-140843000D01*
X169164264Y-136858188D01*
X168932738Y-136297851D01*
X168504404Y-135868769D01*
X167944472Y-135636265D01*
X167338188Y-135635736D01*
X166777851Y-135867262D01*
X166348769Y-136295596D01*
X166116265Y-136855528D01*
X166115736Y-137461812D01*
X166347262Y-138022149D01*
X166775596Y-138451231D01*
X167335528Y-138683735D01*
X167941812Y-138684264D01*
X168502149Y-138452738D01*
X168931231Y-138024404D01*
X169163735Y-137464472D01*
X169164264Y-136858188D01*
X169164264Y-140843000D01*
X139192000Y-140843000D01*
X139192000Y-104902000D01*
X194818000Y-104902000D01*
X194818000Y-140843000D01*
X194818000Y-140843000D01*
G37*
X194818000Y-140843000D02*
X193294264Y-140843000D01*
X193294264Y-134953188D01*
X193294264Y-124793188D01*
X193294264Y-116411188D01*
X193294000Y-116410549D01*
X193294000Y-110870310D01*
X193294000Y-110617691D01*
X193294000Y-108839691D01*
X193197327Y-108606302D01*
X193018699Y-108427673D01*
X192785310Y-108331000D01*
X192532691Y-108331000D01*
X190754691Y-108331000D01*
X190521302Y-108427673D01*
X190342673Y-108606301D01*
X190282317Y-108752011D01*
X190094404Y-108563769D01*
X189534472Y-108331265D01*
X188928188Y-108330736D01*
X188367851Y-108562262D01*
X187959664Y-108969737D01*
X187554404Y-108563769D01*
X186994472Y-108331265D01*
X186388188Y-108330736D01*
X185827851Y-108562262D01*
X185398769Y-108990596D01*
X185166265Y-109550528D01*
X185165736Y-110156812D01*
X185397262Y-110717149D01*
X185825596Y-111146231D01*
X186385528Y-111378735D01*
X186991812Y-111379264D01*
X187552149Y-111147738D01*
X187960335Y-110740262D01*
X188365596Y-111146231D01*
X188925528Y-111378735D01*
X189531812Y-111379264D01*
X190092149Y-111147738D01*
X190282292Y-110957926D01*
X190342673Y-111103698D01*
X190521301Y-111282327D01*
X190754690Y-111379000D01*
X191007309Y-111379000D01*
X192785309Y-111379000D01*
X193018698Y-111282327D01*
X193197327Y-111103699D01*
X193294000Y-110870310D01*
X193294000Y-116410549D01*
X193062738Y-115850851D01*
X192634404Y-115421769D01*
X192074472Y-115189265D01*
X191682763Y-115188923D01*
X190224020Y-113730180D01*
X189894407Y-113509938D01*
X189829899Y-113497107D01*
X189505600Y-113432600D01*
X183559340Y-113432600D01*
X181505740Y-111379000D01*
X182625309Y-111379000D01*
X182858698Y-111282327D01*
X183037327Y-111103699D01*
X183134000Y-110870310D01*
X183134000Y-110617691D01*
X183134000Y-108839691D01*
X183037327Y-108606302D01*
X182858699Y-108427673D01*
X182625310Y-108331000D01*
X182372691Y-108331000D01*
X180594691Y-108331000D01*
X180361302Y-108427673D01*
X180182673Y-108606301D01*
X180122317Y-108752011D01*
X179934404Y-108563769D01*
X179374472Y-108331265D01*
X178768188Y-108330736D01*
X178207851Y-108562262D01*
X177799664Y-108969737D01*
X177394404Y-108563769D01*
X176834472Y-108331265D01*
X176228188Y-108330736D01*
X175667851Y-108562262D01*
X175238769Y-108990596D01*
X175006265Y-109550528D01*
X175005736Y-110156812D01*
X175237262Y-110717149D01*
X175665596Y-111146231D01*
X176225528Y-111378735D01*
X176529243Y-111379000D01*
X168906592Y-111379000D01*
X168931231Y-111354404D01*
X169163735Y-110794472D01*
X169164264Y-110188188D01*
X168932738Y-109627851D01*
X168504404Y-109198769D01*
X167944472Y-108966265D01*
X167338188Y-108965736D01*
X166777851Y-109197262D01*
X166348769Y-109625596D01*
X166116265Y-110185528D01*
X166115736Y-110791812D01*
X166347262Y-111352149D01*
X166374066Y-111379000D01*
X165731592Y-111379000D01*
X165756231Y-111354404D01*
X165988735Y-110794472D01*
X165989264Y-110188188D01*
X165757738Y-109627851D01*
X165329404Y-109198769D01*
X164769472Y-108966265D01*
X164163188Y-108965736D01*
X163602851Y-109197262D01*
X163448886Y-109350958D01*
X163449264Y-108918188D01*
X163217738Y-108357851D01*
X162789404Y-107928769D01*
X162229472Y-107696265D01*
X161623188Y-107695736D01*
X161062851Y-107927262D01*
X160633769Y-108355596D01*
X160401265Y-108915528D01*
X160400736Y-109521812D01*
X160597657Y-109998400D01*
X160584340Y-109998400D01*
X160447720Y-109861780D01*
X160118107Y-109641538D01*
X160053599Y-109628707D01*
X159729300Y-109564200D01*
X156882100Y-109564200D01*
X156493294Y-109641538D01*
X156383921Y-109714619D01*
X156163679Y-109861780D01*
X152106459Y-113919000D01*
X151902644Y-113919000D01*
X151872657Y-113874120D01*
X151997698Y-113822327D01*
X152176327Y-113643699D01*
X152273000Y-113410310D01*
X152273000Y-113157691D01*
X152273000Y-111379691D01*
X152176327Y-111146302D01*
X151997699Y-110967673D01*
X151764310Y-110871000D01*
X151511691Y-110871000D01*
X149225691Y-110871000D01*
X148992302Y-110967673D01*
X148813673Y-111146301D01*
X148717242Y-111379105D01*
X148717242Y-109324339D01*
X148505010Y-108810697D01*
X148112370Y-108417371D01*
X147599100Y-108204243D01*
X147043339Y-108203758D01*
X146529697Y-108415990D01*
X146177242Y-108767830D01*
X146177242Y-106784339D01*
X145965010Y-106270697D01*
X145572370Y-105877371D01*
X145059100Y-105664243D01*
X144503339Y-105663758D01*
X143989697Y-105875990D01*
X143596371Y-106268630D01*
X143383243Y-106781900D01*
X143383034Y-107021125D01*
X142200195Y-108203964D01*
X141963339Y-108203758D01*
X141449697Y-108415990D01*
X141056371Y-108808630D01*
X140843243Y-109321900D01*
X140842758Y-109877661D01*
X141054990Y-110391303D01*
X141447630Y-110784629D01*
X141960900Y-110997757D01*
X142516661Y-110998242D01*
X143030303Y-110786010D01*
X143423629Y-110393370D01*
X143636757Y-109880100D01*
X143636965Y-109640874D01*
X144819805Y-108458035D01*
X145056661Y-108458242D01*
X145570303Y-108246010D01*
X145963629Y-107853370D01*
X146176757Y-107340100D01*
X146177242Y-106784339D01*
X146177242Y-108767830D01*
X146136371Y-108808630D01*
X145923243Y-109321900D01*
X145922758Y-109877661D01*
X146134990Y-110391303D01*
X146527630Y-110784629D01*
X147040900Y-110997757D01*
X147596661Y-110998242D01*
X148110303Y-110786010D01*
X148503629Y-110393370D01*
X148716757Y-109880100D01*
X148717242Y-109324339D01*
X148717242Y-111379105D01*
X148717000Y-111379690D01*
X148717000Y-111632309D01*
X148717000Y-113410309D01*
X148813673Y-113643698D01*
X148992301Y-113822327D01*
X149117342Y-113874121D01*
X148798175Y-114351790D01*
X148682167Y-114935000D01*
X148798175Y-115518210D01*
X149128536Y-116012631D01*
X149416437Y-116205000D01*
X149128536Y-116397369D01*
X149087355Y-116459000D01*
X148462700Y-116459000D01*
X148073894Y-116536338D01*
X147744280Y-116756580D01*
X147524038Y-117086194D01*
X147447264Y-117472164D01*
X147447264Y-115522188D01*
X147215738Y-114961851D01*
X146787404Y-114532769D01*
X146227472Y-114300265D01*
X145621188Y-114299736D01*
X145060851Y-114531262D01*
X144631769Y-114959596D01*
X144399265Y-115519528D01*
X144398736Y-116125812D01*
X144630262Y-116686149D01*
X145058596Y-117115231D01*
X145618528Y-117347735D01*
X146224812Y-117348264D01*
X146785149Y-117116738D01*
X147214231Y-116688404D01*
X147446735Y-116128472D01*
X147447264Y-115522188D01*
X147447264Y-117472164D01*
X147446700Y-117475000D01*
X147446700Y-120864542D01*
X147432723Y-120536300D01*
X147250539Y-120096467D01*
X146995196Y-120011409D01*
X146815591Y-120191014D01*
X146815591Y-119831804D01*
X146730533Y-119576461D01*
X146161035Y-119368484D01*
X145555300Y-119394277D01*
X145115467Y-119576461D01*
X145030409Y-119831804D01*
X145923000Y-120724395D01*
X146815591Y-119831804D01*
X146815591Y-120191014D01*
X146102605Y-120904000D01*
X146995196Y-121796591D01*
X147250539Y-121711533D01*
X147446700Y-121174390D01*
X147446700Y-122427700D01*
X147511207Y-122751999D01*
X147524038Y-122816507D01*
X147744280Y-123146120D01*
X147788159Y-123189999D01*
X147407084Y-123571075D01*
X147018188Y-123570736D01*
X146815591Y-123654447D01*
X146815591Y-121976196D01*
X145923000Y-121083605D01*
X145743395Y-121263210D01*
X145743395Y-120904000D01*
X144850804Y-120011409D01*
X144595461Y-120096467D01*
X144387484Y-120665965D01*
X144413277Y-121271700D01*
X144595461Y-121711533D01*
X144850804Y-121796591D01*
X145743395Y-120904000D01*
X145743395Y-121263210D01*
X145030409Y-121976196D01*
X145115467Y-122231539D01*
X145684965Y-122439516D01*
X146290700Y-122413723D01*
X146730533Y-122231539D01*
X146815591Y-121976196D01*
X146815591Y-123654447D01*
X146457851Y-123802262D01*
X146028769Y-124230596D01*
X145796265Y-124790528D01*
X145795736Y-125396812D01*
X146027262Y-125957149D01*
X146455596Y-126386231D01*
X147015528Y-126618735D01*
X147621812Y-126619264D01*
X148182149Y-126387738D01*
X148611231Y-125959404D01*
X148843735Y-125399472D01*
X148844076Y-125007763D01*
X148865716Y-124986124D01*
X148995596Y-125116231D01*
X149555528Y-125348735D01*
X150161812Y-125349264D01*
X150722149Y-125117738D01*
X151151231Y-124689404D01*
X151383735Y-124129472D01*
X151384264Y-123523188D01*
X151152738Y-122962851D01*
X150724404Y-122533769D01*
X150164472Y-122301265D01*
X149772763Y-122300923D01*
X149478700Y-122006860D01*
X149478700Y-121325243D01*
X149540458Y-121374392D01*
X150114000Y-121539000D01*
X150368000Y-121539000D01*
X150368000Y-120142000D01*
X150348000Y-120142000D01*
X150348000Y-119888000D01*
X150368000Y-119888000D01*
X150368000Y-119868000D01*
X150622000Y-119868000D01*
X150622000Y-119888000D01*
X152108330Y-119888000D01*
X152229134Y-119651987D01*
X152205593Y-119549122D01*
X151916433Y-119027171D01*
X151567205Y-118749247D01*
X151861464Y-118552631D01*
X152191825Y-118058210D01*
X152307833Y-117475000D01*
X152191825Y-116891790D01*
X151861464Y-116397369D01*
X151573562Y-116205000D01*
X151861464Y-116012631D01*
X151902644Y-115951000D01*
X152527300Y-115951000D01*
X152527300Y-115950999D01*
X152851599Y-115886492D01*
X152916106Y-115873662D01*
X152916107Y-115873662D01*
X153245720Y-115653420D01*
X156335676Y-112563464D01*
X156418175Y-112978210D01*
X156748536Y-113472631D01*
X157036437Y-113665000D01*
X156748536Y-113857369D01*
X156707355Y-113919000D01*
X156082700Y-113919000D01*
X155693894Y-113996338D01*
X155584521Y-114069419D01*
X155364279Y-114216580D01*
X154982780Y-114598080D01*
X154762538Y-114927693D01*
X154749707Y-114992200D01*
X154685200Y-115316500D01*
X154685200Y-126491200D01*
X154749707Y-126815499D01*
X154762538Y-126880007D01*
X154982780Y-127209620D01*
X155956075Y-128182915D01*
X155955736Y-128571812D01*
X156187262Y-129132149D01*
X156615596Y-129561231D01*
X157175528Y-129793735D01*
X157781812Y-129794264D01*
X158342149Y-129562738D01*
X158771231Y-129134404D01*
X159003735Y-128574472D01*
X159004264Y-127968188D01*
X158772738Y-127407851D01*
X158344404Y-126978769D01*
X157784472Y-126746265D01*
X157392763Y-126745923D01*
X156717200Y-126070359D01*
X156717200Y-125158420D01*
X157175528Y-125348735D01*
X157781812Y-125349264D01*
X158342149Y-125117738D01*
X158771231Y-124689404D01*
X159003735Y-124129472D01*
X159004264Y-123523188D01*
X158772738Y-122962851D01*
X158577684Y-122767456D01*
X158833420Y-122511720D01*
X158833421Y-122511720D01*
X159053662Y-122182107D01*
X159053662Y-122182106D01*
X159131000Y-121793300D01*
X159131000Y-121326803D01*
X159481464Y-121092631D01*
X159811825Y-120598210D01*
X159927833Y-120015000D01*
X159811825Y-119431790D01*
X159481464Y-118937369D01*
X159193562Y-118745000D01*
X159481464Y-118552631D01*
X159811825Y-118058210D01*
X159927833Y-117475000D01*
X159811825Y-116891790D01*
X159481464Y-116397369D01*
X159193562Y-116205000D01*
X159481464Y-116012631D01*
X159811825Y-115518210D01*
X159927833Y-114935000D01*
X159811825Y-114351790D01*
X159481464Y-113857369D01*
X159193562Y-113665000D01*
X159481464Y-113472631D01*
X159522644Y-113411000D01*
X177992359Y-113411000D01*
X179938348Y-115356988D01*
X179477851Y-115547262D01*
X179048769Y-115975596D01*
X178816265Y-116535528D01*
X178815736Y-117141812D01*
X179047262Y-117702149D01*
X179475596Y-118131231D01*
X179872300Y-118295956D01*
X179872300Y-119332981D01*
X179374472Y-119126265D01*
X178768188Y-119125736D01*
X178207851Y-119357262D01*
X177778769Y-119785596D01*
X177546265Y-120345528D01*
X177545736Y-120951812D01*
X177777262Y-121512149D01*
X178205596Y-121941231D01*
X178765528Y-122173735D01*
X179371812Y-122174264D01*
X179872300Y-121967467D01*
X179872300Y-126030859D01*
X179157084Y-126746075D01*
X178768188Y-126745736D01*
X178207851Y-126977262D01*
X177778769Y-127405596D01*
X177546265Y-127965528D01*
X177545923Y-128357236D01*
X175859421Y-130043738D01*
X175564472Y-129921265D01*
X175514264Y-129921221D01*
X175514264Y-126698188D01*
X175282738Y-126137851D01*
X175092926Y-125947707D01*
X175238698Y-125887327D01*
X175417327Y-125708699D01*
X175514000Y-125475310D01*
X175514000Y-125222691D01*
X175514000Y-123444691D01*
X175417327Y-123211302D01*
X175238699Y-123032673D01*
X175005310Y-122936000D01*
X174752691Y-122936000D01*
X174244264Y-122936000D01*
X174244264Y-119078188D01*
X174012738Y-118517851D01*
X173605262Y-118109664D01*
X174011231Y-117704404D01*
X174243735Y-117144472D01*
X174244264Y-116538188D01*
X174012738Y-115977851D01*
X173584404Y-115548769D01*
X173024472Y-115316265D01*
X172418188Y-115315736D01*
X171857851Y-115547262D01*
X171428769Y-115975596D01*
X171196265Y-116535528D01*
X171195736Y-117141812D01*
X171427262Y-117702149D01*
X171834737Y-118110335D01*
X171428769Y-118515596D01*
X171196265Y-119075528D01*
X171195736Y-119681812D01*
X171427262Y-120242149D01*
X171855596Y-120671231D01*
X172415528Y-120903735D01*
X173021812Y-120904264D01*
X173582149Y-120672738D01*
X174011231Y-120244404D01*
X174243735Y-119684472D01*
X174244264Y-119078188D01*
X174244264Y-122936000D01*
X172974691Y-122936000D01*
X172741302Y-123032673D01*
X172562673Y-123211301D01*
X172466000Y-123444690D01*
X172466000Y-123697309D01*
X172466000Y-125475309D01*
X172562673Y-125708698D01*
X172741301Y-125887327D01*
X172887011Y-125947682D01*
X172850629Y-125984000D01*
X170205000Y-125984000D01*
X169816194Y-126061338D01*
X169706821Y-126134419D01*
X169486579Y-126281580D01*
X165961694Y-129806465D01*
X165757738Y-129312851D01*
X165329404Y-128883769D01*
X164769472Y-128651265D01*
X164163188Y-128650736D01*
X163602851Y-128882262D01*
X163173769Y-129310596D01*
X162941265Y-129870528D01*
X162940736Y-130476812D01*
X163172262Y-131037149D01*
X163449000Y-131314370D01*
X163449000Y-131659159D01*
X162828467Y-132279692D01*
X162844099Y-132201100D01*
X162844100Y-132201100D01*
X162844100Y-128301840D01*
X168358420Y-122787520D01*
X168358421Y-122787520D01*
X168578662Y-122457907D01*
X168578662Y-122457906D01*
X168591492Y-122393399D01*
X168655999Y-122069100D01*
X168656000Y-122069100D01*
X168656000Y-116709155D01*
X168931231Y-116434404D01*
X169163735Y-115874472D01*
X169164264Y-115268188D01*
X168932738Y-114707851D01*
X168504404Y-114278769D01*
X167944472Y-114046265D01*
X167338188Y-114045736D01*
X166777851Y-114277262D01*
X166348769Y-114705596D01*
X166116265Y-115265528D01*
X166115736Y-115871812D01*
X166347262Y-116432149D01*
X166624000Y-116709370D01*
X166624000Y-121648259D01*
X165989264Y-122282995D01*
X165989264Y-115268188D01*
X165757738Y-114707851D01*
X165329404Y-114278769D01*
X164769472Y-114046265D01*
X164163188Y-114045736D01*
X163602851Y-114277262D01*
X163173769Y-114705596D01*
X162941265Y-115265528D01*
X162940885Y-115700514D01*
X162789404Y-115548769D01*
X162229472Y-115316265D01*
X161623188Y-115315736D01*
X161062851Y-115547262D01*
X160633769Y-115975596D01*
X160401265Y-116535528D01*
X160400736Y-117141812D01*
X160632262Y-117702149D01*
X161060596Y-118131231D01*
X161479540Y-118305191D01*
X161268769Y-118515596D01*
X161036265Y-119075528D01*
X161035736Y-119681812D01*
X161267262Y-120242149D01*
X161695596Y-120671231D01*
X162255528Y-120903735D01*
X162861812Y-120904264D01*
X163422149Y-120672738D01*
X163851231Y-120244404D01*
X164083735Y-119684472D01*
X164084076Y-119292763D01*
X165183420Y-118193420D01*
X165183421Y-118193420D01*
X165403662Y-117863807D01*
X165403662Y-117863806D01*
X165416492Y-117799299D01*
X165480999Y-117475000D01*
X165481000Y-117475000D01*
X165481000Y-116709155D01*
X165756231Y-116434404D01*
X165988735Y-115874472D01*
X165989264Y-115268188D01*
X165989264Y-122282995D01*
X161109680Y-127162580D01*
X160889438Y-127492193D01*
X160876607Y-127556700D01*
X160812100Y-127881000D01*
X160812100Y-130123745D01*
X160324472Y-129921265D01*
X159718188Y-129920736D01*
X159157851Y-130152262D01*
X158728769Y-130580596D01*
X158496265Y-131140528D01*
X158495736Y-131746812D01*
X158727262Y-132307149D01*
X159155596Y-132736231D01*
X159650589Y-132941770D01*
X158369264Y-134223095D01*
X158369264Y-133048188D01*
X158137738Y-132487851D01*
X157709404Y-132058769D01*
X157149472Y-131826265D01*
X156714485Y-131825885D01*
X156866231Y-131674404D01*
X157098735Y-131114472D01*
X157099264Y-130508188D01*
X156867738Y-129947851D01*
X156439404Y-129518769D01*
X155879472Y-129286265D01*
X155273188Y-129285736D01*
X154712851Y-129517262D01*
X154283769Y-129945596D01*
X154051265Y-130505528D01*
X154050736Y-131111812D01*
X154282262Y-131672149D01*
X154710596Y-132101231D01*
X155270528Y-132333735D01*
X155705514Y-132334114D01*
X155553769Y-132485596D01*
X155321265Y-133045528D01*
X155320736Y-133651812D01*
X155552262Y-134212149D01*
X155980596Y-134641231D01*
X156540528Y-134873735D01*
X157146812Y-134874264D01*
X157707149Y-134642738D01*
X158136231Y-134214404D01*
X158368735Y-133654472D01*
X158369264Y-133048188D01*
X158369264Y-134223095D01*
X156885798Y-135706561D01*
X156867738Y-135662851D01*
X156439404Y-135233769D01*
X155879472Y-135001265D01*
X155273188Y-135000736D01*
X154712851Y-135232262D01*
X154304664Y-135639737D01*
X153899404Y-135233769D01*
X153339472Y-135001265D01*
X152733188Y-135000736D01*
X152229134Y-135209006D01*
X152229134Y-120378013D01*
X152108330Y-120142000D01*
X150622000Y-120142000D01*
X150622000Y-121539000D01*
X150876000Y-121539000D01*
X151449542Y-121374392D01*
X151916433Y-121002829D01*
X152205593Y-120480878D01*
X152229134Y-120378013D01*
X152229134Y-135209006D01*
X152172851Y-135232262D01*
X151982707Y-135422073D01*
X151922327Y-135276302D01*
X151743699Y-135097673D01*
X151510310Y-135001000D01*
X151257691Y-135001000D01*
X149479691Y-135001000D01*
X149246302Y-135097673D01*
X149067673Y-135276301D01*
X148971000Y-135509690D01*
X148971000Y-135762309D01*
X148971000Y-137540309D01*
X149067673Y-137773698D01*
X149246301Y-137952327D01*
X149479690Y-138049000D01*
X149732309Y-138049000D01*
X150582159Y-138049000D01*
X151112959Y-138579800D01*
X146036225Y-138579800D01*
X146207327Y-138408699D01*
X146303714Y-138176000D01*
X146558300Y-138176000D01*
X146947106Y-138098662D01*
X147276720Y-137878420D01*
X147496962Y-137548806D01*
X147574300Y-137160000D01*
X147574300Y-136437540D01*
X149137916Y-134873924D01*
X149526812Y-134874264D01*
X150087149Y-134642738D01*
X150516231Y-134214404D01*
X150748735Y-133654472D01*
X150749264Y-133048188D01*
X150517738Y-132487851D01*
X150364041Y-132333886D01*
X150796812Y-132334264D01*
X151357149Y-132102738D01*
X151786231Y-131674404D01*
X152018735Y-131114472D01*
X152019264Y-130508188D01*
X151787738Y-129947851D01*
X151511000Y-129670629D01*
X151511000Y-128905000D01*
X151433662Y-128516194D01*
X151433662Y-128516193D01*
X151383850Y-128441645D01*
X151384264Y-127968188D01*
X151152738Y-127407851D01*
X150724404Y-126978769D01*
X150164472Y-126746265D01*
X149558188Y-126745736D01*
X148997851Y-126977262D01*
X148568769Y-127405596D01*
X148336265Y-127965528D01*
X148335736Y-128571812D01*
X148567262Y-129132149D01*
X148995596Y-129561231D01*
X149414540Y-129735191D01*
X149203769Y-129945596D01*
X148971265Y-130505528D01*
X148970736Y-131111812D01*
X149202262Y-131672149D01*
X149355958Y-131826113D01*
X148923188Y-131825736D01*
X148362851Y-132057262D01*
X147933769Y-132485596D01*
X147701265Y-133045528D01*
X147700923Y-133437236D01*
X145839880Y-135298280D01*
X145619638Y-135627893D01*
X145618025Y-135636000D01*
X145542691Y-135636000D01*
X143764691Y-135636000D01*
X143764000Y-135636286D01*
X143764000Y-133095309D01*
X143764000Y-132365750D01*
X143605250Y-132207000D01*
X142367000Y-132207000D01*
X142367000Y-133445250D01*
X142525750Y-133604000D01*
X143002691Y-133604000D01*
X143255310Y-133604000D01*
X143488699Y-133507327D01*
X143667327Y-133328698D01*
X143764000Y-133095309D01*
X143764000Y-135636286D01*
X143531302Y-135732673D01*
X143352673Y-135911301D01*
X143303641Y-136029673D01*
X143247180Y-135973212D01*
X143132590Y-136087801D01*
X143047533Y-135832461D01*
X142478035Y-135624484D01*
X141872300Y-135650277D01*
X141477600Y-135813766D01*
X141477600Y-133604000D01*
X141954250Y-133604000D01*
X142113000Y-133445250D01*
X142113000Y-132207000D01*
X142093000Y-132207000D01*
X142093000Y-131953000D01*
X142113000Y-131953000D01*
X142113000Y-131933000D01*
X142367000Y-131933000D01*
X142367000Y-131953000D01*
X143605250Y-131953000D01*
X143764000Y-131794250D01*
X143764000Y-131064691D01*
X143667327Y-130831302D01*
X143488699Y-130652673D01*
X143342988Y-130592317D01*
X143531231Y-130404404D01*
X143763735Y-129844472D01*
X143764264Y-129238188D01*
X143532738Y-128677851D01*
X143256000Y-128400629D01*
X143256000Y-126234155D01*
X143531231Y-125959404D01*
X143763735Y-125399472D01*
X143764264Y-124793188D01*
X143637264Y-124485823D01*
X143637264Y-121491188D01*
X143637264Y-113871188D01*
X143405738Y-113310851D01*
X142977404Y-112881769D01*
X142417472Y-112649265D01*
X141811188Y-112648736D01*
X141250851Y-112880262D01*
X140821769Y-113308596D01*
X140589265Y-113868528D01*
X140588736Y-114474812D01*
X140820262Y-115035149D01*
X141248596Y-115464231D01*
X141808528Y-115696735D01*
X142414812Y-115697264D01*
X142975149Y-115465738D01*
X143404231Y-115037404D01*
X143636735Y-114477472D01*
X143637264Y-113871188D01*
X143637264Y-121491188D01*
X143405738Y-120930851D01*
X142977404Y-120501769D01*
X142417472Y-120269265D01*
X141811188Y-120268736D01*
X141250851Y-120500262D01*
X140821769Y-120928596D01*
X140589265Y-121488528D01*
X140588736Y-122094812D01*
X140820262Y-122655149D01*
X141248596Y-123084231D01*
X141808528Y-123316735D01*
X142414812Y-123317264D01*
X142975149Y-123085738D01*
X143404231Y-122657404D01*
X143636735Y-122097472D01*
X143637264Y-121491188D01*
X143637264Y-124485823D01*
X143532738Y-124232851D01*
X143104404Y-123803769D01*
X142544472Y-123571265D01*
X141938188Y-123570736D01*
X141377851Y-123802262D01*
X140948769Y-124230596D01*
X140716265Y-124790528D01*
X140715736Y-125396812D01*
X140947262Y-125957149D01*
X141224000Y-126234370D01*
X141224000Y-128400844D01*
X140948769Y-128675596D01*
X140799440Y-129035218D01*
X139743180Y-130091480D01*
X139522938Y-130421093D01*
X139510107Y-130485600D01*
X139445600Y-130809900D01*
X139445600Y-137946600D01*
X139510107Y-138270899D01*
X139522938Y-138335407D01*
X139743180Y-138665020D01*
X141392380Y-140314220D01*
X141721993Y-140534462D01*
X141721994Y-140534462D01*
X141786500Y-140547292D01*
X142110800Y-140611800D01*
X159464300Y-140611800D01*
X159464300Y-140611799D01*
X159788599Y-140547292D01*
X159853106Y-140534462D01*
X159853107Y-140534462D01*
X160182720Y-140314220D01*
X162941208Y-137555732D01*
X162940736Y-138096812D01*
X163172262Y-138657149D01*
X163600596Y-139086231D01*
X164160528Y-139318735D01*
X164766812Y-139319264D01*
X165327149Y-139087738D01*
X165756231Y-138659404D01*
X165988735Y-138099472D01*
X165989264Y-137493188D01*
X165757738Y-136932851D01*
X165329404Y-136503769D01*
X164769472Y-136271265D01*
X164226149Y-136270790D01*
X166580020Y-133916921D01*
X166580020Y-133916920D01*
X166727180Y-133696679D01*
X166800261Y-133587307D01*
X166800262Y-133587306D01*
X166838080Y-133397176D01*
X167335528Y-133603735D01*
X167941812Y-133604264D01*
X168502149Y-133372738D01*
X168931231Y-132944404D01*
X169163735Y-132384472D01*
X169164264Y-131778188D01*
X168932738Y-131217851D01*
X168504404Y-130788769D01*
X168044175Y-130597665D01*
X170625840Y-128016000D01*
X172850844Y-128016000D01*
X173125596Y-128291231D01*
X173685528Y-128523735D01*
X174291812Y-128524264D01*
X174852149Y-128292738D01*
X175281231Y-127864404D01*
X175513735Y-127304472D01*
X175514264Y-126698188D01*
X175514264Y-129921221D01*
X174958188Y-129920736D01*
X174397851Y-130152262D01*
X173968769Y-130580596D01*
X173736265Y-131140528D01*
X173735736Y-131746812D01*
X173967262Y-132307149D01*
X174395596Y-132736231D01*
X174955528Y-132968735D01*
X175347236Y-132969076D01*
X175514000Y-133135840D01*
X175514000Y-133985286D01*
X175281302Y-134081673D01*
X175102673Y-134260301D01*
X175006000Y-134493690D01*
X175006000Y-134746309D01*
X175006000Y-136524309D01*
X175102673Y-136757698D01*
X175281301Y-136936327D01*
X175399673Y-136985358D01*
X175343212Y-137041820D01*
X175457801Y-137156409D01*
X175202461Y-137241467D01*
X174994484Y-137810965D01*
X175020277Y-138416700D01*
X175202461Y-138856533D01*
X175457804Y-138941591D01*
X176350395Y-138049000D01*
X176336252Y-138034857D01*
X176515857Y-137855252D01*
X176530000Y-137869395D01*
X176544142Y-137855252D01*
X176723747Y-138034857D01*
X176709605Y-138049000D01*
X177602196Y-138941591D01*
X177857539Y-138856533D01*
X178065516Y-138287035D01*
X178039723Y-137681300D01*
X177857539Y-137241467D01*
X177602198Y-137156409D01*
X177716788Y-137041820D01*
X177660326Y-136985358D01*
X177778698Y-136936327D01*
X177957327Y-136757699D01*
X178054000Y-136524310D01*
X178054000Y-136271691D01*
X178054000Y-134493691D01*
X177957327Y-134260302D01*
X177778699Y-134081673D01*
X177546000Y-133985285D01*
X177546000Y-132715000D01*
X177468662Y-132326194D01*
X177468661Y-132326193D01*
X177395580Y-132216821D01*
X177248420Y-131996580D01*
X177248420Y-131996579D01*
X177014340Y-131762499D01*
X178982916Y-129793924D01*
X179371812Y-129794264D01*
X179932149Y-129562738D01*
X180361231Y-129134404D01*
X180593735Y-128574472D01*
X180594076Y-128182763D01*
X181606720Y-127170120D01*
X181606721Y-127170120D01*
X181826962Y-126840507D01*
X181826962Y-126840506D01*
X181864000Y-126654303D01*
X181864000Y-130305844D01*
X181588769Y-130580596D01*
X181356265Y-131140528D01*
X181355736Y-131746812D01*
X181587262Y-132307149D01*
X181864000Y-132584370D01*
X181864000Y-133985286D01*
X181631302Y-134081673D01*
X181452673Y-134260301D01*
X181356000Y-134493690D01*
X181356000Y-134746309D01*
X181356000Y-136524309D01*
X181452673Y-136757698D01*
X181631301Y-136936327D01*
X181749673Y-136985358D01*
X181693212Y-137041820D01*
X181807801Y-137156409D01*
X181552461Y-137241467D01*
X181344484Y-137810965D01*
X181370277Y-138416700D01*
X181552461Y-138856533D01*
X181807804Y-138941591D01*
X182700395Y-138049000D01*
X182686252Y-138034857D01*
X182865857Y-137855252D01*
X182880000Y-137869395D01*
X182894142Y-137855252D01*
X183073747Y-138034857D01*
X183059605Y-138049000D01*
X183952196Y-138941591D01*
X184207539Y-138856533D01*
X184415516Y-138287035D01*
X184389723Y-137681300D01*
X184207539Y-137241467D01*
X183952198Y-137156409D01*
X184066788Y-137041820D01*
X184010326Y-136985358D01*
X184128698Y-136936327D01*
X184307327Y-136757699D01*
X184404000Y-136524310D01*
X184404000Y-136271691D01*
X184404000Y-134493691D01*
X184307327Y-134260302D01*
X184128699Y-134081673D01*
X183896000Y-133985285D01*
X183896000Y-132584155D01*
X184171231Y-132309404D01*
X184403735Y-131749472D01*
X184404264Y-131143188D01*
X184172738Y-130582851D01*
X183896000Y-130305629D01*
X183896000Y-127254000D01*
X184022309Y-127254000D01*
X185800309Y-127254000D01*
X186033698Y-127157327D01*
X186212327Y-126978699D01*
X186272682Y-126832988D01*
X186460596Y-127021231D01*
X187020528Y-127253735D01*
X187626812Y-127254264D01*
X188187149Y-127022738D01*
X188616231Y-126594404D01*
X188848735Y-126034472D01*
X188849264Y-125428188D01*
X188617738Y-124867851D01*
X188189404Y-124438769D01*
X187629472Y-124206265D01*
X187023188Y-124205736D01*
X186462851Y-124437262D01*
X186272707Y-124627073D01*
X186212327Y-124481302D01*
X186033699Y-124302673D01*
X185918559Y-124254980D01*
X187408420Y-122765120D01*
X187408421Y-122765120D01*
X187628662Y-122435507D01*
X187628662Y-122435506D01*
X187641492Y-122370999D01*
X187705999Y-122046700D01*
X187706000Y-122046700D01*
X187706000Y-118236713D01*
X187938698Y-118140327D01*
X188117327Y-117961699D01*
X188177682Y-117815988D01*
X188365596Y-118004231D01*
X188925528Y-118236735D01*
X189531812Y-118237264D01*
X190092149Y-118005738D01*
X190500335Y-117598262D01*
X190905596Y-118004231D01*
X191465528Y-118236735D01*
X192071812Y-118237264D01*
X192632149Y-118005738D01*
X193061231Y-117577404D01*
X193293735Y-117017472D01*
X193294264Y-116411188D01*
X193294264Y-124793188D01*
X193062738Y-124232851D01*
X192634404Y-123803769D01*
X192074472Y-123571265D01*
X191468188Y-123570736D01*
X190907851Y-123802262D01*
X190478769Y-124230596D01*
X190246265Y-124790528D01*
X190245736Y-125396812D01*
X190477262Y-125957149D01*
X190667073Y-126147291D01*
X190521301Y-126207673D01*
X190342673Y-126386302D01*
X190246000Y-126619691D01*
X190246000Y-127349250D01*
X190404750Y-127508000D01*
X191643000Y-127508000D01*
X191643000Y-127488000D01*
X191897000Y-127488000D01*
X191897000Y-127508000D01*
X193135250Y-127508000D01*
X193294000Y-127349250D01*
X193294000Y-126619691D01*
X193197327Y-126386302D01*
X193018699Y-126207673D01*
X192872988Y-126147317D01*
X193061231Y-125959404D01*
X193293735Y-125399472D01*
X193294264Y-124793188D01*
X193294264Y-134953188D01*
X193294000Y-134952549D01*
X193294000Y-128650309D01*
X193294000Y-127920750D01*
X193135250Y-127762000D01*
X191897000Y-127762000D01*
X191897000Y-129000250D01*
X192055750Y-129159000D01*
X192532691Y-129159000D01*
X192785310Y-129159000D01*
X193018699Y-129062327D01*
X193197327Y-128883698D01*
X193294000Y-128650309D01*
X193294000Y-134952549D01*
X193062738Y-134392851D01*
X192634404Y-133963769D01*
X192074472Y-133731265D01*
X191643000Y-133730888D01*
X191643000Y-129000250D01*
X191643000Y-127762000D01*
X190404750Y-127762000D01*
X190246000Y-127920750D01*
X190246000Y-128650309D01*
X190342673Y-128883698D01*
X190521301Y-129062327D01*
X190754690Y-129159000D01*
X191007309Y-129159000D01*
X191484250Y-129159000D01*
X191643000Y-129000250D01*
X191643000Y-133730888D01*
X191468188Y-133730736D01*
X190907851Y-133962262D01*
X190478769Y-134390596D01*
X190246265Y-134950528D01*
X190245736Y-135556812D01*
X190477262Y-136117149D01*
X190667073Y-136307291D01*
X190521301Y-136367673D01*
X190342673Y-136546302D01*
X190246000Y-136779691D01*
X190246000Y-137509250D01*
X190404750Y-137668000D01*
X191643000Y-137668000D01*
X191643000Y-137648000D01*
X191897000Y-137648000D01*
X191897000Y-137668000D01*
X193135250Y-137668000D01*
X193294000Y-137509250D01*
X193294000Y-136779691D01*
X193197327Y-136546302D01*
X193018699Y-136367673D01*
X192872988Y-136307317D01*
X193061231Y-136119404D01*
X193293735Y-135559472D01*
X193294264Y-134953188D01*
X193294264Y-140843000D01*
X193294000Y-140843000D01*
X193294000Y-138810309D01*
X193294000Y-138080750D01*
X193135250Y-137922000D01*
X191897000Y-137922000D01*
X191897000Y-139160250D01*
X192055750Y-139319000D01*
X192532691Y-139319000D01*
X192785310Y-139319000D01*
X193018699Y-139222327D01*
X193197327Y-139043698D01*
X193294000Y-138810309D01*
X193294000Y-140843000D01*
X191643000Y-140843000D01*
X191643000Y-139160250D01*
X191643000Y-137922000D01*
X190404750Y-137922000D01*
X190246000Y-138080750D01*
X190246000Y-138810309D01*
X190342673Y-139043698D01*
X190521301Y-139222327D01*
X190754690Y-139319000D01*
X191007309Y-139319000D01*
X191484250Y-139319000D01*
X191643000Y-139160250D01*
X191643000Y-140843000D01*
X188860516Y-140843000D01*
X188860516Y-139303035D01*
X188849264Y-139038787D01*
X188849264Y-133683188D01*
X188617738Y-133122851D01*
X188189404Y-132693769D01*
X187629472Y-132461265D01*
X187023188Y-132460736D01*
X186462851Y-132692262D01*
X186033769Y-133120596D01*
X185801265Y-133680528D01*
X185800736Y-134286812D01*
X186032262Y-134847149D01*
X186460596Y-135276231D01*
X187020528Y-135508735D01*
X187626812Y-135509264D01*
X188187149Y-135277738D01*
X188616231Y-134849404D01*
X188848735Y-134289472D01*
X188849264Y-133683188D01*
X188849264Y-139038787D01*
X188834723Y-138697300D01*
X188652539Y-138257467D01*
X188397196Y-138172409D01*
X188217591Y-138352014D01*
X188217591Y-137992804D01*
X188132533Y-137737461D01*
X187563035Y-137529484D01*
X186957300Y-137555277D01*
X186517467Y-137737461D01*
X186432409Y-137992804D01*
X187325000Y-138885395D01*
X188217591Y-137992804D01*
X188217591Y-138352014D01*
X187504605Y-139065000D01*
X188397196Y-139957591D01*
X188652539Y-139872533D01*
X188860516Y-139303035D01*
X188860516Y-140843000D01*
X188217591Y-140843000D01*
X188217591Y-140137196D01*
X187325000Y-139244605D01*
X187145395Y-139424210D01*
X187145395Y-139065000D01*
X186252804Y-138172409D01*
X185997461Y-138257467D01*
X185789484Y-138826965D01*
X185815277Y-139432700D01*
X185997461Y-139872533D01*
X186252804Y-139957591D01*
X187145395Y-139065000D01*
X187145395Y-139424210D01*
X186432409Y-140137196D01*
X186517467Y-140392539D01*
X187086965Y-140600516D01*
X187692700Y-140574723D01*
X188132533Y-140392539D01*
X188217591Y-140137196D01*
X188217591Y-140843000D01*
X184415516Y-140843000D01*
X183772591Y-140843000D01*
X183772591Y-139121196D01*
X182880000Y-138228605D01*
X182700395Y-138408210D01*
X181987409Y-139121196D01*
X182072467Y-139376539D01*
X182641965Y-139584516D01*
X183247700Y-139558723D01*
X183687533Y-139376539D01*
X183772591Y-139121196D01*
X183772591Y-140843000D01*
X178065516Y-140843000D01*
X177422591Y-140843000D01*
X177422591Y-139121196D01*
X176530000Y-138228605D01*
X176350395Y-138408210D01*
X175637409Y-139121196D01*
X175722467Y-139376539D01*
X176291965Y-139584516D01*
X176897700Y-139558723D01*
X177337533Y-139376539D01*
X177422591Y-139121196D01*
X177422591Y-140843000D01*
X173620516Y-140843000D01*
X173620516Y-139303035D01*
X173609264Y-139038787D01*
X173609264Y-131143188D01*
X173377738Y-130582851D01*
X172949404Y-130153769D01*
X172389472Y-129921265D01*
X171783188Y-129920736D01*
X171222851Y-130152262D01*
X170793769Y-130580596D01*
X170561265Y-131140528D01*
X170560736Y-131746812D01*
X170792262Y-132307149D01*
X171220596Y-132736231D01*
X171780528Y-132968735D01*
X172386812Y-132969264D01*
X172947149Y-132737738D01*
X173376231Y-132309404D01*
X173608735Y-131749472D01*
X173609264Y-131143188D01*
X173609264Y-139038787D01*
X173594723Y-138697300D01*
X173412539Y-138257467D01*
X173157196Y-138172409D01*
X172977591Y-138352014D01*
X172977591Y-137992804D01*
X172892533Y-137737461D01*
X172323035Y-137529484D01*
X171717300Y-137555277D01*
X171277467Y-137737461D01*
X171192409Y-137992804D01*
X172085000Y-138885395D01*
X172977591Y-137992804D01*
X172977591Y-138352014D01*
X172264605Y-139065000D01*
X173157196Y-139957591D01*
X173412539Y-139872533D01*
X173620516Y-139303035D01*
X173620516Y-140843000D01*
X172977591Y-140843000D01*
X172977591Y-140137196D01*
X172085000Y-139244605D01*
X171905395Y-139424210D01*
X171905395Y-139065000D01*
X171012804Y-138172409D01*
X170757461Y-138257467D01*
X170549484Y-138826965D01*
X170575277Y-139432700D01*
X170757461Y-139872533D01*
X171012804Y-139957591D01*
X171905395Y-139065000D01*
X171905395Y-139424210D01*
X171192409Y-140137196D01*
X171277467Y-140392539D01*
X171846965Y-140600516D01*
X172452700Y-140574723D01*
X172892533Y-140392539D01*
X172977591Y-140137196D01*
X172977591Y-140843000D01*
X169164264Y-140843000D01*
X169164264Y-136858188D01*
X168932738Y-136297851D01*
X168504404Y-135868769D01*
X167944472Y-135636265D01*
X167338188Y-135635736D01*
X166777851Y-135867262D01*
X166348769Y-136295596D01*
X166116265Y-136855528D01*
X166115736Y-137461812D01*
X166347262Y-138022149D01*
X166775596Y-138451231D01*
X167335528Y-138683735D01*
X167941812Y-138684264D01*
X168502149Y-138452738D01*
X168931231Y-138024404D01*
X169163735Y-137464472D01*
X169164264Y-136858188D01*
X169164264Y-140843000D01*
X139192000Y-140843000D01*
X139192000Y-104902000D01*
X194818000Y-104902000D01*
X194818000Y-140843000D01*
M02*
